<svg width="30" height="30" xmlns="http://www.w3.org/2000/svg" xmlns:xlink="http://www.w3.org/1999/xlink">
  <g id="vk" width="45" height="45">
    <path d="M22.5 0C10.074 0 0 10.0736 0 22.5C0 34.9264 10.074 45 22.5 45C34.926 45 45 34.9264 45 22.5C45 10.0736 34.926 0 22.5 0ZM33.9132 24.9335C34.9619 25.9577 36.0714 26.9217 37.0128 28.0519C37.4299 28.5519 37.823 29.0688 38.1222 29.6503C38.5495 30.4794 38.1637 31.3886 37.4216 31.4379L32.812 31.4369C31.6215 31.5354 30.6741 31.0553 29.8754 30.2414C29.2378 29.5927 28.6462 28.8999 28.0321 28.2292C27.7812 27.9539 27.517 27.6947 27.2021 27.4907C26.5737 27.0819 26.0277 27.2072 25.6677 27.8636C25.3008 28.5316 25.217 29.2719 25.182 30.0153C25.1319 31.1022 24.8041 31.3863 23.7135 31.4374C21.3832 31.5465 19.1721 31.1929 17.117 30.0181C15.3041 28.9818 13.901 27.5193 12.6783 25.8634C10.2973 22.6353 8.47381 19.0924 6.8354 15.4478C6.46665 14.627 6.73642 14.1878 7.64194 14.1707C9.14639 14.1417 10.6508 14.1454 12.1553 14.1694C12.7676 14.179 13.1727 14.5294 13.4079 15.1071C14.2209 17.1074 15.2176 19.0105 16.4665 20.7755C16.7994 21.2455 17.1391 21.7142 17.623 22.0461C18.157 22.4125 18.5639 22.2915 18.8158 21.6953C18.9769 21.3164 19.0464 20.9113 19.0814 20.5053C19.2011 19.1145 19.2153 17.7242 19.0082 16.339C18.8793 15.4722 18.3918 14.9124 17.5277 14.7485C17.0876 14.6652 17.152 14.5022 17.3661 14.2508C17.7376 13.8163 18.0856 13.5474 18.7812 13.5474L23.9893 13.5465C24.8101 13.7076 24.9942 14.0759 25.1056 14.9027L25.1102 20.6903C25.1006 21.0103 25.2709 21.9586 25.8454 22.1681C26.3058 22.32 26.6096 21.9508 26.8849 21.6594C28.1339 20.334 29.0237 18.7697 29.8206 17.1506C30.1723 16.4366 30.4757 15.6978 30.7703 14.9575C30.9895 14.4101 31.3301 14.1408 31.9479 14.15L36.9631 14.156C37.1108 14.156 37.2609 14.1574 37.4073 14.1827C38.2525 14.3273 38.4841 14.6909 38.2226 15.5154C37.811 16.8109 37.0114 17.89 36.2297 18.9718C35.3919 20.1301 34.4983 21.2478 33.6687 22.4111C32.9064 23.4746 32.9667 24.01 33.9132 24.9335Z"/>
  </g>
  <g id="vk1024" width="60" height="60">
    <path d="M30 0C13.432 0 0 13.4314 0 30C0 46.5686 13.432 60 30 60C46.568 60 60 46.5686 60 30C60 13.4314 46.568 0 30 0ZM45.2176 33.2446C46.6159 34.6103 48.0951 35.8957 49.3504 37.4026C49.9065 38.0692 50.4307 38.7585 50.8297 39.5337C51.3993 40.6392 50.8849 41.8515 49.8954 41.9171L43.7494 41.9159C42.162 42.0473 40.8988 41.4071 39.8339 40.3218C38.9837 39.457 38.195 38.5332 37.3762 37.6389C37.0416 37.2718 36.6893 36.9262 36.2695 36.6543C35.4316 36.1093 34.7036 36.2762 34.2236 37.1515C33.7344 38.0421 33.6227 39.0292 33.5761 40.0205C33.5092 41.4697 33.0721 41.8484 31.618 41.9165C28.5109 42.062 25.5628 41.5906 22.8227 40.0241C20.4055 38.6425 18.5346 36.6924 16.9043 34.4845C13.7297 30.1805 11.2984 25.4566 9.11386 20.597C8.6222 19.5026 8.98189 18.917 10.1893 18.8943C12.1952 18.8557 14.2011 18.8606 16.2071 18.8925C17.0234 18.9054 17.5636 19.3725 17.8772 20.1428C18.9612 22.8098 20.2901 25.3473 21.9554 27.7007C22.3992 28.3274 22.8522 28.9522 23.4973 29.3948C24.2093 29.8834 24.7519 29.7219 25.0877 28.9271C25.3025 28.4219 25.3952 27.8817 25.4418 27.3404C25.6014 25.486 25.6205 23.6323 25.3442 21.7854C25.1724 20.6296 24.5224 19.8832 23.3702 19.6647C22.7834 19.5536 22.8694 19.3363 23.1548 19.0011C23.6501 18.4217 24.1142 18.0632 25.0416 18.0632L31.9857 18.062C33.0801 18.2768 33.3256 18.7679 33.4742 19.8703L33.4803 27.5871C33.4674 28.0137 33.6945 29.2782 34.4606 29.5574C35.0744 29.76 35.4795 29.2677 35.8465 28.8792C37.5118 27.112 38.6983 25.0263 39.7608 22.8675C40.2298 21.9155 40.6343 20.9303 41.0271 19.9433C41.3193 19.2135 41.7735 18.8544 42.5972 18.8667L49.2841 18.8747C49.4811 18.8747 49.6812 18.8765 49.8764 18.9103C51.0034 19.103 51.3121 19.5879 50.9635 20.6873C50.4147 22.4145 49.3485 23.8533 48.3063 25.2958C47.1892 26.8401 45.9977 28.3304 44.8917 29.8815C43.8752 31.2994 43.9556 32.0133 45.2176 33.2446Z"/>
  </g>
  <g id="vk320" width="50" height="50">
    <path d="M25 0C11.1933 0 0 11.1928 0 25C0 38.8072 11.1933 50 25 50C38.8066 50 50 38.8072 50 25C50 11.1928 38.8066 0 25 0ZM37.6813 27.7038C38.8465 28.8419 40.0793 29.913 41.1253 31.1688C41.5887 31.7243 42.0256 32.2987 42.3581 32.9448C42.8327 33.866 42.4041 34.8762 41.5795 34.9309L36.4578 34.9299C35.135 35.0394 34.0824 34.5059 33.1949 33.6015C32.4864 32.8808 31.8292 32.111 31.1468 31.3657C30.868 31.0598 30.5744 30.7719 30.2246 30.5453C29.5263 30.091 28.9197 30.2302 28.5197 30.9596C28.112 31.7018 28.0189 32.5243 27.9801 33.3504C27.9243 34.5581 27.5601 34.8737 26.3483 34.9304C23.7591 35.0517 21.3023 34.6588 19.0189 33.3535C17.0046 32.202 15.4455 30.577 14.087 28.7371C11.4414 25.1504 9.41535 21.2138 7.59488 17.1642C7.18517 16.2522 7.48491 15.7642 8.49105 15.7453C10.1627 15.713 11.8343 15.7171 13.5059 15.7437C14.1862 15.7545 14.6363 16.1437 14.8977 16.7857C15.801 19.0082 16.9084 21.1228 18.2962 23.0839C18.666 23.6061 19.0435 24.1269 19.5811 24.4957C20.1744 24.9028 20.6266 24.7683 20.9064 24.1059C21.0854 23.6849 21.1627 23.2348 21.2015 22.7836C21.3345 21.2384 21.3504 19.6936 21.1202 18.1545C20.977 17.1913 20.4353 16.5693 19.4752 16.3872C18.9862 16.2946 19.0578 16.1136 19.2957 15.8343C19.7084 15.3514 20.0951 15.0527 20.868 15.0527L26.6547 15.0517C27.5668 15.2307 27.7714 15.6399 27.8951 16.5586L27.9003 22.9893C27.8895 23.3448 28.0788 24.3985 28.7171 24.6312C29.2286 24.8 29.5662 24.3898 29.8721 24.066C31.2598 22.5933 32.2486 20.8552 33.134 19.0563C33.5248 18.2629 33.8619 17.4419 34.1893 16.6194C34.4327 16.0113 34.8113 15.712 35.4977 15.7222L41.0701 15.7289C41.2343 15.7289 41.401 15.7304 41.5637 15.7586C42.5028 15.9192 42.7601 16.3233 42.4696 17.2394C42.0123 18.6788 41.1238 19.8777 40.2552 21.0798C39.3243 22.3668 38.3315 23.6087 37.4097 24.9013C36.5627 26.0829 36.6297 26.6777 37.6813 27.7038Z"/>
  </g>
  <g id="catalog-arrow" width="50" height="50">
    <path d="M50 25C50 38.8071 38.8071 50 25 50C11.1929 50 0 38.8071 0 25C0 11.1929 11.1929 0 25 0C38.8071 0 50 11.1929 50 25Z"/>
    <path d="M33.3333 23.3333L25 31.6667L16.6667 23.3333" stroke="black"/>
  </g>
  <g id="catalog-arrow320" width="30" height="30">
    <circle cx="15" cy="15" r="15"/>
    <path d="M20 14L15 19L10 14" stroke="black"/>
  </g>
  <g id="editions-next" width="30" height="30">
    <path d="M15 30C23.2843 30 30 23.2843 30 15C30 6.71573 23.2843 -1.01779e-06 15 -6.55671e-07C6.71573 -2.93554e-07 2.93554e-07 6.71573 6.55671e-07 15C1.01779e-06 23.2843 6.71573 30 15 30Z"/>
    <path d="M14 20L19 15L14 10" stroke="white"/>
  </g>
  <g id="editions-prev" width="30" height="30">
    <path d="M15 30C6.71573 30 8.89561e-07 23.2843 1.25168e-06 15C1.61379e-06 6.71573 6.71573 -1.01779e-06 15 -6.55671e-07C23.2843 -2.93554e-07 30 6.71573 30 15C30 23.2843 23.2843 30 15 30Z"/>
    <path d="M16 20L11 15L16 10" stroke="white"/>
  </g>
  <g id="vhod" width="13" height="13">
    <path d="M5.12056 9.09278L6.13889 10.1111L9.75 6.5L6.13889 2.88889L5.12056 3.90722L6.98389 5.77778H0V7.22222H6.98389L5.12056 9.09278ZM11.5556 0H1.44444C0.642778 0 0 0.65 0 1.44444V4.33333H1.44444V1.44444H11.5556V11.5556H1.44444V8.66667H0V11.5556C0 12.35 0.642778 13 1.44444 13H11.5556C12.35 13 13 12.35 13 11.5556V1.44444C13 0.65 12.35 0 11.5556 0Z"/>
  </g>
  <g id="fb" width="45" height="45">
    <path d="M22.5 0C10.125 0 0 10.1431 0 22.6355C0 33.9307 8.23499 43.3057 18.99 45V29.1867H13.275V22.6355H18.99V17.6431C18.99 11.9729 22.3425 8.85542 27.495 8.85542C29.9475 8.85542 32.5125 9.28464 32.5125 9.28464V14.8645H29.6775C26.8875 14.8645 26.01 16.6039 26.01 18.3886V22.6355H32.265L31.2525 29.1867H26.01V45C31.312 44.1593 36.1399 41.4432 39.6223 37.342C43.1047 33.2408 45.012 28.0248 44.9999 22.6355C44.9999 10.1431 34.875 0 22.5 0Z"/>
  </g>
  <g id="fb1024" width="60" height="60">
    <path d="M30 0C13.5 0 0 13.5241 0 30.1807C0 45.241 10.98 57.741 25.32 60V38.9157H17.7V30.1807H25.32V23.5241C25.32 15.9639 29.79 11.8072 36.66 11.8072C39.93 11.8072 43.3499 12.3795 43.3499 12.3795V19.8193H39.57C35.85 19.8193 34.68 22.1386 34.68 24.5181V30.1807H43.0199L41.6699 38.9157H34.68V60C41.7493 58.8791 48.1866 55.2576 52.8297 49.7893C57.4729 44.3211 60.016 37.3664 59.9999 30.1807C59.9999 13.5241 46.4999 0 30 0Z"/>
  </g>
  <g id="fb320" width="50" height="50">
    <path d="M25 0C11.25 0 0 11.2701 0 25.1506C0 37.7008 9.14999 48.1175 21.1 50V32.4297H14.75V25.1506H21.1V19.6034C21.1 13.3032 24.825 9.83936 30.55 9.83936C33.275 9.83936 36.125 10.3163 36.125 10.3163V16.5161H32.975C29.875 16.5161 28.9 18.4488 28.9 20.4317V25.1506H35.85L34.725 32.4297H28.9V50C34.7911 49.0659 40.1555 46.048 44.0248 41.4911C47.8941 36.9342 50.0133 31.1387 49.9999 25.1506C49.9999 11.2701 38.75 0 25 0Z"/>
  </g>
  <g id="inst" width="45" height="45">
    <path d="M18.1172 22.5C18.1172 24.8785 20.0453 26.8066 22.4238 26.8066C24.8024 26.8066 26.7305 24.8785 26.7305 22.5C26.7305 20.1215 24.8024 18.1934 22.4238 18.1934C20.0453 18.1934 18.1172 20.1215 18.1172 22.5Z"/>
    <path d="M12.3521 14.8803C12.5591 14.3194 12.8894 13.8116 13.3185 13.3948C13.7353 12.9656 14.2428 12.6354 14.8041 12.4283C15.2593 12.2515 15.9432 12.0411 17.2029 11.9837C18.5655 11.9216 18.9741 11.9082 22.4238 11.9082C25.8738 11.9082 26.2824 11.9212 27.6447 11.9834C28.9044 12.0411 29.5886 12.2515 30.0435 12.4283C30.6048 12.6354 31.1126 12.9656 31.5291 13.3948C31.9582 13.8116 32.2885 14.319 32.4959 14.8803C32.6727 15.3356 32.8831 16.0198 32.9405 17.2795C33.0026 18.6418 33.016 19.0503 33.016 22.5004C33.016 25.9501 33.0026 26.3587 32.9405 27.7213C32.8831 28.981 32.6727 29.6649 32.4959 30.1201C32.2885 30.6814 31.9586 31.1889 31.5294 31.6057C31.1126 32.0348 30.6052 32.3651 30.0438 32.5721C29.5886 32.7493 28.9044 32.9597 27.6447 33.0171C26.2824 33.0792 25.8742 33.0922 22.4241 33.0922C18.9737 33.0922 18.5652 33.0792 17.2032 33.0171C15.9436 32.9597 15.2593 32.7493 14.8041 32.5721C13.6773 32.1375 12.7867 31.2469 12.3521 30.1201C12.1753 29.6649 11.9648 28.981 11.9071 27.7213C11.845 26.3587 11.8319 25.9501 11.8319 22.5004C11.8319 19.0503 11.845 18.6418 11.9071 17.2795C11.9645 16.0198 12.1749 15.3356 12.3521 14.8803ZM22.4238 29.1344C26.0881 29.1344 29.0585 26.1643 29.0585 22.5001C29.0585 18.8358 26.0881 15.8657 22.4238 15.8657C18.7599 15.8657 15.7894 18.8358 15.7894 22.5001C15.7894 26.1643 18.7599 29.1344 22.4238 29.1344ZM15.5271 17.1538C16.3834 17.1538 17.0776 16.4596 17.0776 15.6034C17.0776 14.7471 16.3834 14.0529 15.5271 14.0529C14.6709 14.0529 13.9767 14.7471 13.9767 15.6034C13.977 16.4596 14.6709 17.1538 15.5271 17.1538Z"/>
    <path d="M22.6204 0C34.9364 0 44.9238 9.98747 44.9238 22.3034C44.9238 34.6194 34.9364 44.6069 22.6204 44.6069C10.3044 44.6069 0.316959 34.6194 0.316959 22.3034C0.316959 9.98747 10.3044 0 22.6204 0ZM9.89059 27.5836C9.95253 28.9469 10.1693 29.8777 10.4858 30.6924C11.1512 32.4127 12.5111 33.7727 14.2314 34.438C15.0458 34.7545 15.9769 34.971 17.3399 35.0332C18.7057 35.0955 19.1419 35.1105 22.6201 35.1105C26.0985 35.1105 26.5345 35.0955 27.9005 35.0332C29.2635 34.971 30.1946 34.7545 31.009 34.438C31.8639 34.1164 32.6378 33.6124 33.2776 32.9607C33.929 32.3212 34.433 31.547 34.7546 30.6924C35.0711 29.878 35.2879 28.9469 35.3498 27.5839C35.4128 26.2178 35.4274 25.7815 35.4274 22.3034C35.4274 18.8253 35.4128 18.389 35.3502 17.0233C35.2883 15.66 35.0718 14.7292 34.7553 13.9145C34.4337 13.0599 33.9293 12.2857 33.2776 11.6462C32.6382 10.9945 31.8639 10.4905 31.0094 10.1689C30.1946 9.85236 29.2638 9.63592 27.9005 9.57364C26.5348 9.51136 26.0985 9.49638 22.6204 9.49638C19.1423 9.49638 18.706 9.51136 17.3403 9.57398C15.9769 9.63592 15.0462 9.85236 14.2314 10.1685C13.3769 10.4901 12.6026 10.9945 11.9628 11.6462C11.3114 12.286 10.8071 13.0599 10.4858 13.9145C10.169 14.7292 9.95253 15.66 9.89025 17.0233C9.82798 18.389 9.81334 18.8253 9.81334 22.3034C9.81334 25.7815 9.82798 26.2178 9.89059 27.5836Z"/>
  </g>
  <g id="inst1024" width="60" height="60">
    <path d="M24.2578 30C24.2578 33.1714 26.8286 35.7422 30 35.7422C33.1714 35.7422 35.7422 33.1714 35.7422 30C35.7422 26.8286 33.1714 24.2578 30 24.2578C26.8286 24.2578 24.2578 26.8286 24.2578 30Z"/>
    <path d="M16.5712 19.8403C16.8472 19.0923 17.2876 18.4153 17.8598 17.8596C18.4155 17.2874 19.0921 16.847 19.8405 16.571C20.4475 16.3352 21.3594 16.0546 23.0389 15.9781C24.8558 15.8953 25.4005 15.8774 30.0001 15.8774C34.6002 15.8774 35.1449 15.8948 36.9613 15.9777C38.6409 16.0546 39.5532 16.3352 40.1597 16.571C40.9082 16.847 41.5852 17.2874 42.1405 17.8596C42.7127 18.4153 43.153 19.0919 43.4295 19.8403C43.6653 20.4473 43.9459 21.3596 44.0223 23.0392C44.1052 24.8556 44.123 25.4003 44.123 30.0004C44.123 34.6 44.1052 35.1447 44.0223 36.9616C43.9459 38.6411 43.6653 39.553 43.4295 40.16C43.153 40.9084 42.7131 41.585 42.1409 42.1407C41.5852 42.7129 40.9086 43.1533 40.1602 43.4293C39.5532 43.6655 38.6409 43.9461 36.9613 44.0226C35.1449 44.1054 34.6006 44.1228 30.0006 44.1228C25.4001 44.1228 24.8553 44.1054 23.0394 44.0226C21.3598 43.9461 20.4475 43.6655 19.8405 43.4293C18.3381 42.8498 17.1507 41.6624 16.5712 40.16C16.3354 39.553 16.0548 38.6411 15.9779 36.9616C15.8951 35.1447 15.8777 34.6 15.8777 30.0004C15.8777 25.4003 15.8951 24.8556 15.9779 23.0392C16.0544 21.3596 16.335 20.4473 16.5712 19.8403ZM30.0001 38.8457C34.8858 38.8457 38.8464 34.8856 38.8464 29.9999C38.8464 25.1142 34.8858 21.1541 30.0001 21.1541C25.1149 21.1541 21.1543 25.1142 21.1543 29.9999C21.1543 34.8856 25.1149 38.8457 30.0001 38.8457ZM20.8046 22.8716C21.9462 22.8716 22.8718 21.946 22.8718 20.8044C22.8718 19.6627 21.9462 18.7371 20.8046 18.7371C19.6629 18.7371 18.7373 19.6627 18.7373 20.8044C18.7378 21.946 19.6629 22.8716 20.8046 22.8716Z"/>
    <path d="M30 0C46.566 0 60 13.434 60 30C60 46.566 46.566 60 30 60C13.434 60 0 46.566 0 30C0 13.434 13.434 0 30 0ZM12.8773 37.1022C12.9607 38.936 13.2523 40.188 13.678 41.2839C14.5729 43.5979 16.4021 45.4271 18.7161 46.322C19.8116 46.7477 21.064 47.0389 22.8973 47.1227C24.7343 47.2064 25.3212 47.2266 29.9995 47.2266C34.6783 47.2266 35.2647 47.2064 37.1022 47.1227C38.9355 47.0389 40.188 46.7477 41.2834 46.322C42.4333 45.8894 43.4743 45.2115 44.3349 44.3349C45.211 43.4747 45.889 42.4333 46.3216 41.2839C46.7473 40.1884 47.0389 38.936 47.1222 37.1027C47.2069 35.2652 47.2266 34.6783 47.2266 30C47.2266 25.3217 47.2069 24.7348 47.1227 22.8978C47.0393 21.064 46.7482 19.812 46.3225 18.7161C45.8899 17.5667 45.2115 16.5253 44.3349 15.6651C43.4747 14.7885 42.4333 14.1106 41.2839 13.678C40.188 13.2523 38.936 12.9611 37.1022 12.8773C35.2652 12.7936 34.6783 12.7734 30 12.7734C25.3217 12.7734 24.7348 12.7936 22.8978 12.8778C21.064 12.9611 19.812 13.2523 18.7161 13.6775C17.5667 14.1101 16.5253 14.7885 15.6647 15.6651C14.7885 16.5257 14.1101 17.5667 13.678 18.7161C13.2518 19.812 12.9607 21.064 12.8769 22.8978C12.7931 24.7348 12.7734 25.3217 12.7734 30C12.7734 34.6783 12.7931 35.2652 12.8773 37.1022Z"/>
  </g>
  <g id="inst320" width="50" height="50">
    <path d="M20.2148 25C20.2148 27.6428 22.3572 29.7852 25 29.7852C27.6428 29.7852 29.7852 27.6428 29.7852 25C29.7852 22.3572 27.6428 20.2148 25 20.2148C22.3572 20.2148 20.2148 22.3572 20.2148 25Z"/>
    <path d="M13.8096 16.5338C14.0397 15.9105 14.4066 15.3463 14.8835 14.8832C15.3466 14.4064 15.9104 14.0394 16.5341 13.8094C17.0399 13.6129 17.7998 13.3791 19.1994 13.3154C20.7135 13.2463 21.1674 13.2314 25.0004 13.2314C28.8338 13.2314 29.2878 13.2459 30.8014 13.315C32.201 13.3791 32.9613 13.6129 33.4668 13.8094C34.0905 14.0394 34.6547 14.4064 35.1174 14.8832C35.5942 15.3463 35.9612 15.9101 36.1916 16.5338C36.3881 17.0397 36.6219 17.7999 36.6856 19.1995C36.7547 20.7132 36.7695 21.1672 36.7695 25.0006C36.7695 28.8336 36.7547 29.2875 36.6856 30.8016C36.6219 32.2012 36.3881 32.9611 36.1916 33.4669C35.9612 34.0906 35.5946 34.6544 35.1178 35.1175C34.6547 35.5943 34.0909 35.9613 33.4671 36.1913C32.9613 36.3882 32.201 36.622 30.8014 36.6857C29.2878 36.7548 28.8342 36.7693 25.0008 36.7693C21.167 36.7693 20.7131 36.7548 19.1998 36.6857C17.8002 36.622 17.0399 36.3882 16.5341 36.1913C15.2821 35.7084 14.2926 34.7189 13.8096 33.4669C13.6132 32.9611 13.3793 32.2012 13.3152 30.8016C13.2462 29.2875 13.2317 28.8336 13.2317 25.0006C13.2317 21.1672 13.2462 20.7132 13.3152 19.1995C13.379 17.7999 13.6128 17.0397 13.8096 16.5338ZM25.0004 32.3717C29.0719 32.3717 32.3723 29.0716 32.3723 25.0002C32.3723 20.9287 29.0719 17.6286 25.0004 17.6286C20.9294 17.6286 17.6289 20.9287 17.6289 25.0002C17.6289 29.0716 20.9294 32.3717 25.0004 32.3717ZM17.3375 19.0599C18.2888 19.0599 19.0602 18.2886 19.0602 17.3372C19.0602 16.3858 18.2888 15.6145 17.3375 15.6145C16.3861 15.6145 15.6147 16.3858 15.6147 17.3372C15.6151 18.2886 16.3861 19.0599 17.3375 19.0599Z"/>
    <path d="M25 0C38.805 0 50 11.195 50 25C50 38.805 38.805 50 25 50C11.195 50 0 38.805 0 25C0 11.195 11.195 0 25 0ZM10.7311 30.9185C10.8006 32.4467 11.0435 33.49 11.3983 34.4032C12.1441 36.3316 13.6684 37.8559 15.5968 38.6017C16.5096 38.9565 17.5533 39.1991 19.0811 39.2689C20.612 39.3387 21.101 39.3555 24.9996 39.3555C28.8986 39.3555 29.3873 39.3387 30.9185 39.2689C32.4463 39.1991 33.49 38.9565 34.4028 38.6017C35.3611 38.2412 36.2286 37.6762 36.9457 36.9457C37.6759 36.2289 38.2408 35.3611 38.6013 34.4032C38.9561 33.4904 39.1991 32.4467 39.2685 30.9189C39.3391 29.3877 39.3555 28.8986 39.3555 25C39.3555 21.1014 39.3391 20.6123 39.2689 19.0815C39.1994 17.5533 38.9568 16.51 38.6021 15.5968C38.2416 14.6389 37.6762 13.7711 36.9457 13.0543C36.2289 12.3238 35.3611 11.7588 34.4032 11.3983C33.49 11.0435 32.4467 10.8009 30.9185 10.7311C29.3877 10.6613 28.8986 10.6445 25 10.6445C21.1014 10.6445 20.6123 10.6613 19.0815 10.7315C17.5533 10.8009 16.51 11.0435 15.5968 11.3979C14.6389 11.7584 13.7711 12.3238 13.0539 13.0543C12.3238 13.7714 11.7584 14.6389 11.3983 15.5968C11.0432 16.51 10.8006 17.5533 10.7307 19.0815C10.6609 20.6123 10.6445 21.1014 10.6445 25C10.6445 28.8986 10.6609 29.3877 10.7311 30.9185Z"/>
  </g>
  <g id="projects-next" width="30" height="30">
    <path d="M15 30C23.2843 30 30 23.2843 30 15C30 6.71573 23.2843 -1.01779e-06 15 -6.55671e-07C6.71573 -2.93554e-07 2.93554e-07 6.71573 6.55671e-07 15C1.01779e-06 23.2843 6.71573 30 15 30Z"/>
    <path d="M14 20L19 15L14 10" stroke="black"/>
  </g>
  <g id="projects-prev" width="30" height="30">
    <path d="M15 30C6.71573 30 8.89561e-07 23.2843 1.25168e-06 15C1.61379e-06 6.71573 6.71573 -1.01779e-06 15 -6.55671e-07C23.2843 -2.93554e-07 30 6.71573 30 15C30 23.2843 23.2843 30 15 30Z"/>
    <path d="M16 20L11 15L16 10" stroke="black"/>
  </g>
  <g id="search" width="23" height="22">
    <rect width="6.8678" height="1.71695" transform="matrix(-0.718931 0.695081 0.718931 0.695081 4.9375 15.6534)"/>
    <path fill-rule="evenodd" clip-rule="evenodd" d="M12.0969 18C7.53041 18 3.99692 14.3229 3.99692 10C3.99692 5.67715 7.53041 2 12.0969 2C16.6634 2 20.1969 5.67715 20.1969 10C20.1969 14.3229 16.6634 18 12.0969 18ZM12.0969 20C6.57408 20 2.09692 15.5228 2.09692 10C2.09692 4.47715 6.57408 0 12.0969 0C17.6198 0 22.0969 4.47715 22.0969 10C22.0969 15.5228 17.6198 20 12.0969 20Z"/>
  </g>
  <g id="tooltip" width="16" height="16" fill="none">
    <path fill-rule="evenodd" clip-rule="evenodd" d="M8 16C12.4183 16 16 12.4183 16 8C16 3.58172 12.4183 0 8 0C3.58172 0 0 3.58172 0 8C0 12.4183 3.58172 16 8 16Z" fill="#9D5CD0"/>
    <path d="M7.26154 6.4551H8.73846V13H7.26154V6.4551ZM8 4.90259C7.71282 4.90259 7.4718 4.81126 7.27692 4.62861C7.09231 4.44597 7 4.22273 7 3.9589C7 3.69508 7.09231 3.47184 7.27692 3.28919C7.4718 3.0964 7.71282 3 8 3C8.28718 3 8.52308 3.09132 8.70769 3.27397C8.90256 3.44647 9 3.66464 9 3.92846C9 4.20243 8.90256 4.43582 8.70769 4.62861C8.52308 4.81126 8.28718 4.90259 8 4.90259Z" fill="white"/>
  </g>
</svg>
