<svg xmlns="http://www.w3.org/2000/svg" xmlns:xlink="http://www.w3.org/1999/xlink">
  
  <symbol id="vk" viewBox="0 0 24 24" xmlns="http://www.w3.org/2000/svg">
    <path d="M21.5826 18.1896H19.3011C18.4379 18.1896 18.1783 17.4906 16.6302 15.9425C15.2791 14.6399 14.7083 14.4772 14.3659 14.4772C13.8936 14.4772 13.7638 14.607 13.7638 15.2591V17.3107C13.7638 17.8659 13.584 18.1911 12.1344 18.1911C10.7276 18.0966 9.36332 17.6692 8.15403 16.9441C6.94475 16.219 5.92502 15.217 5.17885 14.0206C3.40739 11.8157 2.1748 9.22793 1.5791 6.46302C1.5791 6.12056 1.70889 5.81093 2.36098 5.81093H4.64092C5.22732 5.81093 5.43843 6.07208 5.6683 6.67412C6.77543 9.93297 8.66444 12.7665 9.43068 12.7665C9.72466 12.7665 9.85289 12.6367 9.85289 11.9033V8.54749C9.75594 7.01658 8.94279 6.88679 8.94279 6.33323C8.95323 6.18722 9.02014 6.05102 9.12932 5.95352C9.23851 5.85601 9.38137 5.80487 9.52763 5.81093H13.1117C13.6012 5.81093 13.7638 6.05488 13.7638 6.64129V11.1699C13.7638 11.6594 13.9749 11.822 14.1219 11.822C14.4159 11.822 14.6426 11.6594 15.1806 11.1214C16.336 9.7124 17.28 8.1426 17.9828 6.46145C18.0547 6.25952 18.1906 6.08663 18.3699 5.96917C18.5492 5.85172 18.762 5.79615 18.9758 5.81093H21.2573C21.9407 5.81093 22.0861 6.1534 21.9407 6.64129C21.1111 8.49969 20.0846 10.2638 18.8788 11.9033C18.6333 12.2786 18.5348 12.4741 18.8788 12.9135C19.1056 13.2559 19.9047 13.9237 20.4426 14.5585C21.2243 15.3383 21.8735 16.2405 22.3644 17.2294C22.5599 17.8643 22.2331 18.1896 21.5826 18.1896Z"/>
  </symbol>

  <symbol id="telegram" viewBox="0 0 24 24" xmlns="http://www.w3.org/2000/svg">
    <path fill-rule="evenodd" clip-rule="evenodd" d="M18.4833 19.7902L18.484 19.7885L18.5014 19.745L21.5002 4.62592V4.57682C21.5002 4.20012 21.361 3.87126 21.0581 3.674C20.793 3.50133 20.4882 3.48904 20.2745 3.50526C20.0485 3.52241 19.8354 3.57883 19.6879 3.62579C19.612 3.64995 19.5484 3.67323 19.503 3.69083C19.4802 3.69967 19.4617 3.70717 19.4483 3.71276L19.4351 3.71831L2.71526 10.2772L2.71066 10.2789C2.70163 10.2822 2.68969 10.2866 2.67526 10.2923C2.64651 10.3034 2.60737 10.3195 2.56139 10.3403C2.47111 10.3812 2.34637 10.4444 2.21987 10.531C2.00502 10.6781 1.5959 11.0264 1.66499 11.5787C1.72221 12.0361 2.03751 12.3266 2.25008 12.477C2.36403 12.5576 2.47304 12.6157 2.55287 12.6538C2.59332 12.673 2.62767 12.6878 2.65326 12.6982C2.66609 12.7034 2.67682 12.7076 2.68512 12.7107L2.69574 12.7147L2.70253 12.7172L5.62777 13.702C5.6179 13.8856 5.6361 14.0727 5.68478 14.2573L7.15006 19.8157C7.3238 20.4748 7.92002 20.9339 8.60159 20.9334C9.21252 20.9329 9.75435 20.5633 9.98454 20.0119L12.2722 17.5658L16.2012 20.5781L16.2571 20.6025C16.614 20.7582 16.9475 20.8076 17.2525 20.7659C17.557 20.7243 17.7989 20.5966 17.9807 20.4512C18.1595 20.3081 18.2821 20.1466 18.3592 20.025C18.3984 19.9633 18.4276 19.909 18.4478 19.8681C18.458 19.8476 18.466 19.8302 18.472 19.8167L18.4796 19.7993L18.4822 19.7928L18.4833 19.7902ZM7.13518 13.875C7.10187 13.7486 7.15416 13.6153 7.26444 13.5452L17.1865 7.24432C17.1865 7.24432 17.77 6.89002 17.7492 7.24432C17.7492 7.24432 17.8533 7.30689 17.5406 7.59861C17.244 7.87569 10.4689 14.4167 9.7834 15.0786C9.74383 15.1168 9.72021 15.1607 9.70627 15.2139L8.60046 19.4334L7.13518 13.875Z"/>
  </symbol>

  <symbol id="github" viewBox="0 0 16 16" xmlns="http://www.w3.org/2000/svg">
    <path fill-rule="evenodd" d="M8 0C3.58 0 0 3.58 0 8c0 3.54 2.29 6.53 5.47 7.59.4.07.55-.17.55-.38 0-.19-.01-.82-.01-1.49-2.01.37-2.53-.49-2.69-.94-.09-.23-.48-.94-.82-1.13-.28-.15-.68-.52-.01-.53.63-.01 1.08.58 1.23.82.72 1.21 1.87.87 2.33.66.07-.52.28-.87.51-1.07-1.78-.2-3.64-.89-3.64-3.95 0-.87.31-1.59.82-2.15-.08-.2-.36-1.02.08-2.12 0 0 .67-.21 2.2.82.64-.18 1.32-.27 2-.27.68 0 1.36.09 2 .27 1.53-1.04 2.2-.82 2.2-.82.44 1.1.16 1.92.08 2.12.51.56.82 1.27.82 2.15 0 3.07-1.87 3.75-3.65 3.95.29.25.54.73.54 1.48 0 1.07-.01 1.93-.01 2.2 0 .21.15.46.55.38A8.013 8.013 0 0016 8c0-4.42-3.58-8-8-8z"></path>
  </symbol>
</svg>
