<svg width="30" height="30" xmlns="http://www.w3.org/2000/svg" xmlns:xlink="http://www.w3.org/1999/xlink">

  <g id="icon-1" width="40" height="40" fill="none">
    <path d="M32.903 2.34375C32.0495 2.34375 31.2494 2.57414 30.5593 2.97437V1.17188C30.5593 0.524687 30.0346 0 29.3874 0H10.6374C9.99016 0 9.46547 0.524687 9.46547 1.17188V2.98867C8.76992 2.57953 7.96063 2.34375 7.09695 2.34375C4.51227 2.34375 2.40945 4.44656 2.40945 7.03125C2.40945 9.00273 2.99367 10.9077 4.09891 12.5402C5.98047 15.3193 8.3007 16.0405 10.2206 16.8084C11.3277 19.5653 13.5663 21.7502 16.3589 22.7846L15.4948 28.2812H15.3249C13.3864 28.2812 11.8093 29.8584 11.8093 31.7969V37.6562H10.6374C9.99023 37.6562 9.46555 38.1809 9.46555 38.8281C9.46555 39.4753 9.99023 40 10.6374 40H29.3874C30.0346 40 30.5593 39.4753 30.5593 38.8281C30.5593 38.1809 30.0346 37.6562 29.3874 37.6562H28.2155V31.7969C28.2155 29.8584 26.6384 28.2812 24.6999 28.2812H24.5301L23.666 22.7847C26.4627 21.7487 28.7038 19.5591 29.8092 16.7966C31.6229 16.0711 34.0003 15.3478 35.9012 12.5402C37.0064 10.9077 37.5906 9.00266 37.5906 7.03125C37.5905 4.44656 35.4877 2.34375 32.903 2.34375ZM9.4568 13.9787C6.59945 12.8357 4.7532 10.1087 4.7532 7.03125C4.7532 5.73891 5.80461 4.6875 7.09695 4.6875C8.3893 4.6875 9.4407 5.73891 9.4407 7.03125C9.4407 7.11367 9.44938 7.19398 9.46555 7.27156V12.8906C9.46555 13.2673 9.48578 13.6392 9.52453 14.0058L9.4568 13.9787ZM25.8718 37.6562H14.153V35.3125H25.8718V37.6562ZM24.6999 30.625C25.3461 30.625 25.8718 31.1507 25.8718 31.7969V32.9688H14.153V31.7969C14.153 31.1507 14.6788 30.625 15.3249 30.625C15.9607 30.625 23.2089 30.625 24.6999 30.625ZM17.8673 28.2812L18.6427 23.3487C19.0912 23.4071 19.5483 23.4375 20.0124 23.4375C20.4766 23.4375 20.9337 23.407 21.3821 23.3487L22.1576 28.2812H17.8673ZM28.2155 12.8906C28.2155 17.4138 24.5356 21.0938 20.0124 21.0938C15.4892 21.0938 11.8093 17.4138 11.8093 12.8906V7.03125H28.2155V12.8906ZM28.2155 4.6875H11.8093V2.34375H28.2155V4.6875ZM30.5431 13.9787L30.5015 13.9953C30.5395 13.6322 30.5592 13.2637 30.5592 12.8906V7.03125C30.5593 5.73891 31.6107 4.6875 32.903 4.6875C34.1954 4.6875 35.2468 5.73891 35.2468 7.03125C35.2468 10.1087 33.4005 12.8358 30.5431 13.9787Z" fill="#3A3A3A"/>
  </g>

  <g id="icon-2" width="40" height="40" fill="none">
    <path d="M37.8573 14.1741C37.3295 12.5397 37.5545 10.0864 36.1827 8.19207C34.8 6.28286 32.3952 5.7402 31.0373 4.74707C29.6938 3.76442 28.4438 1.62606 26.1837 0.888559C23.9873 0.17184 21.7414 1.14442 20 1.14442C18.2588 1.14442 16.013 0.171606 13.8163 0.888481C11.5566 1.62582 10.3056 3.76465 8.96289 4.74684C7.60648 5.73879 5.19992 6.28293 3.8175 8.19184C2.4468 10.0846 2.66953 12.5436 2.14266 14.174C1.64125 15.7258 0 17.5882 0 20.0001C0 22.4135 1.63938 24.2687 2.14266 25.8261C2.67047 27.4605 2.44547 29.9139 3.81734 31.8082C5.19992 33.7175 7.60461 34.26 8.96266 35.2532C10.306 36.2357 11.5562 38.3743 13.8163 39.1117C16.0112 39.8279 18.2606 38.8558 20 38.8558C21.737 38.8558 23.9916 39.8269 26.1837 39.1118C28.4434 38.3744 29.6937 36.2361 31.0371 35.2534C32.3935 34.2614 34.8001 33.7173 36.1825 31.8084C37.5533 29.9156 37.3304 27.4568 37.8573 25.8262C38.3587 24.2743 40 22.4119 40 20.0001C40 17.5869 38.361 15.7322 37.8573 14.1741ZM34.8838 24.8653C34.2686 26.7696 34.4298 28.9007 33.6516 29.9753C32.863 31.0641 30.7913 31.5614 29.1926 32.7308C27.6114 33.8871 26.5032 35.7202 25.2143 36.1407C23.9949 36.5387 22.0077 35.7307 20.0001 35.7307C17.9777 35.7307 16.011 36.5404 14.7858 36.1407C13.497 35.7202 12.3904 33.8884 10.8075 32.7307C9.21828 31.5685 7.13469 31.0609 6.34836 29.9751C5.57273 28.9042 5.72781 26.7582 5.11633 24.8654C4.51695 23.0107 3.125 21.4049 3.125 20.0001C3.125 18.594 4.5157 16.9936 5.11617 15.135C5.73141 13.2307 5.57023 11.0994 6.34836 10.025C7.13648 8.93684 9.20984 8.43786 10.8075 7.26942C12.3937 6.10934 13.4949 4.28067 14.7856 3.8595C16.004 3.462 17.9977 4.26957 19.9999 4.26957C22.0259 4.26957 23.9877 3.45926 25.2142 3.8595C26.5028 4.27997 27.6104 6.11247 29.1926 7.2695C30.7816 8.43176 32.8653 8.93934 33.6516 10.025C34.4274 11.0962 34.2715 13.24 34.8837 15.1348V15.1349C35.483 16.9895 36.875 18.5954 36.875 20.0001C36.875 21.4063 35.4843 23.0066 34.8838 24.8653ZM27.1987 14.9849C27.8089 15.5951 27.8089 16.5844 27.1987 17.1946L19.3779 25.0154C18.7677 25.6256 17.7783 25.6255 17.1681 25.0154L12.8014 20.6486C12.1912 20.0384 12.1911 19.0491 12.8013 18.4389C13.4116 17.8288 14.401 17.8287 15.011 18.4389L18.273 21.7008L24.9888 14.985C25.5991 14.3747 26.5884 14.3747 27.1987 14.9849Z" fill="#3A3A3A"/>
  </g>

  <g id="icon-3" width="40" height="38" fill="none">
    <path d="M36.8986 19.7346V1.5198C36.8986 0.86997 36.3718 0.34314 35.722 0.34314H4.19674C3.54691 0.34314 3.02008 0.86997 3.02008 1.5198V21.1867C2.45246 21.2694 1.89755 21.4898 1.40664 21.8542C-0.140899 22.9516 -0.506918 25.4073 0.789368 26.9218L6.08928 33.347C9.36996 37.1866 12.855 37.657 18.0359 37.657C22.4819 37.657 24.4696 37.6766 28.3443 36.7937L32.1173 35.8913C32.7291 36.7456 33.7003 37.299 34.7922 37.299H36.6508C38.4975 37.299 40 35.7163 40 33.7708V23.2523C40.0001 21.3947 38.63 19.8688 36.8986 19.7346ZM31.6098 22.1551L30.042 21.3588C27.4642 20.0577 24.4839 20.0095 21.8655 21.2269C21.1511 21.5079 19.5929 22.4506 18.7847 22.4191H13.3445C11.54 22.4191 10.0718 23.8872 10.0718 25.6918V26.5499C10.0617 26.5392 10.0511 26.5291 10.0411 26.5182L6.15619 22.3013C5.9211 22.0462 5.65697 21.8326 5.37348 21.6613V9.98736H15.0027V14.3007C15.0027 14.9505 15.5295 15.4773 16.1794 15.4773H23.6042C24.254 15.4773 24.7808 14.9505 24.7808 14.3007V9.98736H34.5454V19.7346C33.1706 19.8408 32.0242 20.8243 31.6098 22.1551ZM17.356 9.98736H22.4274V13.124H17.356V9.98736ZM34.5453 7.63404H24.7808V2.69646H34.5454V7.63404H34.5453ZM22.4275 2.69646V7.63412H17.356V2.69646H22.4275ZM15.0026 2.69646V7.63412H5.3734V2.69646H15.0026ZM27.7982 34.5046C24.2188 35.3244 22.0631 35.2912 18.0781 35.2912C13.2146 35.2912 10.8646 35.2126 7.90479 31.8494L2.60488 25.4243C1.683 24.2238 3.35276 22.8067 4.4254 23.8957L8.31034 28.1127C9.3371 29.1961 10.6291 29.7923 12.2216 29.8274H22.9926C23.6425 29.8274 24.1693 29.3006 24.1693 28.6507C24.1693 28.0009 23.6425 27.4741 22.9926 27.4741H12.425V25.6916C12.425 25.1847 12.8374 24.7722 13.3444 24.7722H18.7847C20.0103 24.86 21.7793 23.8366 22.8575 23.3607C24.8186 22.4489 27.0508 22.485 28.9789 23.4581L31.4432 24.7098V33.6326L27.7982 34.5046ZM37.6467 33.7707C37.6467 34.4186 37.2 34.9456 36.6509 34.9456H34.7922C34.2431 34.9456 33.7965 34.4186 33.7965 33.7707V23.2523C33.7965 22.6044 34.2432 22.0773 34.7922 22.0773H36.6509C37.2 22.0773 37.6467 22.6044 37.6467 23.2523V33.7707Z" fill="#3A3A3A"/>
  </g>

  <g id="icon-4" width="36" height="40" fill="none">
    <path d="M34.4624 15.9752C34.1995 7.12165 26.9161 0 18 0C9.08381 0 1.80043 7.12165 1.53745 15.9752L0.352905 17.1598V25.1932L1.52938 26.3696V31.8431C1.52938 35.0435 4.13298 37.6471 7.3333 37.6471H8.79055C9.2762 39.0164 10.5839 40 12.1176 40H14.4706C16.0053 40 17.3137 39.015 17.7986 37.6442C17.8658 37.6454 17.9331 37.6471 18 37.6471C23.6814 37.6471 28.4351 33.5987 29.5281 28.2353H32.6049L35.647 25.1932V17.1598L34.4624 15.9752ZM18 2.35294C24.9828 2.35294 30.7969 7.44933 31.9204 14.1176H29.5281C28.4351 8.7542 23.6814 4.70588 18 4.70588C12.3186 4.70588 7.56483 8.7542 6.47181 14.1176H4.07949C5.20302 7.44933 11.0171 2.35294 18 2.35294ZM27.1139 14.1176C23.3109 14.1063 20.6246 14.3379 18.4098 11.1004L17.3344 9.52839L16.4102 11.1938C15.0635 13.6204 13.2499 14.1176 10.9411 14.1176H8.886C9.93346 10.0629 13.6225 7.05882 18 7.05882C22.3775 7.05882 26.0665 10.0629 27.1139 14.1176ZM6.23526 25.8824H4.36961L2.70585 24.2186V18.1344L4.36961 16.4706H6.23526V25.8824ZM3.88232 31.8431V28.2353H6.46953C6.91244 30.4294 7.97212 32.4435 9.542 34.0611C9.21291 34.4127 8.95479 34.8311 8.79055 35.2941H7.3333C5.4304 35.2941 3.88232 33.746 3.88232 31.8431ZM14.4706 37.6471H12.1176C11.4688 37.6471 10.9411 37.1194 10.9411 36.4706C10.9411 35.8219 11.4688 35.2941 12.1176 35.2941H14.4706C15.1193 35.2941 15.647 35.8219 15.647 36.4706C15.647 37.1194 15.1193 37.6471 14.4706 37.6471ZM27.4117 25.8824C27.4117 31.072 23.1896 35.2941 18 35.2941C17.9325 35.2941 17.8645 35.2928 17.7966 35.2912C17.3102 33.9234 16.0032 32.9412 14.4706 32.9412C12.0549 32.9465 12.0934 32.9291 11.7923 32.9568C9.74977 31.1665 8.5882 28.6166 8.5882 25.8824V16.4706H10.9411C13.0233 16.4706 15.5589 16.1273 17.5218 13.7384C20.1116 16.4524 23.2764 16.4706 26.1175 16.4706H27.4117V25.8824ZM33.2941 24.2186L31.6303 25.8824H29.7647V16.4706H31.6303L33.2941 18.1344V24.2186Z" fill="#3A3A3A"/>
  </g>

  <g id="close" width="18" height="18" viewBox="0 0 18 18">
    <defs>
    <path id="avzva" d="M691.485 160.07l-1.414 1.415-7.071-7.071-7.071 7.071-1.414-1.414 7.07-7.071-7.07-7.071 1.414-1.415 7.07 7.071 7.072-7.07 1.414 1.414-7.07 7.07z"/></defs>
    <g>
    <g transform="translate(-674 -144)"><use fill="#fff" xlink:href="#avzva"/></g></g>
  </g>

  <g id="right-arrow"  width="24" height="24">
    <path d="M19.3652 12.56L14.3852 17.56C14.2252 17.72 14.0251 17.8 13.8251 17.8C13.6251 17.8 13.4251 17.72 13.2652 17.56C12.9451 17.24 12.9451 16.74 13.2652 16.42L16.8852 12.78H5.20515C4.76515 12.78 4.40515 12.42 4.40515 11.98C4.40515 11.54 4.76515 11.18 5.20515 11.18H16.8852L13.2652 7.54004C12.9451 7.22004 12.9451 6.72003 13.2652 6.40003C13.5851 6.08003 14.0852 6.08003 14.4052 6.40003L19.3852 11.4C19.6852 11.74 19.6852 12.26 19.3652 12.56Z"/>
  </g>

  <g id="arrow" width="24" height="24">
    <path d="M9.00012 5L16.0001 12L9.00012 19" stroke-width="1.8" stroke-linecap="round" stroke-linejoin="round"/>
  </g>


  <g id="arrow-bottom" width="20" height="20" viewBox="0 0 20 20">
    <path d="M15.8333 7.50012L10 13.3335L4.16668 7.50012" stroke-width="1.8" stroke-linecap="round" stroke-linejoin="round"/>
  </g>

  <g id="phone" width="20" height="20">
    <path d="M13.4307 13.0668L12.9152 13.8401C12.8123 13.9944 12.6762 14.1261 12.4969 14.1735C11.9095 14.3287 10.3499 14.3988 7.9755 12.0244C5.60111 9.65004 5.67119 8.09046 5.82641 7.50302C5.8738 7.32368 6.00549 7.1876 6.15983 7.0847L6.93308 6.5692C7.50878 6.1854 7.66435 5.40757 7.28055 4.83187L5.82014 2.64126C5.48514 2.13876 4.83933 1.94678 4.28423 2.18468L3.62544 2.46702C3.12498 2.6815 2.71674 3.06643 2.47324 3.55343C2.2698 3.96031 2.11213 4.38877 2.09076 4.84317C2.02344 6.27515 2.33743 9.80312 6.26713 13.7328C10.1968 17.6625 13.7248 17.9765 15.1568 17.9092C15.6111 17.8878 16.0396 17.7301 16.4465 17.5267C16.9335 17.2832 17.3184 16.8749 17.5329 16.3745L17.8152 15.7157C18.0531 15.1606 17.8612 14.5148 17.3587 14.1798L15.168 12.7194C14.5923 12.3356 13.8145 12.4911 13.4307 13.0668Z"/>
  </g>

  <g id="geo" width="20" height="20">
    <path fill-rule="evenodd" clip-rule="evenodd" d="M10.974 18.5413C13.0898 17.0976 17.9167 13.3048 17.9167 8.74992C17.9167 4.37766 14.3723 0.833252 10 0.833252C5.62775 0.833252 2.08333 4.37766 2.08333 8.74992C2.08333 13.3048 6.91025 17.0976 9.02596 18.5413C9.61759 18.945 10.3824 18.945 10.974 18.5413ZM10 11.2499C11.3807 11.2499 12.5 10.1306 12.5 8.74992C12.5 7.36921 11.3807 6.24992 10 6.24992C8.61929 6.24992 7.5 7.36921 7.5 8.74992C7.5 10.1306 8.61929 11.2499 10 11.2499Z"/>
  </g>

  <g id="cart" width="24" height="24">
    <path d="M1 2.5H2.65424C3.13263 2.5 3.37183 2.5 3.56628 2.58674C3.73771 2.66321 3.88415 2.78638 3.98886 2.94217C4.10763 3.11888 4.14862 3.35454 4.23058 3.82585L4.6087 6M4.6087 6L5.49173 11.0774C5.67091 12.1077 5.7605 12.6228 6.02583 12.9939C6.25945 13.3207 6.58606 13.5695 6.96311 13.708C7.39133 13.8654 7.91176 13.815 8.95264 13.7143L18.614 12.7793C19.6298 12.681 20.1378 12.6318 20.5221 12.4033C20.8653 12.1993 21.1395 11.8972 21.3095 11.536C21.5 11.1314 21.5 10.6211 21.5 9.6005V9.6005C21.5 8.51582 21.5 7.97348 21.2922 7.55394C21.1068 7.17971 20.809 6.8729 20.4404 6.67654C20.0272 6.4564 19.4851 6.44036 18.4009 6.40826L4.6087 6Z" stroke-width="1.8" stroke-linecap="round" stroke-linejoin="round"/>
    <circle cx="8.5" cy="19" r="2" stroke-width="1.8"/>
    <circle cx="18" cy="19" r="2" stroke-width="1.8"/>
  </g>

  <g id="heart" width="24" height="24">
    <path d="M11.9996 21.0542C-8 10 5.99999 -1.99997 11.9996 5.58809C18 -1.99997 32 10 11.9996 21.0542Z" stroke-width="1.8"/>
  </g>

  <g id="search" width="20" height="20">
    <path d="M16.6666 16.6667L12.5801 12.5802M12.5801 12.5802C13.5604 11.6 14.1666 10.2458 14.1666 8.75004C14.1666 5.7585 11.7415 3.33337 8.74998 3.33337C5.75844 3.33337 3.33331 5.7585 3.33331 8.75004C3.33331 11.7416 5.75844 14.1667 8.74998 14.1667C10.2458 14.1667 11.5999 13.5604 12.5801 12.5802Z" stroke-width="1.8" stroke-linecap="round" stroke-linejoin="round"/>
  </g>

  <g id="share" width="24" height="24">
    <path d="M18 16C17.212 16 16.5 16.31 15.966 16.807L8.91 12.7C8.96 12.47 9 12.24 9 12C9 11.76 8.96 11.53 8.91 11.3L15.96 7.19C16.5 7.69 17.21 8 18 8C19.66 8 21 6.66 21 5C21 3.34 19.66 2 18 2C16.34 2 15 3.34 15 5C15 5.24 15.04 5.47 15.09 5.7L8.04 9.81C7.5 9.31 6.79 9 6 9C4.34 9 3 10.34 3 12C3 13.66 4.34 15 6 15C6.79 15 7.5 14.69 8.04 14.19L15.088 18.308C15.0317 18.5344 15.0022 18.7667 15 19C15 19.5933 15.1759 20.1734 15.5056 20.6667C15.8352 21.1601 16.3038 21.5446 16.8519 21.7716C17.4001 21.9987 18.0033 22.0581 18.5853 21.9424C19.1672 21.8266 19.7018 21.5409 20.1213 21.1213C20.5409 20.7018 20.8266 20.1672 20.9424 19.5853C21.0581 19.0033 20.9987 18.4001 20.7716 17.8519C20.5446 17.3038 20.1601 16.8352 19.6667 16.5056C19.1734 16.1759 18.5933 16 18 16Z"/>
  </g>

  <g id="telegram" width="24" height="24">
    <path d="M20.7825 3.21745C20.6813 3.1167 20.5534 3.04695 20.4139 3.01639C20.2744 2.98584 20.1291 2.99574 19.995 3.04495L3.495 9.04495C3.3527 9.09892 3.23019 9.19491 3.14374 9.32016C3.05729 9.44542 3.01099 9.59401 3.01099 9.7462C3.01099 9.89839 3.05729 10.047 3.14374 10.1722C3.23019 10.2975 3.3527 10.3935 3.495 10.4474L9.9375 13.0199L14.6925 8.24995L15.75 9.30745L10.9725 14.0849L13.5525 20.5275C13.6081 20.667 13.7043 20.7866 13.8286 20.8709C13.953 20.9551 14.0998 21.0001 14.25 20.9999C14.4016 20.9968 14.5486 20.9479 14.6718 20.8595C14.795 20.7711 14.8885 20.6475 14.94 20.5049L20.94 4.00495C20.9911 3.87226 21.0034 3.72777 20.9755 3.58834C20.9477 3.44891 20.8807 3.32028 20.7825 3.21745Z"/>
  </g>



</svg>
