<svg width="32" height="32" viewBox="0 0 32 32" fill="none" xmlns="http://www.w3.org/2000/svg">
<circle cx="16" cy="16" r="16" fill="#042128"/>
<path d="M10.62 14.79L12.82 12.59C13.1 12.31 13.18 11.92 13.07 11.57C12.7 10.45 12.5 9.25001 12.5 8.00001C12.5 7.45001 12.05 7.00001 11.5 7.00001H8C7.45 7.00001 7 7.45001 7 8.00001C7 17.39 14.61 25 24 25C24.55 25 25 24.55 25 24V20.51C25 19.96 24.55 19.51 24 19.51C22.76 19.51 21.55 19.31 20.43 18.94C20.08 18.82 19.68 18.91 19.41 19.18L17.21 21.38C14.38 19.93 12.06 17.62 10.62 14.79Z" fill="#F0F4F5"/>
</svg>
