<svg width="24" height="24" viewBox="0 0 24 24" fill="none" xmlns="http://www.w3.org/2000/svg">
<path d="M12 5.625C10.4489 5.625 9.1875 6.88636 9.1875 8.4375C9.1875 9.99605 10.4466 11.25 12 11.25C13.5812 11.25 14.8125 9.97242 14.8125 8.4375C14.8125 6.88636 13.5511 5.625 12 5.625Z" fill="#042128"/>
<path d="M12 0C7.34728 0 3.5625 3.78478 3.5625 8.4375C3.5625 10.0092 3.99783 11.5432 4.82114 12.8739L11.5194 23.6673C11.7971 24.1159 12.452 24.109 12.721 23.6577L19.2483 12.7599C20.0255 11.4574 20.4375 9.96253 20.4375 8.4375C20.4375 3.78478 16.6527 0 12 0ZM12 12.6656C9.64008 12.6656 7.77188 10.7447 7.77188 8.4375C7.77188 6.11114 9.67364 4.20938 12 4.20938C14.3264 4.20938 16.2281 6.11114 16.2281 8.4375C16.2281 10.7244 14.385 12.6656 12 12.6656Z" fill="#042128"/>
</svg>
