<svg width="93" height="93" viewBox="0 0 93 93" fill="none" xmlns="http://www.w3.org/2000/svg">
<circle cx="46.5" cy="46.5" r="46.5" fill="url(#paint0_radial_126_2212)"/>
<path d="M54.8711 50.4336C54.4453 50.2148 52.3242 49.1758 51.9297 49.0352C51.5352 48.8867 51.2461 48.8164 50.9609 49.2539C50.6719 49.6875 49.8516 50.6523 49.5938 50.9453C49.3438 51.2344 49.0898 51.2695 48.6641 51.0547C46.1328 49.7891 44.4727 48.7969 42.8047 45.9336C42.3633 45.1719 43.2461 45.2266 44.0703 43.582C44.2109 43.293 44.1406 43.0469 44.0312 42.8281C43.9219 42.6094 43.0625 40.4922 42.7031 39.6289C42.3555 38.7891 41.9961 38.9062 41.7344 38.8906C41.4844 38.875 41.1992 38.875 40.9102 38.875C40.6211 38.875 40.1563 38.9844 39.7617 39.4102C39.3672 39.8438 38.2539 40.8867 38.2539 43.0039C38.2539 45.1211 39.7969 47.1719 40.0078 47.4609C40.2266 47.75 43.043 52.0937 47.3672 53.9648C50.1016 55.1445 51.1719 55.2461 52.5391 55.043C53.3711 54.918 55.0859 54.0039 55.4414 52.9922C55.7969 51.9844 55.7969 51.1211 55.6914 50.9414C55.5859 50.75 55.2969 50.6406 54.8711 50.4336Z" fill="#F0F4F5"/>
<path d="M63.1406 40.2188C62.2578 38.1211 60.9922 36.2383 59.3789 34.6211C57.7656 33.0078 55.8828 31.7383 53.7812 30.8594C51.6328 29.957 49.3516 29.5 47 29.5H46.9219C44.5547 29.5117 42.2617 29.9805 40.1055 30.9023C38.0234 31.793 36.1562 33.0586 34.5586 34.6719C32.9609 36.2852 31.707 38.1602 30.8398 40.25C29.9414 42.4141 29.4883 44.7148 29.5 47.082C29.5117 49.793 30.1601 52.4844 31.375 54.8906V60.8281C31.375 61.8203 32.1797 62.625 33.1719 62.625H39.1133C41.5195 63.8398 44.2109 64.4883 46.9219 64.5H47.0039C49.3437 64.5 51.6133 64.0469 53.75 63.1602C55.8398 62.2891 57.7187 61.0391 59.3281 59.4414C60.9414 57.8438 62.2109 55.9766 63.0976 53.8945C64.0195 51.7383 64.4883 49.4453 64.5 47.0781C64.5117 44.6992 64.0508 42.3906 63.1406 40.2188ZM57.2383 57.3281C54.5 60.0391 50.8672 61.5312 47 61.5312H46.9336C44.5781 61.5195 42.2383 60.9336 40.1719 59.832L39.8437 59.6562H34.3437V54.1562L34.168 53.8281C33.0664 51.7617 32.4805 49.4219 32.4687 47.0664C32.4531 43.1719 33.9414 39.5156 36.6719 36.7617C39.3984 34.0078 43.043 32.4844 46.9375 32.4688H47.0039C48.957 32.4688 50.8516 32.8477 52.6367 33.5977C54.3789 34.3281 55.9414 35.3789 57.2851 36.7227C58.625 38.0625 59.6797 39.6289 60.4101 41.3711C61.168 43.1758 61.5469 45.0898 61.5391 47.0664C61.5156 50.957 59.9883 54.6016 57.2383 57.3281Z" fill="#F0F4F5"/>
<defs>
<radialGradient id="paint0_radial_126_2212" cx="0" cy="0" r="1" gradientUnits="userSpaceOnUse" gradientTransform="translate(46.5 46.5) rotate(90) scale(46.5)">
<stop stop-color="#00C1F3"/>
<stop offset="1" stop-color="#026DEA"/>
</radialGradient>
</defs>
</svg>
