<svg width="147" height="42" viewBox="0 0 147 42" fill="none" xmlns="http://www.w3.org/2000/svg">
<path d="M0.859913 10.5C0.730463 10.5 0.573275 10.4907 0.388348 10.4722C0.212667 10.4537 0.0832174 10.4352 0 10.4167V8.70833C0.0462319 8.71759 0.0970869 8.72685 0.152565 8.73611C0.21729 8.73611 0.258898 8.73611 0.277391 8.73611C0.43458 8.73611 0.577898 8.72685 0.707348 8.70833C0.846043 8.68055 0.966246 8.59259 1.06796 8.44444C1.17891 8.28704 1.27138 8.04167 1.34535 7.70833C1.42856 7.375 1.49329 6.90278 1.53952 6.29167C1.595 5.68056 1.63661 4.90741 1.66435 3.97222C1.69209 3.02778 1.70596 1.87037 1.70596 0.5H7.35087V10.4167H5.35365V2.13889H3.59222C3.59222 3.30556 3.57372 4.32407 3.53674 5.19444C3.509 6.06481 3.45814 6.81018 3.38417 7.43055C3.3102 8.05093 3.20387 8.56018 3.06517 8.95833C2.93572 9.35648 2.76929 9.6713 2.56587 9.90278C2.36245 10.125 2.11742 10.2824 1.83078 10.375C1.55339 10.4583 1.22977 10.5 0.859913 10.5Z" fill="#272E45"/>
<path d="M12.2618 0.5H14.7306L17.3519 10.4167H15.2715L14.8138 8.31944H12.1786L11.7209 10.4167H9.64043L12.2618 0.5ZM14.467 6.68056L13.51 2.22222H13.4823L12.5253 6.68056H14.467Z" fill="#272E45"/>
<path d="M19.6357 0.5H22.9783C23.3851 0.5 23.7596 0.541667 24.1017 0.625C24.4531 0.708333 24.7536 0.847222 25.0032 1.04167C25.2529 1.23611 25.4471 1.49537 25.5858 1.81944C25.7245 2.14352 25.7938 2.54167 25.7938 3.01389C25.7938 3.55093 25.669 4.01389 25.4193 4.40278C25.1697 4.78241 24.7952 5.04167 24.2959 5.18056V5.20833C24.8507 5.28241 25.2899 5.51852 25.6135 5.91667C25.9371 6.31481 26.0989 6.84722 26.0989 7.51389C26.0989 7.90278 26.0481 8.27315 25.9464 8.625C25.8447 8.97685 25.669 9.28704 25.4193 9.55556C25.1789 9.81481 24.8599 10.0231 24.4623 10.1806C24.074 10.338 23.5885 10.4167 23.006 10.4167H19.6357V0.5ZM22.4096 8.94444C22.8904 8.94444 23.2788 8.83796 23.5747 8.625C23.8706 8.41204 24.0185 8.01852 24.0185 7.44444C24.0185 7.15741 23.9769 6.9213 23.8937 6.73611C23.8197 6.54167 23.7134 6.38889 23.5747 6.27778C23.4452 6.15741 23.288 6.07407 23.1031 6.02778C22.9182 5.98148 22.7148 5.95833 22.4928 5.95833H21.6329V8.94444H22.4096ZM22.2016 4.56944C22.7564 4.56944 23.1586 4.47222 23.4082 4.27778C23.6671 4.07407 23.7966 3.73611 23.7966 3.26389C23.7966 2.79167 23.681 2.45833 23.4499 2.26389C23.2187 2.06944 22.8535 1.97222 22.3542 1.97222H21.6329V4.56944H22.2016Z" fill="#272E45"/>
<path d="M28.9375 0.5H30.9348V4.47222H30.9625L33.4868 0.5H35.6504L32.9597 4.75L35.9555 10.4167H33.7087L31.6698 6.34722L30.9348 7.47222V10.4167H28.9375V0.5Z" fill="#272E45"/>
<path d="M39.9099 0.5H42.3787L45 10.4167H42.9196L42.4619 8.31944H39.8267L39.369 10.4167H37.2885L39.9099 0.5ZM42.1151 6.68056L41.1581 2.22222H41.1304L40.1734 6.68056H42.1151Z" fill="#272E45"/>
<rect x="50" width="97" height="11" rx="5.5" fill="#EFB75D"/>
<path fill-rule="evenodd" clip-rule="evenodd" d="M13 38.6124C18.3088 38.6124 22.6124 34.3088 22.6124 29C22.6124 23.6912 18.3088 19.3876 13 19.3876C7.69123 19.3876 3.38762 23.6912 3.38762 29C3.38762 34.3088 7.69123 38.6124 13 38.6124ZM13 42C20.1797 42 26 36.1797 26 29C26 21.8203 20.1797 16 13 16C5.8203 16 0 21.8203 0 29C0 36.1797 5.8203 42 13 42Z" fill="#FFE082"/>
<path d="M23.7069 29C23.7069 34.9126 18.9137 39.7058 13.001 39.7058C7.08835 39.7058 2.29517 34.9126 2.29517 29C2.29517 23.0873 7.08835 18.2941 13.001 18.2941C18.9137 18.2941 23.7069 23.0873 23.7069 29Z" fill="#EFB75D"/>
<path d="M12.2356 40.3382C13.1555 40.1697 15.1624 39.6348 15.8314 38.843C15.8519 39.208 15.808 39.9677 15.4747 40.1394C16.4364 39.6822 18.3793 38.4245 18.6119 36.9687C18.7409 37.1213 18.9115 37.5659 18.7724 38.2784C19.0563 37.4178 19.5808 36.3707 20.2426 36.5475C20.3478 36.5412 20.4658 36.5571 20.5562 36.6117C20.807 36.1408 21.0788 34.702 21.1833 34.0415C20.5812 33.5697 20.3053 32.7358 20.2426 32.3778C20.1924 31.5522 19.6502 30.8966 19.3854 30.672C19.7819 30.5441 20.022 30.7315 20.0874 30.8017C20.0559 30.6938 20.1201 30.204 20.1589 29.9559L19.4869 29.2189C19.4933 29.6051 19.6068 30.0254 19.699 30.2718C19.0809 29.8221 18.9629 29.189 19.0125 28.6924C18.4539 28.2712 17.2196 27.4794 16.7513 27.6815C16.814 28.1799 16.6593 29.202 15.5387 29.3031C15.3988 29.0652 15.2682 28.6465 15.4342 28.2885C14.5143 29.4816 15.1624 30.4027 15.6015 30.7141C15.3004 30.175 15.699 29.8506 15.9359 29.8085C15.8858 30.0949 16.5562 30.7843 16.8976 31.0931C17.1987 31.5986 16.9952 32.2093 16.8558 32.3988C16.8056 31.9945 16.4028 31.9496 16.2077 31.9776C14.6523 31.9945 15.044 31.2967 15.4342 30.9457C13.7283 29.6653 14.7652 28.0159 15.4969 27.3512C14.8976 26.8754 14.3407 26.2044 14.7861 25.6809C14.6886 25.9483 14.8447 26.6386 16.2495 27.2603C16.4214 27.2049 16.832 27.14 17.116 27.3162C16.5479 26.9539 15.4342 26.1024 15.4342 25.5335C15.267 25.0982 14.9534 24.1646 15.037 23.9119C14.9673 23.7926 14.7485 23.6508 14.4307 24.0383C14.0335 24.5226 14.1798 22.8168 15.3088 23.3644C15.3088 23.238 14.6607 22.7958 15.6433 22.4167C15.9638 22.4518 16.4795 22.6905 15.9778 23.3644C16.3123 23.4626 16.9102 23.7729 16.6258 24.2278C16.3259 24.0032 15.7095 23.7898 15.6433 24.7332C15.577 25.6767 16.8421 26.8111 17.483 27.2603H17.6293C17.1067 26.6707 16.3457 25.0744 17.483 23.4065C17.4551 22.9783 17.6419 22.1303 18.6119 22.164C18.9812 22.0727 19.8035 22.0545 20.138 22.7115C20.2356 23.0625 20.2426 23.6634 19.49 23.2591C19.3994 23.0695 19.352 22.7326 19.8872 22.901C19.6781 22.6764 19.1638 22.404 18.7792 23.1116C18.807 23.5258 18.6286 24.2488 17.692 23.8277C17.4315 24.1716 17.0116 25.1165 17.4162 26.1442C17.4603 26.0721 17.5177 26.004 17.5666 25.9547C17.2823 25.6009 17.6851 25.4141 17.922 25.365C18.3819 24.7332 18.7164 25.2597 18.6746 25.1544C18.6412 25.0702 18.814 25.0351 18.9046 25.028C21.4551 26.1442 19.8454 28.208 19.699 28.5028C19.5819 28.7387 20.1241 29.2891 20.4098 29.5347L20.8279 28.9872C20.6105 28.3638 21.476 27.5341 21.9359 27.1972C22.584 26.5864 22.3123 25.0702 22.3541 25.028C22.3875 24.9943 22.5353 25.2386 22.6049 25.365C23.0398 26.9655 22.4934 27.8711 22.1659 28.1238C23.5708 28.3091 23.7687 29.4786 23.692 30.0402H23.5666C23.483 29.2652 22.8349 28.9451 22.5213 28.8819C22.7555 29.8928 21.7269 29.7804 21.1833 29.5979C21.0143 29.6524 20.8897 29.8257 20.7999 30.0402L21.476 31.2616C21.5262 31.1437 21.6502 31.2125 21.706 31.2616C21.6725 31.3964 22.1868 31.767 22.0196 32.2514C22.5715 32.9422 22.152 33.7326 21.8732 34.0415C21.6558 36.3664 20.6955 37.5233 20.2426 37.8111C19.9197 38.3334 19.0209 38.7166 18.6119 38.843C18.244 39.5674 16.3541 40.0153 15.4551 40.1487C14.6301 40.6204 12.965 40.4716 12.2356 40.3382Z" fill="#FFE082"/>
<path d="M2.30113 30.3995C2.34127 30.2949 3.64592 27.3036 4.58928 30.3995C4.54245 30.518 4.2842 30.6045 3.62585 30.002C3.33816 29.9811 2.73869 30.3367 2.64234 31.9265C2.72932 31.6197 3.09998 31.0312 3.88678 31.1316C3.55894 31.2571 3.04779 32.0771 3.62585 34.3529C3.2378 33.6138 2.49783 32.0938 2.64234 31.9265C2.50853 31.5499 2.25296 30.7174 2.30113 30.3995Z" fill="#FFE082"/>
<path fill-rule="evenodd" clip-rule="evenodd" d="M6.61909 22.9438V27.3507H6.11682V28.3346H6.61909V28.8675H6.11682V29.8719H6.61909V32.8235H7.73283V29.8719H11.751V28.8675H7.73283V28.3346L11.882 28.2936C12.5572 28.0639 13.2876 27.4164 13.5854 26.5923C13.9675 25.5349 13.7402 24.2264 12.8647 23.5587C12.5272 23.3013 12.1004 23.0881 11.751 22.9643C11.6158 22.9164 11.2269 22.8823 11.2269 22.8823L6.61909 22.9438ZM7.73283 27.3507V23.8867H11.0959C11.0959 23.8867 11.6812 23.9809 12.1004 24.3376C12.4361 24.6233 12.6205 25.1287 12.6464 25.506C12.6743 25.9137 12.5121 26.488 12.1659 26.8178C11.7345 27.2288 11.0959 27.3507 11.0959 27.3507H7.73283Z" fill="#FFE082"/>
<path d="M6.88318 35.8337V35.7852L7.05395 35.7382V33.6852L6.88318 33.6367V33.5881H7.68011C7.84301 33.5881 7.98092 33.6038 8.09384 33.6351C8.20676 33.6664 8.29747 33.7118 8.36596 33.7714C8.43538 33.8309 8.48537 33.9029 8.51591 33.9875C8.54645 34.072 8.56173 34.1691 8.56173 34.2787C8.56173 34.3873 8.54645 34.4839 8.51591 34.5684C8.48537 34.653 8.43538 34.7255 8.36596 34.7861C8.29747 34.8456 8.20676 34.891 8.09384 34.9223C7.98092 34.9526 7.84301 34.9677 7.68011 34.9677H7.52322V35.7382L7.69399 35.7852V35.8337H6.88318ZM7.52322 34.8879H7.68011C7.73657 34.8879 7.78886 34.8759 7.83699 34.8519C7.88605 34.8268 7.92863 34.7892 7.96472 34.7391C8.00082 34.688 8.02859 34.6248 8.04803 34.5496C8.06839 34.4734 8.07857 34.3831 8.07857 34.2787C8.07857 34.071 8.04062 33.9175 7.96472 33.8183C7.88883 33.7192 7.79395 33.6696 7.68011 33.6696H7.52322V34.8879Z" fill="#FFE082"/>
<path d="M8.93176 33.6367V33.5881H9.30106C9.40195 33.5881 9.48155 33.6158 9.53987 33.6711C9.59818 33.7254 9.64631 33.7886 9.68426 33.8606L10.1646 34.8017L10.5798 33.7338L10.3673 33.6367V33.5881H11.0676L11.027 33.6696L10.8848 33.7338L10.1125 35.4207C10.044 35.5982 9.97786 35.7079 9.90936 35.7852C9.8418 35.8624 9.67917 35.8823 9.59957 35.8823C9.51441 35.8823 9.44546 35.8546 9.3927 35.7993C9.34086 35.7429 9.31495 35.674 9.31495 35.5926C9.31495 35.5111 9.3367 35.4454 9.3802 35.3952C9.4237 35.3451 9.47785 35.3201 9.54264 35.3201C9.55745 35.3201 9.57087 35.3211 9.5829 35.3232C9.59586 35.3253 9.6079 35.3274 9.619 35.3295C9.63011 35.3316 9.64261 35.3342 9.65649 35.3373V35.7852C9.69999 35.7768 9.74581 35.7424 9.79394 35.6818C9.84207 35.6202 9.89112 35.521 9.94111 35.3843L9.07337 33.6852L8.93176 33.6367Z" fill="#FFE082"/>
<path d="M11.3052 35.8337V35.7852L11.476 35.7382V33.6852L11.3052 33.6367V33.5881H12.813V34.166H12.7269C12.6908 34.1336 12.6598 34.0929 12.6339 34.0438C12.6108 34.001 12.5895 33.9493 12.57 33.8888C12.5515 33.8282 12.5423 33.7552 12.5423 33.6696H11.9453V34.5183H12.1021C12.265 34.5183 12.403 34.534 12.5159 34.5653C12.6288 34.5966 12.7195 34.6405 12.788 34.6968C12.8574 34.7532 12.9074 34.8221 12.9379 34.9035C12.9685 34.985 12.9838 35.0758 12.9838 35.176C12.9838 35.2762 12.9685 35.3671 12.9379 35.4485C12.9074 35.5299 12.8574 35.5993 12.788 35.6568C12.7195 35.7131 12.6288 35.757 12.5159 35.7883C12.403 35.8186 12.265 35.8337 12.1021 35.8337H11.3052ZM11.9453 35.7538H12.1021C12.216 35.7538 12.3109 35.7058 12.3868 35.6098C12.4627 35.5127 12.5006 35.3681 12.5006 35.176C12.5006 34.9839 12.4627 34.8399 12.3868 34.7438C12.3109 34.6478 12.216 34.5997 12.1021 34.5997H11.9453V35.7538Z" fill="#FFE082"/>
<path d="M13.3677 35.5926C13.3677 35.5111 13.3894 35.4454 13.4329 35.3952C13.4764 35.3451 13.5301 35.3201 13.594 35.3201C13.6088 35.3201 13.6222 35.3211 13.6342 35.3232C13.6472 35.3253 13.6597 35.3274 13.6717 35.3295C13.6828 35.3316 13.6949 35.3342 13.7078 35.3373V35.7192C13.7328 35.7108 13.7438 35.7283 13.7688 35.7053C13.7947 35.6813 13.8075 35.6651 13.8297 35.6098C13.8529 35.5544 13.874 35.4924 13.8907 35.3985C13.9073 35.3101 13.9091 35.1791 13.9147 35.0319V33.6696L13.8078 33.6367V33.5881H15.2725V33.6367L15.1018 33.6852V35.7382L15.2725 35.7852V35.8337H14.4617V35.7852L14.6325 35.7382V33.6696H14.0924L14.0355 35.0319C14.0281 35.1969 14.0123 35.3342 13.9883 35.4438C13.9642 35.5524 13.9351 35.6395 13.9008 35.7053C13.8675 35.77 13.8286 35.8154 13.7842 35.8415C13.7407 35.8687 13.6963 35.8823 13.6509 35.8823C13.5657 35.8823 13.4973 35.8546 13.4454 35.7993C13.3936 35.7429 13.3677 35.674 13.3677 35.5926Z" fill="#FFE082"/>
<path d="M15.8827 35.8337V35.7852L16.0535 35.7382V33.6852L15.8827 33.6367V33.5881H16.6936V33.6367L16.5228 33.6852V34.487H16.7074C16.8703 34.487 17.0083 34.5026 17.1212 34.534C17.2341 34.5642 17.3253 34.6086 17.3947 34.6671C17.4641 34.7245 17.5136 34.795 17.5432 34.8785C17.5738 34.962 17.5891 35.056 17.5891 35.1603C17.5891 35.2647 17.5738 35.3587 17.5432 35.4422C17.5136 35.5257 17.4641 35.5967 17.3947 35.6552C17.3253 35.7126 17.2341 35.757 17.1212 35.7883C17.0083 35.8186 16.8703 35.8337 16.7074 35.8337H15.8827ZM16.5228 35.7538H16.7074C16.8213 35.7538 16.9162 35.7053 16.9921 35.6082C17.068 35.5101 17.1059 35.3608 17.1059 35.1603C17.1059 34.9589 17.068 34.8096 16.9921 34.7125C16.9162 34.6154 16.8213 34.5669 16.7074 34.5669H16.5228V35.7538Z" fill="#FFE082"/>
<path d="M28.0323 36.0628L30.7679 25.3515C31.5003 22.4579 33.8805 21.0074 37.9086 21H43.2937C43.545 21 43.7568 21.1079 43.9291 21.3236C44.1086 21.5393 44.1984 21.7848 44.1984 22.06V35.9512C44.1984 36.2413 44.1015 36.4905 43.9076 36.6987C43.7209 36.8996 43.4876 37 43.2075 37H41.1504C40.8704 37 40.6299 36.8996 40.4288 36.6987C40.235 36.4905 40.138 36.2413 40.138 35.9512V24.1576H37.5101C36.8208 24.1576 36.2177 24.3622 35.7007 24.7713C35.1909 25.1729 34.8463 25.7159 34.6668 26.4003L32.2004 35.9512C32.1286 36.2562 31.967 36.5091 31.7157 36.7099C31.4644 36.9033 31.1988 37 30.9187 37H28.7324C28.4811 37 28.2944 36.9182 28.1723 36.7545C28.0574 36.5909 28 36.4533 28 36.3417C28.0072 36.2301 28.018 36.1371 28.0323 36.0628Z" fill="#6E7191"/>
<path d="M47.2894 35.9512V22.06C47.2894 21.755 47.3864 21.5021 47.5802 21.3013C47.7741 21.1004 48.0182 21 48.3126 21H50.2082C50.4882 21 50.7251 21.1004 50.919 21.3013C51.12 21.5021 51.2206 21.7476 51.2206 22.0377V33.2064L57.3488 22.06C57.514 21.7699 57.7401 21.5207 58.0273 21.3124C58.3145 21.1041 58.5802 21 58.8243 21H62.0015C62.2816 21 62.5185 21.1041 62.7124 21.3124C62.9062 21.5207 63.0032 21.7699 63.0032 22.06V35.9512C63.0032 36.2413 62.9026 36.4905 62.7016 36.6987C62.5006 36.8996 62.26 37 61.98 37H60.0844C59.8044 37 59.5639 36.8996 59.3628 36.6987C59.169 36.4905 59.072 36.2413 59.072 35.9512V25.5969L53.45 35.9512C53.2849 36.2413 53.0515 36.4905 52.7499 36.6987C52.4484 36.8996 52.1576 37 51.8775 37H48.3126C48.0326 37 47.792 36.8996 47.591 36.6987C47.39 36.4905 47.2894 36.2413 47.2894 35.9512Z" fill="#6E7191"/>
<path d="M66.0942 35.9735V22.06C66.0942 21.755 66.1911 21.5021 66.385 21.3013C66.5789 21.1004 66.823 21 67.1174 21H77.5214C77.8158 21 78.0563 21.1004 78.243 21.3013C78.4369 21.5021 78.5338 21.755 78.5338 22.06V23.1088C78.5338 23.4138 78.4369 23.6667 78.243 23.8675C78.0563 24.0609 77.8158 24.1576 77.5214 24.1576H70.1546V35.9735C70.1546 36.2636 70.0541 36.5091 69.853 36.7099C69.6592 36.9033 69.4222 37 69.1422 37H67.1174C66.8374 37 66.5968 36.9033 66.3958 36.7099C66.1947 36.5091 66.0942 36.2636 66.0942 35.9735Z" fill="#6E7191"/>
<path d="M78.1784 35.9735L80.8817 25.3515C81.6141 22.4579 83.9979 21.0074 88.0331 21H93.8383C94.1039 21 94.3229 21.1041 94.4952 21.3124C94.6748 21.5207 94.7645 21.7624 94.7645 22.0377V35.9735C94.7645 36.2636 94.664 36.5091 94.4629 36.7099C94.2619 36.9033 94.0214 37 93.7413 37H91.7165C91.4221 37 91.178 36.9033 90.9842 36.7099C90.7975 36.5091 90.7041 36.2562 90.7041 35.9512V33.1395H83.0465L82.3249 35.9512C82.2531 36.2562 82.0916 36.5091 81.8403 36.7099C81.589 36.9033 81.3233 37 81.0433 37H78.9215C78.6415 37 78.4405 36.9182 78.3184 36.7545C78.1963 36.5834 78.1353 36.4347 78.1353 36.3082C78.1425 36.1818 78.1568 36.0702 78.1784 35.9735ZM83.8435 29.9819H90.7041V24.1576H87.6346C86.9453 24.1576 86.3422 24.3622 85.8252 24.7713C85.3154 25.1729 84.9708 25.7159 84.7913 26.4003L83.8435 29.9819Z" fill="#6E7191"/>
<path d="M97.8448 35.9512V22.06C97.8448 21.7699 97.9417 21.5207 98.1356 21.3124C98.3294 21.1041 98.5664 21 98.8464 21H107.064C111.408 21 113.58 23.0753 113.58 27.2259C113.58 31.3691 111.408 33.4407 107.064 33.4407H101.905V35.9512C101.905 36.2413 101.805 36.4905 101.604 36.6987C101.41 36.8996 101.173 37 100.893 37H98.868C98.5879 37 98.3474 36.8996 98.1463 36.6987C97.9453 36.4905 97.8448 36.2413 97.8448 35.9512ZM101.905 30.2831H105.836C107.043 30.2831 107.958 30.0748 108.583 29.6583C109.207 29.2343 109.52 28.4235 109.52 27.2259C109.52 26.0209 109.207 25.2101 108.583 24.7936C107.958 24.3696 107.043 24.1576 105.836 24.1576H101.905V30.2831Z" fill="#6E7191"/>
<path d="M114.42 37C114.061 37 113.86 36.8326 113.817 36.4979C113.817 36.3343 113.892 36.152 114.043 35.9512L119.471 28.7768L114.356 22.06C114.205 21.8666 114.129 21.6843 114.129 21.5132C114.129 21.1711 114.327 21 114.722 21H117.037C117.755 21 118.384 21.3533 118.922 22.06L121.873 25.9428L124.824 22.06C125.355 21.3608 125.984 21.0074 126.709 21H129.025C129.419 21 129.617 21.1711 129.617 21.5132C129.617 21.6769 129.541 21.8591 129.391 22.06L124.275 28.7768L129.703 35.9512C129.854 36.1446 129.929 36.3008 129.929 36.4198C129.929 36.5388 129.915 36.6244 129.886 36.6764C129.807 36.8921 129.62 37 129.326 37H127.032C126.314 37 125.689 36.6504 125.158 35.9512L121.873 31.6109L118.588 35.9512C118.057 36.6504 117.432 37 116.714 37H114.42Z" fill="#6E7191"/>
<path d="M130.414 35.9735L133.117 25.3515C133.85 22.4579 136.233 21.0074 140.269 21H146.074C146.339 21 146.558 21.1041 146.731 21.3124C146.91 21.5207 147 21.7624 147 22.0377V35.9735C147 36.2636 146.899 36.5091 146.698 36.7099C146.497 36.9033 146.257 37 145.977 37H143.952C143.658 37 143.414 36.9033 143.22 36.7099C143.033 36.5091 142.94 36.2562 142.94 35.9512V33.1395H135.282L134.56 35.9512C134.489 36.2562 134.327 36.5091 134.076 36.7099C133.824 36.9033 133.559 37 133.279 37H131.157C130.877 37 130.676 36.9182 130.554 36.7545C130.432 36.5834 130.371 36.4347 130.371 36.3082C130.378 36.1818 130.392 36.0702 130.414 35.9735ZM136.079 29.9819H142.94V24.1576H139.87C139.181 24.1576 138.578 24.3622 138.061 24.7713C137.551 25.1729 137.206 25.7159 137.027 26.4003L136.079 29.9819Z" fill="#6E7191"/>
</svg>
