<svg width="33" height="32" xmlns="http://www.w3.org/2000/svg" xmlns:xlink="http://www.w3.org/1999/xlink">
  
   <g id="arrow" width="10" height="8" viewBox="0 0 10 8" xmlns="http://www.w3.org/2000/svg">
      <path d="M5 8L9.33013 0.5H0.669873L5 8Z"/>
   </g>

   <g id="mail" width="33" height="32" viewBox="0 0 33 32" xmlns="http://www.w3.org/2000/svg">
      <path fill-rule="evenodd" clip-rule="evenodd" d="M22.8236 4C24.6305 4 26.3686 4.70667 27.6472 5.97467C28.9272 7.24 29.6427 8.94667 29.6427 10.7333V21.2667C29.6427 24.9867 26.5842 28 22.8236 28H9.513C5.75249 28 2.69531 24.9867 2.69531 21.2667V10.7333C2.69531 7.01333 5.73902 4 9.513 4H22.8236ZM24.9673 12.72L25.0751 12.6133C25.3971 12.2267 25.3971 11.6667 25.0603 11.28C24.873 11.0813 24.6157 10.96 24.3475 10.9333C24.0646 10.9187 23.7951 11.0133 23.5916 11.2L17.5164 16C16.7349 16.6413 15.6152 16.6413 14.8216 16L8.75847 11.2C8.33944 10.8933 7.76007 10.9333 7.4111 11.2933C7.04731 11.6533 7.00689 12.2267 7.31544 12.6267L7.49194 12.8L13.6225 17.5333C14.377 18.12 15.2919 18.44 16.2498 18.44C17.2051 18.44 18.1362 18.12 18.8893 17.5333L24.9673 12.72Z"/>
   </g>

   <g id="kolokolchik" width="32" height="32" viewBox="0 0 32 32" xmlns="http://www.w3.org/2000/svg">
      <path fill-rule="evenodd" clip-rule="evenodd" d="M24.9428 11.7284C24.9428 13.403 25.3854 14.39 26.3594 15.5274C27.0975 16.3654 27.3334 17.441 27.3334 18.608C27.3334 19.7736 26.9504 20.8801 26.1832 21.7785C25.1787 22.8555 23.7621 23.5431 22.3164 23.6626C20.2213 23.8412 18.125 23.9916 16.0007 23.9916C13.8752 23.9916 11.7801 23.9016 9.68509 23.6626C8.23802 23.5431 6.82144 22.8555 5.8183 21.7785C5.05104 20.8801 4.66675 19.7736 4.66675 18.608C4.66675 17.441 4.90395 16.3654 5.64073 15.5274C6.64519 14.39 7.05864 13.403 7.05864 11.7284V11.1604C7.05864 8.91775 7.61785 7.45132 8.76941 6.01578C10.4815 3.92222 13.2259 2.66663 15.9411 2.66663H16.0604C18.8339 2.66663 21.6671 3.98265 23.35 6.16618C24.4419 7.57218 24.9428 8.97683 24.9428 11.1604V11.7284ZM12.0983 26.7477C12.0983 26.0763 12.7145 25.7688 13.2843 25.6372C13.9509 25.4962 18.0125 25.4962 18.679 25.6372C19.2488 25.7688 19.865 26.0763 19.865 26.7477C19.8319 27.387 19.4569 27.9536 18.9387 28.3135C18.2669 28.8373 17.4784 29.169 16.6542 29.2885C16.1983 29.3476 15.7504 29.3489 15.3105 29.2885C14.4849 29.169 13.6964 28.8373 13.0259 28.3122C12.5065 27.9536 12.1314 27.387 12.0983 26.7477Z"/>
   </g>

   <g id="kolokolchik20" width="20" height="20" viewBox="0 0 20 20"  xmlns="http://www.w3.org/2000/svg">
      <path fill-rule="evenodd" clip-rule="evenodd" d="M15.5905 7.3306C15.5905 8.37721 15.8672 8.9941 16.4759 9.70498C16.9372 10.2287 17.0846 10.901 17.0846 11.6303C17.0846 12.3589 16.8453 13.0504 16.3657 13.6119C15.738 14.2851 14.8526 14.7148 13.949 14.7895C12.6396 14.9011 11.3293 14.9951 10.0017 14.9951C8.67325 14.9951 7.36384 14.9389 6.05443 14.7895C5.15002 14.7148 4.26465 14.2851 3.63769 13.6119C3.15815 13.0504 2.91797 12.3589 2.91797 11.6303C2.91797 10.901 3.06622 10.2287 3.52671 9.70498C4.1545 8.9941 4.4129 8.37721 4.4129 7.3306V6.97558C4.4129 5.57394 4.76241 4.65742 5.48213 3.76021C6.55219 2.45174 8.26743 1.66699 9.96445 1.66699H10.039C11.7724 1.66699 13.5432 2.48951 14.595 3.85421C15.2775 4.73296 15.5905 5.61087 15.5905 6.97558V7.3306ZM7.5627 16.7177C7.5627 16.298 7.94782 16.1058 8.30395 16.0236C8.72055 15.9355 11.259 15.9355 11.6756 16.0236C12.0318 16.1058 12.4169 16.298 12.4169 16.7177C12.3962 17.1172 12.1618 17.4714 11.838 17.6963C11.4181 18.0236 10.9253 18.2309 10.4101 18.3056C10.1252 18.3426 9.84527 18.3434 9.5703 18.3056C9.05432 18.2309 8.56153 18.0236 8.14245 17.6955C7.81779 17.4714 7.5834 17.1172 7.5627 16.7177Z"/>
   </g>


   <g id="facebook" width="24" height="24" viewBox="0 0 24 24" xmlns="http://www.w3.org/2000/svg">
      <path d="M17.981 0H6C2.70476 0 0 2.70476 0 6.01905V18C0 21.2952 2.70476 24 6 24H17.981C21.2952 24 24 21.2952 24 17.981V6.01905C24 2.70476 21.2952 0 17.981 0ZM15.219 12H12.9524V19.4286H10.0952V12H8.57143V8.95238H9.90476V7.65714C9.90476 6.4381 10.5143 4.51429 13.0857 4.51429H15.4286V7.04762H13.7714C13.5048 7.04762 13.1429 7.21905 13.1429 7.80952V8.95238H15.4857L15.219 12Z"/>
   </g>

  <g id="vk" width="24" height="24" viewBox="0 0 24 24" xmlns="http://www.w3.org/2000/svg">
      <rect width="24" height="24" rx="6"/>
      <path d="M13.6385 16.9318V14.0047C15.6969 14.3045 16.3477 15.8518 17.6585 16.9318H21C20.1646 15.1504 18.9181 13.5726 17.3538 12.3164C18.5538 10.7382 19.8277 9.25262 20.4508 7H17.4138C16.2231 8.72363 15.5954 10.7426 13.6385 12.0739V7H9.23077L10.2831 8.24313V12.6734C8.57539 12.4839 7.42154 9.49949 6.17077 7H3C4.15385 10.3767 6.58154 17.787 13.6385 16.9318Z" fill="white"/>
   </g>

   <g id="odnoklassniki" width="24" height="24" viewBox="0 0 24 24" xmlns="http://www.w3.org/2000/svg">
      <rect width="24" height="24" rx="6"/>
      <path d="M11.9859 12.341C9.1609 12.341 6.8129 9.995 6.8129 7.219C6.8129 4.347 9.1609 2 11.9869 2C14.9089 2 17.1599 4.346 17.1599 7.219C17.1549 8.58205 16.6088 9.88733 15.6418 10.848C14.6748 11.8086 13.366 12.346 12.0029 12.342L11.9859 12.341ZM11.9859 5.017C10.7899 5.017 9.8799 6.022 9.8799 7.22C9.8799 8.416 10.7899 9.326 11.9869 9.326C13.2319 9.326 14.0939 8.416 14.0939 7.22C14.0949 6.021 13.2319 5.017 11.9859 5.017ZM14.0459 16.603L16.9689 19.428C17.5439 20.049 17.5439 20.959 16.9689 21.534C16.3469 22.155 15.3879 22.155 14.9089 21.534L11.9869 18.661L9.1609 21.534C8.8739 21.821 8.4899 21.964 8.0579 21.964C7.7229 21.964 7.3399 21.82 7.0039 21.534C6.4289 20.959 6.4289 20.049 7.0039 19.427L9.9739 16.602C8.90134 16.2844 7.87244 15.8346 6.9109 15.263C6.1919 14.88 6.0489 13.923 6.4319 13.204C6.9109 12.486 7.7729 12.295 8.5399 12.774C9.5785 13.4078 10.7717 13.7431 11.9884 13.7431C13.2051 13.7431 14.3983 13.4078 15.4369 12.774C16.2039 12.295 17.1129 12.486 17.5439 13.204C17.9759 13.923 17.7829 14.879 17.1119 15.263C16.2029 15.838 15.1489 16.269 14.0469 16.604L14.0459 16.603Z" fill="white"/>
   </g>

   <g id="instagram" width="24" height="24" viewBox="0 0 24 24" xmlns="http://www.w3.org/2000/svg">
      <path d="M14.1214 10.4573C13.6456 9.79063 12.8653 9.35254 11.9898 9.35254C11.1143 9.35254 10.3339 9.79063 9.85813 10.4573C9.55361 10.8954 9.36328 11.4287 9.36328 12.0002C9.36328 13.4478 10.5433 14.6287 11.9898 14.6287C13.4362 14.6287 14.6163 13.4478 14.6163 12.0002C14.6163 11.4287 14.4259 10.8954 14.1214 10.4573Z"/>
      <path d="M15.7802 10.4766C15.9705 10.8575 16.0847 11.467 16.0847 12.0004C16.0847 14.248 14.2576 16.0956 11.9927 16.0956C9.72788 16.0956 7.90076 14.267 7.90076 12.0004C7.90076 11.448 8.01495 10.8575 8.20528 10.4766H5.90234V16.5908C5.90234 17.3908 6.60655 18.0956 7.40591 18.0956H16.5796C17.3789 18.0956 18.0832 17.3908 18.0832 16.5908V10.4766H15.7802Z"/>
      <path d="M17.3992 6.24659H15.1914V8.77992H17.7037V6.5704V6.22754L17.3992 6.24659Z"/>
      <path d="M17.9667 0H6.01427C2.70262 0 0 2.70476 0 6.01905V18C0 21.2952 2.70262 24 6.01427 24H17.9857C21.2974 24 24 21.2952 24 17.981V6.01905C23.981 2.70476 21.2784 0 17.9667 0ZM19.4132 10.4571V16.5905C19.4132 18.1905 18.1761 19.4286 16.5773 19.4286H7.40365C5.80492 19.4286 4.5678 18.1905 4.5678 16.5905V10.4571V7.40952C4.5678 5.80952 5.80492 4.57143 7.40365 4.57143H16.5773C18.1761 4.57143 19.4132 5.80952 19.4132 7.40952V10.4571Z"/>
   </g>

   <g id="added" width="24" height="24" viewBox="0 0 24 24" xmlns="http://www.w3.org/2000/svg">
      <path d="M12 22C17.5228 22 22 17.5228 22 12C22 6.47715 17.5228 2 12 2C6.47715 2 2 6.47715 2 12C2 17.5228 6.47715 22 12 22Z"  stroke="#AAB4C1" stroke-width="2" stroke-linecap="round" stroke-linejoin="round"/>
      <path d="M12 8V16" stroke="white" stroke-width="2" stroke-linecap="round" stroke-linejoin="round"/>
      <path d="M8 12H16" stroke="white" stroke-width="2" stroke-linecap="round" stroke-linejoin="round"/>
   </g>


</svg>