<svg xmlns="http://www.w3.org/2000/svg" xmlns:xlink="http://www.w3.org/1999/xlink">

  <symbol id="menu-line" viewBox="0 0 68 14" fill="none" xmlns="http://www.w3.org/2000/svg">
     <path d="M1 4.4837C6.3473 2.88065 14.9897 1.17301 21.32 2.8695C30.8501 5.4235 38.9139 13.6762 52.957 11.1048C58.5783 10.0755 63.3366 8.24065 67 6.36585"  stroke-width="3"/>
  </symbol>

  <symbol id="arrow" viewBox="0 0 16 28" fill="none" xmlns="http://www.w3.org/2000/svg">
     <path d="M0.920205 27.5999L14.5202 13.9999L0.920205 0.399905"/>
  </symbol>

  <symbol id="hero-icon-1" viewBox="0 0 67 67" fill="none" xmlns="http://www.w3.org/2000/svg">
      <circle cx="33.5" cy="33.5" r="33"/>
      <path d="M25.96 20.4403L48.58 33.4999L25.96 46.5596L25.96 20.4403Z"/>
   </symbol>

   <symbol id="hero-icon-2" viewBox="0 0 68 67" fill="none" xmlns="http://www.w3.org/2000/svg">
      <line x1="4.37114e-08" y1="66.5" x2="68" y2="66.5"/>
      <line x1="35.5" y1="58" x2="35.5" y2="-2.18557e-08"/>
      <path d="M0.500024 24.5L35.5 58L67.5 24.5"/>
   </symbol>

   <symbol id="hero-icon-3" viewBox="0 0 68 81" fill="none" xmlns="http://www.w3.org/2000/svg">
      <path d="M67.4617 33.9808C67.4617 38.5355 65.394 43.684 62.2252 48.8832C59.063 54.0715 54.839 59.2543 50.603 63.8649C46.3689 68.4735 42.1331 72.4991 38.955 75.3732C37.3662 76.81 36.0426 77.9582 35.1167 78.7468C34.6538 79.1411 34.2904 79.4455 34.043 79.651C34.0214 79.6689 34.0006 79.6861 33.9808 79.7025C33.961 79.6861 33.9403 79.6689 33.9187 79.651C33.6713 79.4455 33.3078 79.1411 32.8449 78.7468C31.919 77.9582 30.5954 76.81 29.0067 75.3732C25.8286 72.4991 21.5928 68.4735 17.3586 63.8649C13.1227 59.2543 8.89868 54.0715 5.73645 48.8832C2.56763 43.684 0.5 38.5355 0.5 33.9808C0.5 15.4899 15.4899 0.5 33.9808 0.5C52.4718 0.5 67.4617 15.4899 67.4617 33.9808Z"/>
      <path d="M25.0934 46.9553L34.5986 22.2419L44.1037 46.9553" stroke-linejoin="bevel"/>
      <path d="M27.8954 38.8512H41.3015" stroke-linejoin="bevel"/>
   </symbol>

   <symbol id="vk" viewBox="0 0 32 20" xmlns="http://www.w3.org/2000/svg">
      <path d="M30.9336 1.67188C31.1094 0.96875 30.9336 0.382812 29.8789 0.382812H26.4219C25.543 0.382812 25.1328 0.851562 24.8984 1.37891C24.8984 1.37891 23.1406 5.65625 20.6797 8.46875C19.8594 9.23047 19.5078 9.52344 19.0391 9.52344C18.8633 9.52344 18.5117 9.23047 18.5117 8.52734V1.67188C18.5117 0.792969 18.2773 0.382812 17.5156 0.382812H12.125C11.5391 0.382812 11.2461 0.792969 11.2461 1.20312C11.2461 2.02344 12.4766 2.19922 12.5938 4.54297V9.64062C12.5938 10.7539 12.418 10.9883 11.9492 10.9883C10.7773 10.9883 7.96484 6.65234 6.26562 1.73047C5.91406 0.792969 5.5625 0.382812 4.68359 0.382812H1.22656C0.289062 0.382812 0.0546875 0.851562 0.0546875 1.37891C0.0546875 2.31641 1.22656 6.82812 5.50391 12.8633C8.375 16.9648 12.418 19.1328 16.0508 19.1328C18.2188 19.1328 18.5117 18.6641 18.5117 17.8438C18.5117 13.918 18.3359 13.5078 19.3906 13.5078C19.918 13.5078 20.7969 13.8008 22.8477 15.793C25.1914 18.1367 25.6016 19.1328 26.8906 19.1328H30.3477C31.3438 19.1328 31.8125 18.6641 31.5195 17.668C30.875 15.6758 26.4805 11.457 26.2461 11.1641C25.7188 10.5195 25.8945 10.2266 26.2461 9.64062C26.2461 9.64062 30.4648 3.66406 30.9336 1.67188Z"/>
   </symbol>

   <symbol id="odnoklassniki" viewBox="0 0 27 27" xmlns="http://www.w3.org/2000/svg">
      <path d="M10.7812 9.17969C10.7812 10.4102 11.8359 11.4648 13.125 11.4648C14.3555 11.4648 15.4102 10.4688 15.4102 9.17969C15.4102 7.83203 14.3555 6.83594 13.125 6.83594C11.8359 6.83594 10.7812 7.83203 10.7812 9.17969ZM26.25 3.4375C26.25 1.91406 24.9609 0.625 23.4375 0.625H2.8125C1.23047 0.625 0 1.91406 0 3.4375V24.0625C0 25.6445 1.23047 26.875 2.8125 26.875H23.4375C24.9609 26.875 26.25 25.6445 26.25 24.0625V3.4375ZM8.32031 9.17969C8.32031 6.54297 10.4883 4.375 13.125 4.375C15.7031 4.375 17.8711 6.54297 17.8711 9.17969C17.8711 11.7578 15.7031 13.8672 13.125 13.8672C10.4883 13.8672 8.32031 11.7578 8.32031 9.17969ZM18.5742 14.4531C19.043 15.3906 18.5156 15.8594 17.2852 16.6211C16.2891 17.2656 14.9414 17.5 14.0039 17.6172L14.7656 18.3789L17.5781 21.1914C18.5742 22.2461 16.9336 23.8281 15.8789 22.832C15.1758 22.1289 14.1797 21.1328 13.125 20.0195L10.3125 22.832C9.25781 23.8281 7.61719 22.1875 8.67188 21.1914C9.375 20.4297 10.3711 19.4336 11.4258 18.3789L12.1875 17.6172C11.3086 17.5 9.90234 17.2656 8.90625 16.6211C7.67578 15.8594 7.14844 15.3906 7.61719 14.4531C7.91016 13.9258 8.61328 13.457 9.60938 14.2773C9.60938 14.2773 10.957 15.332 13.125 15.332C15.2344 15.332 16.582 14.2773 16.582 14.2773C17.5781 13.457 18.2812 13.9258 18.5742 14.4531Z"/>
   </symbol>

   <symbol id="exit" viewBox="0 0 27 27" fill="none" xmlns="http://www.w3.org/2000/svg">
      <path d="M1 1L13.5 13.5M26 26L13.5 13.5M13.5 13.5L26 1L1 26" stroke-width="2"/>
   </symbol>


</svg>
