<svg width="30" height="30" xmlns="http://www.w3.org/2000/svg" xmlns:xlink="http://www.w3.org/1999/xlink">

  <g id="skype" width="30" height="30" viewBox="0 0 30 30" xmlns="http://www.w3.org/2000/svg">
    <path d="M19.8809 15.8091C19.6904 15.3567 19.3571 15.0233 18.9285 14.7376C18.4999 14.4757 17.9999 14.2376 17.4047 14.0472C16.8095 13.8567 16.1428 13.69 15.4285 13.5472C14.8571 13.4281 14.4285 13.3091 14.1904 13.2376C13.9523 13.1662 13.7142 13.071 13.4761 12.9519C13.2618 12.8329 13.0714 12.7138 12.9523 12.5472C12.8333 12.4043 12.7618 12.2376 12.7618 12.0472C12.7618 11.7138 12.9523 11.4519 13.3095 11.2138C13.6904 10.9757 14.2142 10.8329 14.8571 10.8329C15.5476 10.8329 16.0475 10.9519 16.3571 11.1662C16.6666 11.4043 16.9285 11.7376 17.1666 12.1424C17.3571 12.4757 17.5237 12.69 17.6904 12.8329C17.8809 12.9995 18.119 13.071 18.4523 13.071C18.8095 13.071 19.119 12.9519 19.3809 12.69C19.619 12.4519 19.738 12.1662 19.738 11.8329C19.738 11.4995 19.6428 11.1662 19.4523 10.8329C19.2618 10.4995 18.9761 10.1662 18.5952 9.88049C18.2142 9.57096 17.7142 9.33287 17.119 9.1662C16.5237 8.97573 15.8333 8.9043 15.0237 8.9043C14.0237 8.9043 13.1428 9.04715 12.4047 9.30906C11.6428 9.57096 11.0714 9.97572 10.6666 10.4995C10.2618 11.0233 10.0714 11.6186 10.0714 12.2852C10.0714 12.9757 10.2618 13.571 10.6428 14.0472C11.0237 14.5233 11.5475 14.8805 12.1666 15.1662C12.7856 15.4281 13.5714 15.6662 14.4999 15.8567C15.1904 15.9995 15.738 16.1424 16.1428 16.2614C16.5237 16.3805 16.8571 16.5472 17.0952 16.7852C17.3333 16.9995 17.4285 17.2614 17.4285 17.6186C17.4285 18.0472 17.2142 18.4281 16.7618 18.7138C16.3095 19.0233 15.6904 19.1662 14.9523 19.1662C14.4285 19.1662 13.9761 19.0948 13.6666 18.9281C13.3571 18.7852 13.0952 18.5948 12.9285 18.3567C12.738 18.1186 12.5714 17.8091 12.4047 17.4519C12.2618 17.1186 12.0952 16.8805 11.8809 16.69C11.6666 16.5233 11.4047 16.4281 11.0952 16.4281C10.7142 16.4281 10.4047 16.5472 10.1666 16.7614C9.9285 16.9995 9.78564 17.2614 9.78564 17.5948C9.78564 18.1186 9.97612 18.6424 10.3571 19.19C10.738 19.7138 11.238 20.1662 11.8333 20.4757C12.6666 20.9043 13.738 21.1424 15.0237 21.1424C16.0952 21.1424 17.0237 20.9757 17.8095 20.6662C18.5952 20.3329 19.2142 19.8805 19.619 19.3091C20.0237 18.7376 20.238 18.071 20.238 17.3567C20.238 16.7614 20.119 16.2376 19.8809 15.8091Z"/>
    <path d="M22.4762 0H7.5C3.38095 0 0 3.38095 0 7.52381V22.5C0 26.619 3.38095 30 7.5 30H22.4762C26.619 30 30 26.619 30 22.4762V7.52381C30 3.38095 26.619 0 22.4762 0ZM19.1905 24.3571C18.3095 24.3571 17.4762 24.1429 16.7381 23.7619C16.2143 23.8571 15.6667 23.9048 15.0952 23.9048C10.1667 23.9048 6.16667 19.9524 6.16667 15.0952C6.16667 14.5 6.2381 13.9048 6.35714 13.3333C5.90476 12.5714 5.64286 11.6905 5.64286 10.7619C5.64286 7.95238 7.95238 5.66667 10.8095 5.66667C11.8095 5.66667 12.7619 5.95238 13.5714 6.45238C14.0714 6.38095 14.5714 6.33333 15.0952 6.33333C20.0238 6.33333 24.0238 10.2857 24.0238 15.1429C24.0238 15.7857 23.9524 16.4286 23.8095 17.0238C24.1429 17.7143 24.3571 18.4762 24.3571 19.2857C24.3571 22.0714 22.0476 24.3571 19.1905 24.3571Z"/>
  </g>

  <g id="skype_2" width="21" height="22" viewBox="0 0 21 22" xmlns="http://www.w3.org/2000/svg">
    <path d="M13.9165 11.1522C13.7832 10.8355 13.5499 10.6022 13.2499 10.4022C12.9499 10.2188 12.5999 10.0522 12.1832 9.91885C11.7665 9.78551 11.2999 9.66885 10.7999 9.56885C10.3999 9.48551 10.0999 9.40218 9.93319 9.35218C9.76652 9.30218 9.59985 9.23551 9.43319 9.15218C9.28319 9.06885 9.14985 8.98551 9.06652 8.86885C8.98319 8.76885 8.93319 8.65218 8.93319 8.51885C8.93319 8.28551 9.06652 8.10218 9.31652 7.93551C9.58319 7.76885 9.94985 7.66885 10.3999 7.66885C10.8832 7.66885 11.2332 7.75218 11.4499 7.90218C11.6665 8.06885 11.8499 8.30218 12.0165 8.58551C12.1499 8.81885 12.2665 8.96885 12.3832 9.06885C12.5165 9.18551 12.6832 9.23551 12.9165 9.23551C13.1665 9.23551 13.3832 9.15218 13.5665 8.96885C13.7332 8.80218 13.8165 8.60218 13.8165 8.36885C13.8165 8.13551 13.7499 7.90218 13.6165 7.66885C13.4832 7.43551 13.2832 7.20218 13.0165 7.00218C12.7499 6.78551 12.3999 6.61885 11.9832 6.50218C11.5665 6.36885 11.0832 6.31885 10.5165 6.31885C9.81652 6.31885 9.19985 6.41885 8.68319 6.60218C8.14985 6.78551 7.74985 7.06885 7.46652 7.43551C7.18319 7.80218 7.04985 8.21885 7.04985 8.68551C7.04985 9.16885 7.18319 9.58551 7.44985 9.91885C7.71652 10.2522 8.08319 10.5022 8.51652 10.7022C8.94985 10.8855 9.49985 11.0522 10.1499 11.1855C10.6332 11.2855 11.0165 11.3855 11.2999 11.4688C11.5665 11.5522 11.7999 11.6688 11.9665 11.8355C12.1332 11.9855 12.1999 12.1688 12.1999 12.4188C12.1999 12.7188 12.0499 12.9855 11.7332 13.1855C11.4165 13.4022 10.9832 13.5022 10.4665 13.5022C10.0999 13.5022 9.78319 13.4522 9.56652 13.3355C9.34985 13.2355 9.16652 13.1022 9.04985 12.9355C8.91652 12.7688 8.79985 12.5522 8.68319 12.3022C8.58319 12.0688 8.46652 11.9022 8.31652 11.7688C8.16652 11.6522 7.98319 11.5855 7.76652 11.5855C7.49985 11.5855 7.28319 11.6688 7.11652 11.8188C6.94985 11.9855 6.84985 12.1688 6.84985 12.4022C6.84985 12.7688 6.98319 13.1355 7.24985 13.5188C7.51652 13.8855 7.86652 14.2022 8.28319 14.4188C8.86652 14.7188 9.61652 14.8855 10.5165 14.8855C11.2665 14.8855 11.9165 14.7688 12.4665 14.5522C13.0165 14.3188 13.4499 14.0022 13.7332 13.6022C14.0165 13.2022 14.1665 12.7355 14.1665 12.2355C14.1665 11.8188 14.0832 11.4522 13.9165 11.1522Z"/>
    <path d="M15.7333 0.0859375H5.25C2.36667 0.0859375 0 2.4526 0 5.3526V15.8359C0 18.7193 2.36667 21.0859 5.25 21.0859H15.7333C18.6333 21.0859 21 18.7193 21 15.8193V5.3526C21 2.4526 18.6333 0.0859375 15.7333 0.0859375ZM13.4333 17.1359C12.8167 17.1359 12.2333 16.9859 11.7167 16.7193C11.35 16.7859 10.9667 16.8193 10.5667 16.8193C7.11667 16.8193 4.31667 14.0526 4.31667 10.6526C4.31667 10.2359 4.36667 9.81927 4.45 9.41927C4.13333 8.88594 3.95 8.26927 3.95 7.61927C3.95 5.6526 5.56667 4.0526 7.56667 4.0526C8.26667 4.0526 8.93333 4.2526 9.5 4.6026C9.85 4.5526 10.2 4.51927 10.5667 4.51927C14.0167 4.51927 16.8167 7.28594 16.8167 10.6859C16.8167 11.1359 16.7667 11.5859 16.6667 12.0026C16.9 12.4859 17.05 13.0193 17.05 13.5859C17.05 15.5359 15.4333 17.1359 13.4333 17.1359Z"/>
  </g>

  <g id="telegram" width="30" height="30" viewBox="0 0 30 30" xmlns="http://www.w3.org/2000/svg">
    <path fill-rule="evenodd" clip-rule="evenodd" d="M8 0C3.58172 0 0 3.58172 0 8V22C0 26.4183 3.58172 30 8 30H22C26.4183 30 30 26.4183 30 22V8C30 3.58172 26.4183 0 22 0H8ZM5.50018 14.6324L21.6778 6.16858C21.8175 6.09549 21.9829 6.20527 21.9698 6.3624L20.5322 23.614C20.5187 23.7758 20.3281 23.855 20.2039 23.7502L13.1488 17.799C13.066 17.7292 13.0538 17.6061 13.1214 17.5214L18.3243 11.0029L10.5816 15.9623C10.5379 15.9902 10.4851 16.0001 10.4342 15.9899L5.55336 15.0057C5.36865 14.9685 5.33322 14.7198 5.50018 14.6324Z"/>
  </g>

  <g id="telegram_2" width="22" height="22" viewBox="0 0 22 22" xmlns="http://www.w3.org/2000/svg">
    <path fill-rule="evenodd" clip-rule="evenodd" d="M8 0.0859375C3.58172 0.0859375 0 3.66766 0 8.08594V13.5475C0 17.9658 3.58172 21.5475 8 21.5475H13.4615C17.8798 21.5475 21.4615 17.9658 21.4615 13.5475V8.08594C21.4615 3.66766 17.8798 0.0859375 13.4615 0.0859375H8ZM4.0771 10.4793L15.4162 4.54683C15.5559 4.47373 15.7214 4.58352 15.7083 4.74065L14.6976 16.8691C14.6841 17.031 14.4934 17.1101 14.3693 17.0054L9.44879 12.8548C9.36597 12.785 9.35384 12.6619 9.42143 12.5772L13.1089 7.95727L7.58932 11.4927C7.54563 11.5207 7.49277 11.5306 7.44191 11.5203L4.13028 10.8525C3.94557 10.8153 3.91014 10.5666 4.0771 10.4793Z"/>
  </g>

  <g id="whatsupp" width="30" height="30" viewBox="0 0 30 30" xmlns="http://www.w3.org/2000/svg">
    <path d="M15.1547 7.08984C10.8962 7.08984 7.44653 10.5157 7.44653 14.7504C7.44653 16.4158 7.99372 17.986 8.92155 19.2469L7.94614 22.1017L10.92 21.1501C12.1333 21.959 13.6083 22.411 15.1785 22.411C19.437 22.411 22.9105 18.9852 22.9105 14.7504C22.8867 10.5157 19.4132 7.08984 15.1547 7.08984ZM19.6749 17.9146C19.4846 18.438 18.5568 18.9376 18.1523 18.9852C17.7479 19.0327 17.7479 19.3182 15.4402 18.438C13.1563 17.5339 11.7051 15.2262 11.5861 15.0597C11.4672 14.917 10.6583 13.8464 10.6583 12.752C10.6583 11.6576 11.2292 11.1105 11.4434 10.8963C11.6575 10.6822 11.8954 10.6109 12.0381 10.6109C12.1809 10.6109 12.3474 10.6346 12.4664 10.6346C12.6091 10.6346 12.7756 10.5633 12.966 11.0153C13.1563 11.4673 13.6083 12.5617 13.6559 12.6806C13.7035 12.7996 13.7511 12.9186 13.6797 13.0613C13.6083 13.204 13.5607 13.2992 13.4656 13.4419C13.3466 13.5609 13.2277 13.7274 13.1325 13.8226C13.0135 13.9415 12.8946 14.0605 13.0373 14.2746C13.1801 14.4887 13.6321 15.2262 14.2982 15.821C15.1547 16.5823 15.8922 16.8202 16.1063 16.9392C16.3204 17.0581 16.4632 17.0343 16.5821 16.8916C16.7249 16.7488 17.1531 16.2492 17.2959 16.0113C17.4386 15.7972 17.6051 15.821 17.7955 15.8924C18.0096 15.9638 19.1039 16.5109 19.3419 16.6299C19.556 16.7488 19.7225 16.7964 19.7701 16.8916C19.8415 16.9392 19.8415 17.3912 19.6749 17.9146Z"/>
    <path d="M22.4584 0H7.51784C3.37827 0 0 3.37827 0 7.51784V22.4822C0 26.5979 3.37827 29.9762 7.51784 29.9762H22.4822C26.6217 29.9762 30 26.5979 30 22.4584V7.51784C29.9762 3.37827 26.5979 0 22.4584 0ZM15.1546 23.862C13.5369 23.862 12.0381 23.4576 10.7058 22.7201L5.61459 24.3378L7.27994 19.4607C6.44726 18.0809 5.97145 16.4631 5.97145 14.7502C5.97145 9.70658 10.0872 5.63838 15.1546 5.63838C20.222 5.63838 24.3378 9.70658 24.3378 14.7502C24.3378 19.7938 20.222 23.862 15.1546 23.862Z"/>
  </g>

  <g id="whatsupp_2" width="21" height="22" viewBox="0 0 21 22" xmlns="http://www.w3.org/2000/svg">
    <path d="M10.6084 5.05273C7.6274 5.05273 5.21265 7.45273 5.21265 10.4194C5.21265 11.5861 5.59568 12.6861 6.24516 13.5694L5.56237 15.5694L7.64405 14.9027C8.49338 15.4694 9.52589 15.7861 10.625 15.7861C13.606 15.7861 16.0374 13.3861 16.0374 10.4194C16.0207 7.45273 13.5893 5.05273 10.6084 5.05273ZM13.7725 12.6361C13.6393 13.0027 12.9898 13.3527 12.7067 13.3861C12.4236 13.4194 12.4236 13.6194 10.8082 13.0027C9.20948 12.3694 8.19361 10.7527 8.11035 10.6361C8.02708 10.5361 7.46086 9.78607 7.46086 9.0194C7.46086 8.25273 7.86055 7.8694 8.01043 7.7194C8.16031 7.5694 8.32684 7.5194 8.42676 7.5194C8.52668 7.5194 8.64326 7.53607 8.72653 7.53607C8.82645 7.53607 8.94302 7.48607 9.07625 7.80273C9.20947 8.1194 9.52589 8.88607 9.5592 8.9694C9.5925 9.05273 9.62581 9.13607 9.57585 9.23607C9.52589 9.33607 9.49258 9.40273 9.42597 9.50273C9.3427 9.58607 9.25944 9.70273 9.19282 9.7694C9.10955 9.85273 9.02629 9.93607 9.12621 10.0861C9.22613 10.2361 9.54254 10.7527 10.0088 11.1694C10.6084 11.7027 11.1246 11.8694 11.2745 11.9527C11.4244 12.0361 11.5243 12.0194 11.6076 11.9194C11.7075 11.8194 12.0073 11.4694 12.1072 11.3027C12.2071 11.1527 12.3237 11.1694 12.4569 11.2194C12.6068 11.2694 13.3728 11.6527 13.5394 11.7361C13.6893 11.8194 13.8058 11.8527 13.8391 11.9194C13.8891 11.9527 13.8891 12.2694 13.7725 12.6361Z"/>
    <path d="M15.7209 0.0859375H5.26249C2.36479 0.0859375 0 2.4526 0 5.3526V15.8359C0 18.7193 2.36479 21.0859 5.26249 21.0859H15.7375C18.6352 21.0859 21 18.7193 21 15.8193V5.3526C20.9833 2.4526 18.6186 0.0859375 15.7209 0.0859375ZM10.6082 16.8026C9.47581 16.8026 8.42665 16.5193 7.49405 16.0026L3.93021 17.1359L5.09596 13.7193C4.51308 12.7526 4.18002 11.6193 4.18002 10.4193C4.18002 6.88594 7.06106 4.03594 10.6082 4.03594C14.1554 4.03594 17.0365 6.88594 17.0365 10.4193C17.0365 13.9526 14.1554 16.8026 10.6082 16.8026Z"/>
  </g>

</svg>