<svg width="30" height="30" xmlns="http://www.w3.org/2000/svg" xmlns:xlink="http://www.w3.org/1999/xlink">
  <g id="vk">
    <path d="M15 0C6.71601 0 0 6.7157 0 15C0 23.2843 6.71601 30 15 30C23.284 30 30 23.2843 30 15C30 6.7157 23.284 0 15 0ZM22.6088 16.6223C23.3079 17.3052 24.0476 17.9478 24.6752 18.7013C24.9532 19.0346 25.2153 19.3792 25.4148 19.7669C25.6996 20.3196 25.4425 20.9257 24.9477 20.9586L21.8747 20.958C21.081 21.0236 20.4494 20.7035 19.9169 20.1609C19.4919 19.7285 19.0975 19.2666 18.6881 18.8194C18.5208 18.6359 18.3447 18.4631 18.1347 18.3272C17.7158 18.0546 17.3518 18.1381 17.1118 18.5758C16.8672 19.0211 16.8114 19.5146 16.788 20.0102C16.7546 20.7348 16.5361 20.9242 15.809 20.9583C14.2554 21.031 12.7814 20.7953 11.4114 20.0121C10.2028 19.3212 9.26731 18.3462 8.45217 17.2423C6.86486 15.0902 5.64921 12.7283 4.55693 10.2985C4.3111 9.7513 4.49095 9.45852 5.09463 9.44716C6.0976 9.42783 7.10056 9.43028 8.10353 9.44624C8.51171 9.45268 8.78179 9.68624 8.93862 10.0714C9.48061 11.4049 10.1451 12.6737 10.9777 13.8503C11.1996 14.1637 11.4261 14.4761 11.7486 14.6974C12.1047 14.9417 12.376 14.861 12.5438 14.4635C12.6513 14.2109 12.6976 13.9409 12.7209 13.6702C12.8007 12.743 12.8102 11.8162 12.6721 10.8927C12.5862 10.3148 12.2612 9.94158 11.6851 9.83233C11.3917 9.77678 11.4347 9.66813 11.5774 9.50056C11.8251 9.21084 12.0571 9.03161 12.5208 9.03161L15.9928 9.031C16.5401 9.13841 16.6628 9.38394 16.7371 9.93514L16.7402 13.7936C16.7337 14.0069 16.8473 14.6391 17.2303 14.7787C17.5372 14.88 17.7397 14.6339 17.9233 14.4396C18.7559 13.556 19.3492 12.5131 19.8804 11.4338C20.1149 10.9577 20.3171 10.4652 20.5136 9.97166C20.6596 9.60675 20.8868 9.42721 21.2986 9.43335L24.642 9.43734C24.7406 9.43734 24.8406 9.43826 24.9382 9.45514C25.5017 9.55151 25.6561 9.79396 25.4817 10.3436C25.2074 11.2073 24.6743 11.9266 24.1531 12.6479C23.5946 13.4201 22.9989 14.1652 22.4458 14.9408C21.9376 15.6497 21.9778 16.0066 22.6088 16.6223Z"/>
  </g>

  <g id="inst">
    <path d="M12.1289 15.0001C12.1289 16.5858 13.4143 17.8712 15 17.8712C16.5857 17.8712 17.8711 16.5858 17.8711 15.0001C17.8711 13.4144 16.5857 12.129 15 12.129C13.4143 12.129 12.1289 13.4144 12.1289 15.0001Z"/>
    <path d="M8.28558 9.92003C8.4236 9.54604 8.64378 9.20752 8.92989 8.92966C9.20775 8.64355 9.54604 8.42337 9.92026 8.28535C10.2238 8.16748 10.6797 8.02718 11.5195 7.98895C12.4279 7.94753 12.7003 7.9386 15.0001 7.9386C17.3001 7.9386 17.5725 7.9473 18.4807 7.98872C19.3204 8.02718 19.7766 8.16748 20.0799 8.28535C20.4541 8.42337 20.7926 8.64355 21.0702 8.92966C21.3563 9.20752 21.5765 9.54581 21.7148 9.92003C21.8326 10.2235 21.9729 10.6797 22.0112 11.5195C22.0526 12.4277 22.0615 12.7 22.0615 15.0001C22.0615 17.2999 22.0526 17.5722 22.0112 18.4807C21.9729 19.3204 21.8326 19.7764 21.7148 20.0799C21.5765 20.4541 21.3566 20.7924 21.0705 21.0702C20.7926 21.3563 20.4543 21.5765 20.0801 21.7145C19.7766 21.8326 19.3204 21.9729 18.4807 22.0112C17.5725 22.0526 17.3003 22.0613 15.0003 22.0613C12.7 22.0613 12.4277 22.0526 11.5197 22.0112C10.6799 21.9729 10.2238 21.8326 9.92026 21.7145C9.16907 21.4248 8.57535 20.8311 8.28558 20.0799C8.16771 19.7764 8.0274 19.3204 7.98895 18.4807C7.94753 17.5722 7.93883 17.2999 7.93883 15.0001C7.93883 12.7 7.94753 12.4277 7.98895 11.5195C8.02718 10.6797 8.16748 10.2235 8.28558 9.92003ZM15.0001 19.4227C17.4429 19.4227 19.4232 17.4427 19.4232 14.9998C19.4232 12.557 17.4429 10.5769 15.0001 10.5769C12.5574 10.5769 10.5771 12.557 10.5771 14.9998C10.5771 17.4427 12.5574 19.4227 15.0001 19.4227ZM10.4023 11.4357C10.9731 11.4357 11.4359 10.9729 11.4359 10.4021C11.4359 9.83122 10.9731 9.36842 10.4023 9.36842C9.83145 9.36842 9.36865 9.83122 9.36865 10.4021C9.36888 10.9729 9.83145 11.4357 10.4023 11.4357Z"/>
    <path d="M15 0C23.283 0 30 6.717 30 15C30 23.283 23.283 30 15 30C6.717 30 0 23.283 0 15C0 6.717 6.717 0 15 0ZM6.43867 18.5511C6.48033 19.468 6.62613 20.094 6.83899 20.6419C7.28645 21.7989 8.20107 22.7135 9.35806 23.161C9.90578 23.3739 10.532 23.5194 11.4487 23.5613C12.3672 23.6032 12.6606 23.6133 14.9998 23.6133C17.3392 23.6133 17.6324 23.6032 18.5511 23.5613C19.4678 23.5194 20.094 23.3739 20.6417 23.161C21.2167 22.9447 21.7371 22.6057 22.1674 22.1674C22.6055 21.7374 22.9445 21.2167 23.1608 20.6419C23.3736 20.0942 23.5194 19.468 23.5611 18.5513C23.6034 17.6326 23.6133 17.3392 23.6133 15C23.6133 12.6608 23.6034 12.3674 23.5613 11.4489C23.5197 10.532 23.3741 9.90601 23.1612 9.35806C22.9449 8.78334 22.6057 8.26263 22.1674 7.83257C21.7374 7.39426 21.2167 7.05528 20.6419 6.83899C20.094 6.62613 19.468 6.48056 18.5511 6.43867C17.6326 6.39679 17.3392 6.38672 15 6.38672C12.6608 6.38672 12.3674 6.39679 11.4489 6.4389C10.532 6.48056 9.90601 6.62613 9.35806 6.83876C8.78334 7.05505 8.26263 7.39426 7.83234 7.83257C7.39426 8.26286 7.05505 8.78334 6.83899 9.35806C6.6259 9.90601 6.48033 10.532 6.43845 11.4489C6.39656 12.3674 6.38672 12.6608 6.38672 15C6.38672 17.3392 6.39656 17.6326 6.43867 18.5511Z"/>
  </g>

  <g id="fb">
    <path d="M15 0C6.74999 0 0 6.76205 0 15.0904C0 22.6205 5.48999 28.8705 12.66 30V19.4578H8.84999V15.0904H12.66V11.762C12.66 7.98193 14.895 5.90361 18.33 5.90361C19.965 5.90361 21.675 6.18976 21.675 6.18976V9.90964H19.785C17.925 9.90964 17.34 11.0693 17.34 12.259V15.0904H21.51L20.835 19.4578H17.34V30C20.8746 29.4395 24.0933 27.6288 26.4149 24.8947C28.7364 22.1606 30.008 18.6832 30 15.0904C30 6.76205 23.25 0 15 0Z"/>
  </g>

  <g id="search320">
    <path d="M19.929 18.2509L15.8829 14.6859C17.0728 13.1011 17.7165 11.1634 17.7165 9.12543C17.7165 6.6859 16.7923 4.39846 15.1211 2.67375C13.4498 0.949044 11.2234 0 8.85827 0C6.49311 0 4.26673 0.952086 2.59547 2.67375C0.92126 4.39541 0 6.6859 0 9.12543C0 11.5619 0.924213 13.8554 2.59547 15.5771C4.26673 17.3018 6.49016 18.2509 8.85827 18.2509C10.8366 18.2509 12.7146 17.5877 14.253 16.3649L18.2991 19.9269C18.3216 19.9501 18.3483 19.9685 18.3777 19.981C18.4071 19.9935 18.4386 20 18.4704 20C18.5022 20 18.5337 19.9935 18.5631 19.981C18.5924 19.9685 18.6191 19.9501 18.6416 19.9269L19.929 18.6037C19.9515 18.5805 19.9694 18.553 19.9816 18.5228C19.9937 18.4925 20 18.46 20 18.4273C20 18.3945 19.9937 18.3621 19.9816 18.3318C19.9694 18.3015 19.9515 18.274 19.929 18.2509ZM13.5354 13.9437C12.2835 15.2303 10.624 15.9391 8.85827 15.9391C7.09252 15.9391 5.43307 15.2303 4.1811 13.9437C2.93209 12.6539 2.24409 10.9444 2.24409 9.12543C2.24409 7.30643 2.93209 5.59389 4.1811 4.3072C5.43307 3.02052 7.09252 2.31177 8.85827 2.31177C10.624 2.31177 12.2864 3.01747 13.5354 4.3072C14.7844 5.59693 15.4724 7.30643 15.4724 9.12543C15.4724 10.9444 14.7844 12.657 13.5354 13.9437Z"/>
  </g>

  <g id="search">
    <path d="M24.9113 22.8136L19.8536 18.3573C21.341 16.3763 22.1457 13.9543 22.1457 11.4068C22.1457 8.35737 20.9904 5.49807 18.9013 3.34219C16.8123 1.18631 14.0293 0 11.0728 0C8.11639 0 5.33342 1.19011 3.24434 3.34219C1.15157 5.49427 0 8.35737 0 11.4068C0 14.4524 1.15527 17.3193 3.24434 19.4714C5.33342 21.6273 8.1127 22.8136 11.0728 22.8136C13.5458 22.8136 15.8932 21.9847 17.8162 20.4562L22.8739 24.9086C22.902 24.9376 22.9354 24.9606 22.9721 24.9762C23.0088 24.9919 23.0482 25 23.088 25C23.1277 25 23.1671 24.9919 23.2038 24.9762C23.2406 24.9606 23.2739 24.9376 23.302 24.9086L24.9113 23.2546C24.9394 23.2257 24.9617 23.1913 24.9769 23.1535C24.9922 23.1156 25 23.0751 25 23.0341C25 22.9931 24.9922 22.9526 24.9769 22.9147C24.9617 22.8769 24.9394 22.8425 24.9113 22.8136ZM16.9193 17.4296C15.3543 19.0379 13.28 19.9238 11.0728 19.9238C8.86565 19.9238 6.79134 19.0379 5.22638 17.4296C3.66511 15.8174 2.80512 13.6805 2.80512 11.4068C2.80512 9.13303 3.66511 6.99236 5.22638 5.384C6.79134 3.77565 8.86565 2.88972 11.0728 2.88972C13.28 2.88972 15.358 3.77184 16.9193 5.384C18.4806 6.99616 19.3406 9.13303 19.3406 11.4068C19.3406 13.6805 18.4806 15.8212 16.9193 17.4296Z"/>
  </g>

  <g id="projectsIcon">
   <path d="M11.6667 1.75004H11.0833V0.583374H9.91667V1.75004H4.08334V0.583374H2.91667V1.75004H2.33334C1.69167 1.75004 1.16667 2.27504 1.16667 2.91671V12.25C1.16667 12.8917 1.69167 13.4167 2.33334 13.4167H11.6667C12.3083 13.4167 12.8333 12.8917 12.8333 12.25V2.91671C12.8333 2.27504 12.3083 1.75004 11.6667 1.75004ZM11.6667 12.25H2.33334V4.66671H11.6667V12.25Z"/>
  </g>
  <g id="contactsTell">
    <g opacity="0.7">
    <path d="M18.3425 14.0983C17.215 14.0983 16.1242 13.915 15.1067 13.585C14.7858 13.475 14.4283 13.5575 14.1808 13.805L12.7417 15.6108C10.1475 14.3733 7.71833 12.0358 6.42583 9.35L8.21333 7.82833C8.46083 7.57167 8.53417 7.21417 8.43333 6.89333C8.09417 5.87583 7.92 4.785 7.92 3.6575C7.92 3.1625 7.5075 2.75 7.0125 2.75H3.84083C3.34583 2.75 2.75 2.97 2.75 3.6575C2.75 12.1733 9.83583 19.25 18.3425 19.25C18.9933 19.25 19.25 18.6725 19.25 18.1683V15.0058C19.25 14.5108 18.8375 14.0983 18.3425 14.0983Z"/>
    </g>
  </g>
</svg>
