<svg width="31" height="30" xmlns="http://www.w3.org/2000/svg" xmlns:xlink="http://www.w3.org/1999/xlink">

  <g id="phone" width="18" height="18">
    <path d="M16.3425 12.0983C15.215 12.0983 14.1242 11.915 13.1067 11.585C12.7858 11.475 12.4283 11.5575 12.1808 11.805L10.7417 13.6108C8.1475 12.3733 5.71833 10.0358 4.42583 7.35L6.21333 5.82833C6.46083 5.57167 6.53417 5.21417 6.43333 4.89333C6.09417 3.87583 5.92 2.785 5.92 1.6575C5.92 1.1625 5.5075 0.75 5.0125 0.75H1.84083C1.34583 0.75 0.75 0.97 0.75 1.6575C0.75 10.1733 7.83583 17.25 16.3425 17.25C16.9933 17.25 17.25 16.6725 17.25 16.1683V13.0058C17.25 12.5108 16.8375 12.0983 16.3425 12.0983Z"/>
  </g>

  <g id="fb" width="30" height="30">
    <path d="M15 0C6.74999 0 0 6.76205 0 15.0904C0 22.6205 5.48999 28.8705 12.66 30V19.4578H8.84999V15.0904H12.66V11.762C12.66 7.98193 14.895 5.90361 18.33 5.90361C19.965 5.90361 21.675 6.18976 21.675 6.18976V9.90964H19.785C17.925 9.90964 17.34 11.0693 17.34 12.259V15.0904H21.51L20.835 19.4578H17.34V30C20.8746 29.4395 24.0933 27.6288 26.4149 24.8947C28.7364 22.1606 30.008 18.6832 30 15.0904C30 6.76205 23.25 0 15 0Z"/>
  </g>


  <g id="inst" width="30" height="30">
  <g clip-path="url(#clip0_10774_1089)">
    <path d="M12.1047 14.9706C12.1047 16.5531 13.3875 17.836 14.9701 17.836C16.5526 17.836 17.8354 16.5531 17.8354 14.9706C17.8354 13.3881 16.5526 12.1052 14.9701 12.1052C13.3875 12.1052 12.1047 13.3881 12.1047 14.9706Z"/>
    <path d="M8.26898 9.90082C8.40672 9.52757 8.62647 9.18973 8.912 8.91242C9.18931 8.62689 9.52692 8.40715 9.9004 8.2694C10.2033 8.15177 10.6583 8.01174 11.4964 7.97359C12.403 7.93225 12.6749 7.92334 14.9701 7.92334C17.2655 7.92334 17.5373 7.93202 18.4437 7.97337C19.2818 8.01174 19.7371 8.15177 20.0397 8.2694C20.4132 8.40715 20.7511 8.62689 21.0281 8.91242C21.3137 9.18973 21.5334 9.52734 21.6714 9.90082C21.789 10.2037 21.9291 10.659 21.9672 11.4971C22.0085 12.4034 22.0175 12.6753 22.0175 14.9707C22.0175 17.2659 22.0085 17.5378 21.9672 18.4444C21.9291 19.2825 21.789 19.7375 21.6714 20.0404C21.5334 20.4139 21.3139 20.7515 21.0284 21.0288C20.7511 21.3143 20.4135 21.5341 20.04 21.6718C19.7371 21.7897 19.2818 21.9297 18.4437 21.9679C17.5373 22.0092 17.2657 22.0179 14.9703 22.0179C12.6746 22.0179 12.4028 22.0092 11.4966 21.9679C10.6585 21.9297 10.2033 21.7897 9.9004 21.6718C9.1507 21.3826 8.55817 20.7901 8.26898 20.0404C8.15134 19.7375 8.01132 19.2825 7.97294 18.4444C7.9316 17.5378 7.92292 17.2659 7.92292 14.9707C7.92292 12.6753 7.9316 12.4034 7.97294 11.4971C8.01109 10.659 8.15111 10.2037 8.26898 9.90082ZM14.9701 19.3846C17.4081 19.3846 19.3844 17.4085 19.3844 14.9705C19.3844 12.5325 17.4081 10.5564 14.9701 10.5564C12.5323 10.5564 10.556 12.5325 10.556 14.9705C10.556 17.4085 12.5323 19.3846 14.9701 19.3846ZM10.3815 11.4135C10.9512 11.4135 11.413 10.9516 11.413 10.3819C11.413 9.81219 10.9512 9.35031 10.3815 9.35031C9.81177 9.35031 9.34989 9.81219 9.34989 10.3819C9.35012 10.9516 9.81177 11.4135 10.3815 11.4135Z"/>
    <path d="M14.9701 0.000488281C23.2366 0.000488281 29.9402 6.70409 29.9402 14.9706C29.9402 23.2371 23.2366 29.9407 14.9701 29.9407C6.7036 29.9407 -1.90735e-06 23.2371 -1.90735e-06 14.9706C-1.90735e-06 6.70409 6.7036 0.000488281 14.9701 0.000488281ZM6.42584 18.5146C6.46741 19.4297 6.61292 20.0544 6.82535 20.6013C7.27192 21.756 8.18471 22.6687 9.3394 23.1153C9.88603 23.3278 10.511 23.473 11.4258 23.5148C12.3425 23.5566 12.6354 23.5667 14.9699 23.5667C17.3046 23.5667 17.5972 23.5566 18.5141 23.5148C19.429 23.473 20.0539 23.3278 20.6006 23.1153C21.1744 22.8995 21.6938 22.5612 22.1232 22.1237C22.5604 21.6945 22.8987 21.1748 23.1146 20.6013C23.327 20.0546 23.4725 19.4297 23.5141 18.5148C23.5564 17.5979 23.5662 17.3051 23.5662 14.9706C23.5662 12.6361 23.5564 12.3432 23.5143 11.4266C23.4728 10.5115 23.3275 9.88674 23.1151 9.33989C22.8992 8.76632 22.5607 8.24665 22.1232 7.81744C21.694 7.38 21.1744 7.0417 20.6008 6.82584C20.0539 6.61341 19.4292 6.46813 18.5141 6.42633C17.5974 6.38452 17.3046 6.37447 14.9701 6.37447C12.6356 6.37447 12.3427 6.38452 11.4261 6.42655C10.511 6.46813 9.88625 6.61341 9.3394 6.82561C8.76583 7.04148 8.24616 7.38 7.81672 7.81744C7.37951 8.24688 7.04099 8.76632 6.82535 9.33989C6.61269 9.88674 6.46741 10.5115 6.42561 11.4266C6.38381 12.3432 6.37398 12.6361 6.37398 14.9706C6.37398 17.3051 6.38381 17.5979 6.42584 18.5146Z"/>
  </g>
    <defs>
    <clipPath id="clip0_10774_1089">
    <rect width="29.9402" height="29.9402" fill="white" transform="matrix(-1 0 0 1 29.9402 0.000488281)"/>
    </clipPath>
  </defs>
  </g>

  <g id="vk" width="31" height="30">
    <path d="M15.8505 0C7.58299 0 0.880371 6.70231 0.880371 14.9701C0.880371 23.2379 7.58299 29.9402 15.8505 29.9402C24.1179 29.9402 30.8206 23.2379 30.8206 14.9701C30.8206 6.70231 24.1179 0 15.8505 0ZM23.4441 16.5892C24.1418 17.2707 24.88 17.912 25.5064 18.664C25.7839 18.9966 26.0454 19.3406 26.2445 19.7274C26.5288 20.2791 26.2721 20.884 25.7784 20.9168L22.7114 20.9162C21.9194 20.9817 21.289 20.6623 20.7576 20.1207C20.3334 19.6892 19.9398 19.2282 19.5312 18.7819C19.3643 18.5988 19.1885 18.4263 18.9789 18.2906C18.5609 18.0186 18.1976 18.1019 17.9581 18.5387C17.714 18.9832 17.6582 19.4757 17.6349 19.9703C17.6015 20.6935 17.3835 20.8825 16.6579 20.9165C15.1074 20.9891 13.6363 20.7538 12.269 19.9722C11.0628 19.2827 10.1292 18.3096 9.31569 17.2079C7.73154 15.0601 6.51832 12.7029 5.42822 10.278C5.18288 9.73186 5.36236 9.43966 5.96484 9.42833C6.96581 9.40903 7.96678 9.41148 8.96774 9.42741C9.37511 9.43384 9.64465 9.66693 9.80117 10.0513C10.3421 11.3822 11.0052 12.6484 11.8362 13.8227C12.0576 14.1354 12.2837 14.4473 12.6056 14.6681C12.9609 14.9119 13.2317 14.8313 13.3992 14.4347C13.5064 14.1826 13.5527 13.9131 13.5759 13.6429C13.6556 12.7176 13.6651 11.7926 13.5272 10.871C13.4415 10.2942 13.1171 9.92176 12.5422 9.81272C12.2494 9.75729 12.2923 9.64886 12.4347 9.48162C12.6819 9.19248 12.9134 9.0136 13.3762 9.0136L16.8413 9.01299C17.3874 9.1202 17.51 9.36523 17.5841 9.91533L17.5871 13.7661C17.5807 13.9789 17.694 14.6099 18.0763 14.7493C18.3826 14.8503 18.5847 14.6047 18.7679 14.4108C19.5989 13.529 20.191 12.4882 20.7211 11.411C20.9552 10.9359 21.157 10.4443 21.353 9.95178C21.4988 9.5876 21.7255 9.40842 22.1365 9.41454L25.4733 9.41852C25.5716 9.41852 25.6715 9.41944 25.7689 9.43629C26.3312 9.53247 26.4853 9.77444 26.3113 10.323C26.0375 11.1849 25.5054 11.9029 24.9854 12.6227C24.4279 13.3933 23.8334 14.137 23.2815 14.911C22.7742 15.6185 22.8144 15.9747 23.4441 16.5892Z"/>
  </g>

  <g id="loop" width="25" height="25">
    <path d="M24.9113 22.8136L19.8536 18.3573C21.341 16.3763 22.1457 13.9543 22.1457 11.4068C22.1457 8.35737 20.9904 5.49807 18.9013 3.34219C16.8123 1.18631 14.0293 0 11.0728 0C8.11639 0 5.33342 1.19011 3.24434 3.34219C1.15157 5.49427 0 8.35737 0 11.4068C0 14.4524 1.15527 17.3193 3.24434 19.4714C5.33342 21.6273 8.1127 22.8136 11.0728 22.8136C13.5458 22.8136 15.8932 21.9847 17.8162 20.4562L22.8739 24.9086C22.902 24.9376 22.9354 24.9606 22.9721 24.9762C23.0088 24.9919 23.0482 25 23.088 25C23.1277 25 23.1671 24.9919 23.2038 24.9762C23.2406 24.9606 23.2739 24.9376 23.302 24.9086L24.9113 23.2546C24.9394 23.2257 24.9617 23.1913 24.9769 23.1535C24.9922 23.1156 25 23.0751 25 23.0341C25 22.9931 24.9922 22.9526 24.9769 22.9147C24.9617 22.8769 24.9394 22.8425 24.9113 22.8136ZM16.9193 17.4296C15.3543 19.0379 13.28 19.9238 11.0728 19.9238C8.86565 19.9238 6.79134 19.0379 5.22638 17.4296C3.66511 15.8174 2.80512 13.6805 2.80512 11.4068C2.80512 9.13303 3.66511 6.99236 5.22638 5.384C6.79134 3.77565 8.86565 2.88972 11.0728 2.88972C13.28 2.88972 15.358 3.77184 16.9193 5.384C18.4806 6.99616 19.3406 9.13303 19.3406 11.4068C19.3406 13.6805 18.4806 15.8212 16.9193 17.4296Z"/>
  </g>


  <g id="loop320" width="20" height="20">
    <path d="M19.929 18.2509L15.8829 14.6859C17.0728 13.1011 17.7165 11.1634 17.7165 9.12543C17.7165 6.6859 16.7923 4.39846 15.1211 2.67375C13.4498 0.949044 11.2234 0 8.85827 0C6.49311 0 4.26673 0.952086 2.59547 2.67375C0.92126 4.39541 0 6.6859 0 9.12543C0 11.5619 0.924213 13.8554 2.59547 15.5771C4.26673 17.3018 6.49016 18.2509 8.85827 18.2509C10.8366 18.2509 12.7146 17.5877 14.253 16.3649L18.2991 19.9269C18.3216 19.9501 18.3483 19.9685 18.3777 19.981C18.4071 19.9935 18.4386 20 18.4704 20C18.5022 20 18.5337 19.9935 18.5631 19.981C18.5924 19.9685 18.6191 19.9501 18.6416 19.9269L19.929 18.6037C19.9515 18.5805 19.9694 18.553 19.9816 18.5228C19.9937 18.4925 20 18.46 20 18.4273C20 18.3945 19.9937 18.3621 19.9816 18.3318C19.9694 18.3015 19.9515 18.274 19.929 18.2509ZM13.5354 13.9437C12.2835 15.2303 10.624 15.9391 8.85827 15.9391C7.09252 15.9391 5.43307 15.2303 4.1811 13.9437C2.93209 12.6539 2.24409 10.9444 2.24409 9.12543C2.24409 7.30643 2.93209 5.59389 4.1811 4.3072C5.43307 3.02052 7.09252 2.31177 8.85827 2.31177C10.624 2.31177 12.2864 3.01747 13.5354 4.3072C14.7844 5.59693 15.4724 7.30643 15.4724 9.12543C15.4724 10.9444 14.7844 12.657 13.5354 13.9437Z"/>
  </g>

  <g id="calendary" width="14" height="14">
    <path d="M11.6667 1.75004H11.0833V0.583374H9.91667V1.75004H4.08334V0.583374H2.91667V1.75004H2.33334C1.69167 1.75004 1.16667 2.27504 1.16667 2.91671V12.25C1.16667 12.8917 1.69167 13.4167 2.33334 13.4167H11.6667C12.3083 13.4167 12.8333 12.8917 12.8333 12.25V2.91671C12.8333 2.27504 12.3083 1.75004 11.6667 1.75004ZM11.6667 12.25H2.33334V4.66671H11.6667V12.25Z"/>
  </g>

</svg>
