<svg width="225" height="226" viewBox="0 0 225 226" fill="none" xmlns="http://www.w3.org/2000/svg">
<path d="M157.554 23.4881L162.9 12.5286L165.181 13.6411L160.758 22.7095L163.854 24.2198L168.277 15.1514L170.558 16.2639L166.135 25.3323L169.232 26.8426L173.655 17.7742L175.936 18.8867L170.59 29.8462L157.554 23.4881Z" fill="white"/>
<path d="M180.874 25.6148C182.394 25.3395 183.874 25.7413 185.313 26.8201C186.752 27.899 187.552 29.2063 187.714 30.742C187.879 32.2811 187.381 33.8292 186.219 35.3864C185.06 36.939 183.72 37.853 182.2 38.1284C180.68 38.4037 179.203 38.0036 177.768 36.9281C176.329 35.8492 175.526 34.5403 175.361 33.0012C175.199 31.4655 175.698 29.9213 176.857 28.3686C178.02 26.8115 179.359 25.8935 180.874 25.6148ZM185.259 30.8551C185.24 29.8974 184.833 29.1211 184.04 28.5262C183.246 27.9313 182.386 27.7582 181.459 28.0067C180.537 28.2586 179.693 28.8968 178.929 29.9214C178.167 30.9415 177.796 31.9304 177.815 32.8881C177.838 33.8413 178.248 34.617 179.046 35.2152C179.84 35.8102 180.696 35.9839 181.615 35.7365C182.537 35.4846 183.379 34.8486 184.141 33.8286C184.905 32.804 185.278 31.8128 185.259 30.8551Z" fill="white"/>
<path d="M185.705 44.6703C185.539 44.5028 185.392 44.3333 185.262 44.1618C185.133 43.9904 185.064 43.8808 185.056 43.833L186.53 42.3685C186.612 42.5239 186.767 42.7173 186.996 42.9487C187.267 43.224 187.548 43.4118 187.836 43.512C188.125 43.6122 188.456 43.6231 188.83 43.5445L192.583 34.1354L194.473 36.0505L191.53 42.7099L191.601 42.7818L198.177 39.8026L200.055 41.7057L191.275 45.1923C189.978 45.7062 188.91 45.9342 188.07 45.8763C187.229 45.8184 186.441 45.4164 185.705 44.6703Z" fill="white"/>
<path d="M202.08 66.9277L200.682 64.8155L209.05 59.2186L206.1 54.7626L197.733 60.3594L196.326 58.2331L206.447 51.4635L212.201 60.158L202.08 66.9277Z" fill="white"/>
<path d="M213.639 67.9084C215.106 68.385 216.218 69.4407 216.977 71.0756C217.735 72.7105 217.824 74.2447 217.243 75.6782C216.665 77.1167 215.499 78.2488 213.744 79.0744C211.994 79.8977 210.386 80.071 208.92 79.5945C207.453 79.118 206.342 78.0649 205.586 76.435C204.828 74.8001 204.737 73.2634 205.316 71.8248C205.896 70.3914 207.061 69.263 208.811 68.4398C210.566 67.6141 212.175 67.437 213.639 67.9084ZM215.031 74.6157C215.464 73.7602 215.472 72.8817 215.054 71.9802C214.636 71.0787 213.961 70.5184 213.029 70.2991C212.099 70.085 211.057 70.2496 209.902 70.7929C208.753 71.3337 207.961 72.0319 207.528 72.8873C207.1 73.7404 207.096 74.6202 207.516 75.5268C207.934 76.4283 208.606 76.9873 209.53 77.2038C210.46 77.4179 211.499 77.2546 212.649 76.7137C213.804 76.1705 214.598 75.4711 215.031 74.6157Z" fill="white"/>
<path d="M214.441 87.32C213.722 87.4824 213.125 87.5731 212.651 87.5919C212.182 87.6091 211.769 87.539 211.413 87.3817L211.348 87.401L212.745 92.165L220.372 89.8825L219.293 86.2023L214.441 87.32ZM208.972 86.7835L206.672 87.4719L206.022 85.2558L210.34 83.9635L210.58 84.7804C210.957 85.0898 211.401 85.2561 211.911 85.2794C212.427 85.301 213.112 85.2133 213.967 85.016L220.664 83.4518L223.09 91.7261L213.461 94.6076L213.888 96.0635L209.57 97.3557L208.923 95.1476L211.223 94.4592L208.972 86.7835Z" fill="white"/>
<path d="M217.445 109.105C216.708 109.115 216.106 109.08 215.639 109C215.177 108.92 214.788 108.765 214.472 108.538L214.405 108.543L214.789 113.498L222.714 112.845L222.418 109.017L217.445 109.105ZM212.209 107.446L209.819 107.643L209.64 105.337L214.127 104.968L214.193 105.817C214.499 106.199 214.898 106.453 215.392 106.582C215.892 106.71 216.58 106.766 217.456 106.751L224.324 106.608L224.991 115.214L214.986 116.039L215.103 117.553L210.616 117.923L210.438 115.626L212.828 115.429L212.209 107.446Z" fill="white"/>
<path d="M222.485 122.968C223.531 124.102 223.987 125.571 223.852 127.373C223.718 129.175 223.05 130.561 221.848 131.531C220.645 132.507 219.079 132.928 217.15 132.791C215.226 132.656 213.741 132.021 212.696 130.886C211.65 129.751 211.194 128.286 211.328 126.489C211.462 124.688 212.13 123.299 213.333 122.322C214.535 121.352 216.098 120.935 218.022 121.07C219.951 121.206 221.439 121.839 222.485 122.968ZM220.438 129.519C221.231 128.982 221.665 128.217 221.738 127.224C221.812 126.23 221.497 125.409 220.792 124.761C220.086 124.119 219.098 123.753 217.829 123.664C216.565 123.575 215.536 123.798 214.743 124.335C213.956 124.872 213.525 125.64 213.45 126.639C213.376 127.633 213.689 128.451 214.389 129.092C215.095 129.735 216.08 130.1 217.344 130.19C218.613 130.279 219.644 130.056 220.438 129.519Z" fill="white"/>
<path d="M213.286 148.097L205.942 151.6L206.638 148.553L212.762 145.675L212.777 145.609L207.579 144.435L208.132 142.014L213.33 143.188L213.345 143.122L209.078 137.871L209.759 134.89L214.831 141.145L221.527 137.842L220.883 140.658L214.969 143.488L214.954 143.554L219.963 144.686L219.41 147.107L214.4 145.975L214.385 146.041L218.488 151.142L217.856 153.909L213.286 148.097Z" fill="white"/>
<path d="M206.17 159.954C205.521 159.607 205.012 159.285 204.642 158.989C204.276 158.695 204.01 158.371 203.844 158.018L203.782 157.991L201.739 162.529L208.981 165.787L210.559 162.281L206.17 159.954ZM202.39 155.965L200.206 154.983L201.157 152.872L205.257 154.716L204.906 155.494C204.99 155.977 205.217 156.394 205.587 156.745C205.962 157.1 206.537 157.482 207.311 157.891L213.383 161.086L209.834 168.969L200.691 164.856L200.067 166.243L195.967 164.398L196.914 162.295L199.098 163.277L202.39 155.965Z" fill="white"/>
<path d="M192.871 176.005L191.106 174.864L195.483 168.075L205.667 174.659L201.29 181.448L199.533 180.312L202.527 175.668L200.071 174.08L197.246 178.462L195.609 177.403L198.434 173.021L195.865 171.36L192.871 176.005Z" fill="white"/>
<path d="M180.003 187.578L181.457 185.832L187.735 191.087L187.778 191.035L183.709 183.311L184.736 182.078L193.043 184.713L193.086 184.661L186.808 179.405L188.262 177.659L197.564 185.445L195.672 187.717L186.861 184.859L186.818 184.911L191.196 193.092L189.304 195.364L180.003 187.578Z" fill="white"/>
<path d="M166.55 196.697L173.215 206.848L171.091 208.257L165.576 199.857L162.694 201.77L168.209 210.17L166.085 211.579L160.57 203.179L157.688 205.092L163.203 213.492L161.079 214.901L154.414 204.75L166.55 196.697Z" fill="white"/>
<path d="M152.837 215.731C152.297 217.185 151.197 218.262 149.535 218.965C147.873 219.667 146.342 219.701 144.94 219.068C143.533 218.437 142.458 217.227 141.713 215.438C140.971 213.655 140.87 212.036 141.41 210.583C141.949 209.13 143.047 208.053 144.704 207.353C146.366 206.651 147.9 206.615 149.307 207.246C150.708 207.879 151.78 209.088 152.522 210.871C153.267 212.66 153.371 214.28 152.837 215.731ZM146.096 216.888C146.929 217.353 147.803 217.392 148.72 217.005C149.636 216.617 150.224 215.961 150.484 215.034C150.738 214.109 150.62 213.059 150.131 211.882C149.643 210.71 148.983 209.892 148.15 209.426C147.32 208.967 146.444 208.931 145.523 209.321C144.606 209.708 144.02 210.361 143.763 211.28C143.509 212.205 143.625 213.253 144.113 214.425C144.603 215.602 145.264 216.423 146.096 216.888Z" fill="white"/>
<path d="M133.835 210.342C134.064 210.284 134.285 210.241 134.498 210.216C134.712 210.19 134.841 210.186 134.886 210.203L135.39 212.215C135.214 212.208 134.969 212.245 134.653 212.326C134.278 212.422 133.973 212.569 133.739 212.769C133.506 212.968 133.327 213.248 133.204 213.611L139.362 221.598L136.751 222.266L132.539 216.366L132.441 216.391L131.635 223.577L129.04 224.241L130.538 214.894C130.76 213.514 131.111 212.476 131.59 211.779C132.07 211.082 132.818 210.603 133.835 210.342Z" fill="white"/>
<path d="M106.556 213.304L109.084 213.152L109.64 223.205L114.974 222.884L114.417 212.832L116.962 212.679L117.636 224.837L107.229 225.463L106.556 213.304Z" fill="white"/>
<path d="M99.7448 222.793C98.5862 223.822 97.1111 224.252 95.3193 224.085C93.5275 223.918 92.1644 223.223 91.2297 221.999C90.2896 220.775 89.9132 219.196 90.1006 217.263C90.2875 215.336 90.9602 213.858 92.1188 212.829C93.2773 211.801 94.7497 211.37 96.5359 211.537C98.3276 211.704 99.6936 212.399 100.634 213.623C101.568 214.847 101.942 216.423 101.755 218.35C101.568 220.283 100.898 221.764 99.7448 222.793ZM93.2727 220.621C93.786 221.426 94.5367 221.875 95.5247 221.967C96.5126 222.059 97.3388 221.757 98.0033 221.062C98.6622 220.366 99.0533 219.382 99.1766 218.11C99.2994 216.843 99.1041 215.807 98.5908 215.002C98.077 214.202 97.3233 213.756 96.3297 213.663C95.3417 213.571 94.5186 213.87 93.8602 214.561C93.2014 215.257 92.8105 216.238 92.6878 217.504C92.5645 218.776 92.7595 219.815 93.2727 220.621Z" fill="white"/>
<path d="M82.6415 213.685C82.871 212.982 83.0994 212.421 83.3266 212.002C83.5525 211.588 83.8242 211.267 84.1419 211.039L84.1585 210.973L79.3558 209.772L77.4012 217.513L81.1113 218.44L82.6415 213.685ZM85.9068 209.233L86.4963 206.899L88.7305 207.458L87.6239 211.84L86.8004 211.634C86.3414 211.804 85.9711 212.103 85.6895 212.532C85.4064 212.966 85.1302 213.602 84.8607 214.441L82.7673 221.014L74.4257 218.928L76.8932 209.156L75.4255 208.789L76.5321 204.407L78.7581 204.963L78.1686 207.298L85.9068 209.233Z" fill="white"/>
<path d="M62.1814 205.136C62.5527 204.497 62.8932 203.995 63.2028 203.633C63.5099 203.276 63.8425 203.019 64.2006 202.862L64.2305 202.802L59.7904 200.615L56.2623 207.778L59.6922 209.468L62.1814 205.136ZM66.3021 201.467L67.3662 199.307L69.4317 200.324L67.4343 204.38L66.6729 204.005C66.1891 204.074 65.7648 204.289 65.4 204.649C65.0327 205.015 64.6298 205.579 64.1912 206.343L60.7716 212.336L53.0598 208.537L57.5137 199.493L56.1568 198.825L58.1542 194.769L60.2122 195.783L59.1482 197.944L66.3021 201.467Z" fill="white"/>
<path d="M47.6367 202.433C46.1267 202.761 44.634 202.41 43.1584 201.382C41.6829 200.354 40.8382 199.075 40.6244 197.546C40.4059 196.014 40.8509 194.45 41.9593 192.853C43.0645 191.262 44.3721 190.302 45.882 189.975C47.392 189.647 48.8824 189.996 50.3534 191.021C51.8289 192.049 52.6759 193.329 52.8943 194.862C53.1082 196.391 52.6625 197.951 51.5573 199.542C50.4489 201.139 49.142 202.102 47.6367 202.433ZM43.0742 197.348C43.1263 198.304 43.5592 199.066 44.3728 199.633C45.1865 200.2 46.0521 200.344 46.9699 200.063C47.8831 199.78 48.7043 199.113 49.4336 198.062C50.1597 197.017 50.4967 196.016 50.4445 195.059C50.3891 194.108 49.9524 193.347 49.1341 192.777C48.3205 192.21 47.4587 192.066 46.5488 192.344C45.6356 192.628 44.816 193.293 44.0899 194.338C43.3606 195.389 43.022 196.392 43.0742 197.348Z" fill="white"/>
<path d="M31.046 182.027L31.7982 173.913L34.0576 176.051L33.3935 182.795L33.4424 182.841L37.1108 178.94L38.906 180.639L35.2377 184.54L35.2865 184.587L41.9775 183.546L44.188 185.638L36.2226 186.868L35.6311 194.32L33.5427 192.344L34.1409 185.805L34.092 185.759L30.5567 189.518L28.7615 187.819L32.2967 184.06L32.2479 184.013L25.7693 184.987L23.7176 183.045L31.046 182.027Z" fill="white"/>
<path d="M24.4915 169.878C25.1223 169.494 25.6598 169.217 26.1041 169.047C26.5438 168.88 26.9577 168.814 27.346 168.849L27.4011 168.81L24.5597 164.75L18.0471 169.353L20.2421 172.489L24.4915 169.878ZM29.8524 168.633L31.8165 167.245L33.1383 169.134L29.4513 171.74L28.9641 171.044C28.5074 170.872 28.0333 170.857 27.5417 170.998C27.0455 171.143 26.4229 171.445 25.674 171.906L19.8162 175.531L14.8811 168.479L23.1029 162.668L22.2345 161.427L25.9215 158.821L27.2385 160.703L25.2744 162.091L29.8524 168.633Z" fill="white"/>
<path d="M17.6981 150.57L19.5822 149.624L23.1552 156.838L12.2801 162.297L8.70715 155.084L10.5837 154.142L13.028 159.076L15.6507 157.76L13.3447 153.104L15.0931 152.226L17.3991 156.882L20.1424 155.505L17.6981 150.57Z" fill="white"/>
<path d="M14.2832 133.549L15.0385 135.686L7.31485 138.464L7.33732 138.528L16.0506 138.904L16.5841 140.413L10.0722 146.266L10.0946 146.329L17.8183 143.551L18.5736 145.688L7.13089 149.804L6.14813 147.024L13.1091 140.848L13.0866 140.785L3.82321 140.445L2.84045 137.665L14.2832 133.549Z" fill="white"/>
<path d="M13.6704 123.221L1.6058 124.619L1.3252 122.087L11.308 120.93L10.927 117.492L0.944246 118.649L0.663644 116.117L10.6464 114.96L10.2655 111.522L0.282693 112.679L0.00208646 110.146L12.0667 108.748L13.6704 123.221Z" fill="white"/>
<path d="M3.01671 102.603C1.97537 101.465 1.52508 99.9949 1.66584 98.1934C1.80661 96.3919 2.4799 95.0082 3.68569 94.0423C4.89192 93.0707 6.45949 92.6565 8.38839 92.7999C10.3117 92.9428 11.794 93.5835 12.8354 94.7221C13.8767 95.8606 14.3272 97.3279 14.1869 99.1237C14.0461 100.925 13.3726 102.312 12.1664 103.283C10.9606 104.249 9.39604 104.661 7.47274 104.518C5.54384 104.375 4.0585 103.736 3.01671 102.603ZM5.08853 96.06C4.29329 96.5936 3.85686 97.3571 3.77924 98.3504C3.70162 99.3438 4.01417 100.166 4.71688 100.816C5.42003 101.461 6.40618 101.831 7.67534 101.925C8.9389 102.019 9.96831 101.799 10.7635 101.266C11.5532 100.732 11.987 99.965 12.0651 98.9661C12.1427 97.9727 11.8328 97.1538 11.1352 96.5093C10.4321 95.8644 9.44869 95.495 8.18513 95.4011C6.91597 95.3068 5.88377 95.5264 5.08853 96.06Z" fill="white"/>
<path d="M16.4903 88.0373C16.4368 88.2677 16.3721 88.484 16.2964 88.6862C16.2206 88.8884 16.1646 89.0055 16.1284 89.0376L14.1132 88.5744C14.2006 88.4211 14.2813 88.1854 14.3552 87.8672C14.4432 87.4887 14.4529 87.15 14.3843 86.8511C14.3157 86.5522 14.1493 86.2655 13.8852 85.9909L3.96612 87.8629L4.57813 85.2298L11.7505 84.148L11.7735 84.0493L5.77728 80.0706L6.38546 77.454L13.9779 83.0304C15.0981 83.8542 15.8565 84.6382 16.2531 85.3824C16.6497 86.1265 16.7288 87.0115 16.4903 88.0373Z" fill="white"/>
<path d="M26.576 61.9436L25.5406 64.2668L16.3821 60.1894L14.1978 65.0905L23.3563 69.1679L22.3141 71.5066L11.2364 66.5747L15.4982 57.0118L26.576 61.9436Z" fill="white"/>
<path d="M21.2554 51.5769C20.8777 50.0769 21.1758 48.5652 22.1497 47.0417C23.1236 45.5181 24.3683 44.6165 25.8837 44.3367C27.4021 44.0522 28.9749 44.4315 30.6022 45.4746C32.2247 46.5147 33.2248 47.7848 33.6025 49.2848C33.9801 50.7848 33.6835 52.2942 32.7126 53.813C31.7387 55.3365 30.4926 56.2405 28.9741 56.5251C27.4587 56.8048 25.8898 56.4247 24.2673 55.3846C22.64 54.3414 21.6361 53.0722 21.2554 51.5769ZM26.164 46.7847C25.2134 46.8779 24.4696 47.3445 23.9326 48.1846C23.3956 49.0246 23.2823 49.8988 23.5927 50.8071C23.9062 51.7106 24.5983 52.5055 25.669 53.1918C26.7349 53.8752 27.7432 54.1703 28.6938 54.0771C29.6397 53.9809 30.3826 53.5104 30.9227 52.6655C31.4597 51.8255 31.5738 50.9552 31.2651 50.0547C30.9516 49.1512 30.2619 48.3578 29.1959 47.6744C28.1253 46.9881 27.1146 46.6915 26.164 46.7847Z" fill="white"/>
<path d="M36.9574 40.6572C37.4761 41.1794 37.8694 41.6366 38.1372 42.0287C38.4008 42.4171 38.561 42.8047 38.6178 43.1915L38.6684 43.2359L41.9378 39.4857L35.9646 34.2485L33.4389 37.1455L36.9574 40.6572ZM39.4105 45.5828L41.2119 47.1623L39.691 48.9068L36.3093 45.9419L36.8699 45.2988C36.9299 44.8121 36.8342 44.3463 36.5828 43.9012C36.3272 43.4524 35.8892 42.9186 35.2688 42.2998L30.3948 37.4647L36.0733 30.9512L43.6142 37.5628L44.6134 36.4168L47.9951 39.3818L46.4797 41.12L44.6782 39.5405L39.4105 45.5828Z" fill="white"/>
<path d="M54.0693 26.071C54.4655 26.6921 54.7529 27.223 54.9316 27.6635C55.1069 28.0995 55.1815 28.5128 55.1552 28.9033L55.1952 28.9574L59.1795 25.9843L54.4538 19.5908L51.3759 21.8875L54.0693 26.071ZM55.424 31.411L56.8492 33.3392L54.9957 34.7223L52.3203 31.1026L53.0035 30.5928C53.1649 30.1295 53.1698 29.6535 53.0184 29.1646C52.8636 28.6712 52.5488 28.0559 52.0738 27.3186L48.3364 21.5522L55.2565 16.3885L61.2224 24.4599L62.44 23.5513L65.1154 27.171L63.2687 28.549L61.8435 26.6208L55.424 31.411Z" fill="white"/>
<path d="M63.1835 14.3007C63.5893 12.8046 64.5882 11.6313 66.18 10.7807C67.7719 9.93002 69.2947 9.75587 70.7485 10.2582C72.2072 10.7579 73.3884 11.8641 74.292 13.5768C75.193 15.2846 75.4405 16.8865 75.0347 18.3825C74.6288 19.8785 73.6325 21.0506 72.0456 21.8985C70.4538 22.7492 68.9285 22.9247 67.4697 22.425C66.0159 21.9227 64.8386 20.8176 63.9376 19.1099C63.034 17.3971 62.7826 15.7941 63.1835 14.3007ZM69.7942 12.5341C68.9225 12.1472 68.0478 12.1882 67.1701 12.6572C66.2923 13.1263 65.7661 13.8339 65.5914 14.78C65.4217 15.7235 65.6341 16.7587 66.2286 17.8856C66.8206 19.0076 67.5524 19.762 68.424 20.149C69.2931 20.5311 70.1689 20.4862 71.0516 20.0145C71.9294 19.5455 72.4544 18.8417 72.6268 17.9032C72.7965 16.9597 72.5854 15.927 71.9935 14.805C71.3989 13.6781 70.6658 12.9211 69.7942 12.5341Z" fill="white"/>
<path d="M89.2254 8.6298L96.0669 12.9848L93.1291 14.0295L87.4608 10.3752L87.3972 10.3978L89.1591 15.4412L86.8248 16.2713L85.0629 11.2279L84.9994 11.2505L82.831 17.6916L79.9567 18.7137L82.5459 11.0498L76.2165 7.13874L78.932 6.17309L84.4491 9.67544L84.5126 9.65284L82.8146 4.79239L85.149 3.96228L86.847 8.82275L86.9105 8.80015L89.0396 2.57876L91.7074 1.63006L89.2254 8.6298Z" fill="white"/>
<path d="M102.615 8.31922C102.668 9.05603 102.668 9.66125 102.615 10.1349C102.562 10.603 102.431 11.0028 102.223 11.3344L102.232 11.4012L107.139 10.6859L106.029 2.79196L102.239 3.34461L102.615 8.31922ZM101.268 13.6729L101.602 16.0537L99.3201 16.3864L98.6921 11.9174L99.5334 11.7947C99.8949 11.4636 100.125 11.0464 100.225 10.5432C100.323 10.0344 100.339 9.34157 100.273 8.46473L99.7323 1.59606L108.254 0.353555L109.654 10.3191L111.154 10.1004L111.782 14.5695L109.508 14.901L109.173 12.5203L101.268 13.6729Z" fill="white"/>
<path d="M122.992 10.9275L122.969 13.0377L114.927 12.9833L115.062 0.802947L123.104 0.857435L123.08 2.95924L117.579 2.92198L117.547 5.85942L122.737 5.89459L122.715 7.85287L117.525 7.81772L117.491 10.8902L122.992 10.9275Z" fill="white"/>
<path d="M139.457 15.5199L137.213 15.2335L138.282 7.07749L138.216 7.06897L133.892 14.6904L132.308 14.4881L130.092 6.03197L130.025 6.02344L128.956 14.1795L126.713 13.8931L128.297 1.80977L131.216 2.18239L133.512 11.1852L133.579 11.1938L138.122 3.06396L141.041 3.43662L139.457 15.5199Z" fill="white"/>
</svg>
