<svg width="24" height="24" viewBox="0 0 24 24" fill="none" xmlns="http://www.w3.org/2000/svg">
<path d="M18.3451 20.25H18.2372C5.76698 19.5329 3.9964 9.01096 3.7489 5.79981C3.72896 5.55014 3.75848 5.29899 3.83577 5.06074C3.91305 4.8225 4.03659 4.60185 4.1993 4.41143C4.36201 4.22101 4.56069 4.06457 4.78397 3.95107C5.00724 3.83757 5.25072 3.76924 5.50044 3.75H8.99717C9.25137 3.74975 9.49979 3.82584 9.71025 3.96841C9.9207 4.11098 10.0835 4.31346 10.1776 4.54962L11.1422 6.92308C11.235 7.15379 11.2581 7.4067 11.2085 7.6504C11.1588 7.8941 11.0387 8.11785 10.8629 8.29385L9.51121 9.65827C9.72236 10.8582 10.297 11.9643 11.1573 12.8269C12.0177 13.6895 13.1223 14.267 14.3216 14.4813L15.6987 13.1169C15.8774 12.9431 16.1032 12.8258 16.3481 12.7795C16.593 12.7333 16.8461 12.7601 17.0758 12.8567L19.4683 13.815C19.7009 13.912 19.8994 14.0761 20.0384 14.2863C20.1774 14.4965 20.2507 14.7434 20.2489 14.9954V18.3462C20.2489 18.8511 20.0483 19.3353 19.6913 19.6924C19.3342 20.0494 18.85 20.25 18.3451 20.25ZM5.65275 5.01923C5.48444 5.01923 5.32302 5.08609 5.20401 5.20511C5.085 5.32412 5.01813 5.48554 5.01813 5.65385V5.70462C5.31006 9.46154 7.18217 18.3462 18.307 18.9808C18.3904 18.9859 18.4739 18.9746 18.5529 18.9473C18.6319 18.9201 18.7047 18.8776 18.7672 18.8222C18.8297 18.7668 18.8806 18.6995 18.9171 18.6244C18.9536 18.5492 18.9748 18.4676 18.9797 18.3842V14.9954L16.5872 14.0371L14.7658 15.8458L14.4612 15.8077C8.94006 15.116 8.19121 9.59481 8.19121 9.53769L8.15313 9.23308L9.95544 7.41173L9.00352 5.01923H5.65275Z" fill="#0E65C9"/>
</svg>
