<svg width="210" height="40" viewBox="0 0 210 40" fill="none" xmlns="http://www.w3.org/2000/svg">
<g clip-path="url(#clip0_92_347)">
<path fill-rule="evenodd" clip-rule="evenodd" d="M3.3305 37.1248H3.71722C3.69065 37.5843 3.54171 37.9656 3.27043 38.2687C2.99927 38.5718 2.65017 38.7404 2.2233 38.7747L2.00987 38.7821C1.44529 38.7772 1.00279 38.5681 0.682699 38.1551C0.362608 37.742 0.189228 37.2251 0.162562 36.6041C0.162562 36.5749 0.161384 36.5466 0.159136 36.5198C0.156887 36.4929 0.155816 36.4672 0.155816 36.4429C0.151318 36.4184 0.148105 36.3927 0.145856 36.3659C0.143607 36.339 0.142429 36.3109 0.142429 36.2815C0.142429 36.2131 0.144678 36.1446 0.149176 36.0762C0.153567 36.0077 0.158065 35.9368 0.162562 35.8635C0.193619 35.5702 0.261407 35.2854 0.365928 35.0093C0.470449 34.733 0.622729 34.4995 0.822774 34.3089C0.965097 34.172 1.13398 34.0671 1.32963 33.9936C1.52529 33.9202 1.72544 33.8763 1.92987 33.8616C1.94765 33.8616 1.9665 33.8616 1.98663 33.8616C2.00666 33.8616 2.02551 33.8616 2.04329 33.8616C2.04778 33.8616 2.05099 33.8616 2.05335 33.8616C2.05549 33.8616 2.05881 33.8616 2.06331 33.8616C2.45901 33.8665 2.82354 33.9911 3.15713 34.2356C3.4905 34.4799 3.6639 34.8468 3.67727 35.3356H3.2837C3.25256 34.9788 3.11814 34.7098 2.88032 34.5289C2.64235 34.3479 2.3834 34.2502 2.10326 34.2356C2.09447 34.2356 2.08441 34.2356 2.07327 34.2356C2.06224 34.2356 2.05217 34.2356 2.04329 34.2356C2.02551 34.2356 2.00773 34.2356 1.98995 34.2356C1.97218 34.2356 1.95204 34.238 1.92987 34.2429C1.76538 34.2527 1.60421 34.2931 1.44636 34.3639C1.28851 34.4348 1.15176 34.5289 1.03621 34.6462C0.889492 34.7978 0.781652 34.9763 0.712686 35.1816C0.643827 35.3869 0.598206 35.5996 0.576038 35.8195C0.56715 35.8977 0.56051 35.9771 0.556014 36.0578C0.551515 36.1385 0.549267 36.2179 0.549267 36.2962C0.549267 36.3011 0.549267 36.3084 0.549267 36.3181C0.549267 36.3279 0.549267 36.3377 0.549267 36.3475C0.544875 36.3573 0.542734 36.3671 0.542734 36.3769C0.542734 36.3865 0.542734 36.3939 0.542734 36.3988C0.542734 36.917 0.668243 37.3839 0.919478 37.7994C1.17071 38.215 1.54082 38.4227 2.0299 38.4227C2.04329 38.4227 2.05656 38.4215 2.06984 38.4191C2.08323 38.4166 2.09662 38.4154 2.11 38.4154C2.12328 38.4154 2.13559 38.4142 2.14663 38.4117C2.15766 38.4093 2.16997 38.4081 2.18336 38.4081C2.52562 38.3836 2.79697 38.2528 2.99702 38.0157C3.19707 37.7787 3.30813 37.4817 3.3305 37.1248V37.1248ZM7.49398 38.6721L9.11468 33.9643H9.59486L11.2156 38.6721H10.802L10.3151 37.2202H8.39438L7.90746 38.6721H7.49398ZM10.1884 36.8388L9.35479 34.419L8.52107 36.8388H10.1884ZM15.1323 38.6721V33.9643H15.5257V35.9955H17.9667V33.9643H18.367V38.6721H17.9667V36.3914H15.5257V38.6721H15.1323ZM22.5038 38.6721V33.9643H22.8907V36.4501L25.0982 33.9643H25.605L23.8643 35.9149L25.8118 38.6721H25.325L23.6042 36.2008L22.8907 37.0075V38.6721H22.5038ZM31.1293 38.6721V34.3456H29.8022V33.9643H32.8631V34.3456H31.5428V38.6721H31.1293ZM36.8183 37.1542V36.7435H38.2521V37.1542H36.8183ZM42.9806 38.6721V33.9643H46.2154V38.6721H45.8151V34.3456H43.3743V38.6721H42.9806ZM50.4255 38.6721V33.9643H53.2268V34.3456H50.8123V36.0542H53.0198V36.4355H50.8123V38.2835H53.2868V38.6721H50.4255ZM58.6574 38.6721V34.3456H57.3303V33.9643H60.3915V34.3456H59.0709V38.6721H58.6574ZM64.0415 38.6721V33.9643H66.8425V34.3456H64.4281V36.0542H66.6358V36.4355H64.4281V38.2835H66.9026V38.6721H64.0415ZM71.2462 38.6721V33.9643H72.7403C73.1403 33.9643 73.4751 34.0609 73.7437 34.2539C74.0129 34.4471 74.1473 34.7856 74.1473 35.2696C74.1473 35.8171 73.9861 36.1789 73.6639 36.3548C73.3415 36.5308 72.969 36.6213 72.5468 36.6262H71.6396V38.6721H71.2462ZM72.72 34.3456H71.6396V36.2375H72.5534C72.8645 36.2375 73.1392 36.18 73.3772 36.0652C73.6149 35.9503 73.7339 35.6851 73.7339 35.2696C73.7339 34.9128 73.6371 34.6694 73.4438 34.5399C73.2503 34.4103 73.009 34.3456 72.72 34.3456V34.3456ZM78.1307 34.3456V36.0469H79.0513C79.1135 36.0469 79.1744 36.0469 79.2347 36.0469C79.2947 36.0469 79.3559 36.0493 79.4181 36.0542C79.6849 36.0737 79.9382 36.1336 80.1783 36.2338C80.4185 36.3341 80.6008 36.5332 80.7253 36.8315C80.7475 36.8853 80.7653 36.9439 80.7787 37.0075C80.7919 37.071 80.8007 37.137 80.805 37.2055C80.8097 37.2396 80.813 37.2726 80.8152 37.3045C80.8174 37.3362 80.8185 37.3692 80.8185 37.4035C80.8185 37.4327 80.8174 37.4633 80.8152 37.4951C80.813 37.5268 80.8097 37.5574 80.805 37.5868C80.8007 37.6161 80.7963 37.6467 80.7919 37.6784C80.7875 37.7102 80.7831 37.7408 80.7787 37.7701C80.6809 38.1661 80.4974 38.4142 80.2285 38.5143C79.9593 38.6146 79.6736 38.6672 79.3712 38.6721C79.349 38.6721 79.3279 38.6721 79.3079 38.6721C79.2879 38.6721 79.2671 38.6721 79.2446 38.6721H77.7373V33.9643H80.365V34.3456H78.1307ZM79.2846 38.2835C79.587 38.2835 79.8515 38.2345 80.0783 38.1368C80.305 38.039 80.4185 37.7897 80.4185 37.3888C80.4185 37.0075 80.3083 36.7495 80.0884 36.6151C79.8683 36.4807 79.607 36.4135 79.3046 36.4135H78.1307V38.2835H79.2846ZM86.1228 37.7774L86.2094 37.5647L84.9222 33.9643H85.3889L86.4827 36.9488L87.6698 33.9643H88.1367L86.4693 38.0634C86.4027 38.2247 86.2927 38.3688 86.1392 38.496C85.986 38.6231 85.7935 38.6867 85.5624 38.6867C85.549 38.6867 85.5347 38.6867 85.5191 38.6867C85.5034 38.6867 85.4892 38.6867 85.4758 38.6867C85.4623 38.6818 85.4478 38.6793 85.4324 38.6793C85.4168 38.6793 85.4023 38.6793 85.3889 38.6793V38.2541C85.3979 38.2541 85.4067 38.2553 85.4157 38.2577C85.4245 38.2601 85.4335 38.2614 85.4423 38.2614C85.4511 38.2614 85.4601 38.2626 85.4692 38.265C85.478 38.2675 85.4867 38.2687 85.4955 38.2687C85.6337 38.2687 85.7524 38.2284 85.8524 38.1477C85.9525 38.0671 86.0271 37.9803 86.0759 37.8875C86.0849 37.8679 86.0937 37.8495 86.1027 37.8324C86.1115 37.8153 86.1184 37.797 86.1228 37.7774V37.7774ZM91.8536 38.6721V33.9643H93.3475C93.7475 33.9643 94.0822 34.0609 94.3511 34.2539C94.6201 34.4471 94.7547 34.7856 94.7547 35.2696C94.7547 35.8171 94.5935 36.1789 94.2711 36.3548C93.9487 36.5308 93.5764 36.6213 93.1542 36.6262H92.247V38.6721H91.8536ZM93.3275 34.3456H92.247V36.2375H93.1605C93.4719 36.2375 93.7466 36.18 93.9843 36.0652C94.2223 35.9503 94.3413 35.6851 94.3413 35.2696C94.3413 34.9128 94.2445 34.6694 94.0509 34.5399C93.8577 34.4103 93.6164 34.3456 93.3275 34.3456V34.3456ZM98.3447 38.6721V33.9643H100.792V34.3456H98.7381V38.6721H98.3447ZM107.477 37.1248H107.864C107.837 37.5843 107.688 37.9656 107.417 38.2687C107.146 38.5718 106.797 38.7404 106.37 38.7747L106.156 38.7821C105.592 38.7772 105.149 38.5681 104.829 38.1551C104.509 37.742 104.336 37.2251 104.309 36.6041C104.309 36.5749 104.308 36.5466 104.306 36.5198C104.303 36.4929 104.302 36.4672 104.302 36.4429C104.298 36.4184 104.295 36.3927 104.292 36.3659C104.29 36.339 104.289 36.3109 104.289 36.2815C104.289 36.2131 104.291 36.1446 104.295 36.0762C104.3 36.0077 104.304 35.9368 104.309 35.8635C104.34 35.5702 104.408 35.2854 104.512 35.0093C104.617 34.733 104.769 34.4995 104.969 34.3089C105.112 34.172 105.28 34.0671 105.476 33.9936C105.672 33.9202 105.872 33.8763 106.076 33.8616C106.094 33.8616 106.113 33.8616 106.133 33.8616C106.153 33.8616 106.172 33.8616 106.19 33.8616C106.194 33.8616 106.197 33.8616 106.2 33.8616C106.202 33.8616 106.205 33.8616 106.21 33.8616C106.605 33.8665 106.97 33.9911 107.303 34.2356C107.637 34.4799 107.81 34.8468 107.824 35.3356H107.43C107.399 34.9788 107.264 34.7098 107.027 34.5289C106.789 34.3479 106.53 34.2502 106.25 34.2356C106.241 34.2356 106.231 34.2356 106.22 34.2356C106.209 34.2356 106.199 34.2356 106.19 34.2356C106.172 34.2356 106.154 34.2356 106.136 34.2356C106.119 34.2356 106.099 34.238 106.076 34.2429C105.912 34.2527 105.751 34.2931 105.593 34.3639C105.435 34.4348 105.298 34.5289 105.183 34.6462C105.036 34.7978 104.928 34.9763 104.859 35.1816C104.79 35.3869 104.744 35.5996 104.723 35.8195C104.714 35.8977 104.707 35.9771 104.702 36.0578C104.698 36.1385 104.696 36.2179 104.696 36.2962C104.696 36.3011 104.696 36.3084 104.696 36.3181C104.696 36.3279 104.696 36.3377 104.696 36.3475C104.691 36.3573 104.689 36.3671 104.689 36.3769C104.689 36.3865 104.689 36.3939 104.689 36.3988C104.689 36.917 104.815 37.3839 105.066 37.7994C105.317 38.215 105.687 38.4227 106.176 38.4227C106.19 38.4227 106.203 38.4215 106.216 38.4191C106.23 38.4166 106.243 38.4154 106.256 38.4154C106.27 38.4154 106.282 38.4142 106.293 38.4117C106.304 38.4093 106.316 38.4081 106.33 38.4081C106.672 38.3836 106.943 38.2528 107.143 38.0157C107.343 37.7787 107.455 37.4817 107.477 37.1248V37.1248ZM111.98 38.6721V33.9643H112.367V36.4501L114.575 33.9643H115.082L113.341 35.9149L115.289 38.6721H114.802L113.081 36.2008L112.367 37.0075V38.6721H111.98ZM119.405 38.6721V33.9643H119.799V37.9681L122.187 33.9643H122.64V38.6721H122.24V34.617L119.832 38.6721H119.405ZM126.804 38.6721V33.9643H127.197V37.9681L129.585 33.9643H130.038V38.6721H129.638V34.617L127.23 38.6721H126.804ZM128.404 33.429C128.595 33.429 128.727 33.3911 128.798 33.3153C128.869 33.2395 128.905 33.1552 128.905 33.0624H129.251C129.251 33.3067 129.168 33.4974 129.001 33.6342C128.834 33.7712 128.653 33.8469 128.458 33.8616C128.444 33.8616 128.432 33.8616 128.421 33.8616C128.41 33.8616 128.397 33.8616 128.384 33.8616C128.38 33.8616 128.377 33.8616 128.374 33.8616C128.372 33.8616 128.369 33.8616 128.364 33.8616C128.16 33.8567 127.973 33.7882 127.804 33.6562C127.635 33.5242 127.551 33.3312 127.551 33.077H127.884C127.884 33.165 127.924 33.2456 128.004 33.319C128.084 33.3923 128.218 33.429 128.404 33.429V33.429ZM140.156 38.6721V34.3456H138.828V33.9643H141.89V34.3456H140.569V38.6721H140.156ZM145.54 38.6721V33.9643H148.341V34.3456H145.926V36.0542H148.134V36.4355H145.926V38.2835H148.401V38.6721H145.54ZM152.204 38.6721L153.825 33.9643H154.305L155.926 38.6721H155.512L155.026 37.2202H153.105L152.618 38.6721H152.204ZM154.899 36.8388L154.065 34.419L153.231 36.8388H154.899ZM161.043 38.6721V34.3456H159.716V33.9643H162.777V34.3456H161.457V38.6721H161.043ZM166.554 38.6721V33.9643H168.048C168.448 33.9643 168.782 34.0609 169.051 34.2539C169.321 34.4471 169.455 34.7856 169.455 35.2696C169.455 35.8171 169.294 36.1789 168.971 36.3548C168.649 36.5308 168.277 36.6213 167.854 36.6262H166.947V38.6721H166.554ZM168.028 34.3456H166.947V36.2375H167.861C168.172 36.2375 168.447 36.18 168.685 36.0652C168.923 35.9503 169.042 35.6851 169.042 35.2696C169.042 34.9128 168.945 34.6694 168.751 34.5399C168.558 34.4103 168.317 34.3456 168.028 34.3456V34.3456ZM178.999 38.6721V34.3456H177.672V33.9643H180.733V34.3456H179.412V38.6721H178.999ZM183.969 38.6721L185.59 33.9643H186.07L187.691 38.6721H187.277L186.79 37.2202H184.87L184.383 38.6721H183.969ZM186.664 36.8388L185.83 34.419L184.996 36.8388H186.664ZM191.608 38.6721V33.9643H192.001V35.9955H194.442V33.9643H194.842V38.6721H194.442V36.3914H192.001V38.6721H191.608ZM202.154 38.6721H198.986V33.9643H199.379V38.2907H201.82V33.9643H202.22V38.2907H202.554V39.7427H202.154V38.6721ZM206.244 38.6721L207.865 33.9643H208.345L209.965 38.6721H209.552L209.065 37.2202H207.144L206.658 38.6721H206.244ZM208.938 36.8388L208.105 34.419L207.271 36.8388H208.938Z" fill="white"/>
<path fill-rule="evenodd" clip-rule="evenodd" d="M16.9521 5.24956L17.9215 3.67852V28.038H16.9521V5.24956" fill="white"/>
<path fill-rule="evenodd" clip-rule="evenodd" d="M0.142429 0.0806055H1.11181V26.1784L17.0119 0.0686682L18.1938 0.0462801L1.11181 28.038H0.142429V0.0806055Z" fill="white"/>
<path fill-rule="evenodd" clip-rule="evenodd" d="M187.522 5.23761L188.491 3.66687V28.026H187.522V5.23761Z" fill="white"/>
<path fill-rule="evenodd" clip-rule="evenodd" d="M170.712 0.0686606H171.682V26.1666L187.582 0.0567196L188.764 0.0343316L171.682 28.026H170.712V0.0686606Z" fill="white"/>
<path fill-rule="evenodd" clip-rule="evenodd" d="M91.7941 0.0635863H92.7635V27.5199H100.603L101.062 28.5924H91.7812V27.5199H91.7941V0.0635863" fill="white"/>
<path fill-rule="evenodd" clip-rule="evenodd" d="M105.168 0.0635863H106.138V27.5199H115.627L116.085 28.5924H105.201V28.0207H105.168V0.0635863" fill="white"/>
<path fill-rule="evenodd" clip-rule="evenodd" d="M118.864 0.0635888H119.833V28.477H118.864V0.0635888Z" fill="white"/>
<path fill-rule="evenodd" clip-rule="evenodd" d="M127.932 0.0635925H128.902V28.0715H127.932V0.0635925Z" fill="white"/>
<path fill-rule="evenodd" clip-rule="evenodd" d="M130.695 1.13373V0.0611928H143.276V1.13373H130.695Z" fill="white"/>
<path fill-rule="evenodd" clip-rule="evenodd" d="M130.97 14.6641V13.5916H140.04V14.6641H130.97Z" fill="white"/>
<path fill-rule="evenodd" clip-rule="evenodd" d="M130.922 27.9903V26.9178H143.274V27.9903H130.922Z" fill="white"/>
<path fill-rule="evenodd" clip-rule="evenodd" d="M194.621 0.0635925H195.591V28.0715H194.621V0.0635925Z" fill="white"/>
<path fill-rule="evenodd" clip-rule="evenodd" d="M197.384 1.13373V0.0611928H209.965V1.13373H197.384Z" fill="white"/>
<path fill-rule="evenodd" clip-rule="evenodd" d="M197.659 14.6641V13.5916H206.729V14.6641H197.659Z" fill="white"/>
<path fill-rule="evenodd" clip-rule="evenodd" d="M197.611 27.9903V26.9178H209.963V27.9903H197.611Z" fill="white"/>
<path fill-rule="evenodd" clip-rule="evenodd" d="M165.262 0.0635925H166.231V28.0715H165.262V0.0635925Z" fill="white"/>
<path fill-rule="evenodd" clip-rule="evenodd" d="M147.727 13.5102H162.111V14.5826H147.727V28.0715H146.757V0.0635925H147.727V13.5102Z" fill="white"/>
<path fill-rule="evenodd" clip-rule="evenodd" d="M46.5408 0.0686641H47.5102V28.026H46.5408V0.0686641Z" fill="white"/>
<path fill-rule="evenodd" clip-rule="evenodd" d="M85.9558 0.402985H87.0587L75.6784 28.0122H74.709L85.9558 0.402985Z" fill="white"/>
<path fill-rule="evenodd" clip-rule="evenodd" d="M54.6156 14.6229L55.3863 13.9941L64.95 27.9259L63.812 27.929L54.6156 14.6229" fill="white"/>
<path fill-rule="evenodd" clip-rule="evenodd" d="M62.6208 1.43971L49.1203 18.5784L49.1644 16.8903L62.1515 0.403296L62.1671 0.367178H65.3399H65.3402L76.7986 17.3264L76.3205 18.4106L64.8719 1.43971H62.6208" fill="white"/>
<path d="M33.8119 0.228661C37.2629 0.228661 40.3874 1.7615 42.6448 4.27045L41.9597 5.02448C39.88 2.71314 36.9981 1.3009 33.8119 1.3009C30.6293 1.3009 27.7611 2.71045 25.6931 5.01761C23.6367 7.31194 22.3696 10.4974 22.3696 14.071C22.3696 17.661 23.6481 20.9093 25.7214 23.2576C26.2452 23.851 26.82 24.3867 27.4376 24.8561L26.8903 25.7376C26.2203 25.2282 25.597 24.6469 25.0285 24.0031C22.7843 21.4613 21.4004 17.9492 21.4004 14.071C21.4004 10.2051 22.7757 6.75373 25.008 4.26358C27.253 1.75881 30.3634 0.228661 33.8119 0.228661ZM30.019 26.313C31.3528 26.7591 32.4266 27.044 33.8119 27.044C36.9836 27.044 39.8548 25.5934 41.9331 23.2485C42.0408 23.1269 42.1464 23.0028 42.2497 22.8765L42.25 22.8766L42.9661 23.5943C42.8537 23.7316 42.7391 23.8663 42.6223 23.9982C40.3674 26.5424 37.2522 28.1161 33.8119 28.1161C32.4 28.1161 30.9473 27.8293 29.6851 27.3408L30.019 26.313" fill="white"/>
</g>
<defs>
<clipPath id="clip0_92_347">
<rect width="210" height="40" fill="white"/>
</clipPath>
</defs>
</svg>
