<svg width="60" height="60" viewBox="0 0 60 60" fill="none" xmlns="http://www.w3.org/2000/svg">
<path d="M29.965 30.8525C22.9025 30.8525 17.0325 24.9875 17.0325 18.0475C17.0325 10.8675 22.9025 5 29.9675 5C37.2725 5 42.9 10.865 42.9 18.0475C42.8874 21.4551 41.5224 24.7183 39.1048 27.1199C36.6873 29.5215 33.4151 30.865 30.0075 30.855L29.965 30.8525ZM29.965 12.5425C26.975 12.5425 24.7 15.055 24.7 18.05C24.7 21.04 26.975 23.315 29.9675 23.315C33.08 23.315 35.235 21.04 35.235 18.05C35.2375 15.0525 33.08 12.5425 29.965 12.5425ZM35.115 41.5075L42.4225 48.57C43.86 50.1225 43.86 52.3975 42.4225 53.835C40.8675 55.3875 38.47 55.3875 37.2725 53.835L29.9675 46.6525L22.9025 53.835C22.185 54.5525 21.225 54.91 20.145 54.91C19.3075 54.91 18.35 54.55 17.51 53.835C16.0725 52.3975 16.0725 50.1225 17.51 48.5675L24.935 41.505C22.2536 40.711 19.6813 39.5865 17.2775 38.1575C15.48 37.2 15.1225 34.8075 16.08 33.01C17.2775 31.215 19.4325 30.7375 21.35 31.935C23.9465 33.5195 26.9295 34.3578 29.9712 34.3578C33.013 34.3578 35.996 33.5195 38.5925 31.935C40.51 30.7375 42.7825 31.215 43.86 33.01C44.94 34.8075 44.4575 37.1975 42.78 38.1575C40.5075 39.595 37.8725 40.6725 35.1175 41.51L35.115 41.5075Z" fill="#0E65C9"/>
</svg>
