<svg width="60" height="60" viewBox="0 0 60 60" fill="none" xmlns="http://www.w3.org/2000/svg">
<g clip-path="url(#clip0_36_12382)">
<path fill-rule="evenodd" clip-rule="evenodd" d="M58.625 14.87C59.04 13.505 58.625 12.5 56.6375 12.5H50.075C48.405 12.5 47.635 13.3675 47.2175 14.325C47.2175 14.325 43.88 22.315 39.1525 27.505C37.6225 29.01 36.9275 29.4875 36.0925 29.4875C35.675 29.4875 35.0475 29.01 35.0475 27.6425V14.87C35.0475 13.23 34.5875 12.5 33.1975 12.5H22.8775C21.835 12.5 21.2075 13.26 21.2075 13.9825C21.2075 15.535 23.5725 15.895 23.815 20.265V29.76C23.815 31.8425 23.4325 32.22 22.5975 32.22C20.3725 32.22 14.96 24.1925 11.7475 15.0075C11.125 13.22 10.495 12.5 8.8175 12.5H2.25C0.375 12.5 0 13.3675 0 14.325C0 16.03 2.225 24.5 10.3625 35.7025C15.7875 43.3525 23.425 47.5 30.3825 47.5C34.555 47.5 35.07 46.58 35.07 44.9925V39.21C35.07 37.3675 35.465 37 36.7875 37C37.7625 37 39.43 37.48 43.325 41.1675C47.775 45.54 48.5075 47.5 51.0125 47.5H57.575C59.45 47.5 60.39 46.58 59.85 44.76C59.255 42.95 57.13 40.3225 54.3125 37.205C52.7825 35.43 50.4875 33.5175 49.79 32.56C48.8175 31.3325 49.095 30.785 49.79 29.6925C49.79 29.6925 57.79 18.6275 58.6225 14.87H58.625Z" fill="#0E65C9"/>
</g>
<defs>
<clipPath id="clip0_36_12382">
<rect width="60" height="60" fill="white"/>
</clipPath>
</defs>
</svg>
