<svg width="31" height="30" viewBox="0 0 31 30" fill="none" xmlns="http://www.w3.org/2000/svg">
<path d="M21.3601 16.41C20.5741 18.003 19.5091 19.59 18.4201 21.015C17.387 22.3584 16.2824 23.6453 15.1111 24.87C13.9397 23.6453 12.8351 22.3584 11.8021 21.015C10.7131 19.59 9.64808 18.003 8.86208 16.41C8.06708 14.8005 7.61108 13.293 7.61108 12C7.61108 10.0109 8.40126 8.10322 9.80778 6.6967C11.2143 5.29018 13.122 4.5 15.1111 4.5C17.1002 4.5 19.0079 5.29018 20.4144 6.6967C21.8209 8.10322 22.6111 10.0109 22.6111 12C22.6111 13.293 22.1536 14.8005 21.3601 16.41ZM15.1111 27C15.1111 27 24.1111 18.471 24.1111 12C24.1111 9.61305 23.1629 7.32387 21.475 5.63604C19.7872 3.94821 17.498 3 15.1111 3C12.7241 3 10.435 3.94821 8.74712 5.63604C7.0593 7.32387 6.11108 9.61305 6.11108 12C6.11108 18.471 15.1111 27 15.1111 27Z" fill="url(#paint0_linear_147_229)"/>
<path d="M15.1111 15.3333C14.227 15.3333 13.3792 14.9821 12.7541 14.357C12.1289 13.7319 11.7778 12.8841 11.7778 12C11.7778 11.1159 12.1289 10.2681 12.7541 9.64298C13.3792 9.01786 14.227 8.66667 15.1111 8.66667C15.9951 8.66667 16.843 9.01786 17.4681 9.64298C18.0932 10.2681 18.4444 11.1159 18.4444 12C18.4444 12.8841 18.0932 13.7319 17.4681 14.357C16.843 14.9821 15.9951 15.3333 15.1111 15.3333ZM15.1111 17C16.4372 17 17.7089 16.4732 18.6466 15.5355C19.5843 14.5979 20.1111 13.3261 20.1111 12C20.1111 10.6739 19.5843 9.40215 18.6466 8.46447C17.7089 7.52678 16.4372 7 15.1111 7C13.785 7 12.5132 7.52678 11.5756 8.46447C10.6379 9.40215 10.1111 10.6739 10.1111 12C10.1111 13.3261 10.6379 14.5979 11.5756 15.5355C12.5132 16.4732 13.785 17 15.1111 17Z" fill="url(#paint1_linear_147_229)"/>
<defs>
<linearGradient id="paint0_linear_147_229" x1="5.36108" y1="15" x2="25.1423" y2="15" gradientUnits="userSpaceOnUse">
<stop stop-color="#6167F2"/>
<stop offset="0.483529" stop-color="#00B5EE"/>
<stop offset="1" stop-color="#55F5FF"/>
</linearGradient>
<linearGradient id="paint1_linear_147_229" x1="9.69442" y1="12" x2="20.684" y2="12" gradientUnits="userSpaceOnUse">
<stop stop-color="#6167F2"/>
<stop offset="0.483529" stop-color="#00B5EE"/>
<stop offset="1" stop-color="#55F5FF"/>
</linearGradient>
</defs>
</svg>
