<svg width="30" height="30" viewBox="0 0 30 30" fill="none" xmlns="http://www.w3.org/2000/svg">
<path d="M9.60015 27.5997H20.4001C24.3763 27.5997 27.6001 24.3759 27.6001 20.3997V9.59966C27.6001 5.62346 24.3763 2.39966 20.4001 2.39966H9.60015C5.62395 2.39966 2.40015 5.62346 2.40015 9.59966V20.3997C2.40015 24.3759 5.62395 27.5997 9.60015 27.5997Z" stroke="#F5F7F8" stroke-width="2" stroke-miterlimit="10"/>
<path d="M14.9999 9C13.4086 9 11.8825 9.63214 10.7573 10.7574C9.63208 11.8826 8.99994 13.4087 8.99994 15C8.99994 16.5913 9.63208 18.1174 10.7573 19.2426C11.8825 20.3679 13.4086 21 14.9999 21C16.5912 21 18.1174 20.3679 19.2426 19.2426C20.3678 18.1174 20.9999 16.5913 20.9999 15C20.9999 13.4087 20.3678 11.8826 19.2426 10.7574C18.1174 9.63214 16.5912 9 14.9999 9Z" stroke="#F5F7F8" stroke-width="2" stroke-miterlimit="10"/>
<path d="M22.2001 6.60034C21.8818 6.60034 21.5766 6.72677 21.3515 6.95181C21.1265 7.17686 21.0001 7.48208 21.0001 7.80034C21.0001 8.1186 21.1265 8.42383 21.3515 8.64887C21.5766 8.87391 21.8818 9.00034 22.2001 9.00034C22.5183 9.00034 22.8235 8.87391 23.0486 8.64887C23.2736 8.42383 23.4001 8.1186 23.4001 7.80034C23.4001 7.48208 23.2736 7.17686 23.0486 6.95181C22.8235 6.72677 22.5183 6.60034 22.2001 6.60034Z" fill="#F5F7F8"/>
</svg>
