<svg width="76" height="76" viewBox="0 0 76 76" fill="none" xmlns="http://www.w3.org/2000/svg">
<g filter="url(#filter0_d_147_197)">
<path fill-rule="evenodd" clip-rule="evenodd" d="M10.8877 46.332C15.3594 61.1521 31.3369 70.6678 46.1562 66.1964C60.9756 61.725 69.0249 44.9575 64.5539 30.1395C60.0829 15.3215 44.1194 5.86166 29.3013 10.3327C14.4833 14.8037 6.41634 31.5127 10.8877 46.332ZM46.2414 66.4788C30.6437 71.1851 14.1848 62.3556 9.47839 46.7573C4.77212 31.1595 13.6027 14.6996 29.1991 9.99377C44.7954 5.28791 61.2573 14.1178 65.9632 29.7142C70.6691 45.3106 61.8391 61.7725 46.2414 66.4788Z" fill="url(#paint0_linear_147_197)"/>
</g>
<g filter="url(#filter1_d_147_197)">
<path fill-rule="evenodd" clip-rule="evenodd" d="M41.2729 25.7951H34.7096L33.2964 29H32L37.3843 17H38.6157L44 29H42.6882L41.2729 25.7951ZM40.8184 24.7666L37.9906 18.3204L35.1628 24.7666H40.8184Z" fill="#F5F7F8"/>
<path d="M41.7303 25.5931L41.5987 25.2951H41.2729H34.7096H34.3837L34.2521 25.5933L32.9704 28.5H32.7724L37.708 17.5H37.8045L37.5327 18.1196L34.7049 24.5658L34.3974 25.2666H35.1628H40.8184H41.5837L41.2762 24.5658L38.4484 18.1196L38.1766 17.5H38.292L43.2276 28.5H43.014L41.7303 25.5931Z" stroke="#F5F7F8"/>
</g>
<g filter="url(#filter2_d_147_197)">
<path fill-rule="evenodd" clip-rule="evenodd" d="M28.5396 42.8099C29.3261 42.9817 29.9332 43.3219 30.3607 43.8303C30.7883 44.3387 31.0014 44.9929 31 45.7928C31 46.821 30.6212 47.6124 29.8635 48.1669C29.1059 48.7213 27.9865 48.9991 26.5054 49H21V37H26.163C27.4969 37 28.5313 37.2685 29.2662 37.8054C30.0011 38.3423 30.3688 39.1018 30.3693 40.084C30.3693 40.7486 30.2068 41.3114 29.882 41.7724C29.5464 42.2432 29.0793 42.6039 28.5396 42.8092V42.8099ZM22.265 38.0453V42.399H26.0778C27.0466 42.399 27.7931 42.2131 28.3173 41.8414C28.8415 41.4697 29.1036 40.93 29.1036 40.2222C29.1036 39.5134 28.8415 38.9734 28.3173 38.6022C27.7931 38.231 27.0466 38.0453 26.0778 38.0453H22.265ZM26.4883 47.9525C27.5594 47.9525 28.3687 47.7698 28.916 47.4042C29.4634 47.0387 29.7369 46.4671 29.7364 45.6895C29.7364 44.1927 28.6537 43.4443 26.4883 43.4443H22.265V47.9525H26.4883Z" fill="#F5F7F8"/>
</g>
<g filter="url(#filter3_d_147_197)">
<mask id="path-5-inside-1_147_197" fill="white">
<path d="M48 38H47V50H48V38Z"/>
</mask>
<path d="M48 38H47V50H48V38Z" fill="#F5F7F8"/>
<path d="M47 38V37H46V38H47ZM48 38H49V37H48V38ZM48 50V51H49V50H48ZM47 50H46V51H47V50ZM47 39H48V37H47V39ZM47 38V50H49V38H47ZM48 49H47V51H48V49ZM48 50V38H46V50H48Z" fill="#F5F7F8" mask="url(#path-5-inside-1_147_197)"/>
</g>
<g filter="url(#filter4_d_147_197)">
<path d="M20 21L37.3626 38.1395M37.3626 38.1395L55 21M37.3626 38.1395V63" stroke="#F5F7F8"/>
</g>
<defs>
<filter id="filter0_d_147_197" x="0.213135" y="0.728516" width="75.0151" height="75.0156" filterUnits="userSpaceOnUse" color-interpolation-filters="sRGB">
<feFlood flood-opacity="0" result="BackgroundImageFix"/>
<feColorMatrix in="SourceAlpha" type="matrix" values="0 0 0 0 0 0 0 0 0 0 0 0 0 0 0 0 0 0 127 0" result="hardAlpha"/>
<feOffset/>
<feGaussianBlur stdDeviation="4"/>
<feComposite in2="hardAlpha" operator="out"/>
<feColorMatrix type="matrix" values="0 0 0 0 0.333333 0 0 0 0 0.960784 0 0 0 0 1 0 0 0 0.35 0"/>
<feBlend mode="normal" in2="BackgroundImageFix" result="effect1_dropShadow_147_197"/>
<feBlend mode="normal" in="SourceGraphic" in2="effect1_dropShadow_147_197" result="shape"/>
</filter>
<filter id="filter1_d_147_197" x="24" y="9" width="28" height="28" filterUnits="userSpaceOnUse" color-interpolation-filters="sRGB">
<feFlood flood-opacity="0" result="BackgroundImageFix"/>
<feColorMatrix in="SourceAlpha" type="matrix" values="0 0 0 0 0 0 0 0 0 0 0 0 0 0 0 0 0 0 127 0" result="hardAlpha"/>
<feOffset/>
<feGaussianBlur stdDeviation="4"/>
<feComposite in2="hardAlpha" operator="out"/>
<feColorMatrix type="matrix" values="0 0 0 0 0.333333 0 0 0 0 0.960784 0 0 0 0 1 0 0 0 0.35 0"/>
<feBlend mode="normal" in2="BackgroundImageFix" result="effect1_dropShadow_147_197"/>
<feBlend mode="normal" in="SourceGraphic" in2="effect1_dropShadow_147_197" result="shape"/>
</filter>
<filter id="filter2_d_147_197" x="13" y="29" width="26" height="28" filterUnits="userSpaceOnUse" color-interpolation-filters="sRGB">
<feFlood flood-opacity="0" result="BackgroundImageFix"/>
<feColorMatrix in="SourceAlpha" type="matrix" values="0 0 0 0 0 0 0 0 0 0 0 0 0 0 0 0 0 0 127 0" result="hardAlpha"/>
<feOffset/>
<feGaussianBlur stdDeviation="4"/>
<feComposite in2="hardAlpha" operator="out"/>
<feColorMatrix type="matrix" values="0 0 0 0 0.333333 0 0 0 0 0.960784 0 0 0 0 1 0 0 0 0.35 0"/>
<feBlend mode="normal" in2="BackgroundImageFix" result="effect1_dropShadow_147_197"/>
<feBlend mode="normal" in="SourceGraphic" in2="effect1_dropShadow_147_197" result="shape"/>
</filter>
<filter id="filter3_d_147_197" x="39" y="30" width="17" height="28" filterUnits="userSpaceOnUse" color-interpolation-filters="sRGB">
<feFlood flood-opacity="0" result="BackgroundImageFix"/>
<feColorMatrix in="SourceAlpha" type="matrix" values="0 0 0 0 0 0 0 0 0 0 0 0 0 0 0 0 0 0 127 0" result="hardAlpha"/>
<feOffset/>
<feGaussianBlur stdDeviation="4"/>
<feComposite in2="hardAlpha" operator="out"/>
<feColorMatrix type="matrix" values="0 0 0 0 0.333333 0 0 0 0 0.960784 0 0 0 0 1 0 0 0 0.35 0"/>
<feBlend mode="normal" in2="BackgroundImageFix" result="effect1_dropShadow_147_197"/>
<feBlend mode="normal" in="SourceGraphic" in2="effect1_dropShadow_147_197" result="shape"/>
</filter>
<filter id="filter4_d_147_197" x="11.6487" y="12.6414" width="51.6997" height="58.3586" filterUnits="userSpaceOnUse" color-interpolation-filters="sRGB">
<feFlood flood-opacity="0" result="BackgroundImageFix"/>
<feColorMatrix in="SourceAlpha" type="matrix" values="0 0 0 0 0 0 0 0 0 0 0 0 0 0 0 0 0 0 127 0" result="hardAlpha"/>
<feOffset/>
<feGaussianBlur stdDeviation="4"/>
<feComposite in2="hardAlpha" operator="out"/>
<feColorMatrix type="matrix" values="0 0 0 0 0.333333 0 0 0 0 0.960784 0 0 0 0 1 0 0 0 0.35 0"/>
<feBlend mode="normal" in2="BackgroundImageFix" result="effect1_dropShadow_147_197"/>
<feBlend mode="normal" in="SourceGraphic" in2="effect1_dropShadow_147_197" result="shape"/>
</filter>
<linearGradient id="paint0_linear_147_197" x1="46.9526" y1="68.832" x2="28.223" y2="6.75755" gradientUnits="userSpaceOnUse">
<stop stop-color="#6167F2"/>
<stop offset="0.483529" stop-color="#00B5EE"/>
<stop offset="1" stop-color="#55F5FF"/>
</linearGradient>
</defs>
</svg>
