<svg width="31" height="30" viewBox="0 0 31 30" fill="none" xmlns="http://www.w3.org/2000/svg">
<path d="M6.60663 8.00875L9.13601 5.48206C9.44477 5.17335 9.85802 5 10.295 5C10.732 5 11.1453 5.17098 11.454 5.48206L14.1782 8.2011C14.4869 8.50981 14.6603 8.92538 14.6603 9.36233C14.6603 9.80165 14.4893 10.2125 14.1782 10.5236L12.0502 12.6537C12.5349 13.783 13.2315 14.8092 14.1022 15.6767C14.9738 16.5529 15.9927 17.244 17.1232 17.7332L19.2512 15.6031C19.5599 15.2943 19.9732 15.121 20.4102 15.121C20.6257 15.1202 20.8393 15.1624 21.0383 15.2452C21.2373 15.328 21.4178 15.4496 21.5692 15.6031L24.2957 18.3221C24.6045 18.6308 24.7778 19.0464 24.7778 19.4833C24.7778 19.9226 24.6068 20.3335 24.2957 20.6445L21.7687 23.1712C21.2414 23.6984 20.5147 24 19.7689 24C19.6146 24 19.4649 23.9881 19.3129 23.962C16.1684 23.4443 13.0477 21.7702 10.5278 19.253C8.01026 16.731 6.33825 13.6107 5.81575 10.4642C5.66612 9.5713 5.96538 8.65229 6.60663 8.00875ZM7.49963 10.1816C7.96276 12.9814 9.46852 15.774 11.7367 18.0419C14.0048 20.3097 16.7954 21.8153 19.5956 22.2783C19.9471 22.3377 20.3081 22.219 20.5646 21.9649L23.0464 19.4833L20.4149 16.8498L17.5697 19.6994L17.5483 19.7208L17.0353 19.5308C15.4798 18.959 14.0673 18.0558 12.8957 16.8839C11.724 15.712 10.8212 14.2994 10.2499 12.7439L10.0599 12.231L12.9289 9.3647L10.2974 6.73116L7.81551 9.21272C7.55901 9.46919 7.44026 9.83015 7.49963 10.1816Z" fill="url(#paint0_linear_147_215)"/>
<defs>
<linearGradient id="paint0_linear_147_215" x1="25.5695" y1="14.5" x2="4.68929" y2="14.5" gradientUnits="userSpaceOnUse">
<stop stop-color="#6167F2"/>
<stop offset="0.483529" stop-color="#00B5EE"/>
<stop offset="1" stop-color="#55F5FF"/>
</linearGradient>
</defs>
</svg>
