<svg xmlns="http://www.w3.org/2000/svg" xmlns:xlink="http://www.w3.org/1999/xlink">
  
  <symbol id="call" viewBox="0 0 18 17" fill="none" xmlns="http://www.w3.org/2000/svg">
    <path d="M3.36875 14.875C3.15625 14.875 2.97917 14.8042 2.8375 14.6625C2.69583 14.5208 2.625 14.3438 2.625 14.1313V11.2625C2.625 11.0972 2.67812 10.9525 2.78437 10.8283C2.89062 10.7046 3.02639 10.625 3.19167 10.5896L5.63542 10.0937C5.80069 10.0701 5.96904 10.0848 6.14046 10.1377C6.3114 10.191 6.45 10.2708 6.55625 10.3771L8.22083 12.0417C9.11806 11.4986 9.93854 10.8552 10.6823 10.1115C11.426 9.36771 12.0458 8.57083 12.5417 7.72083L10.8417 5.98542C10.7354 5.87917 10.6674 5.75804 10.6377 5.62204C10.6084 5.48651 10.6056 5.33611 10.6292 5.17083L11.0896 2.69167C11.1132 2.52639 11.1899 2.39062 11.3198 2.28437C11.4497 2.17812 11.5972 2.125 11.7625 2.125H14.6313C14.8438 2.125 15.0208 2.19583 15.1625 2.3375C15.3042 2.47917 15.375 2.65625 15.375 2.86875C15.375 4.39167 15.0355 5.8761 14.3564 7.32204C13.6778 8.76846 12.7806 10.0494 11.6647 11.1647C10.5494 12.2806 9.26869 13.1778 7.82275 13.8564C6.37633 14.5355 4.89167 14.875 3.36875 14.875Z" fill="white"/>
  </symbol>

  <symbol id="geo" viewBox="0 0 14 20" xmlns="http://www.w3.org/2000/svg">
    <path d="M7 9.5C6.33696 9.5 5.70107 9.23661 5.23223 8.76777C4.76339 8.29893 4.5 7.66304 4.5 7C4.5 6.33696 4.76339 5.70107 5.23223 5.23223C5.70107 4.76339 6.33696 4.5 7 4.5C7.66304 4.5 8.29893 4.76339 8.76777 5.23223C9.23661 5.70107 9.5 6.33696 9.5 7C9.5 7.3283 9.43534 7.65339 9.3097 7.95671C9.18406 8.26002 8.99991 8.53562 8.76777 8.76777C8.53562 8.99991 8.26002 9.18406 7.95671 9.3097C7.65339 9.43534 7.3283 9.5 7 9.5ZM7 0C5.14348 0 3.36301 0.737498 2.05025 2.05025C0.737498 3.36301 0 5.14348 0 7C0 12.25 7 20 7 20C7 20 14 12.25 14 7C14 5.14348 13.2625 3.36301 11.9497 2.05025C10.637 0.737498 8.85652 0 7 0Z"/>
  </symbol>

  <symbol id="inst" viewBox="0 0 32 32" xmlns="http://www.w3.org/2000/svg">
    <circle cx="16" cy="16" r="16"/>
    <path class="qeq" d="M18.88 15.9998C18.88 16.5694 18.7111 17.1262 18.3946 17.5998C18.0782 18.0734 17.6284 18.4426 17.1021 18.6606C16.5759 18.8785 15.9968 18.9356 15.4381 18.8244C14.8795 18.7133 14.3663 18.439 13.9635 18.0363C13.5608 17.6335 13.2865 17.1203 13.1753 16.5616C13.0642 16.003 13.1212 15.4239 13.3392 14.8977C13.5572 14.3714 13.9263 13.9216 14.4 13.6052C14.8736 13.2887 15.4304 13.1198 16 13.1198C16.7631 13.1222 17.4943 13.4264 18.0338 13.9659C18.5734 14.5055 18.8776 15.2367 18.88 15.9998ZM25 12.0398V19.9598C25 21.2965 24.469 22.5784 23.5238 23.5236C22.5786 24.4688 21.2967 24.9998 19.96 24.9998H12.04C10.7033 24.9998 9.42137 24.4688 8.47618 23.5236C7.531 22.5784 7 21.2965 7 19.9598L7 12.0398C7 10.7031 7.531 9.42115 8.47618 8.47597C9.42137 7.53078 10.7033 6.99979 12.04 6.99979L19.96 6.99979C21.2967 6.99979 22.5786 7.53078 23.5238 8.47597C24.469 9.42115 25 10.7031 25 12.0398ZM20.32 15.9998C20.32 15.1454 20.0666 14.3101 19.5919 13.5997C19.1173 12.8893 18.4426 12.3356 17.6532 12.0086C16.8638 11.6817 15.9952 11.5961 15.1572 11.7628C14.3192 11.9295 13.5495 12.3409 12.9453 12.9451C12.3411 13.5492 11.9297 14.319 11.763 15.157C11.5963 15.995 11.6819 16.8636 12.0088 17.653C12.3358 18.4424 12.8895 19.117 13.5999 19.5917C14.3104 20.0664 15.1456 20.3198 16 20.3198C17.1457 20.3198 18.2445 19.8646 19.0547 19.0545C19.8649 18.2443 20.32 17.1455 20.32 15.9998ZM21.76 11.3198C21.76 11.1062 21.6967 10.8974 21.578 10.7198C21.4593 10.5422 21.2906 10.4037 21.0933 10.322C20.896 10.2403 20.6788 10.2189 20.4693 10.2605C20.2598 10.3022 20.0674 10.4051 19.9163 10.5561C19.7653 10.7072 19.6624 10.8996 19.6208 11.1091C19.5791 11.3186 19.6005 11.5357 19.6822 11.7331C19.764 11.9304 19.9024 12.0991 20.08 12.2178C20.2576 12.3364 20.4664 12.3998 20.68 12.3998C20.9664 12.3998 21.2411 12.286 21.4437 12.0835C21.6462 11.8809 21.76 11.6062 21.76 11.3198Z" fill="#0D4B94"/>
  </symbol>

  <symbol id="inst-2" viewBox="0 0 32 32" xmlns="http://www.w3.org/2000/svg">
    <circle cx="16" cy="16.0002" r="16"/>
    <path d="M18.88 16C18.88 16.5696 18.7111 17.1264 18.3946 17.6C18.0782 18.0737 17.6284 18.4428 17.1021 18.6608C16.5759 18.8788 15.9968 18.9358 15.4381 18.8247C14.8795 18.7135 14.3663 18.4392 13.9635 18.0365C13.5608 17.6337 13.2865 17.1205 13.1753 16.5619C13.0642 16.0032 13.1212 15.4241 13.3392 14.8979C13.5572 14.3716 13.9263 13.9218 14.4 13.6054C14.8736 13.2889 15.4304 13.12 16 13.12C16.7631 13.1224 17.4943 13.4266 18.0338 13.9662C18.5734 14.5057 18.8776 15.2369 18.88 16ZM25 12.04L25 19.96C25 21.2967 24.469 22.5786 23.5238 23.5238C22.5786 24.469 21.2967 25 19.96 25H12.04C10.7033 25 9.42137 24.469 8.47618 23.5238C7.531 22.5786 7 21.2967 7 19.96L7 12.04C7 10.7033 7.531 9.42137 8.47618 8.47618C9.42137 7.531 10.7033 7 12.04 7L19.96 7C21.2967 7 22.5786 7.531 23.5238 8.47618C24.469 9.42137 25 10.7033 25 12.04ZM20.32 16C20.32 15.1456 20.0666 14.3104 19.5919 13.5999C19.1173 12.8895 18.4426 12.3358 17.6532 12.0088C16.8638 11.6819 15.9952 11.5963 15.1572 11.763C14.3192 11.9297 13.5495 12.3411 12.9453 12.9453C12.3411 13.5495 11.9297 14.3192 11.763 15.1572C11.5963 15.9952 11.6819 16.8638 12.0088 17.6532C12.3358 18.4426 12.8895 19.1173 13.5999 19.5919C14.3104 20.0666 15.1456 20.32 16 20.32C17.1457 20.32 18.2445 19.8649 19.0547 19.0547C19.8649 18.2445 20.32 17.1457 20.32 16ZM21.76 11.32C21.76 11.1064 21.6967 10.8976 21.578 10.72C21.4593 10.5424 21.2906 10.404 21.0933 10.3222C20.896 10.2405 20.6788 10.2191 20.4693 10.2608C20.2598 10.3024 20.0674 10.4053 19.9163 10.5563C19.7653 10.7074 19.6624 10.8998 19.6208 11.1093C19.5791 11.3188 19.6005 11.536 19.6822 11.7333C19.764 11.9306 19.9024 12.0993 20.08 12.218C20.2576 12.3367 20.4664 12.4 20.68 12.4C20.9664 12.4 21.2411 12.2862 21.4437 12.0837C21.6462 11.8811 21.76 11.6064 21.76 11.32Z" fill="#F0F4F5"/>
  </symbol>


  <symbol id="phone" viewBox="0 0 32 32" xmlns="http://www.w3.org/2000/svg">
    <circle cx="16" cy="16" r="16"/>
    <path d="M10.62 14.79L12.82 12.59C13.1 12.31 13.18 11.92 13.07 11.57C12.7 10.45 12.5 9.25001 12.5 8.00001C12.5 7.45001 12.05 7.00001 11.5 7.00001H8C7.45 7.00001 7 7.45001 7 8.00001C7 17.39 14.61 25 24 25C24.55 25 25 24.55 25 24V20.51C25 19.96 24.55 19.51 24 19.51C22.76 19.51 21.55 19.31 20.43 18.94C20.08 18.82 19.68 18.91 19.41 19.18L17.21 21.38C14.38 19.93 12.06 17.62 10.62 14.79Z" fill="#0D4B94"/>
  </symbol>

  <symbol id="phone-2" viewBox="0 0 32 32" xmlns="http://www.w3.org/2000/svg">
    <circle cx="16" cy="16" r="16"/>
    <path d="M10.62 14.79L12.82 12.59C13.1 12.31 13.18 11.92 13.07 11.57C12.7 10.45 12.5 9.25001 12.5 8.00001C12.5 7.45001 12.05 7.00001 11.5 7.00001H8C7.45 7.00001 7 7.45001 7 8.00001C7 17.39 14.61 25 24 25C24.55 25 25 24.55 25 24V20.51C25 19.96 24.55 19.51 24 19.51C22.76 19.51 21.55 19.31 20.43 18.94C20.08 18.82 19.68 18.91 19.41 19.18L17.21 21.38C14.38 19.93 12.06 17.62 10.62 14.79Z" fill="#F0F4F5"/>
  </symbol>


  <symbol id="telegram" viewBox="0 0 32 32" xmlns="http://www.w3.org/2000/svg">
    <g clip-path="url(#clip0_34_2320)">
    <path d="M16 0C7.164 0 0 7.164 0 16C0 24.836 7.164 32 16 32C24.836 32 32 24.836 32 16C32 7.164 24.836 0 16 0ZM23.8587 10.9613L21.232 23.3347C21.0387 24.212 20.516 24.4253 19.7867 24.012L15.7867 21.0653L13.8587 22.924C13.7642 23.0463 13.643 23.1453 13.5043 23.2135C13.3656 23.2817 13.2132 23.3172 13.0587 23.3173H13.052L13.336 19.2453L20.7493 12.5493C21.0693 12.2653 20.6773 12.104 20.252 12.388L11.0933 18.156L7.14667 16.924C6.29333 16.6533 6.26933 16.0707 7.32667 15.652L22.748 9.708C23.4653 9.44667 24.0893 9.87867 23.8573 10.9627L23.8587 10.9613Z"/>
    </g>
    <defs>
    <clipPath id="clip0_34_2320">
    <rect width="32" height="32" fill="#0D4B94"/>
    </clipPath>
    </defs>
  </symbol>

  <symbol id="whats-app" viewBox="0 0 32 32" xmlns="http://www.w3.org/2000/svg">
    <circle cx="16" cy="16" r="16"/>
    <path d="M24.3396 12.2053C23.9108 11.1864 23.2961 10.2719 22.5125 9.48644C21.729 8.70285 20.8145 8.08622 19.7937 7.65932C18.7502 7.22104 17.6422 6.99905 16.5 6.99905H16.4621C15.3123 7.00474 14.1986 7.23242 13.1513 7.68019C12.14 8.11278 11.2331 8.72751 10.4571 9.51111C9.68111 10.2947 9.07208 11.2054 8.65088 12.2205C8.2145 13.2716 7.99442 14.3891 8.00011 15.5389C8.0058 16.8556 8.32075 18.1629 8.91081 19.3316V22.2156C8.91081 22.6975 9.30165 23.0883 9.78357 23.0883H12.6694C13.8381 23.6784 15.1453 23.9934 16.4621 23.9991H16.5019C17.6384 23.9991 18.7407 23.779 19.7785 23.3483C20.7936 22.9252 21.7062 22.318 22.4879 21.542C23.2715 20.766 23.8881 19.8591 24.3188 18.8478C24.7665 17.8005 24.9942 16.6868 24.9999 15.537C25.0056 14.3815 24.7817 13.2602 24.3396 12.2053ZM21.4728 20.5156C20.1428 21.8323 18.3783 22.5571 16.5 22.5571H16.4677C15.3237 22.5514 14.1872 22.2668 13.1835 21.7318L13.0242 21.6464H10.3528L10.3528 18.9749L10.2674 18.8156C9.73234 17.8119 9.44775 16.6754 9.44205 15.5313C9.43446 13.6397 10.1573 11.8638 11.4835 10.5262C12.8079 9.18856 14.578 8.44861 16.4696 8.44102H16.5019C17.4505 8.44102 18.3707 8.62506 19.2378 8.98934C20.084 9.34414 20.8429 9.85452 21.4956 10.5072C22.1464 11.158 22.6586 11.9188 23.0134 12.765C23.3815 13.6416 23.5655 14.5713 23.5617 15.5313C23.5504 17.421 22.8085 19.1912 21.4728 20.5156Z" fill="#0D4B94"/>
    <path d="M20.5466 17.4003C20.3276 17.2792 19.2367 16.7037 19.0338 16.6258C18.8308 16.5436 18.6822 16.5047 18.5355 16.747C18.3868 16.9871 17.9649 17.5214 17.8323 17.6837C17.7038 17.8438 17.5732 17.8632 17.3542 17.7443C16.0523 17.0434 15.1984 16.4939 14.3406 14.9082C14.1135 14.4863 14.5676 14.5166 14.9915 13.6058C15.0638 13.4458 15.0277 13.3095 14.9714 13.1883C14.9152 13.0672 14.4732 11.8947 14.2883 11.4166C14.1095 10.9515 13.9247 11.0164 13.7901 11.0077C13.6615 10.9991 13.5148 10.9991 13.3662 10.9991C13.2175 10.9991 12.9784 11.0596 12.7755 11.2954C12.5726 11.5356 12 12.1132 12 13.2857C12 14.4582 12.7936 15.5939 12.9021 15.754C13.0146 15.9141 14.4631 18.3197 16.6872 19.3559C18.0935 20.0093 18.644 20.0655 19.3472 19.953C19.7751 19.8838 20.6571 19.3776 20.8399 18.8173C21.0227 18.2591 21.0227 17.781 20.9685 17.6815C20.9142 17.5755 20.7656 17.515 20.5466 17.4003Z" fill="#0D4B94"/>
  </symbol>

  <symbol id="whats-app-2" viewBox="0 0 32 32" xmlns="http://www.w3.org/2000/svg">
    <circle cx="15.9999" cy="16.0009" r="16"/>
    <path d="M24.3396 12.2062C23.9108 11.1874 23.2961 10.2729 22.5125 9.48739C21.729 8.70379 20.8145 8.08717 19.7937 7.66027C18.7502 7.22199 17.6422 7 16.5 7H16.4621C15.3123 7.00569 14.1986 7.23337 13.1513 7.68114C12.14 8.11373 11.2331 8.72846 10.4571 9.51205C9.68111 10.2956 9.07208 11.2064 8.65088 12.2214C8.2145 13.2725 7.99442 14.3901 8.00011 15.5398C8.0058 16.8566 8.32075 18.1638 8.91081 19.3326V22.2165C8.91081 22.6984 9.30165 23.0893 9.78357 23.0893L12.6694 23.0893C13.8381 23.6794 15.1453 23.9943 16.4621 24H16.5019C17.6384 24 18.7407 23.7799 19.7785 23.3492C20.7936 22.9261 21.7062 22.319 22.4879 21.543C23.2715 20.767 23.8881 19.86 24.3188 18.8488C24.7665 17.8015 24.9942 16.6877 24.9999 15.5379C25.0056 14.3825 24.7817 13.2612 24.3396 12.2062ZM21.4728 20.5165C20.1428 21.8333 18.3783 22.558 16.5 22.558H16.4677C15.3237 22.5523 14.1872 22.2677 13.1835 21.7327L13.0242 21.6473H10.3528V18.9759L10.2674 18.8165C9.73234 17.8128 9.44775 16.6763 9.44205 15.5323C9.43446 13.6406 10.1573 11.8647 11.4835 10.5271C12.8079 9.18951 14.578 8.44955 16.4696 8.44196H16.5019C17.4505 8.44196 18.3707 8.626 19.2378 8.99029C20.084 9.34509 20.8429 9.85547 21.4956 10.5081C22.1464 11.1589 22.6586 11.9198 23.0134 12.766C23.3815 13.6425 23.5655 14.5722 23.5617 15.5323C23.5504 17.422 22.8085 19.1922 21.4728 20.5165Z" fill="#F0F4F5"/>
    <path d="M20.5466 17.4012C20.3276 17.2801 19.2367 16.7047 19.0338 16.6268C18.8308 16.5446 18.6822 16.5056 18.5355 16.7479C18.3868 16.9881 17.9649 17.5224 17.8323 17.6846C17.7038 17.8447 17.5732 17.8642 17.3542 17.7452C16.0523 17.0443 15.1984 16.4948 14.3406 14.9091C14.1135 14.4873 14.5676 14.5175 14.9915 13.6068C15.0638 13.4467 15.0277 13.3104 14.9714 13.1893C14.9152 13.0681 14.4732 11.8956 14.2883 11.4175C14.1095 10.9524 13.9247 11.0173 13.7901 11.0087C13.6615 11 13.5148 11 13.3662 11C13.2175 11 12.9784 11.0606 12.7755 11.2964C12.5726 11.5365 12 12.1141 12 13.2866C12 14.4591 12.7936 15.5949 12.9021 15.755C13.0146 15.915 14.4631 18.3207 16.6872 19.3569C18.0935 20.0102 18.644 20.0664 19.3472 19.954C19.7751 19.8847 20.6571 19.3785 20.8399 18.8182C21.0227 18.2601 21.0227 17.782 20.9685 17.6825C20.9142 17.5765 20.7656 17.5159 20.5466 17.4012Z" fill="#F0F4F5"/>
  </symbol>


  <symbol id="arrow" viewBox="0 0 9 5" xmlns="http://www.w3.org/2000/svg">
    <path opacity="1" d="M1 1L4.5 4L8 1" stroke-linecap="round"/>
  </symbol>

  <symbol id="arrow-2" viewBox="0 0 11 24" xmlns="http://www.w3.org/2000/svg">
    <path d="M1 1L10 12.5077L1 23" stroke-linecap="round"/>
  </symbol>

  <symbol id="exit" viewBox="0 0 32 31" fill="none" xmlns="http://www.w3.org/2000/svg">
    <line x1="1.35355" y1="0.646447" x2="31.3536" y2="30.6464" stroke="white"/>
    <line y1="-0.5" x2="42.4264" y2="-0.5" transform="matrix(-0.707107 0.707107 0.707107 0.707107 31 1)" stroke="white"/>
  </symbol>



</svg>
