<svg width="194" height="24" viewBox="0 0 194 24" fill="none" xmlns="http://www.w3.org/2000/svg">
<path d="M0.472 23V17.624L11.544 4.888V4.376H0.792V0.599998H15.96V5.976L4.888 18.712V19.224H16.024V23H0.472ZM134.326 23L140.214 0.599998H147.574L153.462 23H149.11L147.894 18.072H139.894L138.678 23H134.326ZM140.886 14.168H146.902L144.182 3.256H143.606L140.886 14.168ZM156.143 23V0.599998H160.367V9.496H160.943L168.207 0.599998H173.615L164.271 11.64L173.935 23H168.367L160.943 13.912H160.367V23H156.143ZM175.535 23V19.288H178.479V4.312H175.535V0.599998H187.055C188.42 0.599998 189.604 0.834665 190.607 1.304C191.631 1.752 192.42 2.40267 192.975 3.256C193.551 4.088 193.839 5.09067 193.839 6.264V6.584C193.839 7.608 193.647 8.45067 193.263 9.112C192.879 9.752 192.42 10.2533 191.887 10.616C191.375 10.9573 190.884 11.2027 190.415 11.352V11.928C190.884 12.056 191.396 12.3013 191.951 12.664C192.505 13.0053 192.975 13.5067 193.359 14.168C193.764 14.8293 193.967 15.6933 193.967 16.76V17.08C193.967 18.3173 193.679 19.384 193.103 20.28C192.527 21.1547 191.727 21.8267 190.703 22.296C189.7 22.7653 188.527 23 187.183 23H175.535ZM182.703 19.16H186.671C187.588 19.16 188.324 18.936 188.879 18.488C189.455 18.04 189.743 17.4 189.743 16.568V16.248C189.743 15.416 189.465 14.776 188.911 14.328C188.356 13.88 187.609 13.656 186.671 13.656H182.703V19.16ZM182.703 9.816H186.607C187.481 9.816 188.196 9.592 188.751 9.144C189.327 8.696 189.615 8.07733 189.615 7.288V6.968C189.615 6.15733 189.337 5.53867 188.783 5.112C188.228 4.664 187.503 4.44 186.607 4.44H182.703V9.816Z" fill="#347AB6"/>
<path d="M24.6055 23.448C23.4748 23.448 22.4615 23.256 21.5655 22.872C20.6695 22.4667 19.9548 21.8907 19.4215 21.144C18.9095 20.376 18.6535 19.448 18.6535 18.36C18.6535 17.272 18.9095 16.3653 19.4215 15.64C19.9548 14.8933 20.6802 14.3387 21.5975 13.976C22.5362 13.592 23.6028 13.4 24.7975 13.4H29.1495V12.504C29.1495 11.7573 28.9148 11.1493 28.4455 10.68C27.9762 10.1893 27.2295 9.944 26.2055 9.944C25.2028 9.944 24.4562 10.1787 23.9655 10.648C23.4748 11.096 23.1548 11.6827 23.0055 12.408L19.2935 11.16C19.5495 10.3493 19.9548 9.61333 20.5095 8.952C21.0855 8.26933 21.8428 7.72533 22.7815 7.32C23.7415 6.89333 24.9042 6.68 26.2695 6.68C28.3602 6.68 30.0135 7.20267 31.2295 8.248C32.4455 9.29333 33.0535 10.808 33.0535 12.792V18.712C33.0535 19.352 33.3522 19.672 33.9495 19.672H35.2295V23H32.5415C31.7522 23 31.1015 22.808 30.5895 22.424C30.0775 22.04 29.8215 21.528 29.8215 20.888V20.856H29.2135C29.1282 21.112 28.9362 21.4533 28.6375 21.88C28.3388 22.2853 27.8695 22.648 27.2295 22.968C26.5895 23.288 25.7148 23.448 24.6055 23.448ZM25.3095 20.184C26.4402 20.184 27.3575 19.8747 28.0615 19.256C28.7868 18.616 29.1495 17.7733 29.1495 16.728V16.408H25.0855C24.3388 16.408 23.7522 16.568 23.3255 16.888C22.8988 17.208 22.6855 17.656 22.6855 18.232C22.6855 18.808 22.9095 19.2773 23.3575 19.64C23.8055 20.0027 24.4562 20.184 25.3095 20.184ZM38.1775 23V7.128H42.1455V8.856H42.7215C42.9988 8.32267 43.4575 7.864 44.0975 7.48C44.7375 7.07467 45.5802 6.872 46.6255 6.872C47.7562 6.872 48.6628 7.096 49.3455 7.544C50.0282 7.97067 50.5508 8.536 50.9135 9.24H51.4895C51.8522 8.55733 52.3642 7.992 53.0255 7.544C53.6868 7.096 54.6255 6.872 55.8415 6.872C56.8228 6.872 57.7082 7.08533 58.4975 7.512C59.3082 7.91733 59.9482 8.54667 60.4175 9.4C60.9082 10.232 61.1535 11.288 61.1535 12.568V23H57.1215V12.856C57.1215 11.9813 56.8975 11.3307 56.4495 10.904C56.0015 10.456 55.3722 10.232 54.5615 10.232C53.6442 10.232 52.9295 10.5307 52.4175 11.128C51.9268 11.704 51.6815 12.536 51.6815 13.624V23H47.6495V12.856C47.6495 11.9813 47.4255 11.3307 46.9775 10.904C46.5295 10.456 45.9002 10.232 45.0895 10.232C44.1722 10.232 43.4575 10.5307 42.9455 11.128C42.4548 11.704 42.2095 12.536 42.2095 13.624V23H38.1775ZM72.722 23.448C71.1433 23.448 69.746 23.1173 68.53 22.456C67.3353 21.7733 66.3967 20.824 65.714 19.608C65.0527 18.3707 64.722 16.92 64.722 15.256V14.872C64.722 13.208 65.0527 11.768 65.714 10.552C66.3753 9.31467 67.3033 8.36533 68.498 7.704C69.6927 7.02133 71.0793 6.68 72.658 6.68C74.2153 6.68 75.57 7.032 76.722 7.736C77.874 8.41867 78.77 9.37867 79.41 10.616C80.05 11.832 80.37 13.2507 80.37 14.872V16.248H68.818C68.8607 17.336 69.266 18.2213 70.034 18.904C70.802 19.5867 71.7407 19.928 72.85 19.928C73.9807 19.928 74.8127 19.6827 75.346 19.192C75.8793 18.7013 76.2847 18.1573 76.562 17.56L79.858 19.288C79.5593 19.8427 79.122 20.4507 78.546 21.112C77.9913 21.752 77.2447 22.3067 76.306 22.776C75.3673 23.224 74.1727 23.448 72.722 23.448ZM68.85 13.24H76.274C76.1887 12.3227 75.8153 11.5867 75.154 11.032C74.514 10.4773 73.6713 10.2 72.626 10.2C71.538 10.2 70.674 10.4773 70.034 11.032C69.394 11.5867 68.9993 12.3227 68.85 13.24ZM83.9588 23V7.128H87.9268V9.208H88.5028C88.7588 8.65333 89.2388 8.13067 89.9427 7.64C90.6468 7.128 91.7134 6.872 93.1428 6.872C94.3801 6.872 95.4574 7.16 96.3748 7.736C97.3134 8.29067 98.0388 9.06933 98.5508 10.072C99.0628 11.0533 99.3188 12.2053 99.3188 13.528V23H95.2868V13.848C95.2868 12.6533 94.9881 11.7573 94.3908 11.16C93.8148 10.5627 92.9828 10.264 91.8948 10.264C90.6574 10.264 89.6974 10.68 89.0148 11.512C88.3321 12.3227 87.9908 13.464 87.9908 14.936V23H83.9588ZM108.606 23.448C107.475 23.448 106.462 23.256 105.566 22.872C104.67 22.4667 103.955 21.8907 103.422 21.144C102.91 20.376 102.654 19.448 102.654 18.36C102.654 17.272 102.91 16.3653 103.422 15.64C103.955 14.8933 104.68 14.3387 105.598 13.976C106.536 13.592 107.603 13.4 108.798 13.4H113.15V12.504C113.15 11.7573 112.915 11.1493 112.446 10.68C111.976 10.1893 111.23 9.944 110.206 9.944C109.203 9.944 108.456 10.1787 107.966 10.648C107.475 11.096 107.155 11.6827 107.006 12.408L103.294 11.16C103.55 10.3493 103.955 9.61333 104.51 8.952C105.086 8.26933 105.843 7.72533 106.782 7.32C107.742 6.89333 108.904 6.68 110.27 6.68C112.36 6.68 114.014 7.20267 115.23 8.248C116.446 9.29333 117.054 10.808 117.054 12.792V18.712C117.054 19.352 117.352 19.672 117.95 19.672H119.23V23H116.542C115.752 23 115.102 22.808 114.59 22.424C114.078 22.04 113.822 21.528 113.822 20.888V20.856H113.214C113.128 21.112 112.936 21.4533 112.638 21.88C112.339 22.2853 111.87 22.648 111.23 22.968C110.59 23.288 109.715 23.448 108.606 23.448ZM109.31 20.184C110.44 20.184 111.358 19.8747 112.062 19.256C112.787 18.616 113.15 17.7733 113.15 16.728V16.408H109.086C108.339 16.408 107.752 16.568 107.326 16.888C106.899 17.208 106.686 17.656 106.686 18.232C106.686 18.808 106.91 19.2773 107.358 19.64C107.806 20.0027 108.456 20.184 109.31 20.184ZM122.114 16.664V13.016H131.586V16.664H122.114Z" fill="#0E2432"/>
</svg>
