<svg width="146" height="18" viewBox="0 0 146 18" fill="none" xmlns="http://www.w3.org/2000/svg">
<path d="M0.104 17V12.968L8.408 3.416V3.032H0.344V0.199999H11.72V4.232L3.416 13.784V14.168H11.768V17H0.104ZM100.495 17L104.911 0.199999H110.431L114.847 17H111.583L110.671 13.304H104.671L103.759 17H100.495ZM105.415 10.376H109.927L107.887 2.192H107.455L105.415 10.376ZM116.857 17V0.199999H120.025V6.872H120.457L125.905 0.199999H129.961L122.953 8.48L130.201 17H126.025L120.457 10.184H120.025V17H116.857ZM131.401 17V14.216H133.609V2.984H131.401V0.199999H140.041C141.065 0.199999 141.953 0.375999 142.705 0.727999C143.473 1.064 144.065 1.552 144.481 2.192C144.913 2.816 145.129 3.568 145.129 4.448V4.688C145.129 5.456 144.985 6.088 144.697 6.584C144.409 7.064 144.065 7.44 143.665 7.712C143.281 7.968 142.913 8.152 142.561 8.264V8.696C142.913 8.792 143.297 8.976 143.713 9.248C144.129 9.504 144.481 9.88 144.769 10.376C145.073 10.872 145.225 11.52 145.225 12.32V12.56C145.225 13.488 145.009 14.288 144.577 14.96C144.145 15.616 143.545 16.12 142.777 16.472C142.025 16.824 141.145 17 140.137 17H131.401ZM136.777 14.12H139.753C140.441 14.12 140.993 13.952 141.409 13.616C141.841 13.28 142.057 12.8 142.057 12.176V11.936C142.057 11.312 141.849 10.832 141.433 10.496C141.017 10.16 140.457 9.992 139.753 9.992H136.777V14.12ZM136.777 7.112H139.705C140.361 7.112 140.897 6.944 141.313 6.608C141.745 6.272 141.961 5.808 141.961 5.216V4.976C141.961 4.368 141.753 3.904 141.337 3.584C140.921 3.248 140.377 3.08 139.705 3.08H136.777V7.112Z" fill="#347AB6"/>
<path d="M18.2041 17.336C17.3561 17.336 16.5961 17.192 15.9241 16.904C15.2521 16.6 14.7161 16.168 14.3161 15.608C13.9321 15.032 13.7401 14.336 13.7401 13.52C13.7401 12.704 13.9321 12.024 14.3161 11.48C14.7161 10.92 15.2601 10.504 15.9481 10.232C16.6521 9.944 17.4521 9.8 18.3481 9.8H21.6121V9.128C21.6121 8.568 21.4361 8.112 21.0841 7.76C20.7321 7.392 20.1721 7.208 19.4041 7.208C18.6521 7.208 18.0921 7.384 17.7241 7.736C17.3561 8.072 17.1161 8.512 17.0041 9.056L14.2201 8.12C14.4121 7.512 14.7161 6.96 15.1321 6.464C15.5641 5.952 16.1321 5.544 16.8361 5.24C17.5561 4.92 18.4281 4.76 19.4521 4.76C21.0201 4.76 22.2601 5.152 23.1721 5.936C24.0841 6.72 24.5401 7.856 24.5401 9.344V13.784C24.5401 14.264 24.7641 14.504 25.2121 14.504H26.1721V17H24.1561C23.5641 17 23.0761 16.856 22.6921 16.568C22.3081 16.28 22.1161 15.896 22.1161 15.416V15.392H21.6601C21.5961 15.584 21.4521 15.84 21.2281 16.16C21.0041 16.464 20.6521 16.736 20.1721 16.976C19.6921 17.216 19.0361 17.336 18.2041 17.336ZM18.7321 14.888C19.5801 14.888 20.2681 14.656 20.7961 14.192C21.3401 13.712 21.6121 13.08 21.6121 12.296V12.056H18.5641C18.0041 12.056 17.5641 12.176 17.2441 12.416C16.9241 12.656 16.7641 12.992 16.7641 13.424C16.7641 13.856 16.9321 14.208 17.2681 14.48C17.6041 14.752 18.0921 14.888 18.7321 14.888ZM28.3831 17V5.096H31.3591V6.392H31.7911C31.9991 5.992 32.3431 5.648 32.8231 5.36C33.3031 5.056 33.9351 4.904 34.7191 4.904C35.5671 4.904 36.2471 5.072 36.7591 5.408C37.2711 5.728 37.6631 6.152 37.9351 6.68H38.3671C38.6391 6.168 39.0231 5.744 39.5191 5.408C40.0151 5.072 40.7191 4.904 41.6311 4.904C42.3671 4.904 43.0311 5.064 43.6231 5.384C44.2311 5.688 44.7111 6.16 45.0631 6.8C45.4311 7.424 45.6151 8.216 45.6151 9.176V17H42.5911V9.392C42.5911 8.736 42.4231 8.248 42.0871 7.928C41.7511 7.592 41.2791 7.424 40.6711 7.424C39.9831 7.424 39.4471 7.648 39.0631 8.096C38.6951 8.528 38.5111 9.152 38.5111 9.968V17H35.4871V9.392C35.4871 8.736 35.3191 8.248 34.9831 7.928C34.6471 7.592 34.1751 7.424 33.5671 7.424C32.8791 7.424 32.3431 7.648 31.9591 8.096C31.5911 8.528 31.4071 9.152 31.4071 9.968V17H28.3831ZM54.2915 17.336C53.1075 17.336 52.0595 17.088 51.1475 16.592C50.2515 16.08 49.5475 15.368 49.0355 14.456C48.5395 13.528 48.2915 12.44 48.2915 11.192V10.904C48.2915 9.656 48.5395 8.576 49.0355 7.664C49.5315 6.736 50.2275 6.024 51.1235 5.528C52.0195 5.016 53.0595 4.76 54.2435 4.76C55.4115 4.76 56.4275 5.024 57.2915 5.552C58.1555 6.064 58.8275 6.784 59.3075 7.712C59.7875 8.624 60.0275 9.688 60.0275 10.904V11.936H51.3635C51.3955 12.752 51.6995 13.416 52.2755 13.928C52.8515 14.44 53.5555 14.696 54.3875 14.696C55.2355 14.696 55.8595 14.512 56.2595 14.144C56.6595 13.776 56.9635 13.368 57.1715 12.92L59.6435 14.216C59.4195 14.632 59.0915 15.088 58.6595 15.584C58.2435 16.064 57.6835 16.48 56.9795 16.832C56.2755 17.168 55.3795 17.336 54.2915 17.336ZM51.3875 9.68H56.9555C56.8915 8.992 56.6115 8.44 56.1155 8.024C55.6355 7.608 55.0035 7.4 54.2195 7.4C53.4035 7.4 52.7555 7.608 52.2755 8.024C51.7955 8.44 51.4995 8.992 51.3875 9.68ZM62.7191 17V5.096H65.6951V6.656H66.1271C66.3191 6.24 66.6791 5.848 67.2071 5.48C67.7351 5.096 68.5351 4.904 69.6071 4.904C70.5351 4.904 71.3431 5.12 72.0311 5.552C72.7351 5.968 73.2791 6.552 73.6631 7.304C74.0471 8.04 74.2391 8.904 74.2391 9.896V17H71.2151V10.136C71.2151 9.24 70.9911 8.568 70.5431 8.12C70.1111 7.672 69.4871 7.448 68.6711 7.448C67.7431 7.448 67.0231 7.76 66.5111 8.384C65.9991 8.992 65.7431 9.848 65.7431 10.952V17H62.7191ZM81.2041 17.336C80.3561 17.336 79.5961 17.192 78.9241 16.904C78.2521 16.6 77.7161 16.168 77.3161 15.608C76.9321 15.032 76.7401 14.336 76.7401 13.52C76.7401 12.704 76.9321 12.024 77.3161 11.48C77.7161 10.92 78.2601 10.504 78.9481 10.232C79.6521 9.944 80.4521 9.8 81.3481 9.8H84.6121V9.128C84.6121 8.568 84.4361 8.112 84.0841 7.76C83.7321 7.392 83.1721 7.208 82.4041 7.208C81.6521 7.208 81.0921 7.384 80.7241 7.736C80.3561 8.072 80.1161 8.512 80.0041 9.056L77.2201 8.12C77.4121 7.512 77.7161 6.96 78.1321 6.464C78.5641 5.952 79.1321 5.544 79.8361 5.24C80.5561 4.92 81.4281 4.76 82.4521 4.76C84.0201 4.76 85.2601 5.152 86.1721 5.936C87.0841 6.72 87.5401 7.856 87.5401 9.344V13.784C87.5401 14.264 87.7641 14.504 88.2121 14.504H89.1721V17H87.1561C86.5641 17 86.0761 16.856 85.6921 16.568C85.3081 16.28 85.1161 15.896 85.1161 15.416V15.392H84.6601C84.5961 15.584 84.4521 15.84 84.2281 16.16C84.0041 16.464 83.6521 16.736 83.1721 16.976C82.6921 17.216 82.0361 17.336 81.2041 17.336ZM81.7321 14.888C82.5801 14.888 83.2681 14.656 83.7961 14.192C84.3401 13.712 84.6121 13.08 84.6121 12.296V12.056H81.5641C81.0041 12.056 80.5641 12.176 80.2441 12.416C79.9241 12.656 79.7641 12.992 79.7641 13.424C79.7641 13.856 79.9321 14.208 80.2681 14.48C80.6041 14.752 81.0921 14.888 81.7321 14.888ZM91.3351 12.248V9.512H98.4391V12.248H91.3351Z" fill="#0E2432"/>
</svg>
