<svg width="20" height="20" viewBox="0 0 20 20" fill="none" xmlns="http://www.w3.org/2000/svg">
<path d="M17.7024 10.3644C17.8347 10.2909 17.9167 10.1515 17.9167 10.0002C17.9167 9.84885 17.8347 9.70942 17.7024 9.63593L15.8005 8.5793C12.0534 6.49757 8.10334 4.80423 4.01192 3.52566L3.4577 3.35247C3.33118 3.31293 3.1934 3.33595 3.08661 3.41446C2.97981 3.49298 2.91675 3.61762 2.91675 3.75017V8.54183C2.91675 8.76344 3.09021 8.94628 3.31151 8.95792L4.15288 9.00221C6.20423 9.11017 8.24305 9.3884 10.2483 9.83401L10.4469 9.87814C10.4911 9.88796 10.5102 9.90603 10.5209 9.92037C10.5343 9.93846 10.5448 9.96632 10.5448 10.0002C10.5448 10.034 10.5343 10.0619 10.5209 10.08C10.5102 10.0943 10.4911 10.1124 10.4469 10.1222L10.2483 10.1663C8.24306 10.6119 6.20422 10.8902 4.15286 10.9981L3.31151 11.0424C3.09021 11.0541 2.91675 11.2369 2.91675 11.4585V16.2502C2.91675 16.3827 2.97981 16.5074 3.08661 16.5859C3.1934 16.6644 3.33118 16.6874 3.4577 16.6479L4.01193 16.4747C8.10334 15.1961 12.0534 13.5028 15.8005 11.421L17.7024 10.3644Z" fill="white"/>
</svg>
