<svg width="192" height="214" xmlns="http://www.w3.org/2000/svg" xmlns:xlink="http://www.w3.org/1999/xlink">
  
  <g id="auto" width="60" height="60" viewBox="0 0 60 60" xmlns="http://www.w3.org/2000/svg">
    <path d="M55.7998 27.1129L54.246 20.8979C54.6708 20.8076 54.9895 20.4308 54.9895 19.9792V18.9772C54.9895 16.8015 53.2194 15.0315 51.0438 15.0315H43.9666V12.9645C43.9666 11.8939 43.0957 11.0229 42.0251 11.0229H5.94984C4.87922 11.0229 4.00828 11.8939 4.00828 12.9645V30.0001C4.00828 30.5188 4.42887 30.9395 4.94777 30.9395C5.46656 30.9395 5.88727 30.519 5.88727 30.0001V12.9645C5.88727 12.9299 5.91527 12.9019 5.94984 12.9019H42.025C42.0595 12.9019 42.0875 12.9299 42.0875 12.9645V30.0003C42.0875 30.5191 42.5081 30.9398 43.027 30.9398C43.5458 30.9398 43.9665 30.5192 43.9665 30.0003V28.9353H55.0488C55.0498 28.9353 55.0505 28.9355 55.0513 28.9355C55.0522 28.9355 55.053 28.9354 55.0539 28.9354C56.4176 28.9363 57.5755 29.8314 57.9732 31.0648H55.052C54.5332 31.0648 54.1125 31.4854 54.1125 32.0043V34.0085C54.1125 35.6316 55.433 36.9521 57.0561 36.9521H58.1209V41.0856H55.6644C54.8575 38.7556 52.6425 37.0772 50.0415 37.0772C47.4405 37.0772 45.2255 38.7556 44.4186 41.0856H43.9663V34.0083C43.9663 33.4895 43.5457 33.0688 43.0268 33.0688C42.508 33.0688 42.0873 33.4894 42.0873 34.0083V41.0854H22.5957C21.7888 38.7554 19.5738 37.077 16.9729 37.077C14.3719 37.077 12.1568 38.7554 11.35 41.0854H5.94984C5.91527 41.0854 5.88727 41.0574 5.88727 41.0228V38.956H9.95824C10.477 38.956 10.8977 38.5354 10.8977 38.0165C10.8977 37.4976 10.4771 37.077 9.95824 37.077H0.939492C0.420703 37.077 0 37.4976 0 38.0165C0 38.5354 0.420586 38.956 0.939492 38.956H4.0084V41.0228C4.0084 42.0935 4.87934 42.9644 5.94996 42.9644H11.0246C11.0244 42.9853 11.023 43.006 11.023 43.027C11.023 46.3078 13.6922 48.9768 16.9729 48.9768C20.2535 48.9768 22.9227 46.3078 22.9227 43.027C22.9227 43.0059 22.9213 42.9853 22.9211 42.9644H44.0933C44.0931 42.9853 44.0917 43.006 44.0917 43.027C44.0917 46.3078 46.7609 48.9768 50.0415 48.9768C53.3222 48.9768 55.9914 46.3078 55.9914 43.027C55.9914 43.0059 55.99 42.9853 55.9897 42.9644H59.0604C59.5792 42.9644 59.9999 42.5438 59.9999 42.0249V32.0041C60 29.53 58.1746 27.4744 55.7998 27.1129ZM43.9666 16.9103H51.0438C52.1835 16.9103 53.1107 17.8375 53.1107 18.9772V19.0397H43.9666V16.9103ZM43.9666 27.0564V20.9186H52.3145L53.8489 27.0564H43.9666ZM16.9729 47.0982C14.7281 47.0982 12.9019 45.272 12.9019 43.0272C12.9019 40.7824 14.7281 38.9562 16.9729 38.9562C19.2176 38.9562 21.0438 40.7824 21.0438 43.0272C21.0438 45.272 19.2176 47.0982 16.9729 47.0982ZM50.0418 47.0982C47.797 47.0982 45.9708 45.272 45.9708 43.0272C45.9708 40.7824 47.797 38.9562 50.0418 38.9562C52.2865 38.9562 54.1127 40.7824 54.1127 43.0272C54.1127 45.272 52.2865 47.0982 50.0418 47.0982ZM58.1211 35.0731H57.0564C56.4693 35.0731 55.9916 34.5954 55.9916 34.0083V32.9436H58.121V35.0731H58.1211Z"/>
    <path d="M16.9738 41.0856C15.9032 41.0856 15.0322 41.9565 15.0322 43.0271C15.0322 44.0978 15.9032 44.9687 16.9738 44.9687C18.0444 44.9687 18.9154 44.0978 18.9154 43.0271C18.9154 41.9565 18.0444 41.0856 16.9738 41.0856Z"/>
    <path d="M50.0412 41.0856C48.9705 41.0856 48.0996 41.9565 48.0996 43.0271C48.0996 44.0978 48.9705 44.9687 50.0412 44.9687C51.1118 44.9687 51.9827 44.0978 51.9827 43.0271C51.9827 41.9565 51.1118 41.0856 50.0412 41.0856Z"/>
    <path d="M39.0185 37.0773H24.9893C24.4705 37.0773 24.0498 37.4979 24.0498 38.0168C24.0498 38.5357 24.4704 38.9563 24.9893 38.9563H39.0185C39.5373 38.9563 39.958 38.5357 39.958 38.0168C39.958 37.4979 39.5374 37.0773 39.0185 37.0773Z"/>
    <path d="M14.9685 33.0688H2.9434C2.42461 33.0688 2.00391 33.4894 2.00391 34.0083C2.00391 34.5272 2.42449 34.9478 2.9434 34.9478H14.9685C15.4873 34.9478 15.908 34.5272 15.908 34.0083C15.908 33.4894 15.4873 33.0688 14.9685 33.0688Z"/>
    <path d="M32.6691 20.3167C32.3023 19.9499 31.7073 19.9499 31.3405 20.3168L22.986 28.6712L18.6399 24.3251C18.273 23.9582 17.6781 23.9582 17.3113 24.3251C16.9444 24.692 16.9444 25.2867 17.3113 25.6537L22.3218 30.6641C22.5052 30.8476 22.7457 30.9393 22.986 30.9393C23.2264 30.9393 23.4669 30.8476 23.6502 30.6641L32.669 21.6454C33.0359 21.2783 33.0359 20.6836 32.6691 20.3167Z"/>
  </g>

  <g id="auto_2" width="51" height="50" viewBox="0 0 51 50" xmlns="http://www.w3.org/2000/svg">
    <g clip-path="url(#clip0_409_18744)">
    <path d="M46.9998 22.5941L45.705 17.4149C46.059 17.3397 46.3246 17.0256 46.3246 16.6494V15.8143C46.3246 14.0012 44.8495 12.5262 43.0365 12.5262H37.1389V10.8038C37.1389 9.91157 36.4131 9.18579 35.5209 9.18579H5.4582C4.56602 9.18579 3.84023 9.91157 3.84023 10.8038V25C3.84023 25.4324 4.19072 25.783 4.62314 25.783C5.05547 25.783 5.40605 25.4325 5.40605 25V10.8038C5.40605 10.775 5.42939 10.7516 5.4582 10.7516H35.5208C35.5496 10.7516 35.5729 10.775 35.5729 10.8038V25.0002C35.5729 25.4326 35.9234 25.7832 36.3559 25.7832C36.7882 25.7832 37.1388 25.4327 37.1388 25.0002V24.1127H46.374C46.3748 24.1127 46.3754 24.1129 46.3761 24.1129C46.3769 24.1129 46.3775 24.1128 46.3782 24.1128C47.5146 24.1136 48.4796 24.8595 48.811 25.8874H46.3767C45.9443 25.8874 45.5937 26.2378 45.5937 26.6703V28.3404C45.5937 29.693 46.6941 30.7934 48.0468 30.7934H48.9341V34.238H46.887C46.2145 32.2963 44.3687 30.8977 42.2013 30.8977C40.0338 30.8977 38.1879 32.2963 37.5155 34.238H37.1386V28.3403C37.1386 27.908 36.7881 27.5574 36.3557 27.5574C35.9233 27.5574 35.5728 27.9079 35.5728 28.3403V34.2378H19.3298C18.6573 32.2961 16.8115 30.8975 14.644 30.8975C12.4766 30.8975 10.6307 32.2961 9.9583 34.2378H5.4582C5.42939 34.2378 5.40605 34.2145 5.40605 34.1857V32.4633H8.79853C9.23086 32.4633 9.58144 32.1128 9.58144 31.6804C9.58144 31.248 9.23096 30.8975 8.79853 30.8975H1.28291C0.850586 30.8975 0.5 31.248 0.5 31.6804C0.5 32.1128 0.850488 32.4633 1.28291 32.4633H3.84033V34.1857C3.84033 35.0779 4.56611 35.8037 5.4583 35.8037H9.68721C9.68701 35.821 9.68584 35.8383 9.68584 35.8558C9.68584 38.5898 11.9102 40.814 14.644 40.814C17.3779 40.814 19.6022 38.5898 19.6022 35.8558C19.6022 35.8382 19.6011 35.821 19.6009 35.8037H37.2444C37.2442 35.821 37.2431 35.8383 37.2431 35.8558C37.2431 38.5898 39.4674 40.814 42.2013 40.814C44.9352 40.814 47.1595 38.5898 47.1595 35.8558C47.1595 35.8382 47.1583 35.821 47.1581 35.8037H49.717C50.1493 35.8037 50.4999 35.4532 50.4999 35.0207V26.6701C50.5 24.6083 48.9788 22.8954 46.9998 22.5941ZM37.1389 14.0919H43.0365C43.9862 14.0919 44.7589 14.8646 44.7589 15.8143V15.8665H37.1389V14.0919ZM37.1389 22.547V17.4322H44.0954L45.3741 22.547H37.1389ZM14.644 39.2485C12.7734 39.2485 11.2516 37.7267 11.2516 35.856C11.2516 33.9853 12.7734 32.4635 14.644 32.4635C16.5146 32.4635 18.0365 33.9853 18.0365 35.856C18.0365 37.7267 16.5146 39.2485 14.644 39.2485ZM42.2015 39.2485C40.3309 39.2485 38.809 37.7267 38.809 35.856C38.809 33.9853 40.3309 32.4635 42.2015 32.4635C44.0721 32.4635 45.5939 33.9853 45.5939 35.856C45.5939 37.7267 44.0721 39.2485 42.2015 39.2485ZM48.9343 29.2276H48.047C47.5577 29.2276 47.1597 28.8295 47.1597 28.3403V27.453H48.9342V29.2276H48.9343Z"/>
    <path d="M14.6443 34.238C13.7521 34.238 13.0264 34.9638 13.0264 35.856C13.0264 36.7482 13.7521 37.474 14.6443 37.474C15.5365 37.474 16.2623 36.7482 16.2623 35.856C16.2623 34.9638 15.5365 34.238 14.6443 34.238Z"/>
    <path d="M42.201 34.238C41.3088 34.238 40.583 34.9638 40.583 35.856C40.583 36.7482 41.3088 37.474 42.201 37.474C43.0932 37.474 43.8189 36.7482 43.8189 35.856C43.8189 34.9638 43.0932 34.238 42.201 34.238Z"/>
    <path d="M33.0154 30.8977H21.3244C20.8921 30.8977 20.5415 31.2482 20.5415 31.6806C20.5415 32.113 20.892 32.4635 21.3244 32.4635H33.0154C33.4477 32.4635 33.7983 32.113 33.7983 31.6806C33.7983 31.2482 33.4478 30.8977 33.0154 30.8977Z"/>
    <path d="M12.9737 27.5574H2.95283C2.52051 27.5574 2.16992 27.9079 2.16992 28.3403C2.16992 28.7727 2.52041 29.1232 2.95283 29.1232H12.9737C13.4061 29.1232 13.7566 28.7727 13.7566 28.3403C13.7566 27.9079 13.4061 27.5574 12.9737 27.5574Z"/>
    <path d="M27.7242 16.9307C27.4186 16.625 26.9228 16.625 26.6171 16.9307L19.655 23.8928L16.0332 20.271C15.7275 19.9652 15.2318 19.9652 14.9261 20.271C14.6203 20.5767 14.6203 21.0724 14.9261 21.3781L19.1015 25.5535C19.2543 25.7064 19.4547 25.7828 19.655 25.7828C19.8553 25.7828 20.0558 25.7064 20.2085 25.5535L27.7241 18.0379C28.0299 17.732 28.0299 17.2364 27.7242 16.9307Z"/>
    </g>
    <defs>
    <clipPath id="clip0_409_18744">
    <rect width="50" height="50" fill="white" transform="translate(0.5)"/>
    </clipPath>
    </defs>
  </g>

  <g id="doroga" width="62" height="61" viewBox="0 0 62 61" fill="none" xmlns="http://www.w3.org/2000/svg">
    <path d="M44 34L42 37.5" stroke-width="1.5"/>
    <path d="M40.5 40.5L38.5 43.5" stroke-width="1.5"/>
    <path d="M37 46.5L35 49.5" stroke-width="1.5"/>
    <path d="M34.5 17.5L37.5 19.5" stroke-width="1.5"/>
    <path d="M40.5 21.5L43 23.5" stroke-width="1.5"/>
    <path d="M44.5 27V29V30.5" stroke-width="1.5"/>
    <path d="M24 42L24.5958 42.4556L24.6031 42.4458L24 42ZM21.2046 16.6894C22.904 17.4177 25.4616 18.8072 27.5801 20.5868C29.7346 22.3966 31.25 24.4531 31.25 26.5H32.75C32.75 23.7469 30.7654 21.3034 28.5449 19.4382C26.2884 17.5428 23.596 16.0823 21.7954 15.3106L21.2046 16.6894ZM31.25 26.5C31.25 27.4193 31.2795 28.0321 31.2006 28.6922C31.1255 29.3204 30.9483 29.9932 30.5084 30.9317C29.6082 32.852 27.6562 35.7915 23.3969 41.5542L24.6031 42.4458C28.8438 36.7085 30.8918 33.648 31.8666 31.5683C32.3642 30.5068 32.5932 29.6796 32.69 28.8703C32.783 28.0929 32.75 27.3307 32.75 26.5H31.25ZM23.4042 41.5444C20.1598 45.7872 16.7274 50.0923 14.0148 53.3657C12.658 55.0031 11.4852 56.3775 10.6081 57.3552C10.1686 57.8451 9.80999 58.2279 9.54297 58.4923C9.40865 58.6253 9.30634 58.7196 9.23398 58.7799C9.12987 58.8668 9.15757 58.8236 9.26283 58.7885L9.73717 60.2115C9.93571 60.1453 10.1075 60.0046 10.1948 59.9318C10.3139 59.8325 10.4503 59.7049 10.5984 59.5582C10.8963 59.2632 11.2776 58.8551 11.7246 58.3568C12.6206 57.3581 13.8075 55.9668 15.1698 54.3228C17.8957 51.0333 21.3402 46.7128 24.5958 42.4556L23.4042 41.5444Z"/>
    <path d="M2 59.5L1.48853 58.9515L0.0958906 60.25H2V59.5ZM23 21.5L23.3975 20.864V20.864L23 21.5ZM16.5 1V0.25H16.2636L16.0699 0.385576L16.5 1ZM35.5 1L35.8859 1.64312L38.2077 0.25H35.5V1ZM31.5 6.5L30.876 6.91603L31.5 6.5ZM55 59.5V60.25H55.4544L55.6648 59.8472L55 59.5ZM51.5 15L51.9012 14.3663L51.5 15ZM18.5 41.5L19.0748 41.9817L18.5 41.5ZM23.3975 20.864C21.392 19.6105 16.8923 16.6557 14.3651 13.0334C13.1082 11.2319 12.4013 9.35275 12.6348 7.48854C12.8659 5.64366 14.0415 3.63644 16.9301 1.61442L16.0699 0.385576C12.9585 2.56356 11.4466 4.90634 11.1464 7.30208C10.8487 9.6785 11.7668 11.9306 13.1349 13.8916C15.8577 17.7943 20.608 20.8895 22.6025 22.136L23.3975 20.864ZM16.5 1.75H35.5V0.25H16.5V1.75ZM35.1141 0.35688C33.4909 1.33082 32.0018 2.21661 31.1412 3.1683C30.6934 3.66355 30.3549 4.23889 30.2883 4.91621C30.2211 5.60001 30.4426 6.26597 30.876 6.91603L32.124 6.08397C31.8208 5.62913 31.7573 5.30514 31.7811 5.06301C31.8056 4.81442 31.9342 4.52787 32.2538 4.17434C32.9283 3.42848 34.1758 2.66918 35.8859 1.64312L35.1141 0.35688ZM30.876 6.91603C31.5122 7.87038 32.6226 8.47809 33.8934 8.96681C35.1779 9.46083 36.7921 9.89072 38.5628 10.3915C42.1378 11.4024 46.5505 12.7541 51.0988 15.6337L51.9012 14.3663C47.1612 11.3653 42.574 9.96697 38.971 8.94807C37.1528 8.4339 35.6334 8.02891 34.4318 7.56677C33.2164 7.09933 32.4878 6.62962 32.124 6.08397L30.876 6.91603ZM51.0988 15.6337C55.9069 18.6778 59.1619 24.8551 59.9818 32.6903C60.7997 40.5072 59.1769 49.8815 54.3352 59.1528L55.6648 59.8472C60.6315 50.3364 62.3248 40.6681 61.4736 32.5342C60.6244 24.4187 57.2253 17.7371 51.9012 14.3663L51.0988 15.6337ZM2 60.25H55V58.75H2V60.25ZM2.51147 60.0485C7.68236 55.227 13.812 48.2621 19.0748 41.9817L17.9252 41.0183C12.6675 47.2924 6.58753 54.197 1.48853 58.9515L2.51147 60.0485ZM19.0748 41.9817C22.7413 37.6064 25.82 33.6556 27.0022 30.1769C27.6023 28.4113 27.7393 26.6991 27.1641 25.0879C26.5893 23.4776 25.3433 22.0801 23.3975 20.864L22.6025 22.136C24.3591 23.2339 25.3236 24.3935 25.7514 25.5921C26.1789 26.7898 26.1107 28.1384 25.582 29.6943C24.5065 32.8587 21.6328 36.5939 17.9252 41.0183L19.0748 41.9817Z"/>
    <path d="M31 1C27.6667 3.16667 22.4001 8.4 30.0001 10C44 14.5 58.5 18.5 57 39" stroke-width="1.5"/>
    <path d="M54 50.5L54.6976 50.7753L54 50.5ZM56.5 42.5C55.7739 42.312 55.7739 42.312 55.7739 42.312C55.7739 42.312 55.7739 42.312 55.7739 42.3121C55.7739 42.3122 55.7738 42.3124 55.7738 42.3126C55.7736 42.3132 55.7734 42.314 55.7732 42.315C55.7726 42.3172 55.7717 42.3206 55.7706 42.325C55.7682 42.334 55.7647 42.3474 55.7601 42.3652C55.7508 42.4007 55.7369 42.4536 55.7187 42.5221C55.6824 42.6592 55.629 42.859 55.561 43.1089C55.4249 43.6087 55.2305 44.308 54.9975 45.1053C54.5298 46.7052 53.9125 48.6785 53.3024 50.2247L54.6976 50.7753C55.3338 49.1633 55.9665 47.1366 56.4372 45.5261C56.6734 44.7181 56.8703 44.0096 57.0083 43.5029C57.0773 43.2495 57.1316 43.0464 57.1687 42.9063C57.1872 42.8363 57.2015 42.782 57.2112 42.7451C57.216 42.7267 57.2197 42.7125 57.2222 42.7029C57.2234 42.6982 57.2244 42.6945 57.225 42.692C57.2253 42.6908 57.2256 42.6898 57.2258 42.6891C57.2259 42.6888 57.2259 42.6885 57.226 42.6883C57.226 42.6882 57.226 42.6882 57.226 42.6881C57.226 42.6881 57.2261 42.688 56.5 42.5ZM53.3024 50.2247C52.6211 51.9511 51.5123 54.1709 50.5633 55.976C50.0907 56.8748 49.6614 57.6641 49.3502 58.2286C49.1947 58.5107 49.0688 58.7365 48.9819 58.8915C48.9385 58.969 48.9048 59.0288 48.8821 59.0691C48.8707 59.0892 48.8621 59.1045 48.8563 59.1146C48.8535 59.1197 48.8513 59.1235 48.8499 59.126C48.8492 59.1272 48.8487 59.1282 48.8483 59.1287C48.8482 59.129 48.848 59.1293 48.848 59.1294C48.8479 59.1294 48.8479 59.1295 48.8479 59.1295C48.8479 59.1295 48.8479 59.1295 49.5 59.5C50.1521 59.8705 50.1521 59.8704 50.1522 59.8704C50.1522 59.8703 50.1523 59.8702 50.1523 59.8701C50.1524 59.8699 50.1526 59.8696 50.1528 59.8693C50.1532 59.8685 50.1538 59.8675 50.1546 59.8661C50.1562 59.8633 50.1585 59.8592 50.1616 59.8538C50.1677 59.843 50.1766 59.8272 50.1884 59.8064C50.2118 59.7649 50.2462 59.7038 50.2904 59.6249C50.3788 59.4671 50.5065 59.2382 50.6639 58.9527C50.9786 58.3817 51.4128 57.5835 51.891 56.674C52.8434 54.8625 53.9846 52.5822 54.6976 50.7753L53.3024 50.2247Z"/>
    <path d="M22 1C18.3333 3.16667 12.1 9.2 18.5 14" stroke-width="1.5"/>
    <path d="M23 4.5C22.5 5.16667 21.5 6.7 21.5 7.5" stroke-width="1.5"/>
    <path d="M22.5 11L25 13" stroke-width="1.5"/>
    <path d="M28.5 14.5L31.5 16" stroke-width="1.5"/>
    <path d="M33.5 52.5L31.5 55.5" stroke-width="1.5"/>
    <path d="M30 58L28.5 59.5" stroke-width="1.5"/>
  </g>

  <g id="doroga_2" width="53" height="52" viewBox="0 0 53 52" fill="none" xmlns="http://www.w3.org/2000/svg">
    <path d="M37.6333 28.9976L35.9365 31.967" stroke-width="1.5"/>
    <path d="M34.6636 34.5122L32.9668 37.0574" stroke-width="1.5"/>
    <path d="M31.6944 39.6025L29.9976 42.1478" stroke-width="1.5"/>
    <path d="M29.5732 14.9988L32.1185 16.6956" stroke-width="1.5"/>
    <path d="M34.6636 18.3923L36.7846 20.0892" stroke-width="1.5"/>
    <path d="M38.0571 23.0586V24.7554V26.028" stroke-width="1.5"/>
    <path d="M20.6652 35.7847L21.2611 36.2403L21.2683 36.2305L20.6652 35.7847ZM18.2487 14.4154C19.6829 15.0301 21.8426 16.2036 23.6295 17.7046C25.4524 19.2358 26.7025 20.9513 26.7025 22.6344H28.2025C28.2025 20.2451 26.4831 18.1427 24.5943 16.556C22.6694 14.9391 20.3749 13.6947 18.8396 13.0367L18.2487 14.4154ZM26.7025 22.6344C26.7025 23.421 26.7273 23.9296 26.6614 24.4808C26.5993 25 26.4529 25.5591 26.084 26.346C25.326 27.9631 23.6772 30.4479 20.0621 35.3389L21.2683 36.2305C24.8647 31.3648 26.6095 28.7591 27.4422 26.9826C27.8688 26.0727 28.067 25.3592 28.1508 24.6588C28.2307 23.9904 28.2025 23.3324 28.2025 22.6344H26.7025ZM20.0694 35.3291C17.3176 38.9276 14.4065 42.579 12.1062 45.3549C10.9554 46.7436 9.9615 47.9083 9.21878 48.7362C8.84646 49.1513 8.54394 49.4741 8.31974 49.6962C8.20683 49.808 8.12261 49.8854 8.06476 49.9336C7.97515 50.0084 8.01378 49.9578 8.12611 49.9203L8.60045 51.3434C8.79192 51.2795 8.95282 51.1462 9.02561 51.0855C9.13016 50.9983 9.24846 50.8875 9.37518 50.762C9.63026 50.5094 9.95549 50.1613 10.3353 49.7379C11.0969 48.889 12.1049 47.7073 13.2611 46.312C15.5748 43.52 18.4981 39.8532 21.261 36.2403L20.0694 35.3291Z"/>
    <path d="M2 50.6319L1.48853 50.0834L0.0958906 51.3819H2V50.6319ZM19.8166 18.3924L20.2141 17.7564L19.8166 18.3924ZM14.3019 1V0.25H14.0655L13.8718 0.385576L14.3019 1ZM30.4217 1L30.8076 1.64312L33.1294 0.25H30.4217V1ZM27.0281 5.66625L26.404 6.08227L27.0281 5.66625ZM46.9657 50.6319V51.3819H47.4201L47.6305 50.9791L46.9657 50.6319ZM43.9962 12.8777L44.3974 12.244L43.9962 12.8777ZM15.9987 35.3605L16.5736 35.8423L15.9987 35.3605ZM20.2141 17.7564C18.5117 16.6924 14.7132 14.1961 12.5839 11.1442C11.526 9.62783 10.9422 8.06186 11.1355 6.51907C11.3263 4.99561 12.2982 3.3181 14.732 1.61442L13.8718 0.385576C11.2152 2.24522 9.90697 4.25829 9.64711 6.33261C9.38967 8.3876 10.1845 10.3266 11.3537 12.0024C13.6786 15.3347 17.7278 17.9713 19.4191 19.0284L20.2141 17.7564ZM14.3019 1.75H30.4217V0.25H14.3019V1.75ZM30.0358 0.35688C28.6652 1.17923 27.3836 1.94033 26.6394 2.76335C26.2497 3.19426 25.9466 3.70428 25.8869 4.31142C25.8266 4.92503 26.0265 5.51597 26.404 6.08227L27.6521 5.25022C27.4047 4.87912 27.3628 4.63017 27.3797 4.45822C27.3973 4.27981 27.4905 4.05859 27.752 3.7694C28.31 3.1522 29.3501 2.51759 30.8076 1.64312L30.0358 0.35688ZM26.404 6.08227C26.9645 6.92293 27.9355 7.44898 29.0178 7.86522C30.1139 8.28677 31.4905 8.65338 32.9893 9.07721C36.0202 9.93431 39.7508 11.0775 43.595 13.5114L44.3974 12.244C40.3614 9.68878 36.4564 8.49885 33.3974 7.63381C31.8513 7.19657 30.5694 6.85485 29.5562 6.46519C28.5292 6.07022 27.9401 5.68218 27.6521 5.25022L26.404 6.08227ZM43.595 13.5114C47.6351 16.0693 50.3858 21.272 51.0792 27.8982C51.7706 34.5061 50.3991 42.437 46.3008 50.2847L47.6305 50.9791C51.8538 42.8919 53.2956 34.6669 52.571 27.7421C51.8483 20.8355 48.9535 15.1286 44.3974 12.244L43.595 13.5114ZM2 51.3819H46.9657V49.8819H2V51.3819ZM2.51147 51.1804C6.90394 47.0848 12.1081 41.1711 16.5736 35.8423L15.4239 34.8788C10.9637 40.2014 5.80912 46.0547 1.48853 50.0834L2.51147 51.1804ZM16.5736 35.8423C19.6811 32.1339 22.3086 28.7657 23.3197 25.7906C23.8342 24.2766 23.9557 22.7965 23.4565 21.3981C22.9577 20.0008 21.8792 18.7971 20.2141 17.7564L19.4191 19.0284C20.8951 19.9509 21.692 20.9166 22.0438 21.9024C22.3953 22.8871 22.3427 24.0038 21.8995 25.3079C20.9952 27.9688 18.5726 31.1214 15.4239 34.8788L16.5736 35.8423Z"/>
    <path d="M26.604 1C23.776 2.83822 19.3078 7.27822 25.7557 8.63568C37.6333 12.4535 49.9353 15.8472 48.6626 33.2395" stroke-width="1.5"/>
    <path d="M46.1172 42.9963L46.8148 43.2716L46.1172 42.9963ZM48.2382 36.209C47.5121 36.021 47.5121 36.021 47.5121 36.021C47.5121 36.021 47.5121 36.021 47.5121 36.0211C47.5121 36.0211 47.512 36.0213 47.512 36.0215C47.5119 36.0219 47.5117 36.0226 47.5115 36.0235C47.511 36.0253 47.5103 36.0281 47.5093 36.0319C47.5073 36.0394 47.5044 36.0508 47.5004 36.0658C47.4926 36.0959 47.4808 36.1406 47.4654 36.1986C47.4347 36.3147 47.3894 36.484 47.3318 36.6957C47.2165 37.1192 47.0518 37.7119 46.8543 38.3874C46.4577 39.7441 45.9352 41.4142 45.4195 42.721L46.8148 43.2716C47.3565 41.8989 47.8944 40.1754 48.294 38.8083C48.4947 38.1219 48.6619 37.5201 48.7791 37.0897C48.8377 36.8744 48.8838 36.7019 48.9154 36.5828C48.9312 36.5233 48.9433 36.4772 48.9515 36.4457C48.9556 36.43 48.9588 36.418 48.9609 36.4098C48.962 36.4057 48.9628 36.4026 48.9633 36.4005C48.9636 36.3994 48.9638 36.3986 48.964 36.398C48.9641 36.3977 48.9641 36.3975 48.9642 36.3973C48.9642 36.3972 48.9642 36.3971 48.9642 36.3971C48.9642 36.397 48.9642 36.397 48.2382 36.209ZM45.4195 42.721C44.8439 44.1796 43.9057 46.0582 43.1008 47.5892C42.7003 48.351 42.3364 49.0199 42.0727 49.4983C41.9409 49.7375 41.8342 49.9288 41.7606 50.0601C41.7238 50.1258 41.6953 50.1764 41.6761 50.2104C41.6664 50.2275 41.6591 50.2404 41.6543 50.2489C41.6519 50.2532 41.6501 50.2564 41.6489 50.2585C41.6483 50.2596 41.6478 50.2603 41.6476 50.2608C41.6474 50.2611 41.6473 50.2612 41.6473 50.2614C41.6472 50.2614 41.6472 50.2614 41.6472 50.2615C41.6472 50.2615 41.6472 50.2615 42.2993 50.6319C42.9514 51.0024 42.9515 51.0024 42.9515 51.0023C42.9515 51.0023 42.9516 51.0022 42.9516 51.0021C42.9517 51.0019 42.9519 51.0017 42.952 51.0013C42.9524 51.0007 42.9529 50.9998 42.9536 50.9986C42.9549 50.9962 42.9569 50.9927 42.9595 50.9881C42.9647 50.979 42.9724 50.9654 42.9823 50.9478C43.0023 50.9124 43.0315 50.8605 43.0691 50.7935C43.1442 50.6594 43.2526 50.465 43.3863 50.2225C43.6536 49.7376 44.0224 49.0597 44.4285 48.2872C45.2368 46.7498 46.2075 44.8106 46.8148 43.2716L45.4195 42.721Z"/>
    <path d="M18.9681 1C15.8573 2.83822 10.5689 7.95695 15.9987 12.0293" stroke-width="1.5"/>
    <path d="M19.8166 3.96948C19.3924 4.53509 18.5439 5.83598 18.5439 6.51471" stroke-width="1.5"/>
    <path d="M19.3926 9.48413L21.5136 11.1809" stroke-width="1.5"/>
    <path d="M24.4829 12.4536L27.0281 13.7262" stroke-width="1.5"/>
    <path d="M28.7246 44.6931L27.0278 47.2383" stroke-width="1.5"/>
    <path d="M25.7555 49.3594L24.4829 50.632" stroke-width="1.5"/>
  </g>

  <g id="akkum" width="62" height="60" viewBox="0 0 62 60" fill="none" xmlns="http://www.w3.org/2000/svg">
    <path d="M44.75 32.125H47.875M51 32.125H47.875M47.875 32.125V29.625M47.875 32.125V34.625" stroke-width="1.5"/>
    <path d="M57.25 48.375H60.375V55.25H1V48.375H4.75M57.25 48.375V16.5M57.25 48.375H4.75M57.25 16.5L4.75 15.875M57.25 16.5H61V9.625H53.5M4.75 15.875V48.375M4.75 15.875H1V9.625H7.875M7.875 9.625V4H19.75V9.625M7.875 9.625H19.75M19.75 9.625H26M36 9.625H41.625M41.625 9.625V4H53.5V9.625M41.625 9.625H53.5M29.75 9.625H31M32.25 9.625H31M31 9.625V8.375V10.875" stroke-width="1.5"/>
    <path d="M31.6247 44.625L23.4997 30.875L23.0889 30.25H29.7497V20.875L37.8747 34H31.6247V44.625Z"  stroke-width="1.5"/>
    <path d="M11 32.125H17.25" stroke-width="1.5"/>
  </g>

  <g id="akkum_2" width="53" height="50" viewBox="0 0 53 50" fill="none" xmlns="http://www.w3.org/2000/svg">
    <path d="M37.9585 27.4376H40.5627M43.1668 27.4376H40.5627M40.5627 27.4376V25.3542M40.5627 27.4376V29.5209" stroke-width="1.5"/>
    <path d="M48.375 40.9792H50.9792V46.7083H1.5V40.9792H4.625M48.375 40.9792V14.4167M48.375 40.9792H4.625M48.375 14.4167L4.625 13.8958M48.375 14.4167H51.5V8.6875H45.25M4.625 13.8958V40.9792M4.625 13.8958H1.5V8.6875H7.22917M7.22917 8.6875V4H17.125V8.6875M7.22917 8.6875H17.125M17.125 8.6875H22.3333M30.6667 8.6875H35.3542M35.3542 8.6875V4H45.25V8.6875M35.3542 8.6875H45.25M25.4583 8.6875H26.5M27.5417 8.6875H26.5M26.5 8.6875V7.64583V9.72917" stroke-width="1.5"/>
    <path d="M27.0204 37.8542L20.2495 26.3958L19.9072 25.875H25.4579V18.0625L32.2287 29H27.0204V37.8542Z" stroke-width="1.5"/>
    <path d="M9.8335 27.4375H15.0418" stroke-width="1.5"/>
  </g>

  <g id="instruments" width="61" height="60" viewBox="0 0 61 60" xmlns="http://www.w3.org/2000/svg">
    <path d="M54.4062 38.0625C52.1562 35.8125 49.0625 34.5937 45.875 34.7812C45.3125 34.7812 44.75 34.875 44.0938 35.0625L37.3438 28.4062L55.625 10.3125L57.6875 4.125V4.03125C57.7812 3.65625 57.6875 3.375 57.4062 3.09375L57.0312 2.71875L56.4688 2.8125L50.1875 4.875L32 23.0625L25.3438 16.5C25.5312 15.8438 25.625 15.2813 25.625 14.625C25.8125 11.4375 24.5938 8.34375 22.3438 6.09375C19.3438 3.09375 14.8438 2.0625 10.8125 3.46875L10.25 3.65625L10.1562 4.6875L15.9688 10.5L11.0938 15.375L5.65625 9.9375C5.375 9.65625 5.09375 9.5625 4.71875 9.65625L4.15625 9.84375L3.96875 10.3125C2.375 15 3.96875 20.0625 7.8125 22.9688C9.78125 24.375 12.125 25.125 14.4688 25.125C15.3125 25.125 16.1562 25.0312 17 24.8438L20.5625 28.4062L5 43.9688C3.875 45 3.3125 46.5 3.3125 48C3.3125 49.5 3.875 50.9062 5 52.0312L8.46875 55.5C9.5 56.5312 11 57.1875 12.5 57.1875C14 57.1875 15.4062 56.625 16.5312 55.5L18.0313 54L30.875 41.1562L32 40.0312L35.5625 43.6875C34.9063 46.7812 35.5625 50.0625 37.4375 52.6875C39.5938 55.5938 42.9688 57.1875 46.4375 57.1875C47.6562 57.1875 48.875 57 50.0938 56.625C50.4688 56.5312 50.6562 56.25 50.75 55.875L50.8438 55.3125L45.0312 49.5L49.9062 44.625L55.3438 50.0625C55.625 50.3438 55.9062 50.4375 56.2812 50.3438L56.8438 50.1562L57.0312 49.6875C58.4375 45.5625 57.5 41.1562 54.4062 38.0625ZM51.2188 6.5625L55.3438 5.15625L53.9375 9.28125L36.125 27.0938L33.4062 24.375L51.2188 6.5625ZM8.9375 21.4688C6.03125 19.3125 4.71875 15.75 5.28125 12.375L10.25 17.3438L10.5312 17.625H11.375L17.75 11.25C17.9375 11.0625 18.0313 10.7812 18.0313 10.5V10.0312L12.7812 4.78125C15.7812 4.21875 18.7812 5.15625 20.9375 7.40625C22.8125 9.28125 23.8438 11.9062 23.6562 14.5312C23.4688 17.25 22.25 19.5938 20.1875 21.2813C17 23.9063 12.3125 24 8.9375 21.4688ZM17.375 52.0312L15.5938 50.25L27.125 38.7187L28.9062 40.5L17.375 52.0312ZM14.2812 48.9375L11.5625 46.2187L23.0938 34.6875L25.8125 37.4062L14.2812 48.9375ZM10.25 44.9062L8.46875 43.125L20 31.5938L21.7812 33.375L10.25 44.9062ZM12.5 55.3125C11.4688 55.3125 10.5312 54.9375 9.78125 54.1875L6.3125 50.7187C5.5625 49.9687 5.1875 49.0312 5.1875 48C5.1875 46.9688 5.5625 46.0312 6.3125 45.2812L7.15625 44.4375L9.59375 46.875L16.0625 53.3438L15.2188 54.1875C14.4688 54.9375 13.5312 55.3125 12.5 55.3125ZM30.2188 39.1875L21.3125 30.2812L21.7812 29.8125L30.5937 38.7187L30.2188 39.1875ZM18.9688 24.2812C19.8125 23.9062 20.6562 23.4375 21.4062 22.7812C22.8125 21.6562 23.9375 20.1563 24.6875 18.4688L31.3438 25.0313L42.0312 35.625C40.3438 36.375 38.8438 37.5 37.625 38.9062C36.9688 39.6562 36.5 40.5937 36.125 41.5312L18.9688 24.2812ZM55.7188 47.625L50.75 42.6562C50.375 42.2812 49.7188 42.2812 49.3438 42.6562L43.1562 48.75C42.9688 48.9375 42.875 49.2187 42.875 49.5V49.9687L48.125 55.2188C44.6562 55.7812 41.1875 54.4688 39.0312 51.5625C36.5938 48.2812 36.6875 43.5 39.2188 40.2188C40.9062 38.0625 43.3438 36.8438 45.9688 36.75C46.1562 36.75 46.3438 36.75 46.4375 36.75C48.875 36.75 51.3125 37.6875 53 39.4687C55.25 41.625 56.1875 44.625 55.7188 47.625Z"/>
    <path d="M27.6875 25.875C27.3125 25.5 26.75 25.5 26.375 25.875C26 26.25 26 26.8125 26.375 27.1875L33.4062 34.2188C33.5937 34.4062 33.875 34.5 34.0625 34.5C34.25 34.5 34.5312 34.4062 34.7188 34.2188C35.0938 33.8438 35.0938 33.2812 34.7188 32.9062L27.6875 25.875Z"/>
  </g>

  <g id="instruments_2" width="50" height="50" viewBox="0 0 50 50" xmlns="http://www.w3.org/2000/svg">
    <path d="M44.9219 31.7187C43.0469 29.8437 40.4688 28.8281 37.8125 28.9844C37.3438 28.9844 36.875 29.0625 36.3281 29.2188L30.7031 23.6719L45.9375 8.59375L47.6562 3.4375V3.35938C47.7344 3.04688 47.6562 2.8125 47.4219 2.57812L47.1094 2.26562L46.6406 2.34375L41.4062 4.0625L26.25 19.2188L20.7031 13.75C20.8594 13.2031 20.9375 12.7344 20.9375 12.1875C21.0938 9.53125 20.0781 6.95312 18.2031 5.07812C15.7031 2.57812 11.9531 1.71875 8.59375 2.89062L8.125 3.04688L8.04688 3.90625L12.8906 8.75L8.82812 12.8125L4.29688 8.28125C4.0625 8.04688 3.82812 7.96875 3.51562 8.04688L3.04688 8.20312L2.89063 8.59375C1.5625 12.5 2.89063 16.7188 6.09375 19.1406C7.73438 20.3125 9.6875 20.9375 11.6406 20.9375C12.3438 20.9375 13.0469 20.8594 13.75 20.7031L16.7188 23.6719L3.75 36.6406C2.8125 37.5 2.34375 38.75 2.34375 40C2.34375 41.25 2.8125 42.4219 3.75 43.3594L6.64062 46.25C7.5 47.1094 8.75 47.6562 10 47.6562C11.25 47.6562 12.4219 47.1875 13.3594 46.25L14.6094 45L25.3125 34.2969L26.25 33.3594L29.2188 36.4062C28.6719 38.9844 29.2188 41.7188 30.7813 43.9062C32.5781 46.3281 35.3906 47.6562 38.2812 47.6562C39.2969 47.6562 40.3125 47.5 41.3281 47.1875C41.6406 47.1094 41.7969 46.875 41.875 46.5625L41.9531 46.0938L37.1094 41.25L41.1719 37.1875L45.7031 41.7188C45.9375 41.9531 46.1719 42.0312 46.4844 41.9531L46.9531 41.7969L47.1094 41.4062C48.2812 37.9688 47.5 34.2969 44.9219 31.7187ZM42.2656 5.46875L45.7031 4.29688L44.5312 7.73437L29.6875 22.5781L27.4219 20.3125L42.2656 5.46875ZM7.03125 17.8906C4.60938 16.0938 3.51562 13.125 3.98437 10.3125L8.125 14.4531L8.35938 14.6875H9.0625L14.375 9.375C14.5312 9.21875 14.6094 8.98437 14.6094 8.75V8.35938L10.2344 3.98437C12.7344 3.51562 15.2344 4.29688 17.0312 6.17188C18.5938 7.73438 19.4531 9.92188 19.2969 12.1094C19.1406 14.375 18.125 16.3281 16.4062 17.7344C13.75 19.9219 9.84375 20 7.03125 17.8906ZM14.0625 43.3594L12.5781 41.875L22.1875 32.2656L23.6719 33.75L14.0625 43.3594ZM11.4844 40.7812L9.21875 38.5156L18.8281 28.9062L21.0938 31.1719L11.4844 40.7812ZM8.125 37.4219L6.64062 35.9375L16.25 26.3281L17.7344 27.8125L8.125 37.4219ZM10 46.0938C9.14062 46.0938 8.35937 45.7812 7.73437 45.1562L4.84375 42.2656C4.21875 41.6406 3.90625 40.8594 3.90625 40C3.90625 39.1406 4.21875 38.3594 4.84375 37.7344L5.54688 37.0312L7.57812 39.0625L12.9688 44.4531L12.2656 45.1562C11.6406 45.7812 10.8594 46.0938 10 46.0938ZM24.7656 32.6562L17.3438 25.2344L17.7344 24.8438L25.0781 32.2656L24.7656 32.6562ZM15.3906 20.2344C16.0938 19.9219 16.7969 19.5312 17.4219 18.9844C18.5938 18.0469 19.5312 16.7969 20.1562 15.3906L25.7031 20.8594L34.6094 29.6875C33.2031 30.3125 31.9531 31.25 30.9375 32.4219C30.3906 33.0469 30 33.8281 29.6875 34.6094L15.3906 20.2344ZM46.0156 39.6875L41.875 35.5469C41.5625 35.2344 41.0156 35.2344 40.7031 35.5469L35.5469 40.625C35.3906 40.7812 35.3125 41.0156 35.3125 41.25V41.6406L39.6875 46.0156C36.7969 46.4844 33.9062 45.3906 32.1094 42.9688C30.0781 40.2344 30.1562 36.25 32.2656 33.5156C33.6719 31.7188 35.7031 30.7031 37.8906 30.625C38.0469 30.625 38.2031 30.625 38.2812 30.625C40.3125 30.625 42.3438 31.4062 43.75 32.8906C45.625 34.6875 46.4062 37.1875 46.0156 39.6875Z"/>
    <path d="M22.6562 21.5625C22.3437 21.25 21.875 21.25 21.5625 21.5625C21.25 21.875 21.25 22.3437 21.5625 22.6562L27.4219 28.5156C27.5781 28.6719 27.8125 28.75 27.9687 28.75C28.125 28.75 28.3594 28.6719 28.5156 28.5156C28.8281 28.2031 28.8281 27.7344 28.5156 27.4219L22.6562 21.5625Z"/>
  </g>

  <g id="arrow-right" width="24" height="24" viewBox="0 0 24 24" fill="none" xmlns="http://www.w3.org/2000/svg">
    <path d="M4 12H20" stroke="#364149" stroke-width="2" stroke-linecap="round" stroke-linejoin="round"/>
    <path d="M13.3333 5.3335L19.9997 12.0002L13.3331 18.6668" stroke="#364149" stroke-width="2" stroke-linecap="round" stroke-linejoin="round"/>
  </g>

  <g id="arrow-right_2" width="20" height="20" viewBox="0 0 20 20" fill="none" xmlns="http://www.w3.org/2000/svg">
    <g opacity="0.4">
    <path d="M3.3335 10H16.6668" stroke="#364149" stroke-width="2" stroke-linecap="round" stroke-linejoin="round"/>
    <path d="M11.1111 4.44434L16.6664 9.99989L11.111 15.5554" stroke="#364149" stroke-width="2" stroke-linecap="round" stroke-linejoin="round"/>
    </g>
  </g>

  <g id="arrow" width="24" height="24" viewBox="0 0 24 24" fill="none" xmlns="http://www.w3.org/2000/svg">
    <path d="M7 17L17 7" stroke-width="2" stroke-linecap="round" stroke-linejoin="round"/>
    <path d="M7 7H17V17" stroke-width="2" stroke-linecap="round" stroke-linejoin="round"/>
    <path d="M0 0V-1H-1V0H0ZM24 0H25V-1H24V0ZM24 24V25H25V24H24ZM0 24H-1V25H0V24ZM0 1H24V-1H0V1ZM23 0V24H25V0H23ZM24 23H0V25H24V23ZM1 24V0H-1V24H1Z"/>
  </g>

  <g id="arrow_2" width="20" height="20" viewBox="0 0 20 20" fill="none" xmlns="http://www.w3.org/2000/svg">
    <path d="M5.83325 14.1666L14.1666 5.83325" stroke="#364149" stroke-width="2" stroke-linecap="round" stroke-linejoin="round"/>
    <path d="M5.83325 5.83325H14.1666V14.1666" stroke="#364149" stroke-width="2" stroke-linecap="round" stroke-linejoin="round"/>
    <path d="M0 0V-1H-1V0H0ZM20 0H21V-1H20V0ZM20 20V21H21V20H20ZM0 20H-1V21H0V20ZM0 1H20V-1H0V1ZM19 0V20H21V0H19ZM20 19H0V21H20V19ZM1 20V0H-1V20H1Z" fill="#364149"/>
  </g>

  <g id="geo" width="16" height="16" viewBox="0 0 16 16" xmlns="http://www.w3.org/2000/svg">
    <path d="M8 3.75C6.96591 3.75 6.125 4.59091 6.125 5.625C6.125 6.66403 6.96441 7.5 8 7.5C9.05416 7.5 9.875 6.64828 9.875 5.625C9.875 4.59091 9.03409 3.75 8 3.75Z"/>
    <path d="M8 0C4.89819 0 2.375 2.52319 2.375 5.625C2.375 6.67281 2.66522 7.69547 3.21409 8.58263L7.67959 15.7782C7.86475 16.0773 8.30131 16.0727 8.48069 15.7718L12.8322 8.50663C13.3503 7.63825 13.625 6.64169 13.625 5.625C13.625 2.52319 11.1018 0 8 0ZM8 8.44375C6.42672 8.44375 5.18125 7.16316 5.18125 5.625C5.18125 4.07409 6.44909 2.80625 8 2.80625C9.55091 2.80625 10.8188 4.07409 10.8188 5.625C10.8188 7.14959 9.59003 8.44375 8 8.44375Z"/>
  </g>

  <g id="footer-geo" width="24" height="24" viewBox="0 0 24 24" xmlns="http://www.w3.org/2000/svg">
    <path d="M12 5.625C10.4489 5.625 9.1875 6.88636 9.1875 8.4375C9.1875 9.99605 10.4466 11.25 12 11.25C13.5812 11.25 14.8125 9.97242 14.8125 8.4375C14.8125 6.88636 13.5511 5.625 12 5.625Z"/>
    <path d="M12 0C7.34728 0 3.5625 3.78478 3.5625 8.4375C3.5625 10.0092 3.99783 11.5432 4.82114 12.8739L11.5194 23.6673C11.7971 24.1159 12.452 24.109 12.721 23.6577L19.2483 12.7599C20.0255 11.4574 20.4375 9.96253 20.4375 8.4375C20.4375 3.78478 16.6527 0 12 0ZM12 12.6656C9.64008 12.6656 7.77188 10.7447 7.77188 8.4375C7.77188 6.11114 9.67364 4.20938 12 4.20938C14.3264 4.20938 16.2281 6.11114 16.2281 8.4375C16.2281 10.7244 14.385 12.6656 12 12.6656Z"/>
  </g>

  <g id="footer-geo_2" width="20" height="21" viewBox="0 0 20 21" xmlns="http://www.w3.org/2000/svg">
    <g clip-path="url(#clip0_575_18886)">
    <path d="M10 4.71973C8.70738 4.71973 7.65625 5.77086 7.65625 7.06348C7.65625 8.36227 8.70551 9.40723 10 9.40723C11.3177 9.40723 12.3438 8.34258 12.3438 7.06348C12.3438 5.77086 11.2926 4.71973 10 4.71973Z"/>
    <path d="M10 0.0322266C6.12273 0.0322266 2.96875 3.18621 2.96875 7.06348C2.96875 8.37324 3.33152 9.65156 4.01762 10.7605L9.59949 19.755C9.83094 20.1288 10.3766 20.1231 10.6009 19.747L16.0402 10.6655C16.6879 9.58004 17.0312 8.33434 17.0312 7.06348C17.0312 3.18621 13.8773 0.0322266 10 0.0322266ZM10 10.5869C8.0334 10.5869 6.47656 8.98617 6.47656 7.06348C6.47656 5.12484 8.06137 3.54004 10 3.54004C11.9386 3.54004 13.5234 5.12484 13.5234 7.06348C13.5234 8.96922 11.9875 10.5869 10 10.5869Z"/>
    </g>
    <defs>
    <clipPath id="clip0_575_18886">
    <rect width="20" height="20" fill="white" transform="translate(0 0.0322266)"/>
    </clipPath>
    </defs>
  </g>

  <g id="load" width="16" height="17" viewBox="0 0 16 17" fill="none" xmlns="http://www.w3.org/2000/svg">
    <path fill-rule="evenodd" clip-rule="evenodd" d="M8 12.5508C10.4853 12.5508 12.5 10.5361 12.5 8.05078C12.5 5.5655 10.4853 3.55078 8 3.55078C5.51472 3.55078 3.5 5.5655 3.5 8.05078C3.5 10.5361 5.51472 12.5508 8 12.5508ZM8 14.5508C11.5899 14.5508 14.5 11.6406 14.5 8.05078C14.5 4.46093 11.5899 1.55078 8 1.55078C4.41015 1.55078 1.5 4.46093 1.5 8.05078C1.5 11.6406 4.41015 14.5508 8 14.5508Z" fill="url(#paint0_angular_425_23931)"/>
    <defs>
    <radialGradient id="paint0_angular_425_23931" cx="0" cy="0" r="1" gradientUnits="userSpaceOnUse" gradientTransform="translate(8 8.05078) scale(6.5)">
    <stop stop-color="white" stop-opacity="0.01"/>
    <stop offset="1" stop-color="#347AB6"/>
    </radialGradient>
    </defs>
  </g>

  <g id="loup" width="20" height="21" viewBox="0 0 20 21" fill="none" xmlns="http://www.w3.org/2000/svg">
    <path d="M9.16667 16.3333C12.8486 16.3333 15.8333 13.3486 15.8333 9.66667C15.8333 5.98477 12.8486 3 9.16667 3C5.48477 3 2.5 5.98477 2.5 9.66667C2.5 13.3486 5.48477 16.3333 9.16667 16.3333Z" stroke-width="2" stroke-linecap="round" stroke-linejoin="round"/>
    <path d="M17.5 18L13.875 14.375" stroke-width="2" stroke-linecap="round" stroke-linejoin="round"/>
  </g>

  <g id="mail" width="24" height="24" viewBox="0 0 24 24" xmlns="http://www.w3.org/2000/svg">
    <g clip-path="url(#clip0_504_25221)">
    <path d="M23.7885 4.76807L16.5098 11.9999L23.7885 19.2317C23.92 18.9567 23.9999 18.6527 23.9999 18.328V5.67177C23.9999 5.34707 23.92 5.04308 23.7885 4.76807Z"/>
    <path d="M21.8905 3.5625H2.10927C1.78457 3.5625 1.48058 3.64233 1.20557 3.77391L10.5085 13.03C11.3311 13.8526 12.6687 13.8526 13.4913 13.03L22.7942 3.77391C22.5192 3.64233 22.2152 3.5625 21.8905 3.5625Z"/>
    <path d="M0.211406 4.76807C0.0798281 5.04308 0 5.34707 0 5.67177V18.328C0 18.6527 0.0798281 18.9568 0.211406 19.2317L7.49011 11.9999L0.211406 4.76807Z"/>
    <path d="M15.5155 12.9941L14.4855 14.0241C13.115 15.3947 10.8848 15.3947 9.51421 14.0241L8.48427 12.9941L1.20557 20.226C1.48058 20.3575 1.78457 20.4374 2.10927 20.4374H21.8905C22.2152 20.4374 22.5192 20.3575 22.7942 20.226L15.5155 12.9941Z"/>
    </g>
    <defs>
    <clipPath id="clip0_504_25221">
    <rect width="24" height="24" fill="white"/>
    </clipPath>
    </defs>
  </g>

  <g id="mail_2" width="20" height="21" viewBox="0 0 20 21" xmlns="http://www.w3.org/2000/svg">
    <path d="M19.8234 4.00586L13.7578 10.0324L19.8234 16.0589C19.933 15.8297 19.9996 15.5764 19.9996 15.3058V4.75895C19.9996 4.48836 19.933 4.23504 19.8234 4.00586Z" />
    <path d="M18.2414 3.00098H1.75699C1.48641 3.00098 1.23309 3.0675 1.00391 3.17715L8.75637 10.8905C9.44184 11.576 10.5565 11.576 11.242 10.8905L18.9945 3.17715C18.7653 3.0675 18.512 3.00098 18.2414 3.00098Z"/>
    <path d="M0.176172 4.00586C0.0665234 4.23504 0 4.48836 0 4.75895V15.3058C0 15.5764 0.0665234 15.8298 0.176172 16.0589L6.24176 10.0324L0.176172 4.00586Z"/>
    <path d="M12.9289 10.8604L12.0705 11.7187C10.9284 12.8608 9.06992 12.8608 7.92777 11.7187L7.06949 10.8604L1.00391 16.8869C1.23309 16.9965 1.48641 17.063 1.75699 17.063H18.2414C18.512 17.063 18.7653 16.9965 18.9945 16.8869L12.9289 10.8604Z"/>
  </g>

  <g id="phone-header" width="24" height="24" viewBox="0 0 24 24" xmlns="http://www.w3.org/2000/svg">
    <path d="M5.00004 9.86053C6.91644 14.0344 10.3264 17.3529 14.566 19.1519L15.2456 19.4547C16.8004 20.1475 18.6282 19.6212 19.5765 18.2077L20.4646 16.884C20.7533 16.4536 20.6654 15.8739 20.262 15.5485L17.2502 13.1187C16.8078 12.7618 16.1573 12.845 15.8189 13.3016L14.8871 14.5589C12.4963 13.3795 10.5553 11.4385 9.37595 9.04768L10.6332 8.11596C11.0899 7.77754 11.173 7.12702 10.8161 6.68464L8.38623 3.6727C8.06088 3.26942 7.48138 3.18145 7.05101 3.47002L5.71817 4.36372C4.29582 5.31742 3.77244 7.16027 4.48118 8.71922L4.99926 9.85884L5.00004 9.86053Z"/>
  </g>

  <g id="phone-header_2" width="20" height="20" viewBox="0 0 20 20"  xmlns="http://www.w3.org/2000/svg">
    <path d="M4.16687 8.21703C5.76387 11.6953 8.60554 14.4607 12.1385 15.9599L12.7048 16.2122C14.0005 16.7895 15.5236 16.3509 16.3139 15.173L17.054 14.0699C17.2946 13.7112 17.2213 13.2282 16.8852 12.957L14.3753 10.9322C14.0067 10.6348 13.4646 10.7041 13.1826 11.0846L12.4061 12.1323C10.4138 11.1495 8.79624 9.53199 7.81345 7.53965L8.86116 6.76322C9.24171 6.4812 9.31098 5.93911 9.01358 5.57045L6.98868 3.0605C6.71756 2.72443 6.23464 2.65113 5.876 2.8916L4.7653 3.63635C3.58002 4.43111 3.14387 5.96681 3.73448 7.26594L4.16622 8.21561L4.16687 8.21703Z"/>
  </g>

  <g id="phone-btn_big" width="192" height="214" viewBox="0 0 192 214" fill="none" xmlns="http://www.w3.org/2000/svg">
    <g filter="url(#filter0_dddddd_504_1399)">
    <path d="M110.24 24.0089C108.053 24.0089 105.938 23.6533 103.964 23.0133C103.342 22.8 102.649 22.96 102.169 23.44L99.3778 26.9422C94.3467 24.5422 89.6356 20.0089 87.1289 14.8L90.5956 11.8489C91.0756 11.3511 91.2178 10.6578 91.0222 10.0356C90.3644 8.06222 90.0267 5.94667 90.0267 3.76C90.0267 2.8 89.2267 2 88.2667 2L82.1156 2C81.1556 2 80 2.42667 80 3.76C80 20.2756 93.7422 34 110.24 34C111.502 34 112 32.88 112 31.9022V25.7689C112 24.8089 111.2 24.0089 110.24 24.0089Z" fill="white"/>
    </g>
    <defs>
    <filter id="filter0_dddddd_504_1399" x="0" y="0.703704" width="192" height="213.296" filterUnits="userSpaceOnUse" color-interpolation-filters="sRGB">
    <feFlood flood-opacity="0" result="BackgroundImageFix"/>
    <feColorMatrix in="SourceAlpha" type="matrix" values="0 0 0 0 0 0 0 0 0 0 0 0 0 0 0 0 0 0 127 0" result="hardAlpha"/>
    <feOffset dy="1.85185"/>
    <feGaussianBlur stdDeviation="1.57407"/>
    <feColorMatrix type="matrix" values="0 0 0 0 0.163542 0 0 0 0 0.328531 0 0 0 0 0.654167 0 0 0 0.05 0"/>
    <feBlend mode="normal" in2="BackgroundImageFix" result="effect1_dropShadow_504_1399"/>
    <feColorMatrix in="SourceAlpha" type="matrix" values="0 0 0 0 0 0 0 0 0 0 0 0 0 0 0 0 0 0 127 0" result="hardAlpha"/>
    <feOffset dy="8.14815"/>
    <feGaussianBlur stdDeviation="3.25926"/>
    <feColorMatrix type="matrix" values="0 0 0 0 0.163542 0 0 0 0 0.328531 0 0 0 0 0.654167 0 0 0 0.05 0"/>
    <feBlend mode="normal" in2="effect1_dropShadow_504_1399" result="effect2_dropShadow_504_1399"/>
    <feColorMatrix in="SourceAlpha" type="matrix" values="0 0 0 0 0 0 0 0 0 0 0 0 0 0 0 0 0 0 127 0" result="hardAlpha"/>
    <feOffset dy="20"/>
    <feGaussianBlur stdDeviation="6.5"/>
    <feColorMatrix type="matrix" values="0 0 0 0 0.163542 0 0 0 0 0.328531 0 0 0 0 0.654167 0 0 0 0.05 0"/>
    <feBlend mode="normal" in2="effect2_dropShadow_504_1399" result="effect3_dropShadow_504_1399"/>
    <feColorMatrix in="SourceAlpha" type="matrix" values="0 0 0 0 0 0 0 0 0 0 0 0 0 0 0 0 0 0 127 0" result="hardAlpha"/>
    <feOffset dy="38.5185"/>
    <feGaussianBlur stdDeviation="12.7407"/>
    <feColorMatrix type="matrix" values="0 0 0 0 0.163542 0 0 0 0 0.328531 0 0 0 0 0.654167 0 0 0 0.05 0"/>
    <feBlend mode="normal" in2="effect3_dropShadow_504_1399" result="effect4_dropShadow_504_1399"/>
    <feColorMatrix in="SourceAlpha" type="matrix" values="0 0 0 0 0 0 0 0 0 0 0 0 0 0 0 0 0 0 127 0" result="hardAlpha"/>
    <feOffset dy="64.8148"/>
    <feGaussianBlur stdDeviation="23.4259"/>
    <feColorMatrix type="matrix" values="0 0 0 0 0.163542 0 0 0 0 0.328531 0 0 0 0 0.654167 0 0 0 0.05 0"/>
    <feBlend mode="normal" in2="effect4_dropShadow_504_1399" result="effect5_dropShadow_504_1399"/>
    <feColorMatrix in="SourceAlpha" type="matrix" values="0 0 0 0 0 0 0 0 0 0 0 0 0 0 0 0 0 0 127 0" result="hardAlpha"/>
    <feOffset dy="100"/>
    <feGaussianBlur stdDeviation="40"/>
    <feColorMatrix type="matrix" values="0 0 0 0 0.163542 0 0 0 0 0.328531 0 0 0 0 0.654167 0 0 0 0.05 0"/>
    <feBlend mode="normal" in2="effect5_dropShadow_504_1399" result="effect6_dropShadow_504_1399"/>
    <feBlend mode="normal" in="SourceGraphic" in2="effect6_dropShadow_504_1399" result="shape"/>
    </filter>
    </defs>
  </g>

  <g id="phone-btn_mid" width="170" height="200" viewBox="0 0 170 200" fill="none" xmlns="http://www.w3.org/2000/svg">
    <g filter="url(#filter0_dddddd_504_30785)">
    <path d="M97.5811 13.5911C96.3747 13.5911 95.2075 13.3949 94.1187 13.0418C93.7754 12.9241 93.3929 13.0124 93.1281 13.2772L91.5882 15.2095C88.8124 13.8853 86.2131 11.3842 84.8302 8.51031L86.7428 6.88211C87.0076 6.60748 87.0861 6.22495 86.9782 5.88165C86.6153 4.79292 86.4289 3.62571 86.4289 2.41928C86.4289 1.88962 85.9875 1.44824 85.4579 1.44824L82.0642 1.44824C81.5345 1.44824 80.897 1.68364 80.897 2.41928C80.897 11.5313 88.4789 19.1034 97.5811 19.1034C98.2775 19.1034 98.5521 18.4855 98.5521 17.946V14.5621C98.5521 14.0325 98.1108 13.5911 97.5811 13.5911Z" fill="white"/>
    </g>
    <defs>
    <filter id="filter0_dddddd_504_30785" x="0.896973" y="0.151946" width="177.655" height="198.952" filterUnits="userSpaceOnUse" color-interpolation-filters="sRGB">
    <feFlood flood-opacity="0" result="BackgroundImageFix"/>
    <feColorMatrix in="SourceAlpha" type="matrix" values="0 0 0 0 0 0 0 0 0 0 0 0 0 0 0 0 0 0 127 0" result="hardAlpha"/>
    <feOffset dy="1.85185"/>
    <feGaussianBlur stdDeviation="1.57407"/>
    <feColorMatrix type="matrix" values="0 0 0 0 0.163542 0 0 0 0 0.328531 0 0 0 0 0.654167 0 0 0 0.05 0"/>
    <feBlend mode="normal" in2="BackgroundImageFix" result="effect1_dropShadow_504_30785"/>
    <feColorMatrix in="SourceAlpha" type="matrix" values="0 0 0 0 0 0 0 0 0 0 0 0 0 0 0 0 0 0 127 0" result="hardAlpha"/>
    <feOffset dy="8.14815"/>
    <feGaussianBlur stdDeviation="3.25926"/>
    <feColorMatrix type="matrix" values="0 0 0 0 0.163542 0 0 0 0 0.328531 0 0 0 0 0.654167 0 0 0 0.05 0"/>
    <feBlend mode="normal" in2="effect1_dropShadow_504_30785" result="effect2_dropShadow_504_30785"/>
    <feColorMatrix in="SourceAlpha" type="matrix" values="0 0 0 0 0 0 0 0 0 0 0 0 0 0 0 0 0 0 127 0" result="hardAlpha"/>
    <feOffset dy="20"/>
    <feGaussianBlur stdDeviation="6.5"/>
    <feColorMatrix type="matrix" values="0 0 0 0 0.163542 0 0 0 0 0.328531 0 0 0 0 0.654167 0 0 0 0.05 0"/>
    <feBlend mode="normal" in2="effect2_dropShadow_504_30785" result="effect3_dropShadow_504_30785"/>
    <feColorMatrix in="SourceAlpha" type="matrix" values="0 0 0 0 0 0 0 0 0 0 0 0 0 0 0 0 0 0 127 0" result="hardAlpha"/>
    <feOffset dy="38.5185"/>
    <feGaussianBlur stdDeviation="12.7407"/>
    <feColorMatrix type="matrix" values="0 0 0 0 0.163542 0 0 0 0 0.328531 0 0 0 0 0.654167 0 0 0 0.05 0"/>
    <feBlend mode="normal" in2="effect3_dropShadow_504_30785" result="effect4_dropShadow_504_30785"/>
    <feColorMatrix in="SourceAlpha" type="matrix" values="0 0 0 0 0 0 0 0 0 0 0 0 0 0 0 0 0 0 127 0" result="hardAlpha"/>
    <feOffset dy="64.8148"/>
    <feGaussianBlur stdDeviation="23.4259"/>
    <feColorMatrix type="matrix" values="0 0 0 0 0.163542 0 0 0 0 0.328531 0 0 0 0 0.654167 0 0 0 0.05 0"/>
    <feBlend mode="normal" in2="effect4_dropShadow_504_30785" result="effect5_dropShadow_504_30785"/>
    <feColorMatrix in="SourceAlpha" type="matrix" values="0 0 0 0 0 0 0 0 0 0 0 0 0 0 0 0 0 0 127 0" result="hardAlpha"/>
    <feOffset dy="100"/>
    <feGaussianBlur stdDeviation="40"/>
    <feColorMatrix type="matrix" values="0 0 0 0 0.163542 0 0 0 0 0.328531 0 0 0 0 0.654167 0 0 0 0.05 0"/>
    <feBlend mode="normal" in2="effect5_dropShadow_504_30785" result="effect6_dropShadow_504_30785"/>
    <feBlend mode="normal" in="SourceGraphic" in2="effect6_dropShadow_504_30785" result="shape"/>
    </filter>
    </defs>
  </g>

  <g id="phone-btn_mid-2" width="174" height="195" viewBox="0 0 174 195" fill="none" xmlns="http://www.w3.org/2000/svg">
    <g filter="url(#filter0_dddddd_504_14105)">
    <path d="M92.6855 10.6933C91.7806 10.6933 90.9052 10.5462 90.0887 10.2814C89.8312 10.1931 89.5443 10.2593 89.3457 10.4579L88.1908 11.9071C86.1089 10.914 84.1595 9.03814 83.1222 6.88273L84.5567 5.66158C84.7554 5.45561 84.8142 5.16871 84.7333 4.91124C84.4611 4.09469 84.3213 3.21929 84.3213 2.31446C84.3213 1.91722 83.9903 1.58618 83.5931 1.58618H81.0478C80.6505 1.58618 80.1724 1.76273 80.1724 2.31446C80.1724 9.14848 85.8588 14.8276 92.6855 14.8276C93.2078 14.8276 93.4137 14.3641 93.4137 13.9595V11.4216C93.4137 11.0243 93.0827 10.6933 92.6855 10.6933Z" fill="white"/>
    </g>
    <defs>
    <filter id="filter0_dddddd_504_14105" x="0.172363" y="0.289885" width="173.241" height="194.538" filterUnits="userSpaceOnUse" color-interpolation-filters="sRGB">
    <feFlood flood-opacity="0" result="BackgroundImageFix"/>
    <feColorMatrix in="SourceAlpha" type="matrix" values="0 0 0 0 0 0 0 0 0 0 0 0 0 0 0 0 0 0 127 0" result="hardAlpha"/>
    <feOffset dy="1.85185"/>
    <feGaussianBlur stdDeviation="1.57407"/>
    <feColorMatrix type="matrix" values="0 0 0 0 0.163542 0 0 0 0 0.328531 0 0 0 0 0.654167 0 0 0 0.05 0"/>
    <feBlend mode="normal" in2="BackgroundImageFix" result="effect1_dropShadow_504_14105"/>
    <feColorMatrix in="SourceAlpha" type="matrix" values="0 0 0 0 0 0 0 0 0 0 0 0 0 0 0 0 0 0 127 0" result="hardAlpha"/>
    <feOffset dy="8.14815"/>
    <feGaussianBlur stdDeviation="3.25926"/>
    <feColorMatrix type="matrix" values="0 0 0 0 0.163542 0 0 0 0 0.328531 0 0 0 0 0.654167 0 0 0 0.05 0"/>
    <feBlend mode="normal" in2="effect1_dropShadow_504_14105" result="effect2_dropShadow_504_14105"/>
    <feColorMatrix in="SourceAlpha" type="matrix" values="0 0 0 0 0 0 0 0 0 0 0 0 0 0 0 0 0 0 127 0" result="hardAlpha"/>
    <feOffset dy="20"/>
    <feGaussianBlur stdDeviation="6.5"/>
    <feColorMatrix type="matrix" values="0 0 0 0 0.163542 0 0 0 0 0.328531 0 0 0 0 0.654167 0 0 0 0.05 0"/>
    <feBlend mode="normal" in2="effect2_dropShadow_504_14105" result="effect3_dropShadow_504_14105"/>
    <feColorMatrix in="SourceAlpha" type="matrix" values="0 0 0 0 0 0 0 0 0 0 0 0 0 0 0 0 0 0 127 0" result="hardAlpha"/>
    <feOffset dy="38.5185"/>
    <feGaussianBlur stdDeviation="12.7407"/>
    <feColorMatrix type="matrix" values="0 0 0 0 0.163542 0 0 0 0 0.328531 0 0 0 0 0.654167 0 0 0 0.05 0"/>
    <feBlend mode="normal" in2="effect3_dropShadow_504_14105" result="effect4_dropShadow_504_14105"/>
    <feColorMatrix in="SourceAlpha" type="matrix" values="0 0 0 0 0 0 0 0 0 0 0 0 0 0 0 0 0 0 127 0" result="hardAlpha"/>
    <feOffset dy="64.8148"/>
    <feGaussianBlur stdDeviation="23.4259"/>
    <feColorMatrix type="matrix" values="0 0 0 0 0.163542 0 0 0 0 0.328531 0 0 0 0 0.654167 0 0 0 0.05 0"/>
    <feBlend mode="normal" in2="effect4_dropShadow_504_14105" result="effect5_dropShadow_504_14105"/>
    <feColorMatrix in="SourceAlpha" type="matrix" values="0 0 0 0 0 0 0 0 0 0 0 0 0 0 0 0 0 0 127 0" result="hardAlpha"/>
    <feOffset dy="100"/>
    <feGaussianBlur stdDeviation="40"/>
    <feColorMatrix type="matrix" values="0 0 0 0 0.163542 0 0 0 0 0.328531 0 0 0 0 0.654167 0 0 0 0.05 0"/>
    <feBlend mode="normal" in2="effect5_dropShadow_504_14105" result="effect6_dropShadow_504_14105"/>
    <feBlend mode="normal" in="SourceGraphic" in2="effect6_dropShadow_504_14105" result="shape"/>
    </filter>
    </defs>
  </g>

  <g id="phone-btn_small" width="20" height="20" viewBox="0 0 20 20" fill="none" xmlns="http://www.w3.org/2000/svg">
    <path d="M4.16687 8.21703C5.76387 11.6953 8.60554 14.4607 12.1385 15.9599L12.7048 16.2122C14.0005 16.7895 15.5236 16.3509 16.3139 15.173L17.054 14.0699C17.2946 13.7112 17.2213 13.2282 16.8852 12.957L14.3753 10.9322C14.0067 10.6348 13.4646 10.7041 13.1826 11.0846L12.4061 12.1323C10.4138 11.1495 8.79624 9.53199 7.81345 7.53965L8.86116 6.76322C9.24171 6.4812 9.31098 5.93911 9.01358 5.57045L6.98868 3.0605C6.71756 2.72443 6.23464 2.65113 5.876 2.8916L4.7653 3.63635C3.58002 4.43111 3.14387 5.96681 3.73448 7.26594L4.16622 8.21561L4.16687 8.21703Z" fill="white"/>
  </g>

  <svg id="search-dropdown" width="16" height="16" viewBox="0 0 16 16" fill="none" xmlns="http://www.w3.org/2000/svg">
    <path d="M7.33333 12.6667C10.2789 12.6667 12.6667 10.2789 12.6667 7.33333C12.6667 4.38781 10.2789 2 7.33333 2C4.38781 2 2 4.38781 2 7.33333C2 10.2789 4.38781 12.6667 7.33333 12.6667Z" stroke="#347AB6" stroke-width="2" stroke-linecap="round" stroke-linejoin="round"/>
    <path d="M14 14L11.1 11.1" stroke="#347AB6" stroke-width="2" stroke-linecap="round" stroke-linejoin="round"/>
  </svg>

  <g id="calendar" width="24" height="24" viewBox="0 0 24 24" fill="none" xmlns="http://www.w3.org/2000/svg">
    <g clip-path="url(#clip0_73_3001)">
    <path d="M6 0.75C6 0.551088 5.92098 0.360322 5.78033 0.21967C5.63968 0.0790176 5.44891 0 5.25 0C5.05109 0 4.86032 0.0790176 4.71967 0.21967C4.57902 0.360322 4.5 0.551088 4.5 0.75V1.5H3C2.20435 1.5 1.44129 1.81607 0.87868 2.37868C0.316071 2.94129 0 3.70435 0 4.5L0 6H24V4.5C24 3.70435 23.6839 2.94129 23.1213 2.37868C22.5587 1.81607 21.7956 1.5 21 1.5H19.5V0.75C19.5 0.551088 19.421 0.360322 19.2803 0.21967C19.1397 0.0790176 18.9489 0 18.75 0C18.5511 0 18.3603 0.0790176 18.2197 0.21967C18.079 0.360322 18 0.551088 18 0.75V1.5H6V0.75ZM24 10.5V7.5H0V15H7.5C7.89782 15 8.27936 15.158 8.56066 15.4393C8.84196 15.7206 9 16.1022 9 16.5C9 16.8978 8.84196 17.2794 8.56066 17.5607C8.27936 17.842 7.89782 18 7.5 18H0V21C0 21.7956 0.316071 22.5587 0.87868 23.1213C1.44129 23.6839 2.20435 24 3 24H21C21.7956 24 22.5587 23.6839 23.1213 23.1213C23.6839 22.5587 24 21.7956 24 21V13.5H15C14.6022 13.5 14.2206 13.342 13.9393 13.0607C13.658 12.7794 13.5 12.3978 13.5 12C13.5 11.6022 13.658 11.2206 13.9393 10.9393C14.2206 10.658 14.6022 10.5 15 10.5H24Z" fill="#347AB6"/>
    </g>
    <defs>
    <clipPath id="clip0_73_3001">
    <rect width="24" height="24" fill="white"/>
    </clipPath>
    </defs>
  </g>

  <g id="calendar_2" width="20" height="20" viewBox="0 0 20 20" fill="none" xmlns="http://www.w3.org/2000/svg">
    <g clip-path="url(#clip0_355_13573)">
    <path d="M5 0.625C5 0.45924 4.93415 0.300269 4.81694 0.183058C4.69973 0.065848 4.54076 0 4.375 0C4.20924 0 4.05027 0.065848 3.93306 0.183058C3.81585 0.300269 3.75 0.45924 3.75 0.625V1.25H2.5C1.83696 1.25 1.20107 1.51339 0.732233 1.98223C0.263392 2.45107 0 3.08696 0 3.75L0 5H20V3.75C20 3.08696 19.7366 2.45107 19.2678 1.98223C18.7989 1.51339 18.163 1.25 17.5 1.25H16.25V0.625C16.25 0.45924 16.1842 0.300269 16.0669 0.183058C15.9497 0.065848 15.7908 0 15.625 0C15.4592 0 15.3003 0.065848 15.1831 0.183058C15.0658 0.300269 15 0.45924 15 0.625V1.25H5V0.625ZM20 8.75V6.25H0V12.5H6.25C6.58152 12.5 6.89946 12.6317 7.13388 12.8661C7.3683 13.1005 7.5 13.4185 7.5 13.75C7.5 14.0815 7.3683 14.3995 7.13388 14.6339C6.89946 14.8683 6.58152 15 6.25 15H0V17.5C0 18.163 0.263392 18.7989 0.732233 19.2678C1.20107 19.7366 1.83696 20 2.5 20H17.5C18.163 20 18.7989 19.7366 19.2678 19.2678C19.7366 18.7989 20 18.163 20 17.5V11.25H12.5C12.1685 11.25 11.8505 11.1183 11.6161 10.8839C11.3817 10.6495 11.25 10.3315 11.25 10C11.25 9.66848 11.3817 9.35054 11.6161 9.11612C11.8505 8.8817 12.1685 8.75 12.5 8.75H20Z" fill="#347AB6"/>
    </g>
    <defs>
    <clipPath id="clip0_355_13573">
    <rect width="20" height="20" fill="white"/>
    </clipPath>
    </defs>
  </g>

  <g id="contacts-tel" width="24" height="24" viewBox="0 0 24 24" fill="none" xmlns="http://www.w3.org/2000/svg">
    <path d="M5.00102 9.86053C6.91742 14.0344 10.3274 17.3529 14.567 19.1519L15.2466 19.4547C16.8014 20.1475 18.6291 19.6212 19.5775 18.2077L20.4655 16.884C20.7543 16.4536 20.6664 15.8739 20.263 15.5485L17.2512 13.1187C16.8088 12.7618 16.1583 12.845 15.8199 13.3016L14.8881 14.5589C12.4973 13.3795 10.5563 11.4385 9.37692 9.04768L10.6342 8.11596C11.0908 7.77754 11.174 7.12702 10.8171 6.68464L8.3872 3.6727C8.06186 3.26942 7.48235 3.18145 7.05199 3.47002L5.71915 4.36372C4.2968 5.31742 3.77342 7.16027 4.48215 8.71922L5.00024 9.85884L5.00102 9.86053Z" fill="#347AB6"/>
  </g>

  <g id="contacts-tel_2" width="20" height="20" viewBox="0 0 20 20" fill="none" xmlns="http://www.w3.org/2000/svg">
    <path d="M4.16687 8.21715C5.76387 11.6954 8.60554 14.4608 12.1385 15.96L12.7048 16.2123C14.0005 16.7896 15.5236 16.351 16.3139 15.1731L17.054 14.07C17.2946 13.7114 17.2213 13.2283 16.8852 12.9571L14.3753 10.9323C14.0067 10.6349 13.4646 10.7042 13.1826 11.0847L12.4061 12.1324C10.4138 11.1497 8.79624 9.53211 7.81345 7.53977L8.86116 6.76334C9.24171 6.48132 9.31098 5.93923 9.01358 5.57057L6.98868 3.06062C6.71756 2.72455 6.23464 2.65125 5.876 2.89172L4.7653 3.63647C3.58002 4.43123 3.14387 5.96693 3.73448 7.26606L4.16622 8.21574L4.16687 8.21715Z" fill="#347AB6"/>
  </g>

  <g id="tooltip" width="16" height="16" viewBox="0 0 16 16" fill="none" xmlns="http://www.w3.org/2000/svg">
    <rect width="16" height="16" fill="white"/>
    <path d="M8.00004 5.33325V7.99992M8.00004 10.6666H8.00671M14.6667 7.99992C14.6667 11.6818 11.6819 14.6666 8.00004 14.6666C4.31814 14.6666 1.33337 11.6818 1.33337 7.99992C1.33337 4.31802 4.31814 1.33325 8.00004 1.33325C11.6819 1.33325 14.6667 4.31802 14.6667 7.99992Z" stroke="#347AB6" stroke-width="2" stroke-linecap="round" stroke-linejoin="round"/>
  </g>



</svg>
