<svg width="40" height="40" viewBox="0 0 40 40" fill="none" xmlns="http://www.w3.org/2000/svg">
<path d="M6.66667 3.33337H33.3333C33.7754 3.33337 34.1993 3.50897 34.5118 3.82153C34.8244 4.13409 35 4.55801 35 5.00004V37.1267C35.0001 37.2658 34.9655 37.4026 34.8992 37.5249C34.8329 37.6471 34.737 37.7508 34.6204 37.8265C34.5038 37.9022 34.37 37.9476 34.2314 37.9584C34.0928 37.9692 33.9536 37.9451 33.8267 37.8884L20 31.7167L6.17333 37.8867C6.0465 37.9434 5.90752 37.9675 5.76902 37.9567C5.63051 37.946 5.49689 37.9008 5.38029 37.8253C5.2637 37.7498 5.16783 37.6463 5.10142 37.5243C5.035 37.4023 5.00014 37.2656 5 37.1267V5.00004C5 4.55801 5.17559 4.13409 5.48816 3.82153C5.80072 3.50897 6.22464 3.33337 6.66667 3.33337ZM31.6667 33.275V6.66671H8.33333V33.275L20 28.0684L31.6667 33.275ZM20 22.5L15.1017 25.075L16.0367 19.6217L12.075 15.7584L17.5517 14.9617L20 10L22.45 14.9617L27.925 15.7584L23.9633 19.6217L24.8967 25.075L20 22.5Z" fill="white"/>
</svg>
