<svg width="40" height="40" viewBox="0 0 40 40" fill="none" xmlns="http://www.w3.org/2000/svg">
<path d="M10.0007 30H30.0007V10H10.0007V30ZM23.334 33.3334H16.6673V36.6667H13.334V33.3334H8.33398C7.89196 33.3334 7.46803 33.1578 7.15547 32.8452C6.84291 32.5327 6.66732 32.1087 6.66732 31.6667V26.6667H3.33398V23.3334H6.66732V16.6667H3.33398V13.3334H6.66732V8.33337C6.66732 7.89135 6.84291 7.46742 7.15547 7.15486C7.46803 6.8423 7.89196 6.66671 8.33398 6.66671H13.334V3.33337H16.6673V6.66671H23.334V3.33337H26.6673V6.66671H31.6673C32.1093 6.66671 32.5333 6.8423 32.8458 7.15486C33.1584 7.46742 33.334 7.89135 33.334 8.33337V13.3334H36.6673V16.6667H33.334V23.3334H36.6673V26.6667H33.334V31.6667C33.334 32.1087 33.1584 32.5327 32.8458 32.8452C32.5333 33.1578 32.1093 33.3334 31.6673 33.3334H26.6673V36.6667H23.334V33.3334ZM13.334 13.3334H26.6673V26.6667H13.334V13.3334Z" fill="white"/>
</svg>
