<svg width="40" height="40" viewBox="0 0 40 40" fill="none" xmlns="http://www.w3.org/2000/svg">
<path d="M25.836 33.3334C24.7334 35.9706 22.6365 38.0674 19.9993 39.1701C17.3621 38.0674 15.2653 35.9706 14.1627 33.3334H17.9293C18.4727 34.1484 19.1743 34.8534 19.9993 35.4051C20.8243 34.855 21.526 34.1484 22.071 33.3334H25.836ZM29.9993 24.6751L33.3327 28.455V31.6667H6.66602V28.455L9.99935 24.6751V15C9.99935 9.19505 14.1727 4.25505 19.9993 2.42505C25.826 4.25505 29.9993 9.19505 29.9993 15V24.6751ZM28.7827 28.3334L26.666 25.9334V15C26.666 11.1367 24.0493 7.61672 19.9993 5.96672C15.9493 7.61672 13.3327 11.135 13.3327 15V25.9334L11.216 28.3334H28.7827ZM19.9993 18.3334C19.1153 18.3334 18.2674 17.9822 17.6423 17.3571C17.0172 16.732 16.666 15.8841 16.666 15C16.666 14.116 17.0172 13.2681 17.6423 12.643C18.2674 12.0179 19.1153 11.6667 19.9993 11.6667C20.8834 11.6667 21.7312 12.0179 22.3564 12.643C22.9815 13.2681 23.3327 14.116 23.3327 15C23.3327 15.8841 22.9815 16.732 22.3564 17.3571C21.7312 17.9822 20.8834 18.3334 19.9993 18.3334Z" fill="white"/>
</svg>
