<svg width="40" height="40" viewBox="0 0 40 40" fill="none" xmlns="http://www.w3.org/2000/svg">
<path d="M33.334 11.6667V8.33333H6.66732V31.6667H33.334V28.3333H20.0007C19.5586 28.3333 19.1347 28.1577 18.8221 27.8452C18.5096 27.5326 18.334 27.1087 18.334 26.6667V13.3333C18.334 12.8913 18.5096 12.4674 18.8221 12.1548C19.1347 11.8423 19.5586 11.6667 20.0007 11.6667H33.334ZM5.00065 5H35.0007C35.4427 5 35.8666 5.17559 36.1792 5.48816C36.4917 5.80072 36.6673 6.22464 36.6673 6.66667V33.3333C36.6673 33.7754 36.4917 34.1993 36.1792 34.5118C35.8666 34.8244 35.4427 35 35.0007 35H5.00065C4.55862 35 4.1347 34.8244 3.82214 34.5118C3.50958 34.1993 3.33398 33.7754 3.33398 33.3333V6.66667C3.33398 6.22464 3.50958 5.80072 3.82214 5.48816C4.1347 5.17559 4.55862 5 5.00065 5ZM21.6673 15V25H33.334V15H21.6673ZM25.0007 18.3333H30.0007V21.6667H25.0007V18.3333Z" fill="white"/>
</svg>
