<svg width="30" height="30" xmlns="http://www.w3.org/2000/svg" xmlns:xlink="http://www.w3.org/1999/xlink">
  <g id="chat" width="29" height="27" viewBox="0 0 29 27">
    <path d="M22.7501 7.50033H20.5834V17.2503H6.50008V19.417C6.50008 20.0128 6.98758 20.5003 7.58342 20.5003H19.5001L23.8334 24.8337V8.58366C23.8334 7.98783 23.3459 7.50033 22.7501 7.50033ZM18.4167 14.0003V4.25033C18.4167 3.65449 17.9292 3.16699 17.3334 3.16699H3.25008C2.65425 3.16699 2.16675 3.65449 2.16675 4.25033V19.417L6.50008 15.0837H17.3334C17.9292 15.0837 18.4167 14.5962 18.4167 14.0003Z"/>
    <defs>
    <linearGradient id="paint0_linear_188_488" x1="13.0001" y1="3.16699" x2="24.0793" y2="4.75987" gradientUnits="userSpaceOnUse">
    <stop stop-color="white"/>
    <stop offset="1" stop-color="white"/>
    </linearGradient>
    </defs>
  </g>
  <g id="geo" width="28" height="28" viewBox="0 0 28 28">
    <path d="M13.9999 2.33301C9.48492 2.33301 5.83325 5.98467 5.83325 10.4997C5.83325 16.6247 13.9999 25.6663 13.9999 25.6663C13.9999 25.6663 22.1666 16.6247 22.1666 10.4997C22.1666 5.98467 18.5149 2.33301 13.9999 2.33301ZM13.9999 13.4163C12.3899 13.4163 11.0833 12.1097 11.0833 10.4997C11.0833 8.88968 12.3899 7.58301 13.9999 7.58301C15.6099 7.58301 16.9166 8.88968 16.9166 10.4997C16.9166 12.1097 15.6099 13.4163 13.9999 13.4163Z"/>
    <defs>
    <linearGradient id="paint0_linear_188_494" x1="13.9999" y1="2.33301" x2="22.4391" y2="3.18233" gradientUnits="userSpaceOnUse">
    <stop stop-color="white"/>
    <stop offset="1" stop-color="white"/>
    </linearGradient>
    </defs>
  </g>
  <g id="phone" width="29" height="29" viewBox="0 0 29 29">
    <path d="M21.6775 18.6617C20.345 18.6617 19.0558 18.445 17.8533 18.055C17.4742 17.925 17.0517 18.0225 16.7592 18.315L15.0583 20.4492C11.9925 18.9867 9.12167 16.2242 7.59417 13.05L9.70667 11.2517C9.99917 10.9483 10.0858 10.5258 9.96667 10.1467C9.56583 8.94417 9.36 7.655 9.36 6.3225C9.36 5.7375 8.8725 5.25 8.2875 5.25H4.53917C3.95417 5.25 3.25 5.51 3.25 6.3225C3.25 16.3867 11.6242 24.75 21.6775 24.75C22.4467 24.75 22.75 24.0675 22.75 23.4717V19.7342C22.75 19.1492 22.2625 18.6617 21.6775 18.6617Z"/>
    <defs>
    <linearGradient id="paint0_linear_188_482" x1="13" y1="5.25" x2="22.9713" y2="6.68359" gradientUnits="userSpaceOnUse">
    <stop stop-color="white"/>
    <stop offset="1" stop-color="white"/>
    </linearGradient>
    </defs>
  </g>
  <g id="search" width="21" height="21" viewBox="0 0 21 21" xmlns="http://www.w3.org/2000/svg">
    <path d="M13.5625 12.25H12.8712L12.6262 12.0137C13.4837 11.0162 14 9.72125 14 8.3125C14 5.17125 11.4537 2.625 8.3125 2.625C5.17125 2.625 2.625 5.17125 2.625 8.3125C2.625 11.4537 5.17125 14 8.3125 14C9.72125 14 11.0162 13.4837 12.0137 12.6262L12.25 12.8712V13.5625L16.625 17.9287L17.9287 16.625L13.5625 12.25V12.25ZM8.3125 12.25C6.13375 12.25 4.375 10.4912 4.375 8.3125C4.375 6.13375 6.13375 4.375 8.3125 4.375C10.4912 4.375 12.25 6.13375 12.25 8.3125C12.25 10.4912 10.4912 12.25 8.3125 12.25Z"/>
  </g>
  <g id="skype" width="30" height="30" viewBox="0 0 30 30">
    <path d="M19.8809 15.8091C19.6904 15.3567 19.3571 15.0233 18.9285 14.7376C18.4999 14.4757 17.9999 14.2376 17.4047 14.0472C16.8095 13.8567 16.1428 13.69 15.4285 13.5472C14.8571 13.4281 14.4285 13.3091 14.1904 13.2376C13.9523 13.1662 13.7142 13.071 13.4761 12.9519C13.2618 12.8329 13.0714 12.7138 12.9523 12.5472C12.8333 12.4043 12.7618 12.2376 12.7618 12.0472C12.7618 11.7138 12.9523 11.4519 13.3095 11.2138C13.6904 10.9757 14.2142 10.8329 14.8571 10.8329C15.5476 10.8329 16.0475 10.9519 16.3571 11.1662C16.6666 11.4043 16.9285 11.7376 17.1666 12.1424C17.3571 12.4757 17.5237 12.69 17.6904 12.8329C17.8809 12.9995 18.119 13.071 18.4523 13.071C18.8095 13.071 19.119 12.9519 19.3809 12.69C19.619 12.4519 19.738 12.1662 19.738 11.8329C19.738 11.4995 19.6428 11.1662 19.4523 10.8329C19.2618 10.4995 18.9761 10.1662 18.5952 9.88049C18.2142 9.57096 17.7142 9.33287 17.119 9.1662C16.5237 8.97573 15.8333 8.9043 15.0237 8.9043C14.0237 8.9043 13.1428 9.04715 12.4047 9.30906C11.6428 9.57096 11.0714 9.97572 10.6666 10.4995C10.2618 11.0233 10.0714 11.6186 10.0714 12.2852C10.0714 12.9757 10.2618 13.571 10.6428 14.0472C11.0237 14.5233 11.5475 14.8805 12.1666 15.1662C12.7856 15.4281 13.5714 15.6662 14.4999 15.8567C15.1904 15.9995 15.738 16.1424 16.1428 16.2614C16.5237 16.3805 16.8571 16.5472 17.0952 16.7852C17.3333 16.9995 17.4285 17.2614 17.4285 17.6186C17.4285 18.0472 17.2142 18.4281 16.7618 18.7138C16.3095 19.0233 15.6904 19.1662 14.9523 19.1662C14.4285 19.1662 13.9761 19.0948 13.6666 18.9281C13.3571 18.7852 13.0952 18.5948 12.9285 18.3567C12.738 18.1186 12.5714 17.8091 12.4047 17.4519C12.2618 17.1186 12.0952 16.8805 11.8809 16.69C11.6666 16.5233 11.4047 16.4281 11.0952 16.4281C10.7142 16.4281 10.4047 16.5472 10.1666 16.7614C9.9285 16.9995 9.78564 17.2614 9.78564 17.5948C9.78564 18.1186 9.97612 18.6424 10.3571 19.19C10.738 19.7138 11.238 20.1662 11.8333 20.4757C12.6666 20.9043 13.738 21.1424 15.0237 21.1424C16.0952 21.1424 17.0237 20.9757 17.8095 20.6662C18.5952 20.3329 19.2142 19.8805 19.619 19.3091C20.0237 18.7376 20.238 18.071 20.238 17.3567C20.238 16.7614 20.119 16.2376 19.8809 15.8091Z"/>
    <path d="M22.4762 0H7.5C3.38095 0 0 3.38095 0 7.52381V22.5C0 26.619 3.38095 30 7.5 30H22.4762C26.619 30 30 26.619 30 22.4762V7.52381C30 3.38095 26.619 0 22.4762 0ZM19.1905 24.3571C18.3095 24.3571 17.4762 24.1429 16.7381 23.7619C16.2143 23.8571 15.6667 23.9048 15.0952 23.9048C10.1667 23.9048 6.16667 19.9524 6.16667 15.0952C6.16667 14.5 6.2381 13.9048 6.35714 13.3333C5.90476 12.5714 5.64286 11.6905 5.64286 10.7619C5.64286 7.95238 7.95238 5.66667 10.8095 5.66667C11.8095 5.66667 12.7619 5.95238 13.5714 6.45238C14.0714 6.38095 14.5714 6.33333 15.0952 6.33333C20.0238 6.33333 24.0238 10.2857 24.0238 15.1429C24.0238 15.7857 23.9524 16.4286 23.8095 17.0238C24.1429 17.7143 24.3571 18.4762 24.3571 19.2857C24.3571 22.0714 22.0476 24.3571 19.1905 24.3571Z"/>
    <defs>
    <linearGradient id="paint0_linear_188_511" x1="15.0118" y1="8.9043" x2="20.3861" y2="9.56422" gradientUnits="userSpaceOnUse">
    <stop stop-color="white"/>
    <stop offset="1" stop-color="white"/>
    </linearGradient>
    <linearGradient id="paint1_linear_188_511" x1="15" y1="2.63672e-06" x2="30.3405" y2="2.20553" gradientUnits="userSpaceOnUse">
    <stop stop-color="white"/>
    <stop offset="1" stop-color="white"/>
    </linearGradient>
    </defs>
  </g>
  <g id="telegram" width="30" height="30" viewBox="0 0 30 30">
    <path fill-rule="evenodd" clip-rule="evenodd" d="M8 0C3.58172 0 0 3.58172 0 8V22C0 26.4183 3.58172 30 8 30H22C26.4183 30 30 26.4183 30 22V8C30 3.58172 26.4183 0 22 0H8ZM5.50018 14.6324L21.6778 6.16858C21.8175 6.09549 21.9829 6.20527 21.9698 6.3624L20.5322 23.614C20.5187 23.7758 20.3281 23.855 20.2039 23.7502L13.1488 17.799C13.066 17.7292 13.0538 17.6061 13.1214 17.5214L18.3243 11.0029L10.5816 15.9623C10.5379 15.9902 10.4851 16.0001 10.4342 15.9899L5.55336 15.0057C5.36865 14.9685 5.33322 14.7198 5.50018 14.6324Z"/>
    <defs>
    <linearGradient id="paint0_linear_188_525" x1="15" y1="2.63672e-06" x2="30.3405" y2="2.20553" gradientUnits="userSpaceOnUse">
    <stop stop-color="white"/>
    <stop offset="1" stop-color="white"/>
    </linearGradient>
    </defs>
  </g>
  <g id="whatsupp" width="30" height="30" viewBox="0 0 30 30">
    <path d="M15.1547 7.08984C10.8962 7.08984 7.44653 10.5157 7.44653 14.7504C7.44653 16.4158 7.99372 17.986 8.92155 19.2469L7.94614 22.1017L10.92 21.1501C12.1333 21.959 13.6083 22.411 15.1785 22.411C19.437 22.411 22.9105 18.9852 22.9105 14.7504C22.8867 10.5157 19.4132 7.08984 15.1547 7.08984ZM19.6749 17.9146C19.4846 18.438 18.5568 18.9376 18.1523 18.9852C17.7479 19.0327 17.7479 19.3182 15.4402 18.438C13.1563 17.5339 11.7051 15.2262 11.5861 15.0597C11.4672 14.917 10.6583 13.8464 10.6583 12.752C10.6583 11.6576 11.2292 11.1105 11.4434 10.8963C11.6575 10.6822 11.8954 10.6109 12.0381 10.6109C12.1809 10.6109 12.3474 10.6346 12.4664 10.6346C12.6091 10.6346 12.7756 10.5633 12.966 11.0153C13.1563 11.4673 13.6083 12.5617 13.6559 12.6806C13.7035 12.7996 13.7511 12.9186 13.6797 13.0613C13.6083 13.204 13.5607 13.2992 13.4656 13.4419C13.3466 13.5609 13.2277 13.7274 13.1325 13.8226C13.0135 13.9415 12.8946 14.0605 13.0373 14.2746C13.1801 14.4887 13.6321 15.2262 14.2982 15.821C15.1547 16.5823 15.8922 16.8202 16.1063 16.9392C16.3204 17.0581 16.4632 17.0343 16.5821 16.8916C16.7249 16.7488 17.1531 16.2492 17.2959 16.0113C17.4386 15.7972 17.6051 15.821 17.7955 15.8924C18.0096 15.9638 19.1039 16.5109 19.3419 16.6299C19.556 16.7488 19.7225 16.7964 19.7701 16.8916C19.8415 16.9392 19.8415 17.3912 19.6749 17.9146Z"/>
    <path d="M22.4584 0H7.51784C3.37827 0 0 3.37827 0 7.51784V22.4822C0 26.5979 3.37827 29.9762 7.51784 29.9762H22.4822C26.6217 29.9762 30 26.5979 30 22.4584V7.51784C29.9762 3.37827 26.5979 0 22.4584 0ZM15.1546 23.862C13.5369 23.862 12.0381 23.4576 10.7058 22.7201L5.61459 24.3378L7.27994 19.4607C6.44726 18.0809 5.97145 16.4631 5.97145 14.7502C5.97145 9.70658 10.0872 5.63838 15.1546 5.63838C20.222 5.63838 24.3378 9.70658 24.3378 14.7502C24.3378 19.7938 20.222 23.862 15.1546 23.862Z"/>
    <defs>
    <linearGradient id="paint0_linear_188_518" x1="15.1785" y1="7.08985" x2="23.0829" y2="8.23687" gradientUnits="userSpaceOnUse">
    <stop stop-color="white"/>
    <stop offset="1" stop-color="white"/>
    </linearGradient>
    <linearGradient id="paint1_linear_188_518" x1="15" y1="2.63463e-06" x2="30.34" y2="2.20721" gradientUnits="userSpaceOnUse">
    <stop stop-color="white"/>
    <stop offset="1" stop-color="white"/>
    </linearGradient>
    </defs>
  </g>


  
</svg>