<svg width="21" height="20" viewBox="0 0 21 20" fill="none" xmlns="http://www.w3.org/2000/svg">
<path d="M3.72658 13.8279C2.74816 12.2571 2.40551 10.4001 2.76297 8.60571C3.12043 6.8113 4.15341 5.20288 5.66793 4.08249C7.18246 2.9621 9.07435 2.4068 10.9883 2.52087C12.9023 2.63494 14.7068 3.41053 16.0628 4.702C17.4189 5.99347 18.2333 7.71198 18.3531 9.53484C18.4728 11.3577 17.8898 13.1595 16.7134 14.6019C15.537 16.0443 13.8481 17.0281 11.964 17.3686C10.0799 17.709 8.13006 17.3827 6.48068 16.4509L3.76082 17.1909C3.64829 17.2215 3.52921 17.2229 3.41592 17.195C3.30263 17.167 3.19925 17.1107 3.11649 17.0319C3.03374 16.9531 2.97462 16.8546 2.94526 16.7467C2.91591 16.6388 2.91738 16.5254 2.94953 16.4182L3.72658 13.8279Z" fill="black" stroke="black" stroke-width="2" stroke-linecap="round" stroke-linejoin="round"/>
<path d="M12.4781 14.375C11.6147 14.3762 10.7596 14.2151 9.9617 13.9009C9.16382 13.5868 8.43886 13.1258 7.82836 12.5444C7.21787 11.963 6.73384 11.2726 6.40401 10.5127C6.07418 9.75278 5.90503 8.93837 5.90626 8.11612C5.90821 7.53735 6.15112 6.98294 6.58172 6.57452C7.01231 6.1661 7.59541 5.93701 8.20313 5.9375C8.3028 5.9375 8.40071 5.9626 8.48692 6.01025C8.57313 6.05789 8.64459 6.1264 8.69404 6.20883L9.65307 7.80721C9.71091 7.9036 9.74074 8.01293 9.7395 8.12394C9.73826 8.23496 9.706 8.34366 9.64602 8.43886L8.87582 9.66139C9.27207 10.4989 9.97619 11.1695 10.8555 11.5468L12.1392 10.8133C12.2392 10.7562 12.3533 10.7255 12.4699 10.7243C12.5864 10.7231 12.7012 10.7515 12.8024 10.8066L14.4807 11.72C14.5673 11.7671 14.6392 11.8351 14.6892 11.9172C14.7393 11.9993 14.7656 12.0926 14.7656 12.1875C14.7639 12.7656 14.5226 13.3197 14.0943 13.7293C13.6659 14.139 13.0851 14.371 12.4781 14.375Z" fill="white"/>
</svg>
