<svg width="24" height="24" xmlns="http://www.w3.org/2000/svg" xmlns:xlink="http://www.w3.org/1999/xlink">
  
  <g id="phone" width="24" height="24" viewBox="0 0 24 24" xmlns="http://www.w3.org/2000/svg">
    <path fill-rule="evenodd" clip-rule="evenodd" d="M11.5317 12.4724C15.5208 16.4604 16.4258 11.8467 18.9656 14.3848C21.4143 16.8328 22.8216 17.3232 19.7192 20.4247C19.3306 20.737 16.8616 24.4943 8.1846 15.8197C-0.493478 7.144 3.26158 4.67244 3.57397 4.28395C6.68387 1.17385 7.16586 2.58938 9.61449 5.03733C12.1544 7.5765 7.54266 8.48441 11.5317 12.4724Z"/>
  </g>

  <g id="calendar" width="24" height="24" viewBox="0 0 24 24" fill="none" xmlns="http://www.w3.org/2000/svg">
    <path fill-rule="evenodd" clip-rule="evenodd" d="M20.6665 9.9043H2.84253C2.42853 9.9043 2.09253 9.5683 2.09253 9.1543C2.09253 8.7403 2.42853 8.4043 2.84253 8.4043H20.6665C21.0805 8.4043 21.4165 8.7403 21.4165 9.1543C21.4165 9.5683 21.0805 9.9043 20.6665 9.9043Z" fill="#0A0A0A"/>
    <path fill-rule="evenodd" clip-rule="evenodd" d="M16.2013 13.8096C15.7873 13.8096 15.4473 13.4736 15.4473 13.0596C15.4473 12.6456 15.7783 12.3096 16.1923 12.3096H16.2013C16.6153 12.3096 16.9513 12.6456 16.9513 13.0596C16.9513 13.4736 16.6153 13.8096 16.2013 13.8096Z" fill="#0A0A0A"/>
    <path fill-rule="evenodd" clip-rule="evenodd" d="M11.7638 13.8096C11.3498 13.8096 11.0098 13.4736 11.0098 13.0596C11.0098 12.6456 11.3408 12.3096 11.7548 12.3096H11.7638C12.1778 12.3096 12.5138 12.6456 12.5138 13.0596C12.5138 13.4736 12.1778 13.8096 11.7638 13.8096Z" fill="#0A0A0A"/>
    <path fill-rule="evenodd" clip-rule="evenodd" d="M7.31701 13.8096C6.90301 13.8096 6.56201 13.4736 6.56201 13.0596C6.56201 12.6456 6.89401 12.3096 7.30801 12.3096H7.31701C7.73101 12.3096 8.06701 12.6456 8.06701 13.0596C8.06701 13.4736 7.73101 13.8096 7.31701 13.8096Z" fill="#0A0A0A"/>
    <path fill-rule="evenodd" clip-rule="evenodd" d="M16.2013 17.6963C15.7873 17.6963 15.4473 17.3603 15.4473 16.9463C15.4473 16.5323 15.7783 16.1963 16.1923 16.1963H16.2013C16.6153 16.1963 16.9513 16.5323 16.9513 16.9463C16.9513 17.3603 16.6153 17.6963 16.2013 17.6963Z" fill="#0A0A0A"/>
    <path fill-rule="evenodd" clip-rule="evenodd" d="M11.7638 17.6963C11.3498 17.6963 11.0098 17.3603 11.0098 16.9463C11.0098 16.5323 11.3408 16.1963 11.7548 16.1963H11.7638C12.1778 16.1963 12.5138 16.5323 12.5138 16.9463C12.5138 17.3603 12.1778 17.6963 11.7638 17.6963Z" fill="#0A0A0A"/>
    <path fill-rule="evenodd" clip-rule="evenodd" d="M7.31701 17.6963C6.90301 17.6963 6.56201 17.3603 6.56201 16.9463C6.56201 16.5323 6.89401 16.1963 7.30801 16.1963H7.31701C7.73101 16.1963 8.06701 16.5323 8.06701 16.9463C8.06701 17.3603 7.73101 17.6963 7.31701 17.6963Z" fill="#0A0A0A"/>
    <path fill-rule="evenodd" clip-rule="evenodd" d="M15.7935 5.791C15.3795 5.791 15.0435 5.455 15.0435 5.041V1.75C15.0435 1.336 15.3795 1 15.7935 1C16.2075 1 16.5435 1.336 16.5435 1.75V5.041C16.5435 5.455 16.2075 5.791 15.7935 5.791Z" fill="#0A0A0A"/>
    <path fill-rule="evenodd" clip-rule="evenodd" d="M7.71533 5.791C7.30133 5.791 6.96533 5.455 6.96533 5.041V1.75C6.96533 1.336 7.30133 1 7.71533 1C8.12933 1 8.46533 1.336 8.46533 1.75V5.041C8.46533 5.455 8.12933 5.791 7.71533 5.791Z" fill="#0A0A0A"/>
    <mask id="mask0_33540_694" style="mask-type:alpha" maskUnits="userSpaceOnUse" x="2" y="2" width="20" height="21">
    <path fill-rule="evenodd" clip-rule="evenodd" d="M2 2.5791H21.5V22.5H2V2.5791Z" fill="white"/>
    </mask>
    <g mask="url(#mask0_33540_694)">
    <path fill-rule="evenodd" clip-rule="evenodd" d="M7.521 4.0791C4.928 4.0791 3.5 5.4621 3.5 7.9731V17.0221C3.5 19.5881 4.928 21.0001 7.521 21.0001H15.979C18.572 21.0001 20 19.6141 20 17.0981V7.9731C20.004 6.7381 19.672 5.7781 19.013 5.1181C18.335 4.4381 17.29 4.0791 15.988 4.0791H7.521ZM15.979 22.5001H7.521C4.116 22.5001 2 20.4011 2 17.0221V7.9731C2 4.6451 4.116 2.5791 7.521 2.5791H15.988C17.697 2.5791 19.11 3.0911 20.075 4.0581C21.012 4.9991 21.505 6.3521 21.5 7.9751V17.0981C21.5 20.4301 19.384 22.5001 15.979 22.5001Z" fill="#0A0A0A"/>
    </g>
  </g>

  <g id="calendar_2" width="20" height="20" viewBox="0 0 20 20" fill="none" xmlns="http://www.w3.org/2000/svg">
    <path fill-rule="evenodd" clip-rule="evenodd" d="M17.2222 8.25354H2.3689C2.0239 8.25354 1.7439 7.97354 1.7439 7.62854C1.7439 7.28354 2.0239 7.00354 2.3689 7.00354H17.2222C17.5672 7.00354 17.8472 7.28354 17.8472 7.62854C17.8472 7.97354 17.5672 8.25354 17.2222 8.25354Z" fill="#0A0A0A"/>
    <path fill-rule="evenodd" clip-rule="evenodd" d="M13.5011 11.5079C13.1561 11.5079 12.8728 11.2279 12.8728 10.8829C12.8728 10.5379 13.1486 10.2579 13.4936 10.2579H13.5011C13.8461 10.2579 14.1261 10.5379 14.1261 10.8829C14.1261 11.2279 13.8461 11.5079 13.5011 11.5079Z" fill="#0A0A0A"/>
    <path fill-rule="evenodd" clip-rule="evenodd" d="M9.80314 11.5079C9.45814 11.5079 9.1748 11.2279 9.1748 10.8829C9.1748 10.5379 9.45064 10.2579 9.79564 10.2579H9.80314C10.1481 10.2579 10.4281 10.5379 10.4281 10.8829C10.4281 11.2279 10.1481 11.5079 9.80314 11.5079Z" fill="#0A0A0A"/>
    <path fill-rule="evenodd" clip-rule="evenodd" d="M6.09743 11.5079C5.75243 11.5079 5.46826 11.2279 5.46826 10.8829C5.46826 10.5379 5.74493 10.2579 6.08993 10.2579H6.09743C6.44243 10.2579 6.72243 10.5379 6.72243 10.8829C6.72243 11.2279 6.44243 11.5079 6.09743 11.5079Z" fill="#0A0A0A"/>
    <path fill-rule="evenodd" clip-rule="evenodd" d="M13.5011 14.7469C13.1561 14.7469 12.8728 14.4669 12.8728 14.1219C12.8728 13.7769 13.1486 13.4969 13.4936 13.4969H13.5011C13.8461 13.4969 14.1261 13.7769 14.1261 14.1219C14.1261 14.4669 13.8461 14.7469 13.5011 14.7469Z" fill="#0A0A0A"/>
    <path fill-rule="evenodd" clip-rule="evenodd" d="M9.80314 14.7469C9.45814 14.7469 9.1748 14.4669 9.1748 14.1219C9.1748 13.7769 9.45064 13.4969 9.79564 13.4969H9.80314C10.1481 13.4969 10.4281 13.7769 10.4281 14.1219C10.4281 14.4669 10.1481 14.7469 9.80314 14.7469Z" fill="#0A0A0A"/>
    <path fill-rule="evenodd" clip-rule="evenodd" d="M6.09743 14.7469C5.75243 14.7469 5.46826 14.4669 5.46826 14.1219C5.46826 13.7769 5.74493 13.4969 6.08993 13.4969H6.09743C6.44243 13.4969 6.72243 13.7769 6.72243 14.1219C6.72243 14.4669 6.44243 14.7469 6.09743 14.7469Z" fill="#0A0A0A"/>
    <path fill-rule="evenodd" clip-rule="evenodd" d="M13.1614 4.82581C12.8164 4.82581 12.5364 4.54581 12.5364 4.20081V1.45831C12.5364 1.11331 12.8164 0.833313 13.1614 0.833313C13.5064 0.833313 13.7864 1.11331 13.7864 1.45831V4.20081C13.7864 4.54581 13.5064 4.82581 13.1614 4.82581Z" fill="#0A0A0A"/>
    <path fill-rule="evenodd" clip-rule="evenodd" d="M6.42944 4.82581C6.08444 4.82581 5.80444 4.54581 5.80444 4.20081V1.45831C5.80444 1.11331 6.08444 0.833313 6.42944 0.833313C6.77444 0.833313 7.05444 1.11331 7.05444 1.45831V4.20081C7.05444 4.54581 6.77444 4.82581 6.42944 4.82581Z" fill="#0A0A0A"/>
    <mask id="mask0_33694_11796" style="mask-type:alpha" maskUnits="userSpaceOnUse" x="1" y="2" width="17" height="17">
    <path fill-rule="evenodd" clip-rule="evenodd" d="M1.66675 2.14923H17.9167V18.75H1.66675V2.14923Z" fill="white"/>
    </mask>
    <g mask="url(#mask0_33694_11796)">
    <path fill-rule="evenodd" clip-rule="evenodd" d="M6.26758 3.39923C4.10675 3.39923 2.91675 4.55173 2.91675 6.64423V14.1851C2.91675 16.3234 4.10675 17.5001 6.26758 17.5001H13.3159C15.4767 17.5001 16.6667 16.3451 16.6667 14.2484V6.64423C16.6701 5.61506 16.3934 4.81506 15.8442 4.26506C15.2792 3.6984 14.4084 3.39923 13.3234 3.39923H6.26758ZM13.3159 18.7501H6.26758C3.43008 18.7501 1.66675 17.0009 1.66675 14.1851V6.64423C1.66675 3.8709 3.43008 2.14923 6.26758 2.14923H13.3234C14.7476 2.14923 15.9251 2.5759 16.7292 3.38173C17.5101 4.1659 17.9209 5.2934 17.9167 6.6459V14.2484C17.9167 17.0251 16.1534 18.7501 13.3159 18.7501Z" fill="#0A0A0A"/>
    </g>
  </g>

  <g id="man" width="24" height="24" viewBox="0 0 24 24" fill="none" xmlns="http://www.w3.org/2000/svg">
    <mask id="mask0_33540_741" style="mask-type:alpha" maskUnits="userSpaceOnUse" x="4" y="14" width="16" height="8">
    <path fill-rule="evenodd" clip-rule="evenodd" d="M4 14.4961H19.8399V21.8701H4V14.4961Z" fill="white"/>
    </mask>
    <g mask="url(#mask0_33540_741)">
    <path fill-rule="evenodd" clip-rule="evenodd" d="M11.9209 15.9961C7.65988 15.9961 5.49988 16.7281 5.49988 18.1731C5.49988 19.6311 7.65988 20.3701 11.9209 20.3701C16.1809 20.3701 18.3399 19.6381 18.3399 18.1931C18.3399 16.7351 16.1809 15.9961 11.9209 15.9961ZM11.9209 21.8701C9.96188 21.8701 3.99988 21.8701 3.99988 18.1731C3.99988 14.8771 8.52088 14.4961 11.9209 14.4961C13.8799 14.4961 19.8399 14.4961 19.8399 18.1931C19.8399 21.4891 15.3199 21.8701 11.9209 21.8701Z" fill="#0A0A0A"/>
    </g>
    <mask id="mask1_33540_741" style="mask-type:alpha" maskUnits="userSpaceOnUse" x="6" y="2" width="12" height="11">
    <path fill-rule="evenodd" clip-rule="evenodd" d="M6.60986 2.00012H17.2299V12.6187H6.60986V2.00012Z" fill="white"/>
    </mask>
    <g mask="url(#mask1_33540_741)">
    <path fill-rule="evenodd" clip-rule="evenodd" d="M11.9209 3.42769C9.77989 3.42769 8.03789 5.16869 8.03789 7.30969C8.03089 9.4437 9.75989 11.1837 11.8919 11.1917L11.9209 11.9057V11.1917C14.0609 11.1917 15.8019 9.44969 15.8019 7.30969C15.8019 5.16869 14.0609 3.42769 11.9209 3.42769ZM11.9209 12.6187H11.8889C8.9669 12.6097 6.59989 10.2267 6.60989 7.30669C6.60989 4.3817 8.99189 1.99969 11.9209 1.99969C14.8489 1.99969 17.2299 4.38169 17.2299 7.30969C17.2299 10.2377 14.8489 12.6187 11.9209 12.6187Z" fill="#0A0A0A"/>
    </g>
  </g>

  <g id="man_2" width="20" height="20" viewBox="0 0 20 20" fill="none" xmlns="http://www.w3.org/2000/svg">
    <mask id="mask0_33694_11813" style="mask-type:alpha" maskUnits="userSpaceOnUse" x="3" y="12" width="14" height="7">
    <path fill-rule="evenodd" clip-rule="evenodd" d="M3.33325 12.0801H16.5332V18.2251H3.33325V12.0801Z" fill="white"/>
    </mask>
    <g mask="url(#mask0_33694_11813)">
    <path fill-rule="evenodd" clip-rule="evenodd" d="M9.93409 13.3301C6.38325 13.3301 4.58325 13.9401 4.58325 15.1442C4.58325 16.3592 6.38325 16.9751 9.93409 16.9751C13.4841 16.9751 15.2833 16.3651 15.2833 15.1609C15.2833 13.9459 13.4841 13.3301 9.93409 13.3301ZM9.93409 18.2251C8.30159 18.2251 3.33325 18.2251 3.33325 15.1442C3.33325 12.3976 7.10075 12.0801 9.93409 12.0801C11.5666 12.0801 16.5333 12.0801 16.5333 15.1609C16.5333 17.9076 12.7666 18.2251 9.93409 18.2251Z" fill="#0A0A0A"/>
    </g>
    <mask id="mask1_33694_11813" style="mask-type:alpha" maskUnits="userSpaceOnUse" x="5" y="1" width="10" height="10">
    <path fill-rule="evenodd" clip-rule="evenodd" d="M5.50806 1.66675H14.3581V10.5156H5.50806V1.66675Z" fill="white"/>
    </mask>
    <g mask="url(#mask1_33694_11813)">
    <path fill-rule="evenodd" clip-rule="evenodd" d="M9.93392 2.85638C8.14975 2.85638 6.69808 4.30721 6.69808 6.09138C6.69225 7.86972 8.13308 9.31972 9.90975 9.32638L9.93392 9.92138V9.32638C11.7172 9.32638 13.1681 7.87471 13.1681 6.09138C13.1681 4.30721 11.7172 2.85638 9.93392 2.85638ZM9.93392 10.5155H9.90725C7.47225 10.508 5.49975 8.52222 5.50808 6.08888C5.50808 3.65138 7.49308 1.66638 9.93392 1.66638C12.3739 1.66638 14.3581 3.65138 14.3581 6.09138C14.3581 8.53138 12.3739 10.5155 9.93392 10.5155Z" fill="#0A0A0A"/>
    </g>
  </g>

  <g id="geo" width="24" height="24" viewBox="0 0 24 24" fill="none" xmlns="http://www.w3.org/2000/svg">
    <path fill-rule="evenodd" clip-rule="evenodd" d="M8.53162 2.93677C10.7165 1.66727 13.402 1.68946 15.5664 2.99489C17.7095 4.32691 19.012 6.70418 18.9998 9.26144C18.95 11.8019 17.5533 14.19 15.8075 16.0361C14.7998 17.1064 13.6726 18.0528 12.4488 18.856C12.3228 18.9289 12.1848 18.9777 12.0415 19C11.9036 18.9941 11.7693 18.9534 11.6508 18.8814C9.78243 17.6746 8.14334 16.134 6.81233 14.334C5.69859 12.8314 5.06584 11.016 5 9.13442C4.99856 6.57225 6.34677 4.20627 8.53162 2.93677ZM9.79354 10.195C10.1611 11.1011 11.0286 11.6921 11.991 11.6921C12.6215 11.6966 13.2276 11.4441 13.6742 10.9907C14.1208 10.5374 14.3709 9.92088 14.3686 9.27862C14.372 8.29827 13.7948 7.41255 12.9066 7.03501C12.0184 6.65747 10.9944 6.86259 10.3127 7.55459C9.63097 8.24658 9.42602 9.28896 9.79354 10.195Z" fill="white"/>
    <ellipse opacity="0.4" cx="12" cy="21" rx="5" ry="1" fill="white"/>
  </g>

  <g id="geo_2" width="20" height="20" viewBox="0 0 20 20" fill="none" xmlns="http://www.w3.org/2000/svg">
    <path fill-rule="evenodd" clip-rule="evenodd" d="M7.10977 2.44727C8.93048 1.38935 11.1684 1.40785 12.9721 2.4957C14.758 3.60572 15.8434 5.58677 15.8333 7.71783C15.7917 9.83491 14.6278 11.825 13.173 13.3634C12.3333 14.2553 11.3939 15.044 10.3741 15.7133C10.2691 15.7741 10.154 15.8147 10.0347 15.8333C9.91975 15.8284 9.80785 15.7944 9.70904 15.7345C8.1521 14.7288 6.78619 13.445 5.67702 11.9449C4.7489 10.6928 4.22161 9.17997 4.16675 7.61198C4.16554 5.47683 5.28905 3.50518 7.10977 2.44727ZM8.16136 8.49581C8.46763 9.25086 9.19055 9.74336 9.99257 9.74337C10.518 9.74714 11.0231 9.53668 11.3952 9.15889C11.7674 8.7811 11.9758 8.26736 11.9739 7.73214C11.9767 6.91519 11.4958 6.17709 10.7556 5.86247C10.0155 5.54785 9.1621 5.71878 8.59399 6.29545C8.02589 6.87211 7.8551 7.74076 8.16136 8.49581Z" fill="white"/>
    <ellipse opacity="0.4" cx="10.0002" cy="17.5" rx="4.16667" ry="0.833334" fill="white"/>
  </g>

 <g id="whatsapp" width="24" height="24" viewBox="0 0 24 24"  xmlns="http://www.w3.org/2000/svg">
    <path d="M4.25895 16.5936C3.14076 14.7086 2.74916 12.4802 3.15768 10.327C3.56621 8.17366 4.74675 6.24356 6.47764 4.89909C8.20852 3.55462 10.3707 2.88826 12.5581 3.02514C14.7455 3.16202 16.8078 4.09273 18.3575 5.6425C19.9073 7.19226 20.838 9.25448 20.9749 11.4419C21.1118 13.6293 20.4455 15.7915 19.101 17.5224C17.7565 19.2533 15.8264 20.4338 13.6732 20.8424C11.5199 21.2509 9.29149 20.8593 7.40649 19.7411L4.29808 20.6292C4.16948 20.6659 4.03338 20.6676 3.90391 20.634C3.77443 20.6005 3.65628 20.5329 3.56171 20.4384C3.46713 20.3438 3.39956 20.2256 3.36601 20.0961C3.33246 19.9667 3.33415 19.8306 3.37089 19.702L4.25895 16.5936Z" stroke-width="2" stroke-linecap="round" stroke-linejoin="round"/>
    <path d="M14.2607 17.25C13.274 17.2514 12.2967 17.0581 11.3848 16.6811C10.4729 16.3042 9.64441 15.751 8.9467 15.0533C8.24899 14.3556 7.69582 13.5271 7.31887 12.6152C6.94192 11.7033 6.74861 10.726 6.75001 9.73934C6.75224 9.04482 7.02986 8.37953 7.52196 7.88943C8.01406 7.39932 8.68047 7.12441 9.375 7.125C9.48892 7.125 9.60081 7.15512 9.69934 7.21229C9.79787 7.26947 9.87953 7.35168 9.93605 7.45059L11.0321 9.36865C11.0982 9.48432 11.1323 9.61551 11.1309 9.74873C11.1294 9.88195 11.0926 10.0124 11.024 10.1266L10.1438 11.5937C10.5967 12.5986 11.4014 13.4033 12.4063 13.8562L13.8734 12.976C13.9876 12.9074 14.118 12.8706 14.2513 12.8691C14.3845 12.8677 14.5157 12.9018 14.6313 12.9679L16.5494 14.064C16.6483 14.1205 16.7305 14.2021 16.7877 14.3007C16.8449 14.3992 16.875 14.5111 16.875 14.625C16.873 15.3187 16.5973 15.9837 16.1077 16.4752C15.6182 16.9667 14.9544 17.2452 14.2607 17.25Z" fill="white"/>
  </g>

  <g id="whatsapp_2" width="21" height="20" viewBox="0 0 21 20" xmlns="http://www.w3.org/2000/svg">
    <path d="M3.72658 13.8279C2.74816 12.2571 2.40551 10.4001 2.76297 8.60571C3.12043 6.8113 4.15341 5.20288 5.66793 4.08249C7.18246 2.9621 9.07435 2.4068 10.9883 2.52087C12.9023 2.63494 14.7068 3.41053 16.0628 4.702C17.4189 5.99347 18.2333 7.71198 18.3531 9.53484C18.4728 11.3577 17.8898 13.1595 16.7134 14.6019C15.537 16.0443 13.8481 17.0281 11.964 17.3686C10.0799 17.709 8.13006 17.3827 6.48068 16.4509L3.76082 17.1909C3.64829 17.2215 3.52921 17.2229 3.41592 17.195C3.30263 17.167 3.19925 17.1107 3.11649 17.0319C3.03374 16.9531 2.97462 16.8546 2.94526 16.7467C2.91591 16.6388 2.91738 16.5254 2.94953 16.4182L3.72658 13.8279Z" stroke-width="2" stroke-linecap="round" stroke-linejoin="round"/>
    <path d="M12.4781 14.375C11.6147 14.3762 10.7596 14.2151 9.9617 13.9009C9.16382 13.5868 8.43886 13.1258 7.82836 12.5444C7.21787 11.963 6.73384 11.2726 6.40401 10.5127C6.07418 9.75278 5.90503 8.93837 5.90626 8.11612C5.90821 7.53735 6.15112 6.98294 6.58172 6.57452C7.01231 6.1661 7.59541 5.93701 8.20313 5.9375C8.3028 5.9375 8.40071 5.9626 8.48692 6.01025C8.57313 6.05789 8.64459 6.1264 8.69404 6.20883L9.65307 7.80721C9.71091 7.9036 9.74074 8.01293 9.7395 8.12394C9.73826 8.23496 9.706 8.34366 9.64602 8.43886L8.87582 9.66139C9.27207 10.4989 9.97619 11.1695 10.8555 11.5468L12.1392 10.8133C12.2392 10.7562 12.3533 10.7255 12.4699 10.7243C12.5864 10.7231 12.7012 10.7515 12.8024 10.8066L14.4807 11.72C14.5673 11.7671 14.6392 11.8351 14.6892 11.9172C14.7393 11.9993 14.7656 12.0926 14.7656 12.1875C14.7639 12.7656 14.5226 13.3197 14.0943 13.7293C13.6659 14.139 13.0851 14.371 12.4781 14.375Z" fill="white"/>
  </g>

  <g id="vk" width="24" height="24" viewBox="0 0 24 24" xmlns="http://www.w3.org/2000/svg">
    <path d="M21.5826 18.1896H19.3011C18.4379 18.1896 18.1783 17.4906 16.6302 15.9425C15.2791 14.6399 14.7083 14.4772 14.3659 14.4772C13.8936 14.4772 13.7638 14.607 13.7638 15.2591V17.3107C13.7638 17.8659 13.584 18.1911 12.1344 18.1911C10.7276 18.0966 9.36332 17.6692 8.15403 16.9441C6.94475 16.219 5.92502 15.217 5.17885 14.0206C3.40739 11.8157 2.1748 9.22793 1.5791 6.46302C1.5791 6.12056 1.70889 5.81093 2.36098 5.81093H4.64092C5.22732 5.81093 5.43843 6.07208 5.6683 6.67412C6.77543 9.93297 8.66444 12.7665 9.43068 12.7665C9.72466 12.7665 9.85289 12.6367 9.85289 11.9033V8.54749C9.75594 7.01658 8.94279 6.88679 8.94279 6.33323C8.95323 6.18722 9.02014 6.05102 9.12932 5.95352C9.23851 5.85601 9.38137 5.80487 9.52763 5.81093H13.1117C13.6012 5.81093 13.7638 6.05488 13.7638 6.64129V11.1699C13.7638 11.6594 13.9749 11.822 14.1219 11.822C14.4159 11.822 14.6426 11.6594 15.1806 11.1214C16.336 9.7124 17.28 8.1426 17.9828 6.46145C18.0547 6.25952 18.1906 6.08663 18.3699 5.96917C18.5492 5.85172 18.762 5.79615 18.9758 5.81093H21.2573C21.9407 5.81093 22.0861 6.1534 21.9407 6.64129C21.1111 8.49969 20.0846 10.2638 18.8788 11.9033C18.6333 12.2786 18.5348 12.4741 18.8788 12.9135C19.1056 13.2559 19.9047 13.9237 20.4426 14.5585C21.2243 15.3383 21.8735 16.2405 22.3644 17.2294C22.5599 17.8643 22.2331 18.1896 21.5826 18.1896Z"/>
  </g>

  <g id="vk_2" width="21" height="20" viewBox="0 0 21 20" xmlns="http://www.w3.org/2000/svg">
    <path d="M20.0827 16.1898H17.8012C16.938 16.1898 16.6784 15.4908 15.1303 13.9427C13.7792 12.6401 13.2084 12.4775 12.866 12.4775C12.3937 12.4775 12.2639 12.6073 12.2639 13.2593V15.311C12.2639 15.8661 12.0841 16.1914 10.6345 16.1914C9.22768 16.0968 7.86344 15.6694 6.65415 14.9443C5.44487 14.2192 4.42514 13.2172 3.67897 12.0209C1.90751 9.81597 0.67492 7.22818 0.0792236 4.46326C0.0792236 4.1208 0.209015 3.81118 0.861097 3.81118H3.14104C3.72745 3.81118 3.93855 4.07232 4.16842 4.67437C5.27556 7.93322 7.16456 10.7667 7.9308 10.7667C8.22478 10.7667 8.35301 10.6369 8.35301 9.90354V6.54774C8.25606 5.01683 7.44291 4.88704 7.44291 4.33347C7.45336 4.18746 7.52027 4.05126 7.62945 3.95376C7.73863 3.85626 7.8815 3.80511 8.02775 3.81118H11.6119C12.1013 3.81118 12.2639 4.05512 12.2639 4.64153V9.17014C12.2639 9.65959 12.475 9.82222 12.622 9.82222C12.916 9.82222 13.1428 9.65959 13.6807 9.12167C14.8361 7.71265 15.7801 6.14285 16.4829 4.4617C16.5548 4.25976 16.6907 4.08687 16.87 3.96942C17.0493 3.85196 17.2621 3.79639 17.4759 3.81118H19.7574C20.4408 3.81118 20.5862 4.15364 20.4408 4.64153C19.6112 6.49993 18.5847 8.26402 17.379 9.90354C17.1335 10.2788 17.0349 10.4743 17.379 10.9137C17.6057 11.2562 18.4048 11.9239 18.9427 12.5588C19.7244 13.3385 20.3736 14.2407 20.8646 15.2297C21.06 15.8645 20.7332 16.1898 20.0827 16.1898Z"/>
  </g>

  <g id="telegram" width="24" height="24" viewBox="0 0 24 24" xmlns="http://www.w3.org/2000/svg">
    <path fill-rule="evenodd" clip-rule="evenodd" d="M18.4833 19.7902L18.484 19.7885L18.5014 19.745L21.5002 4.62592V4.57682C21.5002 4.20012 21.361 3.87126 21.0581 3.674C20.793 3.50133 20.4882 3.48904 20.2745 3.50526C20.0485 3.52241 19.8354 3.57883 19.6879 3.62579C19.612 3.64995 19.5484 3.67323 19.503 3.69083C19.4802 3.69967 19.4617 3.70717 19.4483 3.71276L19.4351 3.71831L2.71526 10.2772L2.71066 10.2789C2.70163 10.2822 2.68969 10.2866 2.67526 10.2923C2.64651 10.3034 2.60737 10.3195 2.56139 10.3403C2.47111 10.3812 2.34637 10.4444 2.21987 10.531C2.00502 10.6781 1.5959 11.0264 1.66499 11.5787C1.72221 12.0361 2.03751 12.3266 2.25008 12.477C2.36403 12.5576 2.47304 12.6157 2.55287 12.6538C2.59332 12.673 2.62767 12.6878 2.65326 12.6982C2.66609 12.7034 2.67682 12.7076 2.68512 12.7107L2.69574 12.7147L2.70253 12.7172L5.62777 13.702C5.6179 13.8856 5.6361 14.0727 5.68478 14.2573L7.15006 19.8157C7.3238 20.4748 7.92002 20.9339 8.60159 20.9334C9.21252 20.9329 9.75435 20.5633 9.98454 20.0119L12.2722 17.5658L16.2012 20.5781L16.2571 20.6025C16.614 20.7582 16.9475 20.8076 17.2525 20.7659C17.557 20.7243 17.7989 20.5966 17.9807 20.4512C18.1595 20.3081 18.2821 20.1466 18.3592 20.025C18.3984 19.9633 18.4276 19.909 18.4478 19.8681C18.458 19.8476 18.466 19.8302 18.472 19.8167L18.4796 19.7993L18.4822 19.7928L18.4833 19.7902ZM7.13518 13.875C7.10187 13.7486 7.15416 13.6153 7.26444 13.5452L17.1865 7.24432C17.1865 7.24432 17.77 6.89002 17.7492 7.24432C17.7492 7.24432 17.8533 7.30689 17.5406 7.59861C17.244 7.87569 10.4689 14.4167 9.7834 15.0786C9.74383 15.1168 9.72021 15.1607 9.70627 15.2139L8.60046 19.4334L7.13518 13.875Z"/>
  </g>

  <g id="telegram_2" width="21" height="20" viewBox="0 0 21 20" xmlns="http://www.w3.org/2000/svg">
    <path fill-rule="evenodd" clip-rule="evenodd" d="M15.9026 16.4917L15.9032 16.4903L15.9177 16.454L18.4167 3.85477V3.81385C18.4167 3.49993 18.3007 3.22588 18.0483 3.0615C17.8273 2.91762 17.5734 2.90737 17.3953 2.92089C17.2069 2.93518 17.0293 2.98219 16.9064 3.02133C16.8431 3.04146 16.7902 3.06086 16.7523 3.07553C16.7333 3.0829 16.7179 3.08914 16.7067 3.0938L16.6957 3.09843L2.76256 8.56421L2.75872 8.56559C2.7512 8.56833 2.74124 8.57204 2.72922 8.57672C2.70526 8.58604 2.67265 8.59939 2.63433 8.61676C2.5591 8.65085 2.45515 8.70347 2.34973 8.77566C2.17069 8.89827 1.82976 9.18854 1.88733 9.64873C1.93501 10.0299 2.19776 10.272 2.3749 10.3973C2.46986 10.4645 2.5607 10.513 2.62723 10.5446C2.66093 10.5607 2.68957 10.573 2.71089 10.5817C2.72158 10.586 2.73052 10.5895 2.73743 10.5921L2.74629 10.5954L2.75195 10.5975L5.18965 11.4182C5.18142 11.5711 5.19659 11.7271 5.23715 11.8809L6.45822 16.5129C6.603 17.0622 7.09986 17.4447 7.66783 17.4443C8.17694 17.4439 8.62846 17.136 8.82028 16.6764L10.7267 14.638L14.0008 17.1482L14.0474 17.1685C14.3449 17.2984 14.6228 17.3395 14.8769 17.3048C15.1306 17.2701 15.3323 17.1637 15.4837 17.0425C15.6328 16.9233 15.7349 16.7887 15.7992 16.6874C15.8318 16.6359 15.8562 16.5906 15.873 16.5566C15.8815 16.5395 15.8882 16.525 15.8932 16.5137L15.8995 16.4992L15.9017 16.4939L15.9026 16.4917ZM6.44582 11.5623C6.41807 11.457 6.46163 11.3459 6.55354 11.2875L14.8219 6.03677C14.8219 6.03677 15.3082 5.74152 15.2908 6.03677C15.2908 6.03677 15.3776 6.08891 15.117 6.33201C14.8698 6.56291 9.22395 12.0138 8.65267 12.5654C8.6197 12.5972 8.60001 12.6337 8.58839 12.6781L7.66689 16.1943L6.44582 11.5623Z"/>
  </g>

  <g id="instagram" width="24" height="24" viewBox="0 0 24 24" xmlns="http://www.w3.org/2000/svg">
    <path d="M12.0002 8.75005C10.2053 8.75005 8.75018 10.2051 8.75018 12C8.75018 13.795 10.2053 15.25 12.0002 15.25C13.7951 15.25 15.2502 13.795 15.2502 12C15.2502 10.2051 13.7951 8.75005 12.0002 8.75005Z"/>
    <path fill-rule="evenodd" clip-rule="evenodd" d="M6.76972 3.08151C10.2178 2.69614 13.7825 2.69614 17.2307 3.08151C19.1291 3.29369 20.6603 4.78947 20.8831 6.69452C21.2954 10.2195 21.2954 13.7806 20.8831 17.3056C20.6603 19.2106 19.1291 20.7064 17.2307 20.9186C13.7825 21.304 10.2178 21.304 6.76972 20.9186C4.87132 20.7064 3.34013 19.2106 3.11732 17.3056C2.70504 13.7806 2.70504 10.2195 3.11732 6.69452C3.34013 4.78947 4.87132 3.29369 6.76972 3.08151ZM17.0002 6.00005C16.4479 6.00005 16.0002 6.44776 16.0002 7.00005C16.0002 7.55233 16.4479 8.00005 17.0002 8.00005C17.5525 8.00005 18.0002 7.55233 18.0002 7.00005C18.0002 6.44776 17.5525 6.00005 17.0002 6.00005ZM7.25018 12C7.25018 9.37669 9.37683 7.25005 12.0002 7.25005C14.6235 7.25005 16.7502 9.37669 16.7502 12C16.7502 14.6234 14.6235 16.75 12.0002 16.75C9.37683 16.75 7.25018 14.6234 7.25018 12Z"/>
  </g>

  <g id="instagram_2" width="21" height="20" viewBox="0 0 21 20" xmlns="http://www.w3.org/2000/svg">
    <path d="M10.5 7.29179C9.00426 7.29179 7.7917 8.50435 7.7917 10.0001C7.7917 11.4959 9.00426 12.7085 10.5 12.7085C11.9958 12.7085 13.2084 11.4959 13.2084 10.0001C13.2084 8.50435 11.9958 7.29179 10.5 7.29179Z"/>
    <path fill-rule="evenodd" clip-rule="evenodd" d="M6.14131 2.56801C9.01475 2.24686 11.9853 2.24686 14.8588 2.56801C16.4408 2.74482 17.7168 3.9913 17.9024 5.57885C18.246 8.51635 18.246 11.4839 17.9024 14.4214C17.7168 16.0089 16.4408 17.2554 14.8588 17.4322C11.9853 17.7534 9.01475 17.7534 6.14131 17.4322C4.55931 17.2554 3.28332 16.0089 3.09764 14.4214C2.75407 11.4839 2.75407 8.51635 3.09764 5.57885C3.28332 3.9913 4.55931 2.74482 6.14131 2.56801ZM14.6667 5.00012C14.2065 5.00012 13.8334 5.37322 13.8334 5.83345C13.8334 6.29369 14.2065 6.66679 14.6667 6.66679C15.1269 6.66679 15.5 6.29369 15.5 5.83345C15.5 5.37322 15.1269 5.00012 14.6667 5.00012ZM6.5417 10.0001C6.5417 7.81399 8.3139 6.04179 10.5 6.04179C12.6862 6.04179 14.4584 7.81399 14.4584 10.0001C14.4584 12.1862 12.6862 13.9585 10.5 13.9585C8.3139 13.9585 6.5417 12.1862 6.5417 10.0001Z"/>
  </g>

  <g id="telegram-white" width="24" height="24" viewBox="0 0 24 24" xmlns="http://www.w3.org/2000/svg">
    <path fill-rule="evenodd" clip-rule="evenodd" d="M18.4833 19.7902L18.484 19.7885L18.5014 19.745L21.5002 4.62592V4.57682C21.5002 4.20012 21.361 3.87126 21.0581 3.674C20.793 3.50133 20.4882 3.48904 20.2745 3.50526C20.0485 3.52241 19.8354 3.57883 19.6879 3.62579C19.612 3.64995 19.5484 3.67323 19.503 3.69083C19.4802 3.69967 19.4617 3.70717 19.4483 3.71276L19.4351 3.71831L2.71526 10.2772L2.71066 10.2789C2.70163 10.2822 2.68969 10.2866 2.67526 10.2923C2.64651 10.3034 2.60737 10.3195 2.56139 10.3403C2.47111 10.3812 2.34637 10.4444 2.21987 10.531C2.00502 10.6781 1.5959 11.0264 1.66499 11.5787C1.72221 12.0361 2.03751 12.3266 2.25008 12.477C2.36403 12.5576 2.47304 12.6157 2.55287 12.6538C2.59332 12.673 2.62767 12.6878 2.65326 12.6982C2.66609 12.7034 2.67682 12.7076 2.68512 12.7107L2.69574 12.7147L2.70253 12.7172L5.62777 13.702C5.6179 13.8856 5.6361 14.0727 5.68478 14.2573L7.15006 19.8157C7.3238 20.4748 7.92002 20.9339 8.60159 20.9334C9.21252 20.9329 9.75435 20.5633 9.98454 20.0119L12.2722 17.5658L16.2012 20.5781L16.2571 20.6025C16.614 20.7582 16.9475 20.8076 17.2525 20.7659C17.557 20.7243 17.7989 20.5966 17.9807 20.4512C18.1595 20.3081 18.2821 20.1466 18.3592 20.025C18.3984 19.9633 18.4276 19.909 18.4478 19.8681C18.458 19.8476 18.466 19.8302 18.472 19.8167L18.4796 19.7993L18.4822 19.7928L18.4833 19.7902ZM7.13518 13.875C7.10187 13.7486 7.15416 13.6153 7.26444 13.5452L17.1865 7.24432C17.1865 7.24432 17.77 6.89002 17.7492 7.24432C17.7492 7.24432 17.8533 7.30689 17.5406 7.59861C17.244 7.87569 10.4689 14.4167 9.7834 15.0786C9.74383 15.1168 9.72021 15.1607 9.70627 15.2139L8.60046 19.4334L7.13518 13.875Z"/>
  </g>

  <g id="telegram-white_2" width="21" height="20" viewBox="0 0 21 20" xmlns="http://www.w3.org/2000/svg">
    <path fill-rule="evenodd" clip-rule="evenodd" d="M15.9026 16.4917L15.9032 16.4903L15.9177 16.454L18.4167 3.85477V3.81385C18.4167 3.49993 18.3007 3.22588 18.0483 3.0615C17.8273 2.91762 17.5734 2.90737 17.3953 2.92089C17.2069 2.93518 17.0293 2.98219 16.9064 3.02133C16.8431 3.04146 16.7902 3.06086 16.7523 3.07553C16.7333 3.0829 16.7179 3.08914 16.7067 3.0938L16.6957 3.09843L2.76256 8.56421L2.75872 8.56559C2.7512 8.56833 2.74124 8.57204 2.72922 8.57672C2.70526 8.58604 2.67265 8.59939 2.63433 8.61676C2.5591 8.65085 2.45515 8.70347 2.34973 8.77566C2.17069 8.89827 1.82976 9.18854 1.88733 9.64873C1.93501 10.0299 2.19776 10.272 2.3749 10.3973C2.46986 10.4645 2.5607 10.513 2.62723 10.5446C2.66093 10.5607 2.68957 10.573 2.71089 10.5817C2.72158 10.586 2.73052 10.5895 2.73743 10.5921L2.74629 10.5954L2.75195 10.5975L5.18965 11.4182C5.18142 11.5711 5.19659 11.7271 5.23715 11.8809L6.45822 16.5129C6.603 17.0622 7.09986 17.4447 7.66783 17.4443C8.17694 17.4439 8.62846 17.136 8.82028 16.6764L10.7267 14.638L14.0008 17.1482L14.0474 17.1685C14.3449 17.2984 14.6228 17.3395 14.8769 17.3048C15.1306 17.2701 15.3323 17.1637 15.4837 17.0425C15.6328 16.9233 15.7349 16.7887 15.7992 16.6874C15.8318 16.6359 15.8562 16.5906 15.873 16.5566C15.8815 16.5395 15.8882 16.525 15.8932 16.5137L15.8995 16.4992L15.9017 16.4939L15.9026 16.4917ZM6.44582 11.5623C6.41807 11.457 6.46163 11.3459 6.55354 11.2875L14.8219 6.03677C14.8219 6.03677 15.3082 5.74152 15.2908 6.03677C15.2908 6.03677 15.3776 6.08891 15.117 6.33201C14.8698 6.56291 9.22395 12.0138 8.65267 12.5654C8.6197 12.5972 8.60001 12.6337 8.58839 12.6781L7.66689 16.1943L6.44582 11.5623Z"/>
  </g>

   <g id="whatsapp-white" width="24" height="24" viewBox="0 0 24 24"  xmlns="http://www.w3.org/2000/svg">
    <path d="M4.25895 16.5936C3.14076 14.7086 2.74916 12.4802 3.15768 10.327C3.56621 8.17366 4.74675 6.24356 6.47764 4.89909C8.20852 3.55462 10.3707 2.88826 12.5581 3.02514C14.7455 3.16202 16.8078 4.09273 18.3575 5.6425C19.9073 7.19226 20.838 9.25448 20.9749 11.4419C21.1118 13.6293 20.4455 15.7915 19.101 17.5224C17.7565 19.2533 15.8264 20.4338 13.6732 20.8424C11.5199 21.2509 9.29149 20.8593 7.40649 19.7411L4.29808 20.6292C4.16948 20.6659 4.03338 20.6676 3.90391 20.634C3.77443 20.6005 3.65628 20.5329 3.56171 20.4384C3.46713 20.3438 3.39956 20.2256 3.36601 20.0961C3.33246 19.9667 3.33415 19.8306 3.37089 19.702L4.25895 16.5936Z" stroke-width="2" stroke-linecap="round" stroke-linejoin="round"/>
    <path d="M14.2607 17.25C13.274 17.2514 12.2967 17.0581 11.3848 16.6811C10.4729 16.3042 9.64441 15.751 8.9467 15.0533C8.24899 14.3556 7.69582 13.5271 7.31887 12.6152C6.94192 11.7033 6.74861 10.726 6.75001 9.73934C6.75224 9.04482 7.02986 8.37953 7.52196 7.88943C8.01406 7.39932 8.68047 7.12441 9.375 7.125C9.48892 7.125 9.60081 7.15512 9.69934 7.21229C9.79787 7.26947 9.87953 7.35168 9.93605 7.45059L11.0321 9.36865C11.0982 9.48432 11.1323 9.61551 11.1309 9.74873C11.1294 9.88195 11.0926 10.0124 11.024 10.1266L10.1438 11.5937C10.5967 12.5986 11.4014 13.4033 12.4063 13.8562L13.8734 12.976C13.9876 12.9074 14.118 12.8706 14.2513 12.8691C14.3845 12.8677 14.5157 12.9018 14.6313 12.9679L16.5494 14.064C16.6483 14.1205 16.7305 14.2021 16.7877 14.3007C16.8449 14.3992 16.875 14.5111 16.875 14.625C16.873 15.3187 16.5973 15.9837 16.1077 16.4752C15.6182 16.9667 14.9544 17.2452 14.2607 17.25Z" fill="black"/>
  </g>

  <g id="whatsapp-white_2" width="21" height="20" viewBox="0 0 21 20" xmlns="http://www.w3.org/2000/svg">
    <path d="M3.72658 13.8279C2.74816 12.2571 2.40551 10.4001 2.76297 8.60571C3.12043 6.8113 4.15341 5.20288 5.66793 4.08249C7.18246 2.9621 9.07435 2.4068 10.9883 2.52087C12.9023 2.63494 14.7068 3.41053 16.0628 4.702C17.4189 5.99347 18.2333 7.71198 18.3531 9.53484C18.4728 11.3577 17.8898 13.1595 16.7134 14.6019C15.537 16.0443 13.8481 17.0281 11.964 17.3686C10.0799 17.709 8.13006 17.3827 6.48068 16.4509L3.76082 17.1909C3.64829 17.2215 3.52921 17.2229 3.41592 17.195C3.30263 17.167 3.19925 17.1107 3.11649 17.0319C3.03374 16.9531 2.97462 16.8546 2.94526 16.7467C2.91591 16.6388 2.91738 16.5254 2.94953 16.4182L3.72658 13.8279Z" stroke-width="2" stroke-linecap="round" stroke-linejoin="round"/>
    <path d="M12.4781 14.375C11.6147 14.3762 10.7596 14.2151 9.9617 13.9009C9.16382 13.5868 8.43886 13.1258 7.82836 12.5444C7.21787 11.963 6.73384 11.2726 6.40401 10.5127C6.07418 9.75278 5.90503 8.93837 5.90626 8.11612C5.90821 7.53735 6.15112 6.98294 6.58172 6.57452C7.01231 6.1661 7.59541 5.93701 8.20313 5.9375C8.3028 5.9375 8.40071 5.9626 8.48692 6.01025C8.57313 6.05789 8.64459 6.1264 8.69404 6.20883L9.65307 7.80721C9.71091 7.9036 9.74074 8.01293 9.7395 8.12394C9.73826 8.23496 9.706 8.34366 9.64602 8.43886L8.87582 9.66139C9.27207 10.4989 9.97619 11.1695 10.8555 11.5468L12.1392 10.8133C12.2392 10.7562 12.3533 10.7255 12.4699 10.7243C12.5864 10.7231 12.7012 10.7515 12.8024 10.8066L14.4807 11.72C14.5673 11.7671 14.6392 11.8351 14.6892 11.9172C14.7393 11.9993 14.7656 12.0926 14.7656 12.1875C14.7639 12.7656 14.5226 13.3197 14.0943 13.7293C13.6659 14.139 13.0851 14.371 12.4781 14.375Z" fill="#3A3833"/>
  </g>

  <g id="instagram-white" width="24" height="24" viewBox="0 0 24 24" xmlns="http://www.w3.org/2000/svg">
    <path d="M12.0002 8.75005C10.2053 8.75005 8.75018 10.2051 8.75018 12C8.75018 13.795 10.2053 15.25 12.0002 15.25C13.7951 15.25 15.2502 13.795 15.2502 12C15.2502 10.2051 13.7951 8.75005 12.0002 8.75005Z"/>
    <path fill-rule="evenodd" clip-rule="evenodd" d="M6.76972 3.08151C10.2178 2.69614 13.7825 2.69614 17.2307 3.08151C19.1291 3.29369 20.6603 4.78947 20.8831 6.69452C21.2954 10.2195 21.2954 13.7806 20.8831 17.3056C20.6603 19.2106 19.1291 20.7064 17.2307 20.9186C13.7825 21.304 10.2178 21.304 6.76972 20.9186C4.87132 20.7064 3.34013 19.2106 3.11732 17.3056C2.70504 13.7806 2.70504 10.2195 3.11732 6.69452C3.34013 4.78947 4.87132 3.29369 6.76972 3.08151ZM17.0002 6.00005C16.4479 6.00005 16.0002 6.44776 16.0002 7.00005C16.0002 7.55233 16.4479 8.00005 17.0002 8.00005C17.5525 8.00005 18.0002 7.55233 18.0002 7.00005C18.0002 6.44776 17.5525 6.00005 17.0002 6.00005ZM7.25018 12C7.25018 9.37669 9.37683 7.25005 12.0002 7.25005C14.6235 7.25005 16.7502 9.37669 16.7502 12C16.7502 14.6234 14.6235 16.75 12.0002 16.75C9.37683 16.75 7.25018 14.6234 7.25018 12Z"/>
  </g>

  <g id="instagram-white_2" width="21" height="20" viewBox="0 0 21 20" xmlns="http://www.w3.org/2000/svg">
    <path d="M10.5 7.29179C9.00426 7.29179 7.7917 8.50435 7.7917 10.0001C7.7917 11.4959 9.00426 12.7085 10.5 12.7085C11.9958 12.7085 13.2084 11.4959 13.2084 10.0001C13.2084 8.50435 11.9958 7.29179 10.5 7.29179Z"/>
    <path fill-rule="evenodd" clip-rule="evenodd" d="M6.14131 2.56801C9.01475 2.24686 11.9853 2.24686 14.8588 2.56801C16.4408 2.74482 17.7168 3.9913 17.9024 5.57885C18.246 8.51635 18.246 11.4839 17.9024 14.4214C17.7168 16.0089 16.4408 17.2554 14.8588 17.4322C11.9853 17.7534 9.01475 17.7534 6.14131 17.4322C4.55931 17.2554 3.28332 16.0089 3.09764 14.4214C2.75407 11.4839 2.75407 8.51635 3.09764 5.57885C3.28332 3.9913 4.55931 2.74482 6.14131 2.56801ZM14.6667 5.00012C14.2065 5.00012 13.8334 5.37322 13.8334 5.83345C13.8334 6.29369 14.2065 6.66679 14.6667 6.66679C15.1269 6.66679 15.5 6.29369 15.5 5.83345C15.5 5.37322 15.1269 5.00012 14.6667 5.00012ZM6.5417 10.0001C6.5417 7.81399 8.3139 6.04179 10.5 6.04179C12.6862 6.04179 14.4584 7.81399 14.4584 10.0001C14.4584 12.1862 12.6862 13.9585 10.5 13.9585C8.3139 13.9585 6.5417 12.1862 6.5417 10.0001Z"/>
  </g>

  <g id="vk-white" width="24" height="24" viewBox="0 0 24 24" xmlns="http://www.w3.org/2000/svg">
    <path d="M21.5826 18.1896H19.3011C18.4379 18.1896 18.1783 17.4906 16.6302 15.9425C15.2791 14.6399 14.7083 14.4772 14.3659 14.4772C13.8936 14.4772 13.7638 14.607 13.7638 15.2591V17.3107C13.7638 17.8659 13.584 18.1911 12.1344 18.1911C10.7276 18.0966 9.36332 17.6692 8.15403 16.9441C6.94474 16.219 5.92502 15.217 5.17885 14.0206C3.40739 11.8157 2.1748 9.22793 1.5791 6.46302C1.5791 6.12056 1.70889 5.81093 2.36098 5.81093H4.64092C5.22732 5.81093 5.43843 6.07208 5.6683 6.67412C6.77543 9.93297 8.66444 12.7665 9.43068 12.7665C9.72466 12.7665 9.85289 12.6367 9.85289 11.9033V8.54749C9.75594 7.01658 8.94279 6.88679 8.94279 6.33323C8.95323 6.18722 9.02014 6.05102 9.12932 5.95352C9.23851 5.85601 9.38137 5.80487 9.52763 5.81093H13.1117C13.6012 5.81093 13.7638 6.05488 13.7638 6.64129V11.1699C13.7638 11.6594 13.9749 11.822 14.1219 11.822C14.4159 11.822 14.6426 11.6594 15.1806 11.1214C16.336 9.7124 17.28 8.1426 17.9828 6.46145C18.0547 6.25952 18.1906 6.08663 18.3699 5.96917C18.5492 5.85172 18.762 5.79615 18.9758 5.81093H21.2573C21.9407 5.81093 22.0861 6.1534 21.9407 6.64129C21.1111 8.49969 20.0846 10.2638 18.8788 11.9033C18.6333 12.2786 18.5348 12.4741 18.8788 12.9135C19.1056 13.2559 19.9047 13.9237 20.4426 14.5585C21.2243 15.3383 21.8735 16.2405 22.3644 17.2294C22.5599 17.8643 22.2331 18.1896 21.5826 18.1896Z"/>
  </g>

  <g id="vk-white_2" width="21" height="20" viewBox="0 0 21 20" xmlns="http://www.w3.org/2000/svg">
    <path d="M20.0827 16.1896H17.8012C16.938 16.1896 16.6784 15.4906 15.1303 13.9425C13.7792 12.6399 13.2084 12.4772 12.866 12.4772C12.3937 12.4772 12.2639 12.607 12.2639 13.2591V15.3107C12.2639 15.8659 12.0841 16.1911 10.6345 16.1911C9.22768 16.0966 7.86344 15.6692 6.65415 14.9441C5.44487 14.219 4.42514 13.217 3.67897 12.0206C1.90751 9.81572 0.67492 7.22793 0.0792236 4.46302C0.0792236 4.12056 0.209015 3.81093 0.861097 3.81093H3.14104C3.72745 3.81093 3.93855 4.07208 4.16842 4.67412C5.27556 7.93297 7.16456 10.7665 7.9308 10.7665C8.22478 10.7665 8.35301 10.6367 8.35301 9.9033V6.54749C8.25606 5.01658 7.44291 4.88679 7.44291 4.33323C7.45336 4.18722 7.52027 4.05102 7.62945 3.95352C7.73863 3.85601 7.8815 3.80487 8.02775 3.81093H11.6119C12.1013 3.81093 12.2639 4.05488 12.2639 4.64129V9.1699C12.2639 9.65935 12.475 9.82198 12.622 9.82198C12.916 9.82198 13.1428 9.65935 13.6807 9.12142C14.8361 7.7124 15.7801 6.1426 16.4829 4.46145C16.5548 4.25952 16.6907 4.08663 16.87 3.96917C17.0493 3.85172 17.2621 3.79615 17.4759 3.81093H19.7574C20.4408 3.81093 20.5862 4.1534 20.4408 4.64129C19.6112 6.49969 18.5847 8.26378 17.379 9.9033C17.1335 10.2786 17.0349 10.4741 17.379 10.9135C17.6057 11.2559 18.4048 11.9237 18.9427 12.5585C19.7244 13.3383 20.3736 14.2405 20.8646 15.2294C21.06 15.8643 20.7332 16.1896 20.0827 16.1896Z"/>
  </g>
  
  <g id="share" width="16" height="16" viewBox="0 0 16 16" fill="none" xmlns="http://www.w3.org/2000/svg">
    <path d="M12 5.33325C13.1046 5.33325 14 4.43782 14 3.33325C14 2.22868 13.1046 1.33325 12 1.33325C10.8954 1.33325 10 2.22868 10 3.33325C10 4.43782 10.8954 5.33325 12 5.33325Z" stroke-width="1.5" stroke-linecap="round" stroke-linejoin="round"/>
    <path d="M4 10C5.10457 10 6 9.10457 6 8C6 6.89543 5.10457 6 4 6C2.89543 6 2 6.89543 2 8C2 9.10457 2.89543 10 4 10Z" stroke-width="1.5" stroke-linecap="round" stroke-linejoin="round"/>
    <path d="M12 14.6667C13.1046 14.6667 14 13.7713 14 12.6667C14 11.5622 13.1046 10.6667 12 10.6667C10.8954 10.6667 10 11.5622 10 12.6667C10 13.7713 10.8954 14.6667 12 14.6667Z" stroke-width="1.5" stroke-linecap="round" stroke-linejoin="round"/>
    <path d="M5.72656 9.00659L10.2799 11.6599" stroke-width="1.5" stroke-linecap="round" stroke-linejoin="round"/>
    <path d="M10.2732 4.34009L5.72656 6.99342" stroke-width="1.5" stroke-linecap="round" stroke-linejoin="round"/>
  </g>
  
  <g id="share_2" width="14" height="14" viewBox="0 0 14 14" fill="none" xmlns="http://www.w3.org/2000/svg">
    <path d="M10.5 4.66675C11.4665 4.66675 12.25 3.88325 12.25 2.91675C12.25 1.95025 11.4665 1.16675 10.5 1.16675C9.5335 1.16675 8.75 1.95025 8.75 2.91675C8.75 3.88325 9.5335 4.66675 10.5 4.66675Z" stroke-width="1.5" stroke-linecap="round" stroke-linejoin="round"/>
    <path d="M3.5 8.75C4.4665 8.75 5.25 7.9665 5.25 7C5.25 6.0335 4.4665 5.25 3.5 5.25C2.5335 5.25 1.75 6.0335 1.75 7C1.75 7.9665 2.5335 8.75 3.5 8.75Z" stroke-width="1.5" stroke-linecap="round" stroke-linejoin="round"/>
    <path d="M10.5 12.8333C11.4665 12.8333 12.25 12.0498 12.25 11.0833C12.25 10.1168 11.4665 9.33325 10.5 9.33325C9.5335 9.33325 8.75 10.1168 8.75 11.0833C8.75 12.0498 9.5335 12.8333 10.5 12.8333Z" stroke-width="1.5" stroke-linecap="round" stroke-linejoin="round"/>
    <path d="M5.01074 7.88086L8.99491 10.2025" stroke-width="1.5" stroke-linecap="round" stroke-linejoin="round"/>
    <path d="M8.98908 3.79761L5.01074 6.11927" stroke-width="1.5" stroke-linecap="round" stroke-linejoin="round"/>
  </g>

</svg>
