<svg width="164" height="40" viewBox="0 0 164 40" fill="none" xmlns="http://www.w3.org/2000/svg">
<path d="M39.2435 32.7476C39.4718 32.9715 39.6529 33.2374 39.7765 33.5301C39.9001 33.8228 39.9637 34.1367 39.9637 34.4536C39.9637 34.7706 39.9001 35.0844 39.7765 35.3771C39.6529 35.6699 39.4718 35.9358 39.2435 36.1596L36.7858 38.5772C36.3255 39.0296 35.7012 39.2838 35.0503 39.2838C34.3994 39.2838 33.7751 39.0296 33.3148 38.5772L31.4603 36.7526C27.5496 39.2595 22.8807 40.368 18.2371 39.8922C13.5935 39.4164 9.25759 37.3852 5.95684 34.1394C2.6561 30.8937 0.591325 26.6308 0.10893 22.0659C-0.373465 17.5011 0.755868 12.912 3.30746 9.06865L10.7965 16.432C10.0998 18.2406 9.94896 20.2084 10.3621 22.0992C10.7753 23.9899 11.7349 25.7233 13.1256 27.0911C14.5164 28.459 16.2793 29.4031 18.2026 29.8102C20.1258 30.2173 22.1278 30.07 23.968 29.386L19.1185 24.6125C18.8903 24.3887 18.7091 24.1228 18.5856 23.8301C18.462 23.5373 18.3984 23.2235 18.3984 22.9066C18.3984 22.5896 18.462 22.2758 18.5856 21.9831C18.7091 21.6903 18.8903 21.4244 19.1185 21.2006L21.5763 18.7846C21.804 18.5602 22.0745 18.3822 22.3723 18.2607C22.6701 18.1392 22.9894 18.0767 23.3118 18.0767C23.6342 18.0767 23.9535 18.1392 24.2513 18.2607C24.5491 18.3822 24.8196 18.5602 25.0473 18.7846L29.8984 23.5565C30.5967 21.7472 30.7485 19.7781 30.3355 17.886C29.9225 15.9939 28.9622 14.2594 27.5702 12.891C26.1782 11.5226 24.4136 10.5787 22.4888 10.1727C20.564 9.76668 18.5609 9.9159 16.7203 10.6024L9.22959 3.2472C13.14 0.740754 17.8083 -0.367731 22.4515 0.107646C27.0947 0.583023 31.4304 2.61335 34.7315 5.85812C38.0326 9.10289 40.0983 13.3648 40.5821 17.929C41.066 22.4932 39.9386 27.0822 37.389 30.9263L39.2435 32.7476Z" fill="white"/>
<path d="M49.8203 22.6616V8.93416C49.8203 5.28824 51.6748 3.46528 55.3838 3.46528H63.8926C67.6005 3.46528 69.4544 5.28824 69.4544 8.93416V22.6957C69.4544 26.008 67.8671 27.7833 64.6926 28.0216L67.1718 32.7756L66.7719 33.4905H64.1835L61.42 28.1289H55.3838C51.6748 28.1299 49.8203 26.3075 49.8203 22.6616ZM52.8748 22.9865C52.8748 24.6113 53.7012 25.4237 55.354 25.4237H63.9356C65.5884 25.4237 66.4148 24.6113 66.4148 22.9865V8.60921C66.4148 6.98447 65.5884 6.1721 63.9356 6.1721H55.3474C53.6946 6.1721 52.8681 6.98447 52.8681 8.60921L52.8748 22.9865ZM75.1352 22.7721V9.54344H78.0442V23.1263C78.0442 24.7954 78.8927 25.6295 80.5896 25.6284H87.8621V9.54344H90.7711V28.1305H80.5896C76.9534 28.1305 75.1352 26.3433 75.1352 22.7688V22.7721ZM101.058 28.1337C97.399 28.1337 95.5688 26.3346 95.5677 22.7363C95.5666 19.1381 97.3968 17.3389 101.058 17.3389H107.713V14.5476C107.713 12.8807 106.864 12.0466 105.167 12.0455H97.3858V10.6158L98.8403 9.54344H105.167C108.804 9.54344 110.622 11.3307 110.622 14.9051V28.1305L101.058 28.1337ZM98.4767 23.1295C98.4767 24.7987 99.3251 25.6327 101.022 25.6316H107.713V19.6575H101.022C99.3262 19.6575 98.4778 20.4915 98.4767 22.1596V23.1295ZM116.149 23.058V1.67969H119.058V23.3407C119.058 24.985 119.906 25.8548 121.603 25.9501V28.4164C117.967 28.4164 116.149 26.6292 116.149 23.0548V23.058ZM125.595 6.07949V2.71627H128.795V6.07624L125.595 6.07949ZM125.74 28.1337V9.54344H128.649V28.1305L125.74 28.1337ZM134.335 22.7721V3.4669H137.244V9.54344H144.153V12.0455H137.244V23.1263C137.244 24.7954 138.092 25.6295 139.789 25.6284H144.517V27.0581L143.062 28.1305H139.789C136.15 28.1305 134.33 26.3433 134.33 22.7688L134.335 22.7721ZM146.538 10.0471L146.869 9.54669H149.378L154.905 25.6316H155.632L161.159 9.54669H163.668L163.999 10.0471L155.115 35.2793H152.606L152.275 34.7789L154.711 28.1305H152.893L146.538 10.0471Z" fill="white"/>
<path d="M75.4527 36.9186C75.2231 36.9294 74.9939 36.8902 74.7816 36.8037C74.5692 36.7171 74.379 36.5855 74.2246 36.4181L74.4593 36.1208C74.5835 36.2638 74.7382 36.3782 74.9125 36.4557C75.0868 36.5332 75.2763 36.572 75.4675 36.5692C75.6715 36.5864 75.8747 36.5285 76.0378 36.4068C76.0942 36.3601 76.1397 36.3019 76.1711 36.2363C76.2025 36.1706 76.219 36.0991 76.2196 36.0266C76.2222 35.924 76.1843 35.8244 76.1138 35.7487C76.0386 35.6699 75.9458 35.6092 75.8427 35.5716C75.7224 35.5258 75.5993 35.4873 75.4742 35.4563C75.3386 35.4222 75.2031 35.3832 75.0692 35.3409C74.9419 35.3024 74.819 35.2512 74.7023 35.1882C74.5845 35.1247 74.487 35.0303 74.4205 34.9156C74.354 34.8009 74.3211 34.6703 74.3254 34.5383C74.323 34.4167 74.3501 34.2962 74.4044 34.1869C74.4587 34.0775 74.5387 33.9825 74.6378 33.9095C74.8629 33.7413 75.1404 33.6552 75.4229 33.6658C75.6333 33.6557 75.8434 33.6895 76.0394 33.7651C76.2355 33.8408 76.4129 33.9564 76.5601 34.1045L76.3204 34.3921C76.203 34.2672 76.0595 34.1689 75.8997 34.1038C75.7399 34.0387 75.5677 34.0085 75.3948 34.0151C75.2258 34.0086 75.0594 34.0578 74.9221 34.1549C74.8639 34.1958 74.8167 34.25 74.7844 34.3128C74.7522 34.3757 74.7359 34.4452 74.737 34.5156C74.7367 34.5689 74.7495 34.6216 74.7742 34.6691C74.7989 34.7166 74.8349 34.7575 74.8791 34.7885C74.9832 34.866 75.1025 34.9213 75.2295 34.951C75.3684 34.9851 75.5204 35.029 75.6857 35.0794C75.851 35.1297 76.0014 35.1866 76.1403 35.2418C76.2814 35.3017 76.4027 35.399 76.4907 35.5229C76.5876 35.6593 76.6375 35.8228 76.6328 35.9892C76.6339 36.1116 76.6085 36.2328 76.5584 36.3449C76.5082 36.4569 76.4344 36.5572 76.3419 36.6391C76.1485 36.8276 75.8527 36.9186 75.4527 36.9186Z" fill="white"/>
<path d="M86.0372 36.8623H83.9414V33.7168H86.0372V34.0661H84.3381V35.08H86.0025V35.4293H84.3381V36.513H86.0372V36.8623Z" fill="white"/>
<path d="M95.7007 36.8617H95.2313L94.4148 35.6122H93.7784V36.8617H93.3867V33.7162H94.671C94.9377 33.7055 95.198 33.7989 95.3949 33.9761C95.4886 34.0648 95.562 34.1722 95.6101 34.291C95.6583 34.4098 95.6801 34.5373 95.6743 34.665C95.6878 34.894 95.6084 35.1189 95.4535 35.2904C95.2985 35.4619 95.0807 35.5659 94.8478 35.5797L95.7007 36.8617ZM94.6164 35.2678C94.7004 35.2718 94.7843 35.2595 94.8635 35.2317C94.9426 35.2038 95.0153 35.1608 95.0776 35.1053C95.1359 35.0489 95.1817 34.9812 95.2121 34.9066C95.2426 34.8319 95.257 34.7519 95.2544 34.6715C95.2572 34.5913 95.243 34.5115 95.2125 34.437C95.182 34.3626 95.1361 34.2952 95.0776 34.2393C94.9516 34.1276 94.7859 34.0692 94.6164 34.0768H93.7784V35.2792L94.6164 35.2678Z" fill="white"/>
<path d="M104.46 36.8623H103.964L102.68 33.7168H103.138L104.217 36.4334L105.296 33.7168H105.752L104.46 36.8623Z" fill="white"/>
<path d="M113.281 36.8623H112.891V33.7168H113.289L113.281 36.8623Z" fill="white"/>
<path d="M122.259 36.9188C122.043 36.9241 121.827 36.8866 121.625 36.8085C121.424 36.7303 121.24 36.6131 121.086 36.4638C120.846 36.2377 120.68 35.9457 120.612 35.6259C120.543 35.3061 120.574 34.9734 120.701 34.6712C120.828 34.369 121.044 34.1114 121.322 33.9321C121.6 33.7528 121.927 33.6601 122.259 33.666C122.499 33.6597 122.736 33.7135 122.948 33.8224C123.16 33.9313 123.341 34.0916 123.472 34.2883L123.142 34.4719C123.045 34.3356 122.916 34.2241 122.767 34.147C122.615 34.0629 122.445 34.0187 122.271 34.0186C122.106 34.0147 121.943 34.0448 121.791 34.1069C121.64 34.1691 121.503 34.2619 121.39 34.3793C121.163 34.6328 121.038 34.9589 121.038 35.2965C121.038 35.634 121.163 35.9601 121.39 36.2136C121.503 36.3311 121.64 36.4238 121.791 36.486C121.943 36.5481 122.106 36.5782 122.271 36.5743C122.444 36.5738 122.615 36.5308 122.767 36.4492C122.918 36.3737 123.047 36.2619 123.142 36.1243L123.482 36.3095C123.346 36.5027 123.162 36.6595 122.949 36.7659C122.736 36.8722 122.498 36.9248 122.259 36.9188Z" fill="white"/>
<path d="M132.795 36.8623H130.699V33.7168H132.795V34.0661H131.096V35.08H132.76V35.4293H131.096V36.513H132.795V36.8623Z" fill="white"/>
</svg>
