<svg width="32" height="32" viewBox="0 0 32 32" fill="none" xmlns="http://www.w3.org/2000/svg">
<path fill-rule="evenodd" clip-rule="evenodd" d="M10.4133 2.66797H21.588C25.7067 2.66797 28 5.0413 28 9.10797V22.8813C28 27.0146 25.7067 29.3346 21.588 29.3346H10.4133C6.36 29.3346 4 27.0146 4 22.8813V9.10797C4 5.0413 6.36 2.66797 10.4133 2.66797ZM10.7733 8.8813V8.86797H14.7587C15.3333 8.86797 15.8 9.33464 15.8 9.90664C15.8 10.4946 15.3333 10.9613 14.7587 10.9613H10.7733C10.1987 10.9613 9.73333 10.4946 9.73333 9.9213C9.73333 9.34797 10.1987 8.8813 10.7733 8.8813ZM10.7735 16.9884H21.2268C21.8001 16.9884 22.2668 16.5217 22.2668 15.9484C22.2668 15.375 21.8001 14.907 21.2268 14.907H10.7735C10.1988 14.907 9.73345 15.375 9.73345 15.9484C9.73345 16.5217 10.1988 16.9884 10.7735 16.9884ZM10.7733 23.0809H21.2267C21.7587 23.0276 22.16 22.5729 22.16 22.0409C22.16 21.4942 21.7587 21.0409 21.2267 20.9876H10.7733C10.3733 20.9476 9.98667 21.1342 9.77333 21.4809C9.56 21.8142 9.56 22.2542 9.77333 22.6009C9.98667 22.9342 10.3733 23.1342 10.7733 23.0809Z" fill="#272E45"/>
</svg>
