<svg width="19" height="19" fill="none" xmlns="http://www.w3.org/2000/svg"><path d="M16.201 2.78v-.5h.5v.5h-.5zm-6.963 7.67a.5.5 0 11-.708-.706l.708.707zM15.7 8.635V2.78h1v5.854h-1zm.5-5.354h-5.854v-1h5.854v1zm.354-.146L9.238 10.45l-.708-.707 7.318-7.317.707.707z" fill="#fff"/><path d="M15.47 11.56v0c0 .612 0 .918-.045 1.174a3 3 0 01-2.44 2.44c-.256.045-.562.045-1.174.045H9.616c-2.687 0-4.03 0-4.892-.799a2.981 2.981 0 01-.163-.162c-.799-.863-.799-2.206-.799-4.893V7.17c0-.612 0-.918.045-1.173a3 3 0 012.44-2.44c.256-.045.562-.045 1.174-.045v0" stroke="#fff" stroke-linecap="round"/></svg>