<svg width="24" height="24" viewBox="0 0 24 24" fill="none" xmlns="http://www.w3.org/2000/svg">
<path fill-rule="evenodd" clip-rule="evenodd" d="M17.4295 6.5705C16.184 5.32499 14.2241 5.32499 12.9786 6.5705L11.4675 8.08161C10.7574 8.79165 9.60621 8.79165 8.89617 8.08161C8.18613 7.37156 8.18613 6.22036 8.89617 5.51031L10.4073 3.9992C13.0729 1.3336 17.3352 1.3336 20.0008 3.9992C22.6664 6.6648 22.6664 10.9271 20.0008 13.5927L18.4897 15.1038C17.7796 15.8139 16.6284 15.8139 15.9184 15.1038C15.2083 14.3938 15.2083 13.2426 15.9184 12.5325L17.4295 11.0214C18.675 9.77591 18.675 7.81601 17.4295 6.5705ZM16.0129 7.98708C16.723 8.69712 16.723 9.84833 16.0129 10.5584L10.5584 16.0129C9.84833 16.723 8.69712 16.723 7.98708 16.0129C7.27703 15.3029 7.27703 14.1517 7.98708 13.4416L13.4416 7.98708C14.1517 7.27703 15.3029 7.27703 16.0129 7.98708ZM8.08161 8.89617C8.79165 9.60621 8.79165 10.7574 8.08161 11.4675L6.5705 12.9786C5.32499 14.2241 5.32499 16.184 6.5705 17.4295C7.81601 18.675 9.77591 18.675 11.0214 17.4295L12.5325 15.9184C13.2426 15.2083 14.3938 15.2083 15.1038 15.9184C15.8139 16.6284 15.8139 17.7796 15.1038 18.4897L13.5927 20.0008C10.9271 22.6664 6.6648 22.6664 3.9992 20.0008C1.3336 17.3352 1.3336 13.0729 3.9992 10.4073L5.51031 8.89617C6.22036 8.18613 7.37156 8.18613 8.08161 8.89617Z" fill="#272E45"/>
</svg>
