<svg width="20" height="20" fill="none" xmlns="http://www.w3.org/2000/svg"><path fill-rule="evenodd" clip-rule="evenodd" d="M7.397 5.315c0 1.556-1.282 2.817-2.865 2.817-1.583 0-2.866-1.261-2.866-2.817 0-1.554 1.283-2.815 2.866-2.815 1.583 0 2.865 1.26 2.865 2.815zm9.68-1.233c.693 0 1.256.553 1.256 1.233 0 .682-.563 1.235-1.255 1.235h-5.48a1.246 1.246 0 01-1.256-1.235c0-.68.563-1.233 1.256-1.233h5.48zM2.923 13.298h5.48c.694 0 1.257.553 1.257 1.235 0 .68-.563 1.234-1.257 1.234h-5.48a1.247 1.247 0 01-1.256-1.234c0-.682.563-1.235 1.256-1.235zm12.545 4.017c1.584 0 2.866-1.261 2.866-2.816s-1.282-2.816-2.866-2.816c-1.582 0-2.865 1.26-2.865 2.816 0 1.555 1.283 2.816 2.865 2.816z" fill="#6E7191"/></svg>