<svg width="32" height="32" fill="none" xmlns="http://www.w3.org/2000/svg"><path d="M16.083 2.753a.89.89 0 00-1.01.199 1.073 1.073 0 00-.274.984c.132.588.201 1.2.201 1.828 0 1.434-.361 2.439-.984 3.272-.632.846-1.547 1.535-2.703 2.313a.338.338 0 00-.05.042l-.14.141a9 9 0 1012.913 3.507.333.333 0 00-.55-.068l-.277.323c-1.172 1.368-2.117 2.472-4.054 2.966-.082.02-.134.005-.17-.018a.325.325 0 01-.122-.165.549.549 0 01.1-.552c1.035-1.124 1.771-2.649 2.035-4.818.492-4.064-1.355-8.393-4.915-9.954z" fill="#FF3131"/></svg>