<svg width="32" height="32" viewBox="0 0 32 32" fill="none" xmlns="http://www.w3.org/2000/svg">
<path fill-rule="evenodd" clip-rule="evenodd" d="M23.2537 8.31521C23.307 8.40844 23.4003 8.47503 23.5203 8.47503C26.7203 8.47503 29.3337 11.0855 29.3337 14.2819V22.1931C29.3337 25.3896 26.7203 28 23.5203 28H8.48033C5.26699 28 2.66699 25.3896 2.66699 22.1931V14.2819C2.66699 11.0855 5.26699 8.47503 8.48033 8.47503C8.58699 8.47503 8.69366 8.42175 8.73366 8.31521L8.81366 8.15538C8.85962 8.05863 8.9068 7.95926 8.9547 7.85838C9.29579 7.13992 9.67316 6.34506 9.90699 5.87791C10.5203 4.67925 11.5603 4.01332 12.8537 4H19.1337C20.427 4.01332 21.4803 4.67925 22.0937 5.87791C22.3037 6.29744 22.6236 6.97322 22.932 7.62455C22.9956 7.75896 23.0587 7.89233 23.1203 8.0222L23.2537 8.31521ZM22.2803 13.4295C22.2803 14.0954 22.8137 14.6282 23.4803 14.6282C24.147 14.6282 24.6937 14.0954 24.6937 13.4295C24.6937 12.7636 24.147 12.2175 23.4803 12.2175C22.8137 12.2175 22.2803 12.7636 22.2803 13.4295ZM13.6937 15.4939C14.3203 14.8679 15.1337 14.535 16.0003 14.535C16.867 14.535 17.6803 14.8679 18.2937 15.4806C18.907 16.0932 19.2403 16.9057 19.2403 17.7714C19.227 19.556 17.787 21.0078 16.0003 21.0078C15.1337 21.0078 14.3203 20.6748 13.707 20.0622C13.0937 19.4495 12.7603 18.6371 12.7603 17.7714V17.758C12.747 16.919 13.0803 16.1065 13.6937 15.4939ZM19.6933 21.4738C18.7467 22.4195 17.44 23.0055 16 23.0055C14.6 23.0055 13.2933 22.4594 12.2933 21.4738C11.3067 20.475 10.76 19.1697 10.76 17.7713C10.7467 16.3862 11.2933 15.0809 12.28 14.0821C13.28 13.0832 14.6 12.5371 16 12.5371C17.4 12.5371 18.72 13.0832 19.7067 14.0687C20.6933 15.0676 21.24 16.3862 21.24 17.7713C21.2267 19.223 20.64 20.5282 19.6933 21.4738Z" fill="#272E45"/>
</svg>
