<svg width="24" height="24" fill="none" xmlns="http://www.w3.org/2000/svg"><path d="M14.121 10.457a2.622 2.622 0 00-2.131-1.104c-.876 0-1.656.438-2.132 1.104A2.708 2.708 0 009.363 12a2.633 2.633 0 002.627 2.629A2.633 2.633 0 0014.616 12c0-.571-.19-1.105-.495-1.543z" fill="#272E45"/><path d="M15.78 10.477c.19.38.305.99.305 1.523a4.1 4.1 0 01-4.092 4.096A4.087 4.087 0 017.9 12c0-.552.114-1.143.304-1.523H5.902v6.114c0 .8.705 1.505 1.504 1.505h9.174c.799 0 1.503-.705 1.503-1.505v-6.114H15.78zM17.4 6.247H15.19V8.78h2.513V6.228l-.305.019z" fill="#272E45"/><path d="M17.967 0H6.014C2.703 0 0 2.705 0 6.02V18c0 3.295 2.703 6 6.014 6h11.972C21.297 24 24 21.295 24 17.981V6.019C23.981 2.705 21.278 0 17.967 0zm1.446 10.457v6.133c0 1.6-1.237 2.839-2.836 2.839H7.404c-1.6 0-2.836-1.238-2.836-2.838V7.41c0-1.6 1.237-2.839 2.836-2.839h9.173c1.6 0 2.836 1.239 2.836 2.839v3.047z" fill="#272E45"/></svg>