<svg width="20" height="20" fill="none" xmlns="http://www.w3.org/2000/svg"><path fill-rule="evenodd" clip-rule="evenodd" d="M15.59 7.33c0 1.047.277 1.664.886 2.375.461.524.609 1.196.609 1.925 0 .729-.24 1.42-.72 1.982a3.78 3.78 0 01-2.416 1.178c-1.31.111-2.62.205-3.947.205-1.329 0-2.638-.056-3.948-.205a3.776 3.776 0 01-2.416-1.178 3.013 3.013 0 01-.72-1.982c0-.729.148-1.401.609-1.925.627-.71.886-1.328.886-2.374v-.355c0-1.402.35-2.319 1.07-3.216 1.07-1.308 2.784-2.093 4.481-2.093h.075c1.733 0 3.504.823 4.556 2.187.682.879.995 1.757.995 3.122v.355zm-8.027 9.388c0-.42.385-.612.741-.694.417-.089 2.955-.089 3.372 0 .356.082.74.274.74.694-.02.4-.254.753-.578.978-.42.328-.913.535-1.428.61a3.157 3.157 0 01-.84 0 3.015 3.015 0 01-1.428-.61c-.324-.225-.559-.579-.58-.978z" fill="#fff"/></svg>