<svg width="32" height="32" fill="none" xmlns="http://www.w3.org/2000/svg"><path fill-rule="evenodd" clip-rule="evenodd" d="M24.943 11.728c0 1.675.442 2.662 1.416 3.8.738.837.974 1.913.974 3.08 0 1.166-.383 2.272-1.15 3.17a6.049 6.049 0 01-3.867 1.885c-2.095.178-4.191.329-6.315.329-2.126 0-4.22-.09-6.316-.33a6.042 6.042 0 01-3.867-1.883 4.82 4.82 0 01-1.151-3.171c0-1.167.237-2.243.974-3.08 1.004-1.138 1.418-2.125 1.418-3.8v-.568c0-2.242.559-3.709 1.71-5.144 1.713-2.094 4.457-3.35 7.172-3.35h.12c2.773 0 5.606 1.317 7.289 3.5 1.092 1.406 1.593 2.81 1.593 4.994v.568zm-12.845 15.02c0-.672.616-.98 1.186-1.11.667-.142 4.728-.142 5.395 0 .57.13 1.186.438 1.186 1.11-.033.639-.408 1.206-.926 1.566a4.845 4.845 0 01-2.285.974c-.456.06-.904.06-1.344 0a4.823 4.823 0 01-2.284-.976c-.52-.358-.895-.925-.928-1.564z" fill="#6E7191"/></svg>