<svg width="32" height="32" viewBox="0 0 32 32" fill="none" xmlns="http://www.w3.org/2000/svg">
<path fill-rule="evenodd" clip-rule="evenodd" d="M16.7326 18.3073H19.0164C19.5577 18.3073 20.0065 17.8673 20.0065 17.3207C20.0065 16.7607 19.5577 16.3207 19.0164 16.3207H16.7326V14.014C16.7326 13.4673 16.297 13.0273 15.7557 13.0273C15.2145 13.0273 14.7656 13.4673 14.7656 14.014V16.3207H12.495C11.9537 16.3207 11.5049 16.7607 11.5049 17.3207C11.5049 17.8673 11.9537 18.3073 12.495 18.3073H14.7656V20.614C14.7656 21.1607 15.2145 21.6007 15.7557 21.6007C16.297 21.6007 16.7326 21.1607 16.7326 20.614V18.3073ZM25.7844 12.0345C26.0947 12.0309 26.4326 12.027 26.7396 12.027C27.0696 12.027 27.3337 12.2937 27.3337 12.627V23.347C27.3337 26.6537 24.6802 29.3337 21.3931 29.3337H10.898C7.46567 29.3337 4.66699 26.5203 4.66699 23.0537V8.68033C4.66699 5.37366 7.33366 2.66699 10.6208 2.66699H17.6703C18.0135 2.66699 18.2776 2.94699 18.2776 3.28033V7.57366C18.2776 10.0137 20.271 12.0137 22.6868 12.027C23.2511 12.027 23.7486 12.0312 24.1839 12.0349C24.5226 12.0378 24.8237 12.0403 25.0894 12.0403C25.2774 12.0403 25.5209 12.0375 25.7844 12.0345ZM26.1474 10.0887C25.0622 10.0927 23.783 10.0887 22.8629 10.0793C21.4028 10.0793 20.2002 8.86466 20.2002 7.39V3.87533C20.2002 3.30066 20.8906 3.01533 21.2853 3.43C21.9998 4.18032 22.9817 5.21173 23.959 6.23841C24.9338 7.26237 25.9041 8.28163 26.6002 9.01266C26.9857 9.41666 26.7032 10.0873 26.1474 10.0887Z" fill="#272E45"/>
</svg>
