<svg width="32" height="32" viewBox="0 0 32 32" fill="none" xmlns="http://www.w3.org/2000/svg">
<path fill-rule="evenodd" clip-rule="evenodd" d="M23.6922 11.1757H29.3337C29.3337 6.64612 26.6196 4 22.0211 4H9.97958C5.38107 4 2.66699 6.64612 2.66699 11.118V20.882C2.66699 25.3539 5.38107 28 9.97958 28H22.0211C26.6196 28 29.3337 25.3539 29.3337 20.882V20.4661H23.6922C21.0739 20.4661 18.9514 18.3967 18.9514 15.844C18.9514 13.2913 21.0739 11.222 23.6922 11.222V11.1757ZM23.6918 13.1631H28.3378C28.8876 13.1631 29.3333 13.5977 29.3333 14.1337V17.5078C29.3269 18.0413 28.8849 18.4722 28.3378 18.4784H23.7985C22.473 18.4958 21.314 17.611 21.0133 16.3523C20.8628 15.5709 21.0741 14.7646 21.5907 14.1495C22.1074 13.5344 22.8764 13.1733 23.6918 13.1631ZM23.8933 16.7102H24.3318C24.8947 16.7102 25.3511 16.2653 25.3511 15.7165C25.3511 15.1676 24.8947 14.7227 24.3318 14.7227H23.8933C23.6241 14.7196 23.3648 14.8218 23.1733 15.0063C22.9818 15.1908 22.874 15.4424 22.874 15.7049C22.874 16.2556 23.3284 16.7039 23.8933 16.7102ZM8.98403 11.1757H16.51C17.0729 11.1757 17.5292 10.7308 17.5292 10.182C17.5292 9.63316 17.0729 9.18825 16.51 9.18825H8.98403C8.4257 9.18822 7.97126 9.62613 7.96477 10.1704C7.96473 10.7212 8.4192 11.1694 8.98403 11.1757Z" fill="#272E45"/>
</svg>
