<svg width="32" height="32" fill="none" xmlns="http://www.w3.org/2000/svg"><path fill-rule="evenodd" clip-rule="evenodd" d="M23.693 11.176h5.642C29.335 6.646 26.62 4 22.022 4H9.981c-4.599 0-7.313 2.646-7.313 7.118v9.764C2.668 25.354 5.382 28 9.981 28h12.041c4.599 0 7.313-2.646 7.313-7.118v-.416h-5.642c-2.618 0-4.74-2.07-4.74-4.622 0-2.553 2.122-4.622 4.74-4.622v-.046zm0 1.987h4.646c.55 0 .995.435.995.97v3.375a.995.995 0 01-.995.97h-4.54c-1.325.018-2.484-.867-2.785-2.126-.15-.781.061-1.587.578-2.202a2.789 2.789 0 012.1-.987zm.201 3.548h.439c.563 0 1.02-.445 1.02-.994 0-.549-.457-.994-1.02-.994h-.439a1.021 1.021 0 00-.72.284.97.97 0 00-.299.698c0 .551.454 1 1.02 1.006zM8.985 11.176h7.526c.563 0 1.02-.445 1.02-.994 0-.549-.457-.994-1.02-.994H8.985c-.558 0-1.013.438-1.02.982 0 .551.455 1 1.02 1.006z" fill="#6E7191"/></svg>