<svg width="20" height="20" fill="none" xmlns="http://www.w3.org/2000/svg"><path fill-rule="evenodd" clip-rule="evenodd" d="M14.807 6.985h3.526c0-2.831-1.697-4.485-4.57-4.485H6.235c-2.874 0-4.57 1.654-4.57 4.449v6.102c0 2.795 1.696 4.449 4.57 4.449h7.526c2.874 0 4.57-1.654 4.57-4.449v-.26h-3.525c-1.637 0-2.963-1.293-2.963-2.889 0-1.595 1.326-2.888 2.963-2.888v-.03zm0 1.242h2.904c.344 0 .622.272.622.607v2.108a.622.622 0 01-.622.607h-2.837c-.829.011-1.553-.542-1.74-1.329a1.652 1.652 0 01.36-1.377c.323-.384.804-.61 1.313-.616zm.127 2.217h.274a.63.63 0 00.637-.621.63.63 0 00-.637-.621h-.274a.638.638 0 00-.45.177.606.606 0 00-.187.437c0 .344.284.624.637.628zm-9.32-3.46h4.703a.63.63 0 00.637-.62.63.63 0 00-.637-.621H5.614a.63.63 0 00-.637.614c0 .344.284.624.637.628z" fill="#6E7191"/></svg>