<svg width="32" height="32" fill="none" xmlns="http://www.w3.org/2000/svg"><path d="M21.572 2.667H10.428c-2.09 0-3.761 1.616-3.761 3.501v7.677c0 4.444 3.482 8.216 7.94 8.889v3.906h-4.18c-.835 0-1.392.538-1.392 1.346 0 .809.557 1.347 1.393 1.347h11.144c.836 0 1.393-.538 1.393-1.346 0-.809-.557-1.347-1.393-1.347h-4.179v-3.906c4.458-.673 7.94-4.31 7.94-8.889V6.168c0-1.885-1.671-3.501-3.76-3.501zM4 5.333c-.8 0-1.333.485-1.333 1.212v6.91c0 .727.533 1.212 1.333 1.212.8 0 1.333-.485 1.333-1.213V6.545C5.333 5.94 4.8 5.333 4 5.333zM28 5.333c-.8 0-1.333.485-1.333 1.212v6.91c0 .727.533 1.212 1.333 1.212.8 0 1.333-.485 1.333-1.213V6.545c0-.606-.533-1.212-1.333-1.212z" fill="#EFB75D"/></svg>