<svg width="24" height="24" fill="none" xmlns="http://www.w3.org/2000/svg"><path d="M16.18 2H7.82C6.255 2 5 3.212 5 4.626v5.758c0 3.333 2.612 6.162 5.955 6.666v2.93H7.821c-.627 0-1.045.404-1.045 1.01S7.194 22 7.821 22h8.358c.627 0 1.045-.404 1.045-1.01s-.418-1.01-1.045-1.01h-3.134v-2.93C16.388 16.546 19 13.819 19 10.384V4.626C19 3.212 17.746 2 16.18 2zM3 4c-.6 0-1 .364-1 .91v5.18c0 .546.4.91 1 .91s1-.364 1-.91V4.91C4 4.454 3.6 4 3 4zM21 4c-.6 0-1 .364-1 .91v5.18c0 .546.4.91 1 .91s1-.364 1-.91V4.91c0-.455-.4-.91-1-.91z" fill="#EFB75D"/></svg>