<svg width="33" height="32" fill="none" xmlns="http://www.w3.org/2000/svg"><path fill-rule="evenodd" clip-rule="evenodd" d="M22.824 4a6.85 6.85 0 014.823 1.975 6.681 6.681 0 011.996 4.758v10.534c0 3.72-3.059 6.733-6.82 6.733H9.514c-3.76 0-6.818-3.013-6.818-6.733V10.733C2.695 7.013 5.74 4 9.513 4h13.31zm2.143 8.72l.108-.107a1.023 1.023 0 00-.015-1.333 1.138 1.138 0 00-.712-.347 1.03 1.03 0 00-.756.267L17.516 16a2.128 2.128 0 01-2.694 0l-6.064-4.8c-.419-.307-.998-.267-1.347.093a1.01 1.01 0 00-.096 1.334l.177.173 6.13 4.733c.755.587 1.67.907 2.628.907a4.3 4.3 0 002.64-.907l6.077-4.813z" fill="#6E7191"/></svg>