<svg width="32" height="32" viewBox="0 0 32 32" fill="none" xmlns="http://www.w3.org/2000/svg">
<path fill-rule="evenodd" clip-rule="evenodd" d="M12.6666 16.7379C16.3394 16.7379 19.2835 13.7557 19.2835 10.0355C19.2835 6.31518 16.3394 3.33301 12.6666 3.33301C8.99389 3.33301 6.0498 6.31518 6.0498 10.0355C6.0498 13.7557 8.99389 16.7379 12.6666 16.7379ZM12.667 20.0195C7.27262 20.0195 2.66699 20.882 2.66699 24.3279C2.66699 27.7724 7.2446 28.6659 12.667 28.6659C18.06 28.6659 22.667 27.8035 22.667 24.3576C22.667 20.9118 18.0894 20.0195 12.667 20.0195ZM26.5312 12.7838H28.1354C28.7956 12.7838 29.334 13.3297 29.334 13.9993C29.334 14.6689 28.7956 15.2148 28.1354 15.2148H26.5312V16.7845C26.5312 17.4541 25.9943 18 25.3326 18C24.6723 18 24.134 17.4541 24.134 16.7845V15.2148H22.5326C21.871 15.2148 21.334 14.6689 21.334 13.9993C21.334 13.3297 21.871 12.7838 22.5326 12.7838H24.134V11.2155C24.134 10.5459 24.6723 10 25.3326 10C25.9943 10 26.5312 10.5459 26.5312 11.2155V12.7838Z" fill="#272E45"/>
</svg>
