<svg width="32" height="32" fill="none" xmlns="http://www.w3.org/2000/svg"><path d="M6.667 13.021c0-5.372 4.498-9.688 10-9.688 5.5 0 10 4.316 10 9.688 0 3.139-1.298 5.97-3.727 7.756a.761.761 0 00-.304.427c-.072.304-.15.652-.231 1.025a.401.401 0 01-.392.317H11.32a.402.402 0 01-.392-.317c-.081-.373-.16-.721-.231-1.025a.761.761 0 00-.305-.427c-2.429-1.786-3.726-4.617-3.726-7.756zM11.867 24.546a.403.403 0 00-.396.471c.126.742.217 1.405.245 1.863.084 1.388 1.106 2.532 2.474 2.827l.26.056c1.46.316 2.973.316 4.432 0l.262-.056c1.367-.295 2.39-1.439 2.474-2.827.027-.458.119-1.12.244-1.863a.403.403 0 00-.396-.471h-9.599z" fill="#27AC6E"/><path d="M9.333 15.918v-5.251h.846l2.589 3.344v-3.344h1.059v5.251h-.839l-2.596-3.352v3.352H9.333zM16.65 16c-.426 0-.794-.077-1.103-.23a1.729 1.729 0 01-.706-.664 2.034 2.034 0 01-.242-1.013c0-.377.078-.707.235-.99.162-.288.38-.512.654-.67.28-.165.6-.247.964-.247.524 0 .941.17 1.25.507.309.332.463.784.463 1.356v.283h-2.507c.039.288.142.499.308.633.172.129.407.193.706.193.197 0 .395-.03.596-.089.201-.06.383-.152.544-.276l.294.753c-.181.139-.404.25-.669.335-.26.08-.522.12-.787.12zm-.154-3.069a.785.785 0 00-.574.216c-.142.144-.23.345-.264.604h1.588c-.03-.547-.28-.82-.75-.82zM19.769 15.918l-1.471-3.657h1.125l.86 2.346.861-2.346h.736l.86 2.376.86-2.376h1.067l-1.456 3.657h-.942l-.794-2.078-.772 2.078h-.934z" fill="#fff"/></svg>