<svg width="24" height="24" fill="none" xmlns="http://www.w3.org/2000/svg"><rect width="24" height="24" rx="6" fill="#272E45"/><path d="M11.986 12.341c-2.825 0-5.173-2.346-5.173-5.122C6.813 4.347 9.16 2 11.987 2c2.922 0 5.173 2.346 5.173 5.219a5.142 5.142 0 01-5.157 5.123l-.017-.001zm0-7.324c-1.196 0-2.106 1.005-2.106 2.203 0 1.196.91 2.106 2.107 2.106 1.245 0 2.107-.91 2.107-2.106 0-1.199-.862-2.203-2.108-2.203zm2.06 11.586l2.923 2.825c.575.621.575 1.531 0 2.106-.622.621-1.581.621-2.06 0l-2.922-2.873-2.826 2.873c-.287.287-.671.43-1.103.43-.335 0-.718-.144-1.054-.43-.575-.575-.575-1.485 0-2.107l2.97-2.825a13.49 13.49 0 01-3.063-1.339c-.72-.383-.862-1.34-.48-2.059.48-.718 1.342-.909 2.109-.43a6.62 6.62 0 006.897 0c.767-.479 1.676-.288 2.107.43.432.719.239 1.675-.432 2.059-.91.575-1.963 1.006-3.065 1.341l-.001-.001z" fill="#fff"/></svg>