<svg width="24" height="24" fill="none" xmlns="http://www.w3.org/2000/svg"><path d="M16.4 20.1H3.6c-1.4 0-2.6-1.2-2.6-2.6v-7.3c0-1.4 1.2-2.6 2.6-2.6h12.8c1.4 0 2.6 1.2 2.6 2.6v7.3c0 1.4-1.2 2.6-2.6 2.6z" fill="#272E45"/><path d="M22 16.1c-.6 0-1-.4-1-1V6.7c0-.4-.2-.7-.5-.7H5.1c-.6 0-1-.4-1-1s.4-1 1-1h15.4C21.9 4 23 5.2 23 6.7v8.4c0 .5-.4 1-1 1z" fill="#272E45"/><path d="M10 16.8c-1.7 0-3-1.3-3-3s1.3-3 3-3 3 1.3 3 3-1.3 3-3 3zM4.3 14.5a.7.7 0 100-1.4.7.7 0 000 1.4zM15.7 14.5a.7.7 0 100-1.4.7.7 0 000 1.4z" fill="#fff"/></svg>