<svg width="20" height="20" fill="none" xmlns="http://www.w3.org/2000/svg"><path d="M15.585 4.333H4.418c-1.5 0-2.75 1.25-2.75 2.75v5.584c0 1.5 1.25 2.75 2.75 2.75v-4.084c0-.75.667-1.416 1.417-1.416h8.333c.75 0 1.417.583 1.417 1.416v4.084c1.5 0 2.75-1.25 2.75-2.75V7.083c0-1.5-1.25-2.75-2.75-2.75zM14.17 2.25c0-.833-.667-1.417-1.417-1.417h-5.5c-.75 0-1.417.584-1.417 1.417v.667h8.333V2.25z" fill="#272E45"/><path d="M5.836 14v2.75c0 1.167.917 2.083 2.083 2.083h4.167a2.063 2.063 0 002.083-2.083v-5.5H5.836V14z" fill="#272E45"/><path d="M15.585 7.75a.667.667 0 100-1.333.667.667 0 000 1.333z" fill="#fff"/></svg>