<svg width="40" height="40" fill="none" xmlns="http://www.w3.org/2000/svg"><path fill-rule="evenodd" clip-rule="evenodd" d="M3.333 20.01c0-9.2 7.48-16.677 16.667-16.677 9.186 0 16.666 7.477 16.666 16.677 0 9.18-7.48 16.657-16.666 16.657S3.333 29.189 3.333 20.01zm22.78 1.686a6.63 6.63 0 00.45-.514c.258-.338.387-.756.387-1.172 0-.468-.145-.902-.419-1.256a5.884 5.884 0 01-.123-.133c-.107-.116-.26-.283-.408-.43-1.319-1.415-4.762-3.73-6.563-4.438-.274-.111-.966-.354-1.336-.37-.354 0-.691.08-1.013.241a2.086 2.086 0 00-.901.997c-.113.29-.29 1.158-.29 1.174-.177.949-.273 2.492-.273 4.197 0 1.625.096 3.103.241 4.068.004.004.018.073.04.18.065.326.201 1.005.346 1.283a2.025 2.025 0 001.786 1.094h.064c.483-.016 1.497-.434 1.497-.45 1.705-.708 5.067-2.91 6.418-4.374l.097-.097z" fill="#fff"/></svg>