<svg width="182" height="182" fill="none" xmlns="http://www.w3.org/2000/svg"><path fill-rule="evenodd" clip-rule="evenodd" d="M91 158.287c37.161 0 67.287-30.126 67.287-67.287S128.161 23.713 91 23.713 23.713 53.84 23.713 91 53.84 158.287 91 158.287zM91 182c50.258 0 91-40.742 91-91S141.258 0 91 0 0 40.742 0 91s40.742 91 91 91z" fill="#FFE082"/><path d="M165.949 90.998c0 41.389-33.553 74.941-74.941 74.941-41.39 0-74.942-33.552-74.942-74.941S49.62 16.057 91.008 16.057c41.388 0 74.941 33.552 74.941 74.94z" fill="#EFB75D"/><path d="M85.648 170.364c6.44-1.179 20.488-4.924 25.171-10.466.144 2.555-.163 7.872-2.497 9.074 6.732-3.2 20.333-12.004 21.961-22.194.903 1.068 2.097 4.18 1.123 9.168 1.987-6.025 5.659-13.355 10.291-12.117.737-.044 1.563.067 2.195.449 1.756-3.296 3.659-13.368 4.391-17.991-4.215-3.302-6.147-9.14-6.586-11.646-.351-5.779-4.146-10.368-6-11.941 2.776-.894 4.456.417 4.914.909-.221-.756.229-4.184.501-5.92l-4.704-5.16c.045 2.704.839 5.645 1.484 7.37-4.326-3.147-5.153-7.58-4.805-11.056-3.911-2.948-12.551-8.491-15.829-7.076.439 3.49-.644 10.644-8.488 11.351-.979-1.665-1.894-4.596-.731-7.102-6.439 8.352-1.903 14.799 1.17 16.979-2.107-3.774.683-6.044 2.342-6.339-.351 2.005 4.341 6.83 6.732 8.993 2.107 3.538.683 7.813-.293 9.139-.351-2.83-3.171-3.145-4.537-2.948-10.887.118-8.146-4.766-5.414-7.223-11.942-8.963-4.683-20.51.439-25.162-4.195-3.33-8.094-8.028-4.976-11.692-.683 1.872.41 6.704 10.244 11.056 1.203-.388 4.078-.843 6.066.39-3.977-2.535-11.773-8.496-11.773-12.478-1.171-3.047-3.366-9.582-2.781-11.351-.488-.836-2.019-1.828-4.244.884-2.78 3.39-1.756-8.55 6.147-4.717 0-.884-4.537-3.98 2.341-6.634 2.244.246 5.854 1.917 2.342 6.634 2.341.688 6.526 2.86 4.536 6.044-2.099-1.572-6.414-3.066-6.878 3.538-.464 6.604 8.392 14.545 12.878 17.69h1.025c-3.659-4.128-8.986-15.302-1.025-26.977-.195-2.998 1.112-8.934 7.903-8.698 2.585-.638 8.341-.766 10.683 3.833.682 2.457.731 6.663-4.537 3.833-.634-1.327-.966-3.685 2.78-2.506-1.463-1.573-5.063-3.48-7.756 1.474.195 2.9-1.053 7.96-7.609 5.012-1.824 2.408-4.764 9.022-1.931 16.216.308-.504.71-.982 1.053-1.327-1.991-2.476.829-3.784 2.487-4.127 3.22-4.423 5.561-.738 5.269-1.475-.235-.59.975-.835 1.609-.884 17.854 7.813 6.586 22.26 5.561 24.323-.819 1.651 2.976 5.504 4.976 7.224l2.927-3.833c-1.522-4.364 4.536-10.172 7.756-12.53 4.537-4.275 2.634-14.89 2.927-15.184.234-.236 1.268 1.474 1.756 2.359 3.044 11.203-.781 17.542-3.073 19.311 9.834 1.297 11.219 9.484 10.683 13.415h-.878c-.586-5.425-5.122-7.666-7.318-8.108 1.64 7.076-5.56 6.29-9.365 5.012-1.183.381-2.056 1.594-2.685 3.096l4.733 8.55c.352-.826 1.22-.344 1.61 0-.234.943 3.366 3.538 2.195 6.928 3.864 4.836.927 10.369-1.024 12.531-1.522 16.274-8.244 24.372-11.415 26.387-2.26 3.656-8.551 6.339-11.414 7.224-2.576 5.071-15.805 8.206-22.098 9.139-5.775 3.302-17.43 2.261-22.537 1.327zM16.108 100.796c.281-.732 9.414-21.67 16.017 0-.328.83-2.135 1.435-6.744-2.782-2.014-.146-6.21 2.343-6.884 13.471.608-2.147 3.203-6.267 8.71-5.564-2.294.879-5.872 6.619-1.826 22.55-2.716-5.174-7.896-15.814-6.884-16.986-.937-2.635-2.726-8.463-2.389-10.689z" fill="#FFE082"/><path fill-rule="evenodd" clip-rule="evenodd" d="M46.336 48.61V79.46H42.82v6.887h3.516v3.73H42.82v7.03h3.516v20.662h7.796V97.107H82.26v-7.03H54.132v-3.731l29.045-.287c4.726-1.608 9.84-6.14 11.923-11.91 2.675-7.401 1.084-16.56-5.044-21.234-2.363-1.803-5.35-3.295-7.796-4.161-.947-.336-3.67-.574-3.67-.574l-32.254.43zm7.796 30.849V55.21h23.542s4.097.66 7.031 3.157c2.35 2 3.641 5.537 3.822 8.178.196 2.854-.94 6.874-3.363 9.183-3.02 2.877-7.49 3.73-7.49 3.73H54.132z" fill="#FFE082"/><path d="M48.18 138.835v-.34l1.195-.328v-14.371l-1.195-.34v-.34h5.578c1.14 0 2.106.11 2.896.329.79.219 1.426.537 1.905.954.486.416.836.921 1.05 1.512.214.592.32 1.272.32 2.039 0 .76-.106 1.436-.32 2.028a3.634 3.634 0 01-1.05 1.524c-.48.416-1.114.734-1.905.954-.79.211-1.756.317-2.896.317H52.66v5.394l1.195.328v.34H48.18zm4.48-6.621h1.098c.395 0 .761-.084 1.098-.252.344-.175.642-.438.895-.789.252-.358.447-.8.583-1.326.142-.534.213-1.166.213-1.897 0-1.454-.265-2.528-.796-3.222-.532-.695-1.196-1.042-1.993-1.042H52.66v8.528zM62.52 123.456v-.34h2.585c.706 0 1.263.194 1.671.581.409.38.746.822 1.011 1.327l3.363 6.587 2.906-7.475-1.487-.68v-.34h4.901l-.284.57-.995.45-5.406 11.808c-.48 1.243-.943 2.011-1.422 2.551-.473.541-1.611.68-2.169.68-.596 0-1.078-.194-1.448-.581-.362-.395-.544-.877-.544-1.447 0-.57.152-1.03.457-1.381a1.444 1.444 0 011.137-.526c.104 0 .197.007.282.022a6.85 6.85 0 01.515.098v3.135c.304-.058.625-.299.962-.723.337-.431.68-1.125 1.03-2.083l-6.074-11.893-.991-.34zM79.134 138.835v-.34l1.195-.328v-14.371l-1.195-.34v-.34h10.554v4.045h-.602a3.023 3.023 0 01-.651-.855 6.433 6.433 0 01-.447-1.085c-.13-.424-.195-.936-.195-1.535h-4.179v5.941h1.098c1.14 0 2.106.11 2.897.329.79.22 1.425.526 1.904.921.486.395.836.877 1.05 1.447.214.57.32 1.206.32 1.907 0 .702-.106 1.338-.32 1.908a3.431 3.431 0 01-1.05 1.458c-.479.394-1.114.701-1.904.92-.79.212-1.756.318-2.897.318h-5.578zm4.48-.559h1.098c.797 0 1.462-.336 1.993-1.008.531-.68.797-1.692.797-3.037 0-1.344-.266-2.353-.797-3.025-.531-.672-1.196-1.009-1.993-1.009h-1.098v8.079zM93.571 137.147c0-.57.152-1.03.457-1.381.304-.351.68-.526 1.127-.526.104 0 .198.007.282.022.09.014.178.029.263.044.077.014.162.032.252.054v2.673c.175-.058.252.064.427-.097.181-.168.271-.281.427-.668.162-.388.31-.822.426-1.479.116-.619.13-1.536.168-2.566v-9.537l-.748-.23v-.34h10.253v.34l-1.195.34v14.371l1.195.328v.34h-5.676v-.34l1.196-.328v-14.481h-3.78l-.4 9.537c-.051 1.154-.161 2.115-.33 2.883-.168.76-.372 1.37-.612 1.83-.233.453-.505.771-.816.954-.305.19-.616.285-.933.285-.596 0-1.076-.194-1.439-.581-.362-.395-.544-.877-.544-1.447zM111.177 138.835v-.34l1.195-.328v-14.371l-1.195-.34v-.34h5.675v.34l-1.195.34v5.612h1.293c1.14 0 2.105.11 2.896.329.79.212 1.428.523 1.914.932.486.402.833.895 1.04 1.48.214.584.321 1.242.321 1.973 0 .73-.107 1.388-.321 1.973a3.416 3.416 0 01-1.04 1.491c-.486.402-1.124.712-1.914.931-.791.212-1.756.318-2.896.318h-5.773zm4.48-.559h1.293c.796 0 1.461-.34 1.992-1.019.531-.687.797-1.732.797-3.135 0-1.411-.266-2.456-.797-3.135-.531-.68-1.196-1.02-1.992-1.02h-1.293v8.309z" fill="#FFE082"/></svg>