<svg width="24" height="24" fill="none" xmlns="http://www.w3.org/2000/svg"><path fill-rule="evenodd" clip-rule="evenodd" d="M17.43 6.57a3.118 3.118 0 00-4.451 0l-1.511 1.512A1.818 1.818 0 018.895 5.51L10.407 4a6.754 6.754 0 019.594 0 6.754 6.754 0 010 9.593l-1.511 1.51a1.818 1.818 0 11-2.572-2.57l1.512-1.512a3.118 3.118 0 000-4.45zm-1.417 1.417c.71.71.71 1.861 0 2.571l-5.455 5.455a1.818 1.818 0 11-2.57-2.571l5.454-5.455c.71-.71 1.86-.71 2.57 0zm-7.931.91c.71.71.71 1.86 0 2.57L6.57 12.98a3.118 3.118 0 000 4.45 3.118 3.118 0 004.451 0l1.511-1.51a1.818 1.818 0 112.572 2.57l-1.511 1.512a6.754 6.754 0 01-9.594 0 6.754 6.754 0 010-9.594l1.511-1.51c.71-.71 1.862-.71 2.572 0z" fill="#272E45"/></svg>