<svg width="32" height="33" viewBox="0 0 32 33" fill="none" xmlns="http://www.w3.org/2000/svg">
<path d="M16 28.7374L22.6 21.9311C23.9052 20.585 24.794 18.87 25.1541 17.003C25.5141 15.1359 25.3292 13.2007 24.6228 11.442C23.9163 9.68335 22.7201 8.18019 21.1852 7.12262C19.6504 6.06506 17.8459 5.50059 16 5.50059C14.1541 5.50059 12.3496 6.06506 10.8148 7.12262C9.27994 8.18019 8.08367 9.68335 7.37722 11.442C6.67077 13.2007 6.48589 15.1359 6.84594 17.003C7.20599 18.87 8.09481 20.585 9.4 21.9311L16 28.7374ZM16 32.6259L7.51467 23.8754C5.83646 22.1447 4.69358 19.9397 4.23057 17.5392C3.76756 15.1387 4.00521 12.6505 4.91346 10.3893C5.82172 8.12803 7.35979 6.19533 9.33318 4.83555C11.3066 3.47578 13.6266 2.75 16 2.75C18.3734 2.75 20.6934 3.47578 22.6668 4.83555C24.6402 6.19533 26.1783 8.12803 27.0865 10.3893C27.9948 12.6505 28.2324 15.1387 27.7694 17.5392C27.3064 19.9397 26.1636 22.1447 24.4853 23.8754L16 32.6259ZM16 17.8749C16.7072 17.8749 17.3855 17.5852 17.8856 17.0694C18.3857 16.5537 18.6667 15.8542 18.6667 15.1249C18.6667 14.3955 18.3857 13.6961 17.8856 13.1803C17.3855 12.6646 16.7072 12.3749 16 12.3749C15.2928 12.3749 14.6145 12.6646 14.1144 13.1803C13.6143 13.6961 13.3333 14.3955 13.3333 15.1249C13.3333 15.8542 13.6143 16.5537 14.1144 17.0694C14.6145 17.5852 15.2928 17.8749 16 17.8749ZM16 20.6249C14.5855 20.6249 13.229 20.0454 12.2288 19.014C11.2286 17.9825 10.6667 16.5836 10.6667 15.1249C10.6667 13.6662 11.2286 12.2673 12.2288 11.2358C13.229 10.2044 14.5855 9.62489 16 9.62489C17.4145 9.62489 18.771 10.2044 19.7712 11.2358C20.7714 12.2673 21.3333 13.6662 21.3333 15.1249C21.3333 16.5836 20.7714 17.9825 19.7712 19.014C18.771 20.0454 17.4145 20.6249 16 20.6249Z" fill="#0A63E8"/>
</svg>
