<svg width="16" height="16" viewBox="0 0 16 16" fill="none" xmlns="http://www.w3.org/2000/svg">
<path d="M4.66732 2.66668V13.3333H11.334V2.66668H4.66732ZM4.00065 1.33334H12.0007C12.1775 1.33334 12.347 1.40358 12.4721 1.52861C12.5971 1.65363 12.6673 1.8232 12.6673 2.00001V14C12.6673 14.1768 12.5971 14.3464 12.4721 14.4714C12.347 14.5964 12.1775 14.6667 12.0007 14.6667H4.00065C3.82384 14.6667 3.65427 14.5964 3.52925 14.4714C3.40422 14.3464 3.33398 14.1768 3.33398 14V2.00001C3.33398 1.8232 3.40422 1.65363 3.52925 1.52861C3.65427 1.40358 3.82384 1.33334 4.00065 1.33334ZM8.00065 11.3333C8.17746 11.3333 8.34703 11.4036 8.47205 11.5286C8.59708 11.6536 8.66732 11.8232 8.66732 12C8.66732 12.1768 8.59708 12.3464 8.47205 12.4714C8.34703 12.5964 8.17746 12.6667 8.00065 12.6667C7.82384 12.6667 7.65427 12.5964 7.52925 12.4714C7.40422 12.3464 7.33398 12.1768 7.33398 12C7.33398 11.8232 7.40422 11.6536 7.52925 11.5286C7.65427 11.4036 7.82384 11.3333 8.00065 11.3333Z" fill="#0A63E8"/>
</svg>
