<svg width="32" height="33" viewBox="0 0 32 33" fill="none" xmlns="http://www.w3.org/2000/svg">
<path d="M9.33268 5.5V27.5H22.666V5.5H9.33268ZM7.99935 2.75H23.9993C24.353 2.75 24.6921 2.89487 24.9422 3.15273C25.1922 3.41059 25.3327 3.76033 25.3327 4.125V28.875C25.3327 29.2397 25.1922 29.5894 24.9422 29.8473C24.6921 30.1051 24.353 30.25 23.9993 30.25H7.99935C7.64573 30.25 7.30659 30.1051 7.05654 29.8473C6.80649 29.5894 6.66602 29.2397 6.66602 28.875V4.125C6.66602 3.76033 6.80649 3.41059 7.05654 3.15273C7.30659 2.89487 7.64573 2.75 7.99935 2.75ZM15.9993 23.375C16.353 23.375 16.6921 23.5199 16.9422 23.7777C17.1922 24.0356 17.3327 24.3853 17.3327 24.75C17.3327 25.1147 17.1922 25.4644 16.9422 25.7223C16.6921 25.9801 16.353 26.125 15.9993 26.125C15.6457 26.125 15.3066 25.9801 15.0565 25.7223C14.8065 25.4644 14.666 25.1147 14.666 24.75C14.666 24.3853 14.8065 24.0356 15.0565 23.7777C15.3066 23.5199 15.6457 23.375 15.9993 23.375Z" fill="#0A63E8"/>
</svg>
