<svg width="32" height="32" viewBox="0 0 32 32" fill="none" xmlns="http://www.w3.org/2000/svg">
<g clip-path="url(#clip0_265_358)">
<path d="M28.4833 19.677C28.4833 19.677 31.0705 22.2322 31.7105 23.4146C31.723 23.4317 31.7327 23.4506 31.7393 23.4706C32.0001 23.9074 32.0641 24.2498 31.9361 24.5026C31.7201 24.9202 30.9889 25.1298 30.7409 25.1474H26.1681C25.8497 25.1474 25.1873 25.0642 24.3809 24.5074C23.7649 24.077 23.1521 23.3682 22.5585 22.6754C21.6721 21.6466 20.9057 20.7538 20.1297 20.7538C20.0317 20.7536 19.9344 20.7698 19.8417 20.8018C19.2545 20.9874 18.5089 21.8242 18.5089 24.053C18.5089 24.7506 17.9585 25.1474 17.5729 25.1474H15.4785C14.7649 25.1474 11.0497 24.8978 7.75534 21.4242C3.71854 17.1714 0.0929441 8.64023 0.0577441 8.56503C-0.167856 8.01303 0.305744 7.71223 0.817744 7.71223H5.43534C6.05454 7.71223 6.25614 8.08663 6.39694 8.42263C6.56014 8.80823 7.16494 10.3506 8.15694 12.0834C9.76334 14.9026 10.7505 16.0498 11.5393 16.0498C11.6875 16.0503 11.8332 16.0116 11.9617 15.9378C12.9921 15.3714 12.8001 11.6914 12.7521 10.933C12.7521 10.7858 12.7505 9.28983 12.2225 8.56663C11.8449 8.04823 11.2017 7.84663 10.8129 7.77303C10.9169 7.62263 11.1377 7.39223 11.4209 7.25623C12.1265 6.90423 13.4017 6.85303 14.6673 6.85303H15.3697C16.7425 6.87223 17.0977 6.96023 17.5969 7.08663C18.6017 7.32663 18.6209 7.97783 18.5329 10.1954C18.5073 10.829 18.4801 11.5426 18.4801 12.3826C18.4801 12.5618 18.4721 12.7618 18.4721 12.965C18.4417 14.1026 18.4017 15.3842 19.2049 15.9106C19.3091 15.9755 19.4294 16.0099 19.5521 16.0098C19.8305 16.0098 20.6641 16.0098 22.9249 12.1298C23.9169 10.4162 24.6849 8.39543 24.7377 8.24343C24.7825 8.15863 24.9169 7.92023 25.0801 7.82423C25.1962 7.76246 25.3263 7.7316 25.4577 7.73463H30.8897C31.4817 7.73463 31.8833 7.82423 31.9617 8.04823C32.0929 8.41143 31.9361 9.52023 29.4561 12.8738C29.0385 13.4322 28.6721 13.9154 28.3505 14.3378C26.1025 17.2882 26.1025 17.437 28.4833 19.677Z" fill="#0A63E8"/>
</g>
<defs>
<clipPath id="clip0_265_358">
<rect width="32" height="32" fill="white"/>
</clipPath>
</defs>
</svg>
