<svg width="32" height="32" viewBox="0 0 32 32" fill="none" xmlns="http://www.w3.org/2000/svg">
<path d="M26.1438 3.1875C25.725 3.35625 23.4625 5.02501 22.0625 6.18751C18.525 9.13751 14.8375 12.9313 11.8563 16.6938C11.4063 17.2688 11.0063 17.7438 10.9813 17.7438C10.9563 17.75 9.57501 16.8 7.91876 15.6438C6.26251 14.4875 4.85001 13.5063 4.78126 13.4563C4.71251 13.4125 4.56251 13.375 4.44376 13.375C4.24376 13.375 4.12501 13.475 3.11251 14.4813C1.73751 15.8563 1.76251 15.7563 2.48126 16.7438C5.81251 21.3375 9.29376 26.3875 10.3125 28.1063C10.5625 28.5375 10.7063 28.7125 10.8625 28.7875C11.1 28.9 11.375 28.8625 11.5188 28.7C11.5688 28.6438 11.9313 28.0563 12.3188 27.4063C15.475 22.075 19.475 16.1688 22.775 11.9688C24.8125 9.37501 26.325 7.65626 28.3813 5.6125C29.8938 4.10625 30 3.9875 30 3.77501C30 3.4875 29.9125 3.3375 29.6875 3.21875C29.5375 3.14375 29.2125 3.125 27.8938 3.13125C27.0063 3.13125 26.2188 3.15625 26.1438 3.1875Z" fill="url(#paint0_linear_59_3358)"/>
<defs>
<linearGradient id="paint0_linear_59_3358" x1="0.82812" y1="15.9911" x2="31.6045" y2="15.9911" gradientUnits="userSpaceOnUse">
<stop stop-color="#6167F2"/>
<stop offset="0.483529" stop-color="#00B5EE"/>
<stop offset="1" stop-color="#55F5FF"/>
</linearGradient>
</defs>
</svg>
