<svg width="130" height="130" viewBox="0 0 130 130" fill="none" xmlns="http://www.w3.org/2000/svg">
<g clip-path="url(#clip0_50_5460)">
<path d="M77.6239 9.87674C67.8739 12.5635 59.5089 15.001 59.0657 15.278C57.6807 16.1644 56.9883 16.9122 56.2404 18.3526C54.9386 20.9286 54.8832 20.6793 61.9741 46.3838L68.4002 69.7063L66.4336 71.6175C62.9158 75.0799 61.8633 78.7915 63.4421 82.2262C63.8299 83.0571 64.5501 84.1374 65.0763 84.6637C66.0181 85.6054 68.4002 86.9073 69.2312 86.9073C69.5636 86.9073 69.7298 87.2951 69.8406 88.4584C70.1452 91.3945 72.3611 94.5245 74.9371 95.6601C76.3221 96.2695 79.4798 96.2695 81.0863 95.6601C81.7511 95.4108 82.3327 95.2446 82.3881 95.3C82.4435 95.3277 82.2773 95.9371 82.0281 96.6019C81.3633 98.4854 81.2525 101.948 81.7788 104.081C82.0281 105.078 82.8313 107.127 83.6069 108.651C84.3548 110.202 84.9918 111.698 84.9918 112.03C84.9918 112.363 84.5486 113.47 83.9947 114.495C82.7482 116.85 82.859 117.293 85.1026 119.481C89.2021 123.414 97.8718 125.907 104.769 125.132C110.502 124.467 117.039 121.42 119.699 118.124C121.333 116.13 121.582 115.409 121.277 113.747C121.111 112.972 121 111.338 121 110.147C121 105.078 121.804 102.28 127.676 86.6303C131.027 77.7113 131.055 77.6005 131.055 75.2738C131.083 73.4733 130.917 72.5316 130.446 71.3128C129.421 68.6814 128.368 67.5735 125.155 65.6622C121.665 63.6125 119.449 62.1722 118.535 61.3966C117.953 60.9257 116.901 57.3249 110.863 35.332C107.012 21.3164 103.716 9.46126 103.522 8.96268C102.553 6.66367 99.5891 4.89095 96.7915 4.94634C95.8775 4.97404 88.9251 6.74677 77.6239 9.87674ZM98.7305 9.98753C99.3952 10.5692 100.199 13.3668 107.012 38.185C111.749 55.5245 114.519 66.05 114.436 66.4932C114.131 68.0167 113.3 68.4321 107.234 70.0941C104.076 70.9804 101.334 71.6729 101.14 71.6729C100.974 71.6729 100.559 70.8419 100.199 69.7894C99.8661 68.7645 99.0352 66.7979 98.3427 65.4407C96.7085 62.1445 94.0771 59.4854 90.9471 57.9343C88.8974 56.9094 88.6204 56.854 86.2383 56.854C83.9116 56.854 83.6069 56.9094 82.3881 57.685C79.2028 59.6793 78.4272 62.4769 79.9506 66.7148C82.7759 74.5813 83.3853 76.4094 83.2191 76.5756C83.136 76.6864 81.7234 77.1019 80.1168 77.5174C77.43 78.2375 77.07 78.2652 76.239 77.9051C75.7127 77.6836 75.1864 77.2404 75.0202 76.8803C74.3555 75.3568 60.0075 22.3966 60.0075 21.4272C59.9798 19.3774 60.2013 19.2667 73.6353 15.6104C80.2553 13.7823 87.9833 11.6495 90.8086 10.8462C96.7085 9.18427 97.6779 9.07347 98.7305 9.98753ZM88.9251 61.8675C91.141 63.0032 93.4954 65.3853 94.6033 67.6566C95.1019 68.7091 96.3484 72.1438 97.3455 75.2738C99.3121 81.3952 100.448 83.8881 101.999 85.7162C104.187 88.2368 108.536 90.8959 111.112 91.2283C112.691 91.4499 113.799 90.6189 113.799 89.234C113.799 88.1814 112.801 86.9073 111.998 86.9073C111.361 86.9073 108.813 85.7716 108.813 85.4946C108.813 85.3838 109.339 84.913 110.004 84.4698C111.583 83.3618 115.377 79.4009 115.71 78.4868C116.319 76.9357 114.879 75.3292 113.162 75.6615C112.386 75.8 112.081 75.6892 111.167 74.886C110.198 74.055 110.142 73.9442 110.613 73.8057C115.377 72.4208 115.239 72.4762 116.735 71.0081C117.676 70.0664 118.314 69.1246 118.535 68.3767C118.951 67.0195 118.757 66.9918 122.275 69.0415C125.654 71.0358 126.817 72.6424 126.817 75.3015C126.817 75.9662 125.543 79.761 123.382 85.5777C117.178 102.308 116.347 105.521 116.652 111.615L116.846 114.828L115.405 116.13C113.577 117.764 110.918 119.121 107.677 120.035C105.295 120.728 104.88 120.755 101.085 120.617C98.1211 120.506 96.4869 120.312 94.9634 119.869C92.7198 119.232 89.479 117.625 88.7312 116.822C88.288 116.323 88.288 116.213 88.842 114.745C89.8114 112.141 89.6452 110.673 88.0387 107.598C86.5984 104.828 85.8228 102.446 85.8228 100.674C85.8228 100.092 86.3214 98.0976 86.9585 96.2418C90.1715 86.7134 89.7837 79.9272 85.4073 68.5706C83.4407 63.474 83.3299 62.7816 84.244 61.8675C85.2411 60.8703 86.9861 60.898 88.9251 61.8675ZM70.2837 76.4925C70.7546 78.4314 71.5025 79.7333 72.7489 80.8689L73.8569 81.8661L72.9982 82.2262C72.5273 82.4201 71.5579 82.5863 70.8377 82.5863C68.5941 82.5863 67.2092 81.229 67.2092 79.0131C67.2092 77.6836 67.6246 76.8249 68.8711 75.4676C69.7021 74.5813 69.8406 74.6921 70.2837 76.4925ZM108.342 80.0934C107.788 80.5642 106.819 81.2844 106.209 81.6999L105.074 82.4755L104.603 81.8384C104.132 81.2567 102.719 78.0713 102.331 76.7418C102.165 76.1878 102.276 76.077 103.467 75.7446L104.797 75.3568L107.096 77.2958L109.367 79.2624L108.342 80.0934ZM84.5763 82.7524C84.6871 83.6665 84.6871 85.4115 84.5763 86.5749L84.3825 88.7354L83.1083 89.5941C80.8924 91.0898 79.369 91.6992 78.0117 91.7269C76.9315 91.7546 76.5714 91.6161 75.8235 90.9236C74.7986 89.9542 74.1893 88.6523 74.1893 87.4613C74.1893 86.7411 74.3832 86.5472 75.8512 85.7993C76.7653 85.3284 78.3441 84.2482 79.3413 83.3895C80.9755 82.0323 82.6097 81.229 84.0778 81.1182C84.244 81.0905 84.4656 81.783 84.5763 82.7524Z" fill="url(#paint0_linear_50_5460)"/>
<path d="M81.391 21.9811C77.07 23.1998 75.8512 23.643 75.3804 24.197C75.0203 24.5848 74.7433 25.1111 74.7433 25.3604C74.7433 25.6096 75.6296 29.0166 76.6822 32.8944C78.2887 38.7943 78.7319 40.0684 79.3136 40.567C79.7291 40.9271 80.2 41.2041 80.4216 41.2041C80.6431 41.2041 83.5238 40.4562 86.8477 39.5422C93.1076 37.8525 93.8555 37.4648 93.8555 36.1352C93.8555 35.0827 89.95 21.3994 89.5068 20.9285C88.7866 20.153 87.2632 20.3469 81.391 21.9811ZM87.651 29.8476C88.3434 32.3405 88.842 34.3625 88.8143 34.4179C88.5373 34.5841 82.3328 36.1629 82.2497 36.0798C82.0558 35.8582 79.7568 27.2439 79.8676 27.1331C80.0061 26.9669 86.2106 25.2219 86.3214 25.305C86.3768 25.3327 86.9585 27.3824 87.651 29.8476Z" fill="url(#paint1_linear_50_5460)"/>
<path d="M43.7206 16.7183C32.6687 19.2112 23.3619 23.4491 16.0494 29.2936C-3.33983 44.8049 -5.38954 67.9612 11.1467 85.1899C23.0295 97.5713 42.3079 104.441 63.2483 103.693C70.8654 103.443 72.8044 103.166 73.5799 102.28C74.3555 101.366 74.3555 100.424 73.5522 99.4825C72.7767 98.5961 72.749 98.5961 66.5721 99.067C52.9166 100.147 39.8981 97.876 28.8463 92.447C16.9911 86.6579 8.98617 78.2652 5.8285 68.349C2.61543 58.1835 4.94214 47.8795 12.5039 38.822C18.4592 31.7034 28.0984 25.7481 39.0117 22.5351C41.7262 21.7318 48.7063 20.153 49.565 20.153C49.8697 20.153 50.5068 19.7652 50.9777 19.322C51.6701 18.6018 51.7809 18.3248 51.6424 17.577C51.4208 16.3582 50.5622 15.7211 49.1495 15.7488C48.5402 15.7488 46.075 16.192 43.7206 16.7183Z" fill="url(#paint2_linear_50_5460)"/>
<path d="M44.136 35.4151C42.5572 36.3015 42.5295 37.3263 43.9698 40.4009C49.7312 52.7546 49.7866 65.5515 44.136 78.2929C42.7511 81.4229 42.6403 82.2262 43.4435 83.0294C45.0224 84.6083 46.4073 83.8881 47.9031 80.675C52.4734 70.925 53.8583 59.9009 51.7532 49.8739C50.756 45.082 47.6261 36.6892 46.4627 35.7475C45.8533 35.2489 44.7454 35.0827 44.136 35.4151Z" fill="url(#paint3_linear_50_5460)"/>
<path d="M34.6907 39.653C33.1672 40.3178 33.0841 41.4258 34.4137 44.3342C36.8789 49.7354 37.9591 54.278 37.9868 59.3469C37.9868 64.4712 36.9066 69.2077 34.4137 74.6367C33.0841 77.5728 33.1949 78.7361 34.8291 79.4286C36.6019 80.1488 37.4882 79.0962 39.6764 73.4734C43.7482 63.2248 43.4158 53.8626 38.6793 43.0046C37.1835 39.5699 36.408 38.9329 34.6907 39.653Z" fill="url(#paint4_linear_50_5460)"/>
<path d="M24.8577 43.974C24.6084 44.1125 24.2483 44.611 24.0544 45.0542C23.7497 45.8021 23.8328 46.0791 24.8577 48.2396C28.7909 56.4662 28.8186 62.5045 24.8854 70.6757C23.8882 72.7254 23.8051 73.0578 24.0821 73.861C24.4422 74.8582 25.0515 75.2737 26.1872 75.2737C27.406 75.2737 27.7937 74.8305 29.2895 71.6728C31.4223 67.1856 32.1702 64.0556 32.1702 59.4853C32.1702 56.3 32.0594 55.3305 31.4223 52.9761C30.619 50.04 28.2369 44.6387 27.4614 44.0294C26.9074 43.6416 25.4947 43.6139 24.8577 43.974Z" fill="url(#paint5_linear_50_5460)"/>
<path d="M16.631 49.403C15.4123 50.2617 15.3569 51.0096 16.4094 53.3363C18.4037 57.7127 18.3206 61.8675 16.1878 66.0777C15.8 66.8533 15.4677 67.7674 15.4677 68.0721C15.4677 68.9861 16.6864 70.011 17.7667 70.011C18.9023 70.011 19.6225 69.3185 20.5642 67.2411C22.8079 62.3384 22.8079 56.7155 20.5365 51.6743C19.4286 49.1814 18.0713 48.3782 16.631 49.403Z" fill="url(#paint6_linear_50_5460)"/>
</g>
<defs>
<linearGradient id="paint0_linear_50_5460" x1="52.4189" y1="65.109" x2="135.383" y2="65.109" gradientUnits="userSpaceOnUse">
<stop stop-color="#6167F2"/>
<stop offset="0.483529" stop-color="#00B5EE"/>
<stop offset="1" stop-color="#55F5FF"/>
</linearGradient>
<linearGradient id="paint1_linear_50_5460" x1="73.9469" y1="30.8469" x2="94.9505" y2="30.8469" gradientUnits="userSpaceOnUse">
<stop stop-color="#6167F2"/>
<stop offset="0.483529" stop-color="#00B5EE"/>
<stop offset="1" stop-color="#55F5FF"/>
</linearGradient>
<linearGradient id="paint2_linear_50_5460" x1="-3.08992" y1="59.748" x2="78.4068" y2="59.748" gradientUnits="userSpaceOnUse">
<stop stop-color="#6167F2"/>
<stop offset="0.483529" stop-color="#00B5EE"/>
<stop offset="1" stop-color="#55F5FF"/>
</linearGradient>
<linearGradient id="paint3_linear_50_5460" x1="42.5115" y1="59.5386" x2="53.2752" y2="59.5386" gradientUnits="userSpaceOnUse">
<stop stop-color="#6167F2"/>
<stop offset="0.483529" stop-color="#00B5EE"/>
<stop offset="1" stop-color="#55F5FF"/>
</linearGradient>
<linearGradient id="paint4_linear_50_5460" x1="33.1021" y1="59.5089" x2="43.0166" y2="59.5089" gradientUnits="userSpaceOnUse">
<stop stop-color="#6167F2"/>
<stop offset="0.483529" stop-color="#00B5EE"/>
<stop offset="1" stop-color="#55F5FF"/>
</linearGradient>
<linearGradient id="paint5_linear_50_5460" x1="23.5545" y1="59.497" x2="32.644" y2="59.497" gradientUnits="userSpaceOnUse">
<stop stop-color="#6167F2"/>
<stop offset="0.483529" stop-color="#00B5EE"/>
<stop offset="1" stop-color="#55F5FF"/>
</linearGradient>
<linearGradient id="paint6_linear_50_5460" x1="15.1853" y1="59.49" x2="22.6317" y2="59.49" gradientUnits="userSpaceOnUse">
<stop stop-color="#6167F2"/>
<stop offset="0.483529" stop-color="#00B5EE"/>
<stop offset="1" stop-color="#55F5FF"/>
</linearGradient>
<clipPath id="clip0_50_5460">
<rect width="130" height="130" fill="white"/>
</clipPath>
</defs>
</svg>
