<svg width="50" height="50" viewBox="0 0 50 50" fill="none" xmlns="http://www.w3.org/2000/svg">
<path d="M20.2117 7.49452C20.2482 7.63055 21.0206 7.52076 22.0862 7.23524C24.2173 6.6642 26.8996 6.69878 28.7721 7.33911C29.4422 7.57266 30.0244 7.65965 30.0681 7.55074C30.2082 7.07583 26.8084 6.35871 24.7311 6.40504C22.9955 6.45701 20.1206 7.15444 20.2117 7.49452Z" fill="url(#paint0_linear_52_4733)"/>
<path d="M19.5721 8.73534C17.635 9.6675 16.4281 10.6956 15.4307 12.3236C14.3608 14.044 14.5471 14.2856 15.6745 12.5985C16.7521 10.9976 17.6945 10.1618 19.4443 9.2556C21.4766 8.22505 23.6652 7.6872 25.3981 7.80608C27.1762 7.91281 29.3208 8.48024 30.5735 9.16516C31.0622 9.44731 31.4509 9.53756 31.4084 9.37885C31.2869 8.92542 29.6577 8.19559 27.8232 7.78805C24.617 7.06768 22.5883 7.29539 19.5721 8.73534Z" fill="url(#paint1_linear_52_4733)"/>
<path d="M20.5844 9.33878C20.0845 9.74004 20.2492 9.72019 22.3456 9.10988C26.0516 8.06824 29.5618 8.92584 32.4362 11.5819C34.1481 13.1644 34.7101 14.0829 35.2812 16.2141C35.9721 18.7019 35.863 21.0153 34.9433 23.2057C33.6513 26.2735 33.576 26.5366 33.825 27.4662C34.0012 28.1237 34.2571 28.4439 34.826 28.7532C35.82 29.2887 35.9118 28.9968 34.9328 28.3357C34.5121 28.0354 34.1247 27.6775 34.0943 27.5641C33.9363 26.9747 34.3488 25.4305 34.9928 24.1158C36.3472 21.3716 36.4846 18.7104 35.4102 15.4262C34.8822 13.8181 34.576 13.2198 33.81 12.3559C31.9417 10.2807 29.7736 8.9906 27.4083 8.50659C24.9977 8.03473 21.7309 8.44838 20.5844 9.33878Z" fill="url(#paint2_linear_52_4733)"/>
<path d="M17.7019 11.2775C16.3623 12.5355 14.1905 15.7661 14.5642 15.9818C14.6792 16.0482 15.1743 15.3567 15.7115 14.4594C16.2652 13.5335 17.3024 12.235 18.0983 11.4871C18.8776 10.768 19.4136 10.1384 19.282 10.1008C19.1504 10.0631 18.4419 10.5932 17.7019 11.2775Z" fill="url(#paint3_linear_52_4733)"/>
<path d="M19.78 10.5993C18.2497 11.6897 17.1628 13.0744 15.7642 15.5632C14.9797 16.9884 14.4021 18.1881 14.4596 18.2213C14.7183 18.3707 15.8396 16.6608 16.2812 15.4976C17.0228 13.5493 19.0416 11.3803 20.9788 10.4482C22.4869 9.72817 25.2306 9.35748 26.9606 9.64721C30.7291 10.2898 34.1489 13.8932 34.8145 17.9187C35.1207 19.8778 34.8354 21.5337 33.7631 23.7893C32.724 25.9874 32.5962 26.5077 32.8634 27.5052C33.1429 28.5481 35.2678 30.3115 35.5831 29.7653C35.6329 29.6791 35.3438 29.4164 34.9187 29.1901C34.4936 28.9638 33.8988 28.4671 33.602 28.0849C33.1189 27.4611 33.093 27.2736 33.1933 26.4691C33.2532 25.9671 33.6677 24.8841 34.0976 24.0399C35.0962 22.1442 35.4462 20.2766 35.2307 18.2932C34.7765 13.968 31.2611 10.0987 27.0735 9.25246C25.5885 8.97 25.1787 8.98258 22.984 9.49776C21.2942 9.90196 20.3148 10.2373 19.78 10.5993Z" fill="url(#paint4_linear_52_4733)"/>
<path d="M21.5432 10.8312C20.842 11.1163 19.7829 11.7889 19.1485 12.3234C18.0097 13.3332 16.1112 16.2233 16.4351 16.5253C16.5274 16.5977 17.0618 15.8714 17.6487 14.8879C18.7607 12.9619 20.0173 11.8476 22.0468 10.9879C23.9525 10.21 26.7148 10.2717 28.8992 11.1686C30.8082 11.945 33.0323 14.5323 33.5851 16.5954C33.7127 17.0715 33.9293 17.4266 34.0427 17.3962C34.6322 17.2383 33.2121 14.3869 31.7965 12.8223C29.2396 10.0812 25.2637 9.29971 21.5432 10.8312Z" fill="url(#paint5_linear_52_4733)"/>
<path d="M20.9218 12.1402C19.3899 13.1339 18.7875 13.8785 17.1173 16.8045C16.3433 18.1783 15.3366 19.5902 14.8819 19.9793C14.4046 20.3745 14.0468 20.7619 14.0711 20.8526C14.2594 21.5555 16.2916 19.1642 17.6946 16.6013C19.4899 13.3258 20.5955 12.3734 23.3841 11.6262C25.7647 10.9883 26.7975 11.1247 29.0669 12.3391C29.8309 12.7419 30.4208 12.9483 30.3783 12.7896C30.2446 12.2908 27.983 11.1958 26.5615 10.9692C24.7286 10.6585 22.4703 11.1178 20.9218 12.1402Z" fill="url(#paint6_linear_52_4733)"/>
<path d="M22.2664 12.5328C20.447 13.3605 19.4171 14.4141 18.0849 16.7879C16.8915 18.9544 14.8007 21.5801 14.1432 21.7563C13.9845 21.7988 13.8727 21.926 13.9092 22.062C14.1218 22.8555 16.5589 20.1614 18.3198 17.211C19.9916 14.3816 20.9778 13.437 23.0316 12.668C23.7781 12.3708 24.3477 12.048 24.3234 11.9573C24.2627 11.7306 23.6732 11.8886 22.2664 12.5328Z" fill="url(#paint7_linear_52_4733)"/>
<path d="M25.5665 12.0621C25.5968 12.1754 26.0203 12.305 26.539 12.3361C27.8621 12.4676 29.7019 13.5298 30.6558 14.7321C32.4411 16.951 32.6887 20.5053 31.2343 23.0577C30.8089 23.8278 30.7623 24.1075 31.0344 24.0346C31.5558 23.8949 32.3953 21.6774 32.5838 20.0231C32.6898 18.8769 32.5999 18.2692 32.137 16.8138C31.4708 14.781 30.6561 13.7358 29.0403 12.7837C27.724 12.0429 25.4328 11.5633 25.5665 12.0621Z" fill="url(#paint8_linear_52_4733)"/>
<path d="M32.368 10.2396C32.3984 10.353 32.6875 10.6157 33.0219 10.8663C33.4139 11.1501 33.5969 11.1983 33.5134 10.9776C33.4648 10.7962 33.2377 10.4926 33.0182 10.3084C32.5915 9.98537 32.2951 9.96758 32.368 10.2396Z" fill="url(#paint9_linear_52_4733)"/>
<path d="M21.3144 14.1491C20.7254 14.6714 19.4951 16.3375 18.4418 18.0291C17.0234 20.3532 16.3153 21.2476 15.2927 22.0562C14.5511 22.6437 13.9742 23.2114 13.9985 23.3021C14.0775 23.5968 14.2633 23.4741 15.7389 22.1796C16.766 21.2969 17.5631 20.2815 18.6811 18.3781C20.7408 14.9103 21.7767 13.8794 23.7265 13.3569C27.1046 12.4518 30.0882 14.1552 31.0039 17.4819C31.5368 19.3802 31.3042 20.779 30.0958 23.0711C29.5996 24.0302 29.1187 25.2283 29.0588 25.7303C28.8699 27.0202 29.4271 29.0093 30.1523 29.8112C30.8305 30.5286 34.4846 32.8299 34.802 32.7449C34.9154 32.7145 34.1481 32.1182 33.0496 31.4649C30.9661 30.1278 29.9004 29.0526 29.574 27.925C29.2156 26.5874 29.5296 24.9481 30.4995 23.0358C31.029 22.0192 31.5535 20.7122 31.6405 20.13C31.8837 18.6798 31.1989 16.2146 30.2223 15.0183C27.9843 12.2889 23.8668 11.8857 21.3144 14.1491Z" fill="url(#paint10_linear_52_4733)"/>
<path d="M22.0119 14.6669C21.4229 15.1892 21.4229 15.1892 22.4006 14.7571C25.6118 13.4107 28.3508 14.1104 29.7146 16.661C30.701 18.4378 30.6088 19.7261 29.3362 22.5943C27.9534 25.6863 27.8824 28.2325 29.153 29.9818C29.8118 30.8988 32.2241 32.8282 33.3829 33.3439C34.9607 34.0632 34.7259 33.6401 32.9314 32.5658C28.4497 29.8058 27.6261 27.5479 29.5289 23.223C30.7081 20.55 30.959 19.2192 30.5641 17.7455C29.9688 15.5237 27.688 13.632 25.5698 13.6164C24.277 13.5982 22.7248 14.0628 22.0119 14.6669Z" fill="url(#paint11_linear_52_4733)"/>
<path d="M22.2793 15.6642C21.8534 16.0699 20.9251 17.4121 20.2115 18.6483C18.8854 21.0448 17.6065 22.5295 15.537 24.056C14.1201 25.1161 13.6626 25.676 14.6221 25.176C14.9832 24.982 16.1131 24.1203 17.1341 23.215C18.717 21.8675 19.2242 21.2212 20.3634 19.2151C22.0773 16.18 22.6254 15.5958 24.1671 15.1827C26.5703 14.5387 28.7551 15.8001 29.3929 18.1806C29.6845 19.2689 29.4923 20.3653 28.6868 21.8933C26.9385 25.2534 26.9339 29.0454 28.6872 31.0541C29.4306 31.9241 33.9228 34.6327 34.1114 34.3391C34.1551 34.2302 33.1186 33.536 31.7736 32.7786C29.8188 31.65 29.2362 31.1986 28.6227 30.2695C27.9684 29.2785 27.8606 28.9671 27.7941 27.7214C27.683 25.8558 28.0214 24.3072 29.0649 22.035C29.5203 21.0139 29.921 19.7887 29.9582 19.2928C30.0528 17.4692 28.7109 15.5446 26.8489 14.8529C25.3363 14.2862 23.418 14.6544 22.2793 15.6642Z" fill="url(#paint12_linear_52_4733)"/>
<path d="M19.3917 18.3091C18.1214 20.642 16.6462 22.3008 14.7427 23.5399C14.303 23.8035 13.9784 24.1335 14.0087 24.2468C14.1363 24.7229 17.1195 22.3441 18.3907 20.7399C19.378 19.5277 21.1761 16.0813 20.8615 15.9955C20.736 15.9806 20.0871 17.0049 19.3917 18.3091Z" fill="url(#paint13_linear_52_4733)"/>
<path d="M14.8533 18.6019C14.3853 19.2133 14.1093 19.7247 14.2348 19.7396C14.6052 19.7619 16.1889 17.7823 15.9694 17.5981C15.7666 17.3852 15.8617 17.2868 14.8533 18.6019Z" fill="url(#paint14_linear_52_4733)"/>
<path d="M22.8968 16.1549C22.5887 16.4561 21.7496 17.6772 21.0812 18.9012C20.4068 20.1025 19.6086 21.3856 19.296 21.7609C19.0001 22.1075 18.8236 22.4464 18.9159 22.5188C19.2034 22.6848 21.0781 20.0684 21.6857 18.6177C22.9567 15.6528 25.6077 14.8453 27.6285 16.8553C28.0221 17.2358 28.361 17.4123 28.3698 17.2641C28.4054 16.6714 27.1312 15.7249 25.9939 15.4708C24.6797 15.1911 23.7154 15.4009 22.8968 16.1549Z" fill="url(#paint15_linear_52_4733)"/>
<path d="M31.7236 14.9077C33.3562 17.1918 33.3601 20.4712 31.7191 23.7782C30.9046 25.4544 30.8087 26.1848 31.1732 27.5451C31.5134 28.8147 32.4536 29.875 33.9181 30.6247C35.1874 31.2809 35.9449 31.2966 35.0294 30.6914C34.5513 30.3578 34.5452 30.3352 34.9521 30.4934C35.9096 30.8929 35.599 30.3687 34.6111 29.8558C32.0907 28.6115 31.7578 27.0969 33.2883 23.6493C34.1388 21.7448 34.6733 18.6613 34.2134 18.3958C34.1271 18.346 34.032 18.4444 34.0352 18.6379C33.8354 20.9756 33.6023 22.01 32.8891 23.6105C32.105 25.4001 31.7623 27.0228 31.9931 27.8843C32.0478 28.0884 32.4098 28.6232 32.7867 29.0325L33.4832 29.8178L32.775 29.3515C31.1863 28.3192 30.9541 26.3646 32.1138 23.8911C33.7577 20.4132 33.7825 17.1504 32.224 14.8708C31.8332 14.3194 31.3927 13.8542 31.2218 13.8514C31.0449 13.8259 31.2223 14.2158 31.7236 14.9077ZM34.0929 30.189C34.4849 30.4728 34.4683 30.5016 34.0492 30.2979C33.5848 30.1065 33.4229 29.9555 33.6042 29.9069C33.6496 29.8947 33.8796 30.0275 34.0929 30.189Z" fill="url(#paint16_linear_52_4733)"/>
<path d="M23.5688 16.8496C23.3559 17.0524 22.5454 18.2902 21.7593 19.6186C20.1539 22.3329 18.0127 24.6805 15.789 26.1755C14.9837 26.7071 14.3267 27.2477 14.351 27.3384C14.436 27.6558 14.921 27.38 16.4663 26.1641C19.5009 23.7958 20.4506 22.7151 21.9925 19.9449C23.2146 17.795 23.6433 17.2184 24.2931 16.9228C25.7453 16.2664 27.1417 17.0343 27.5974 18.7347C27.8464 19.6642 27.0474 21.5793 25.1792 24.5827C23.8482 26.6889 21.1569 29.1597 18.1307 31.0154C17.1109 31.6532 16.0684 32.297 15.8494 32.4772C15.4899 32.7679 15.496 32.7906 16.0175 32.6508C16.7944 32.467 21.1015 29.5876 22.5544 28.2992C24.6915 26.3901 27.0398 22.8206 27.989 20.0148C28.8357 17.5524 25.4067 15.0935 23.5688 16.8496Z" fill="url(#paint17_linear_52_4733)"/>
<path d="M22.7013 19.7792C20.7385 23.2454 18.8435 25.3326 16.0319 27.0823C15.2205 27.5913 14.5574 28.1091 14.5817 28.1998C14.6486 28.4492 16.9541 27.0782 18.2124 26.0606C19.392 25.1127 22.4298 21.5772 22.6966 20.8496C23.2572 19.3143 24.2684 17.8284 24.8579 17.6705C25.538 17.4882 26.2385 17.8351 26.6656 18.5225C27.105 19.2553 26.2954 21.2218 24.4163 23.9123C22.4254 26.7299 20.2567 28.7933 17.652 30.3174C16.75 30.8507 15.8314 31.4127 15.6124 31.5929C15.2468 31.8609 15.2529 31.8836 15.7744 31.7439C16.7553 31.5053 19.1997 29.927 21.0575 28.3357C23.5829 26.1525 27.1238 21.0484 27.1884 19.4759C27.2312 18.6383 26.5858 17.4991 25.9157 17.2655C24.6784 16.8195 24.1331 17.2329 22.7013 19.7792Z" fill="url(#paint18_linear_52_4733)"/>
<path d="M23.808 19.5555C23.5064 20.2438 23.3287 20.8503 23.415 20.9001C23.53 20.9665 23.7413 20.6669 23.9388 20.2252C24.6233 18.6081 24.8075 18.3886 25.3504 18.5105C26.1792 18.7015 26.1254 19.2262 25.0421 21.1688C23.3796 24.2143 21.0349 26.981 18.8233 28.5213C17.0452 29.7753 17.0452 29.7753 17.3477 29.8157C17.7181 29.838 20.2046 28.0539 21.2964 26.9595C23.1554 25.1006 25.7393 21.3222 26.2635 19.6509C26.4744 18.9869 26.4501 18.8962 25.9703 18.4659C25.1439 17.7396 24.4609 18.0927 23.808 19.5555Z" fill="url(#paint19_linear_52_4733)"/>
<path d="M23.9762 21.0902C22.1627 24.2977 19.0232 27.5446 16.1978 29.1521C15.4424 29.5975 14.8291 30.0292 14.8534 30.1199C14.9263 30.3919 15.1635 30.2798 16.7242 29.3027C19.4058 27.6122 22.1603 24.8329 24.024 21.9036C25.0563 20.3148 25.5327 19.1909 25.1473 19.2941C25.0566 19.3184 24.5239 20.1416 23.9762 21.0902Z" fill="url(#paint20_linear_52_4733)"/>
<path d="M28.571 18.7412C28.7837 19.5347 28.1899 21.1275 26.8439 23.3592C24.7677 26.8558 21.9181 29.7334 18.3737 31.9224C17.3312 32.5662 16.3114 33.204 16.0924 33.3841C15.6937 33.7097 15.6937 33.7097 16.1471 33.5882C17.911 33.1884 23.1314 29.0924 25.2057 26.4954C27.0399 24.1815 28.5336 21.5943 28.8117 20.1833C29.1184 18.7889 29.0694 18.2432 28.7066 18.3404C28.5933 18.3707 28.5224 18.5598 28.571 18.7412Z" fill="url(#paint21_linear_52_4733)"/>
<path d="M16.8994 24.1526C16.3164 24.6976 15.4282 25.373 14.9493 25.6714C14.4704 25.9698 14.1457 26.2998 14.238 26.3723C14.5619 26.6743 18.2658 23.8107 18.1443 23.3573C18.0653 23.0626 18.1726 23.0095 16.8994 24.1526Z" fill="url(#paint22_linear_52_4733)"/>
<path d="M21.9353 22.6332C21.2415 24.0341 18.8267 26.3578 16.7086 27.7029C15.5256 28.4573 14.586 29.1222 14.6164 29.2355C14.744 29.7116 18.7685 26.9566 20.2558 25.3431C21.8941 23.5676 23.1001 21.8108 22.5952 21.9218C22.3912 21.9764 22.1118 22.2943 21.9353 22.6332Z" fill="url(#paint23_linear_52_4733)"/>
<path d="M26.6979 25.172C25.9608 27.0462 20.8487 31.8179 17.9868 33.2895C17.1119 33.7426 16.4306 34.1924 16.461 34.3058C16.5278 34.5552 16.6804 34.49 18.4573 33.5036C22.0049 31.5081 26.8208 26.7186 27.2886 24.7464C27.4525 23.9978 27.0477 24.3007 26.6979 25.172Z" fill="url(#paint24_linear_52_4733)"/>
<path d="M35.3178 24.1504C34.2986 26.5132 34.265 27.5671 35.1849 28.0982C35.5072 28.3034 35.7582 28.3334 35.7218 28.1974C35.6793 28.0387 35.54 27.8816 35.3857 27.85C34.6991 27.6452 34.8156 26.4476 35.6688 24.3722C36.1558 23.1969 36.5492 22.2166 36.5371 22.1713C36.4399 21.8085 36.0521 22.4471 35.3178 24.1504Z" fill="url(#paint25_linear_52_4733)"/>
<path d="M30.1835 25.5746C30.096 25.7924 30.035 26.5621 30.0812 27.2787C30.1416 28.5018 30.2068 28.6544 30.9956 29.5122C31.8252 30.432 34.9464 32.1957 35.1456 31.8508C35.2181 31.7584 34.4751 31.2528 33.5159 30.7566C31.2587 29.5875 30.7364 28.9985 30.5063 27.505C30.433 26.8685 30.4365 26.0657 30.5616 25.7163C30.7664 25.0296 30.4745 24.9377 30.1835 25.5746Z" fill="url(#paint26_linear_52_4733)"/>
<path d="M25.8756 27.7251C25.6598 28.0988 24.8611 29.0175 24.0531 29.7201C22.573 31.0886 22.1808 31.8012 23.4904 30.7942C24.2321 30.2067 24.9826 29.471 25.8825 28.4766L26.3521 27.9619L26.668 29.1409C26.8398 29.8724 27.205 30.6008 27.5471 30.9708C28.463 31.9403 28.6683 31.6181 27.8083 30.5849C27.0754 29.6635 26.8627 28.87 26.9003 27.3777C26.9221 26.6428 26.3613 26.8174 25.8756 27.7251Z" fill="url(#paint27_linear_52_4733)"/>
<path d="M15.5719 30.5347C15.0189 30.8287 14.714 31.3235 15.1675 31.202C15.757 31.044 16.4322 30.5715 16.3775 30.3674C16.3229 30.1634 16.2488 30.1589 15.5719 30.5347Z" fill="url(#paint28_linear_52_4733)"/>
<path d="M35.2177 26.3153C35.1113 27.0971 35.4008 27.7242 35.8089 27.6149C35.9223 27.5845 36.0052 27.4408 35.9749 27.3274C35.9384 27.1914 35.8008 27.1311 35.6874 27.1615C35.5514 27.1979 35.5117 26.8684 35.5655 26.3436C35.6314 25.8643 35.6022 25.4833 35.5115 25.5076C35.3982 25.538 35.2731 25.8874 35.2177 26.3153Z" fill="url(#paint29_linear_52_4733)"/>
<path d="M24.873 30.0594C23.8354 30.9935 23.7783 31.3246 24.7079 31.0756C24.9573 31.0087 25.6014 31.0548 26.1383 31.154C26.8581 31.3013 27.0743 31.292 27.0136 31.0652C26.965 30.8839 26.7969 30.7102 26.6366 30.656C26.4823 30.6244 26.3111 30.2572 26.2592 29.8823C26.23 29.5013 26.1223 29.19 26.0421 29.1629C25.962 29.1358 25.4167 29.5492 24.873 30.0594ZM25.8333 30.288C25.8637 30.4014 25.7354 30.5573 25.5313 30.6119C25.3499 30.6605 25.2289 30.5715 25.2665 30.4399C25.2981 30.2856 25.4325 30.1524 25.5685 30.116C25.6819 30.0856 25.7969 30.152 25.8333 30.288Z" fill="url(#paint30_linear_52_4733)"/>
<path d="M19.9023 33.0924C19.2209 33.5423 18.2449 34.0711 17.725 34.3076C17.2218 34.5154 16.7716 34.8304 16.7174 34.9907C16.615 35.334 18.4012 34.5638 20.0177 33.5232C21.9893 32.2659 23.082 31.9002 24.801 31.877C26.7197 31.8732 28.3092 32.2735 29.9765 33.2361C30.6664 33.6344 31.2912 33.8801 31.341 33.7939C31.5401 33.4489 28.28 31.8925 26.7435 31.5995C24.773 31.2284 21.7892 31.8821 19.9023 33.0924Z" fill="url(#paint31_linear_52_4733)"/>
<path d="M21.1545 33.4129C20.8719 33.5372 20.6878 33.7567 20.7181 33.87C20.7546 34.006 21.0781 33.9437 21.5918 33.6845C22.9412 33.0071 25.1148 32.5947 26.4047 32.7837C27.1699 32.9188 28.6328 33.5717 30.409 34.5781C31.9779 35.4456 33.2699 36.0957 33.3031 36.0382C33.3529 35.9519 32.15 35.1808 30.6491 34.2951C27.1873 32.2581 26.1816 32.0416 23.5561 32.6722C22.4905 32.9577 21.4084 33.272 21.1545 33.4129Z" fill="url(#paint32_linear_52_4733)"/>
<path d="M18.3185 35.0719C17.2805 35.6416 16.8214 36.1048 17.4789 35.9287C18.1818 35.7403 19.7485 34.7859 19.6938 34.5819C19.6331 34.3552 19.6331 34.3552 18.3185 35.0719Z" fill="url(#paint33_linear_52_4733)"/>
<path d="M22.0561 33.8757C21.8249 34.0106 21.0302 34.4908 20.2748 34.9362C19.5193 35.3816 18.6566 35.8801 18.3348 36.0392C17.9963 36.2271 17.7607 36.4361 17.7911 36.5494C17.8458 36.7535 18.6587 36.3412 21.4161 34.7519C23.0342 33.808 24.9176 33.4006 26.3739 33.6665C26.9395 33.7822 28.5975 34.5286 30.0515 35.3297C31.4827 36.1369 32.6536 36.6979 32.6233 36.5846C32.5078 36.1538 27.5213 33.5048 26.3962 33.296C25.265 33.0645 22.9642 33.3651 22.0561 33.8757Z" fill="url(#paint34_linear_52_4733)"/>
<path d="M20.5797 35.8024C19.3725 36.466 18.4207 37.0856 18.445 37.1763C18.5179 37.4483 18.9365 37.2875 21.017 36.074C23.2501 34.7952 24.6149 34.3567 25.87 34.5063C26.3494 34.5723 27.9786 35.3021 29.4673 36.1425C30.9561 36.9828 32.1497 37.5378 32.1193 37.4245C32.0889 37.3111 30.8059 36.5128 29.2884 35.6559C25.4318 33.506 24.6124 33.5311 20.5797 35.8024Z" fill="url(#paint35_linear_52_4733)"/>
<path d="M20.8621 36.6742C19.0536 37.8149 18.9751 37.8845 19.2111 38.04C19.3201 38.0837 20.3415 37.5427 21.5305 36.811C23.8632 35.3598 24.6794 35.1411 26.2236 35.5535C27.2188 35.8214 27.3155 35.8198 27.2365 35.5251C27.2062 35.4117 26.6904 35.2097 26.0794 35.1061C24.5943 34.8237 22.9741 35.3064 20.8621 36.6742Z" fill="url(#paint36_linear_52_4733)"/>
<path d="M22.0767 37.1266C21.4634 37.5582 20.7185 37.9522 20.4464 38.0251C20.1578 38.1268 19.9614 38.3009 19.9979 38.4369C20.0829 38.7543 21.0546 38.2996 22.8569 37.1363C24.7046 35.9608 25.5257 36.0324 28.3246 37.5908C29.5486 38.2592 30.5183 38.704 30.4697 38.5227C30.3846 38.2052 26.7354 36.1942 25.7977 35.9595C25.0143 35.7563 23.4002 36.2617 22.0767 37.1266Z" fill="url(#paint37_linear_52_4733)"/>
<path d="M32.7543 34.8972C33.1794 35.1235 33.5908 35.2077 33.6633 35.1153C33.7734 34.8914 32.5737 34.3138 32.1883 34.4171C32.0522 34.4535 32.3065 34.677 32.7543 34.8972Z" fill="url(#paint38_linear_52_4733)"/>
<path d="M22.6174 37.7837C21.936 38.2335 21.232 38.6895 21.0688 38.8061C20.8211 38.9697 20.8559 39.0089 21.1915 38.9919C21.4365 38.9992 22.2721 38.5809 23.032 38.0614C24.9189 36.8511 25.4315 36.8595 27.6466 38.2342C28.6649 38.8605 29.5317 39.2843 29.5981 39.1693C29.7475 38.9106 26.5096 36.9837 25.578 36.7716C24.6978 36.5701 24.1432 36.7673 22.6174 37.7837Z" fill="url(#paint39_linear_52_4733)"/>
<path d="M27.7693 36.0628C27.6713 36.332 31.0209 38.1317 31.4063 38.0285C31.5424 37.992 30.7994 37.4864 29.7872 36.8828C27.7401 35.6818 27.8551 35.7482 27.7693 36.0628Z" fill="url(#paint40_linear_52_4733)"/>
<path d="M24.1416 38.0312C24.0874 38.1915 24.3611 38.2154 24.7919 38.1C25.3813 37.942 25.7821 38.0776 26.9215 38.7929C27.6871 39.2924 28.3754 39.594 28.4479 39.5017C28.5746 39.249 26.5469 37.8484 25.7922 37.6618C25.089 37.4858 24.238 37.6652 24.1416 38.0312Z" fill="url(#paint41_linear_52_4733)"/>
<path d="M22.2786 38.9677C21.928 39.1102 21.6923 39.3192 21.7288 39.4552C21.7652 39.5912 22.0207 39.5471 22.3592 39.3592C23.3579 38.8243 23.285 38.5522 22.2786 38.9677Z" fill="url(#paint42_linear_52_4733)"/>
<path d="M23.6347 39.0418C23.2752 39.3325 23.0019 39.673 23.0323 39.7864C23.0688 39.9224 23.3967 39.786 23.8181 39.4543C24.8241 38.6745 24.9209 38.6729 26.2886 39.4242C26.9437 39.7832 27.5911 40.0228 27.715 39.941C28.0473 39.7305 25.1472 38.2477 24.6771 38.398C24.4504 38.4587 23.9715 38.7571 23.6347 39.0418Z" fill="url(#paint43_linear_52_4733)"/>
<path d="M24.0967 39.7686C24.038 40.003 24.1348 40.0014 24.5186 39.8013C24.8344 39.6195 25.1987 39.6191 25.5376 39.7956C26.0429 40.049 26.0656 40.0429 25.8821 39.6304C25.6291 39.1393 24.2699 39.2362 24.0967 39.7686Z" fill="url(#paint44_linear_52_4733)"/>
<rect x="1" y="1" width="48" height="48" rx="5" stroke="url(#paint45_linear_52_4733)" stroke-width="2"/>
<defs>
<linearGradient id="paint0_linear_52_4733" x1="20.1389" y1="8.75563" x2="30.2457" y2="6.0475" gradientUnits="userSpaceOnUse">
<stop stop-color="#6167F2"/>
<stop offset="0.483529" stop-color="#00B5EE"/>
<stop offset="1" stop-color="#55F5FF"/>
</linearGradient>
<linearGradient id="paint1_linear_52_4733" x1="13.5523" y1="12.1341" x2="31.8552" y2="7.22981" gradientUnits="userSpaceOnUse">
<stop stop-color="#6167F2"/>
<stop offset="0.483529" stop-color="#00B5EE"/>
<stop offset="1" stop-color="#55F5FF"/>
</linearGradient>
<linearGradient id="paint2_linear_52_4733" x1="22.7088" y1="20.4959" x2="36.5749" y2="16.7805" gradientUnits="userSpaceOnUse">
<stop stop-color="#6167F2"/>
<stop offset="0.483529" stop-color="#00B5EE"/>
<stop offset="1" stop-color="#55F5FF"/>
</linearGradient>
<linearGradient id="paint3_linear_52_4733" x1="13.7198" y1="13.9002" x2="20.2103" y2="12.1611" gradientUnits="userSpaceOnUse">
<stop stop-color="#6167F2"/>
<stop offset="0.483529" stop-color="#00B5EE"/>
<stop offset="1" stop-color="#55F5FF"/>
</linearGradient>
<linearGradient id="paint4_linear_52_4733" x1="14.9976" y1="23.4821" x2="36.3997" y2="17.7474" gradientUnits="userSpaceOnUse">
<stop stop-color="#6167F2"/>
<stop offset="0.483529" stop-color="#00B5EE"/>
<stop offset="1" stop-color="#55F5FF"/>
</linearGradient>
<linearGradient id="paint5_linear_52_4733" x1="15.8815" y1="17.2598" x2="33.9669" y2="12.4138" gradientUnits="userSpaceOnUse">
<stop stop-color="#6167F2"/>
<stop offset="0.483529" stop-color="#00B5EE"/>
<stop offset="1" stop-color="#55F5FF"/>
</linearGradient>
<linearGradient id="paint6_linear_52_4733" x1="12.4682" y1="17.7423" x2="31.4039" y2="12.6685" gradientUnits="userSpaceOnUse">
<stop stop-color="#6167F2"/>
<stop offset="0.483529" stop-color="#00B5EE"/>
<stop offset="1" stop-color="#55F5FF"/>
</linearGradient>
<linearGradient id="paint7_linear_52_4733" x1="12.4869" y1="18.7945" x2="25.9412" y2="15.1894" gradientUnits="userSpaceOnUse">
<stop stop-color="#6167F2"/>
<stop offset="0.483529" stop-color="#00B5EE"/>
<stop offset="1" stop-color="#55F5FF"/>
</linearGradient>
<linearGradient id="paint8_linear_52_4733" x1="27.0218" y1="18.321" x2="32.4788" y2="16.8588" gradientUnits="userSpaceOnUse">
<stop stop-color="#6167F2"/>
<stop offset="0.483529" stop-color="#00B5EE"/>
<stop offset="1" stop-color="#55F5FF"/>
</linearGradient>
<linearGradient id="paint9_linear_52_4733" x1="32.4574" y1="10.721" x2="33.4315" y2="10.46" gradientUnits="userSpaceOnUse">
<stop stop-color="#6167F2"/>
<stop offset="0.483529" stop-color="#00B5EE"/>
<stop offset="1" stop-color="#55F5FF"/>
</linearGradient>
<linearGradient id="paint10_linear_52_4733" x1="14.1612" y1="26.856" x2="33.5924" y2="21.6494" gradientUnits="userSpaceOnUse">
<stop stop-color="#6167F2"/>
<stop offset="0.483529" stop-color="#00B5EE"/>
<stop offset="1" stop-color="#55F5FF"/>
</linearGradient>
<linearGradient id="paint11_linear_52_4733" x1="23.9688" y1="25.1468" x2="32.4128" y2="22.8842" gradientUnits="userSpaceOnUse">
<stop stop-color="#6167F2"/>
<stop offset="0.483529" stop-color="#00B5EE"/>
<stop offset="1" stop-color="#55F5FF"/>
</linearGradient>
<linearGradient id="paint12_linear_52_4733" x1="14.2355" y1="28.5278" x2="32.3309" y2="23.6791" gradientUnits="userSpaceOnUse">
<stop stop-color="#6167F2"/>
<stop offset="0.483529" stop-color="#00B5EE"/>
<stop offset="1" stop-color="#55F5FF"/>
</linearGradient>
<linearGradient id="paint13_linear_52_4733" x1="12.8657" y1="21.3938" x2="22.1814" y2="18.8976" gradientUnits="userSpaceOnUse">
<stop stop-color="#6167F2"/>
<stop offset="0.483529" stop-color="#00B5EE"/>
<stop offset="1" stop-color="#55F5FF"/>
</linearGradient>
<linearGradient id="paint14_linear_52_4733" x1="13.894" y1="18.9109" x2="16.2927" y2="18.2682" gradientUnits="userSpaceOnUse">
<stop stop-color="#6167F2"/>
<stop offset="0.483529" stop-color="#00B5EE"/>
<stop offset="1" stop-color="#55F5FF"/>
</linearGradient>
<linearGradient id="paint15_linear_52_4733" x1="17.7754" y1="20.0017" x2="28.9494" y2="17.0076" gradientUnits="userSpaceOnUse">
<stop stop-color="#6167F2"/>
<stop offset="0.483529" stop-color="#00B5EE"/>
<stop offset="1" stop-color="#55F5FF"/>
</linearGradient>
<linearGradient id="paint16_linear_52_4733" x1="29.8344" y1="23.4131" x2="35.5344" y2="21.8857" gradientUnits="userSpaceOnUse">
<stop stop-color="#6167F2"/>
<stop offset="0.483529" stop-color="#00B5EE"/>
<stop offset="1" stop-color="#55F5FF"/>
</linearGradient>
<linearGradient id="paint17_linear_52_4733" x1="13.2237" y1="26.3732" x2="29.8566" y2="21.9164" gradientUnits="userSpaceOnUse">
<stop stop-color="#6167F2"/>
<stop offset="0.483529" stop-color="#00B5EE"/>
<stop offset="1" stop-color="#55F5FF"/>
</linearGradient>
<linearGradient id="paint18_linear_52_4733" x1="13.2559" y1="26.3395" x2="28.8711" y2="22.1554" gradientUnits="userSpaceOnUse">
<stop stop-color="#6167F2"/>
<stop offset="0.483529" stop-color="#00B5EE"/>
<stop offset="1" stop-color="#55F5FF"/>
</linearGradient>
<linearGradient id="paint19_linear_52_4733" x1="15.5469" y1="25.4818" x2="27.9235" y2="22.1655" gradientUnits="userSpaceOnUse">
<stop stop-color="#6167F2"/>
<stop offset="0.483529" stop-color="#00B5EE"/>
<stop offset="1" stop-color="#55F5FF"/>
</linearGradient>
<linearGradient id="paint20_linear_52_4733" x1="13.3497" y1="26.577" x2="26.9918" y2="22.9215" gradientUnits="userSpaceOnUse">
<stop stop-color="#6167F2"/>
<stop offset="0.483529" stop-color="#00B5EE"/>
<stop offset="1" stop-color="#55F5FF"/>
</linearGradient>
<linearGradient id="paint21_linear_52_4733" x1="13.6518" y1="28.3163" x2="31.3257" y2="23.5805" gradientUnits="userSpaceOnUse">
<stop stop-color="#6167F2"/>
<stop offset="0.483529" stop-color="#00B5EE"/>
<stop offset="1" stop-color="#55F5FF"/>
</linearGradient>
<linearGradient id="paint22_linear_52_4733" x1="13.7815" y1="25.4344" x2="18.6259" y2="24.1363" gradientUnits="userSpaceOnUse">
<stop stop-color="#6167F2"/>
<stop offset="0.483529" stop-color="#00B5EE"/>
<stop offset="1" stop-color="#55F5FF"/>
</linearGradient>
<linearGradient id="paint23_linear_52_4733" x1="13.5909" y1="26.9694" x2="23.8841" y2="24.2113" gradientUnits="userSpaceOnUse">
<stop stop-color="#6167F2"/>
<stop offset="0.483529" stop-color="#00B5EE"/>
<stop offset="1" stop-color="#55F5FF"/>
</linearGradient>
<linearGradient id="paint24_linear_52_4733" x1="15.0699" y1="31.2159" x2="28.9273" y2="27.5028" gradientUnits="userSpaceOnUse">
<stop stop-color="#6167F2"/>
<stop offset="0.483529" stop-color="#00B5EE"/>
<stop offset="1" stop-color="#55F5FF"/>
</linearGradient>
<linearGradient id="paint25_linear_52_4733" x1="34.0055" y1="25.7258" x2="37.4349" y2="24.8069" gradientUnits="userSpaceOnUse">
<stop stop-color="#6167F2"/>
<stop offset="0.483529" stop-color="#00B5EE"/>
<stop offset="1" stop-color="#55F5FF"/>
</linearGradient>
<linearGradient id="paint26_linear_52_4733" x1="30.263" y1="29.1984" x2="34.3796" y2="28.0953" gradientUnits="userSpaceOnUse">
<stop stop-color="#6167F2"/>
<stop offset="0.483529" stop-color="#00B5EE"/>
<stop offset="1" stop-color="#55F5FF"/>
</linearGradient>
<linearGradient id="paint27_linear_52_4733" x1="22.296" y1="30.6222" x2="28.0407" y2="29.0829" gradientUnits="userSpaceOnUse">
<stop stop-color="#6167F2"/>
<stop offset="0.483529" stop-color="#00B5EE"/>
<stop offset="1" stop-color="#55F5FF"/>
</linearGradient>
<linearGradient id="paint28_linear_52_4733" x1="14.8235" y1="30.9488" x2="16.5065" y2="30.4978" gradientUnits="userSpaceOnUse">
<stop stop-color="#6167F2"/>
<stop offset="0.483529" stop-color="#00B5EE"/>
<stop offset="1" stop-color="#55F5FF"/>
</linearGradient>
<linearGradient id="paint29_linear_52_4733" x1="35.115" y1="26.7073" x2="35.864" y2="26.5067" gradientUnits="userSpaceOnUse">
<stop stop-color="#6167F2"/>
<stop offset="0.483529" stop-color="#00B5EE"/>
<stop offset="1" stop-color="#55F5FF"/>
</linearGradient>
<linearGradient id="paint30_linear_52_4733" x1="23.8844" y1="30.8954" x2="26.9197" y2="30.0821" gradientUnits="userSpaceOnUse">
<stop stop-color="#6167F2"/>
<stop offset="0.483529" stop-color="#00B5EE"/>
<stop offset="1" stop-color="#55F5FF"/>
</linearGradient>
<linearGradient id="paint31_linear_52_4733" x1="16.2778" y1="35.7285" x2="31.6356" y2="31.6133" gradientUnits="userSpaceOnUse">
<stop stop-color="#6167F2"/>
<stop offset="0.483529" stop-color="#00B5EE"/>
<stop offset="1" stop-color="#55F5FF"/>
</linearGradient>
<linearGradient id="paint32_linear_52_4733" x1="20.8894" y1="36.3764" x2="33.2015" y2="33.0774" gradientUnits="userSpaceOnUse">
<stop stop-color="#6167F2"/>
<stop offset="0.483529" stop-color="#00B5EE"/>
<stop offset="1" stop-color="#55F5FF"/>
</linearGradient>
<linearGradient id="paint33_linear_52_4733" x1="16.9671" y1="35.6045" x2="19.9208" y2="34.813" gradientUnits="userSpaceOnUse">
<stop stop-color="#6167F2"/>
<stop offset="0.483529" stop-color="#00B5EE"/>
<stop offset="1" stop-color="#55F5FF"/>
</linearGradient>
<linearGradient id="paint34_linear_52_4733" x1="17.514" y1="37.8202" x2="32.7124" y2="33.7477" gradientUnits="userSpaceOnUse">
<stop stop-color="#6167F2"/>
<stop offset="0.483529" stop-color="#00B5EE"/>
<stop offset="1" stop-color="#55F5FF"/>
</linearGradient>
<linearGradient id="paint35_linear_52_4733" x1="18.2221" y1="38.4604" x2="32.1748" y2="34.7218" gradientUnits="userSpaceOnUse">
<stop stop-color="#6167F2"/>
<stop offset="0.483529" stop-color="#00B5EE"/>
<stop offset="1" stop-color="#55F5FF"/>
</linearGradient>
<linearGradient id="paint36_linear_52_4733" x1="18.6125" y1="37.4227" x2="27.6019" y2="35.014" gradientUnits="userSpaceOnUse">
<stop stop-color="#6167F2"/>
<stop offset="0.483529" stop-color="#00B5EE"/>
<stop offset="1" stop-color="#55F5FF"/>
</linearGradient>
<linearGradient id="paint37_linear_52_4733" x1="19.8084" y1="39.3544" x2="30.522" y2="36.4837" gradientUnits="userSpaceOnUse">
<stop stop-color="#6167F2"/>
<stop offset="0.483529" stop-color="#00B5EE"/>
<stop offset="1" stop-color="#55F5FF"/>
</linearGradient>
<linearGradient id="paint38_linear_52_4733" x1="32.229" y1="34.9605" x2="33.6182" y2="34.5883" gradientUnits="userSpaceOnUse">
<stop stop-color="#6167F2"/>
<stop offset="0.483529" stop-color="#00B5EE"/>
<stop offset="1" stop-color="#55F5FF"/>
</linearGradient>
<linearGradient id="paint39_linear_52_4733" x1="20.7372" y1="39.6665" x2="29.6027" y2="37.291" gradientUnits="userSpaceOnUse">
<stop stop-color="#6167F2"/>
<stop offset="0.483529" stop-color="#00B5EE"/>
<stop offset="1" stop-color="#55F5FF"/>
</linearGradient>
<linearGradient id="paint40_linear_52_4733" x1="27.9872" y1="37.3914" x2="31.206" y2="36.529" gradientUnits="userSpaceOnUse">
<stop stop-color="#6167F2"/>
<stop offset="0.483529" stop-color="#00B5EE"/>
<stop offset="1" stop-color="#55F5FF"/>
</linearGradient>
<linearGradient id="paint41_linear_52_4733" x1="24.2699" y1="39.1977" x2="28.3178" y2="38.1131" gradientUnits="userSpaceOnUse">
<stop stop-color="#6167F2"/>
<stop offset="0.483529" stop-color="#00B5EE"/>
<stop offset="1" stop-color="#55F5FF"/>
</linearGradient>
<linearGradient id="paint42_linear_52_4733" x1="21.6389" y1="39.3553" x2="23.193" y2="38.9389" gradientUnits="userSpaceOnUse">
<stop stop-color="#6167F2"/>
<stop offset="0.483529" stop-color="#00B5EE"/>
<stop offset="1" stop-color="#55F5FF"/>
</linearGradient>
<linearGradient id="paint43_linear_52_4733" x1="22.9085" y1="40.0523" x2="27.7092" y2="38.7659" gradientUnits="userSpaceOnUse">
<stop stop-color="#6167F2"/>
<stop offset="0.483529" stop-color="#00B5EE"/>
<stop offset="1" stop-color="#55F5FF"/>
</linearGradient>
<linearGradient id="paint44_linear_52_4733" x1="24.033" y1="40.0069" x2="25.9836" y2="39.4843" gradientUnits="userSpaceOnUse">
<stop stop-color="#6167F2"/>
<stop offset="0.483529" stop-color="#00B5EE"/>
<stop offset="1" stop-color="#55F5FF"/>
</linearGradient>
<linearGradient id="paint45_linear_52_4733" x1="-2.08333" y1="25" x2="52.8646" y2="25" gradientUnits="userSpaceOnUse">
<stop stop-color="#6167F2"/>
<stop offset="0.483529" stop-color="#00B5EE"/>
<stop offset="1" stop-color="#55F5FF"/>
</linearGradient>
</defs>
</svg>
