<svg width="50" height="50" viewBox="0 0 50 50" fill="none" xmlns="http://www.w3.org/2000/svg">
<path d="M3.33716 1.18568C1.91252 1.52156 0.507404 2.98364 0.156124 4.48524C0.0585466 4.90016 0 14.1666 0 25.0928C0 41.1757 0.0390311 45.0878 0.253702 45.7003C0.683044 46.866 1.5027 47.8144 2.59557 48.3281L3.59086 48.8022H24.8823H46.1543L47.1886 48.2885C48.4376 47.6563 49.2377 46.5894 49.5305 45.2261C49.8232 43.843 49.8232 5.92757 49.5305 4.56428C49.3743 3.83324 49.0816 3.29977 48.4376 2.56873C46.9349 0.889305 48.4571 0.988098 24.7847 1.00785C13.3486 1.02761 3.68844 1.10664 3.33716 1.18568ZM46.9154 3.35905C48.0473 4.42598 47.9887 3.22074 47.9887 24.8952C47.9887 47.1623 48.0668 45.7793 46.6422 46.6684L45.9396 47.1228H24.8628C4.93743 47.1228 3.74698 47.1031 3.142 46.7672C2.79072 46.5696 2.32235 46.1349 2.12719 45.7793C1.7564 45.1668 1.73688 44.6333 1.73688 24.994C1.73688 6.16467 1.7564 4.80137 2.08816 4.18888C2.2638 3.83323 2.69315 3.3788 3.00539 3.16146C3.59086 2.76631 3.94214 2.76631 24.9994 2.80582L46.3884 2.8651L46.9154 3.35905Z" fill="url(#paint0_linear_52_4358)"/>
<path d="M15.9442 7.44893C15.6515 7.48845 15.2222 7.76506 15.0075 8.04167C14.6367 8.53561 14.6172 8.81223 14.6172 17.7033V26.8512L15.0856 27.4044C15.5344 27.9379 15.5734 27.9379 18.2471 28.0169L20.9402 28.0959L20.4133 27.4835C19.3009 26.1399 19.2229 25.5669 19.1643 16.4981L19.0862 8.19973L23.3016 12.4477L27.4974 16.6956V17.9206C27.4974 18.6122 27.4389 19.1654 27.3608 19.1654C27.2828 19.1654 25.7801 17.723 24.0432 15.9646L20.8622 12.7441V16.8932C20.8622 23.2157 21.272 25.8633 22.3844 26.9105C23.4577 27.9379 23.5748 27.9576 28.9221 28.0169L33.9376 28.0762L34.523 27.5032L35.1085 26.9105V17.9009C35.1085 11.7364 35.05 8.75295 34.8938 8.43682C34.5426 7.66627 34.0156 7.52796 31.381 7.46869L28.9221 7.40941L29.41 8.06142C30.4053 9.3852 30.4833 10.0965 30.5614 18.9678L30.6395 27.1673L26.4436 22.9194L22.2283 18.6714V17.3872V16.1029L25.5654 19.4617L28.9026 22.8206L28.805 17.5847C28.6684 10.3533 28.3366 8.93077 26.5217 7.90336C25.663 7.42917 25.5654 7.40941 21.0573 7.38966C18.5398 7.3699 16.237 7.38966 15.9442 7.44893Z" fill="url(#paint1_linear_52_4358)"/>
<path d="M31.7908 33.3713C29.566 33.8455 28.3756 35.7422 28.8634 38.0934C29.2538 39.8519 30.5223 40.7607 32.6299 40.7607C34.0936 40.7607 34.4449 40.5632 34.2692 39.8716C34.1522 39.4567 34.0741 39.4172 32.9617 39.4765C31.8493 39.5555 31.7517 39.516 31.1077 38.864C30.4832 38.2317 30.4247 38.0737 30.4247 37.0463C30.4247 36.0188 30.4832 35.8608 31.1077 35.2285C31.7517 34.5765 31.8493 34.537 32.9617 34.616C34.0741 34.6753 34.1326 34.6555 34.3083 34.1418C34.4254 33.8455 34.4449 33.5689 34.3668 33.5096C34.0546 33.3318 32.4153 33.2527 31.7908 33.3713Z" fill="url(#paint2_linear_52_4358)"/>
<path d="M15.593 37.0464V40.7017H16.4127H17.2128L17.0957 37.9356C17.0177 36.1178 17.0372 35.1892 17.1543 35.2682C17.2714 35.3275 17.3494 35.4856 17.3494 35.6239C17.3494 35.7424 17.9349 36.9279 18.657 38.2714L19.9645 40.7017H20.8037H21.6428V37.0464V33.3912H20.9598H20.2767V35.9598V38.5283L19.2034 36.4537C17.5836 33.3122 17.6617 33.3912 16.5493 33.3912H15.593V37.0464Z" fill="url(#paint3_linear_52_4358)"/>
<path d="M23.2041 37.0464V40.7017H23.9847H24.7653V39.2198V37.738H26.1314H27.4975V37.1452C27.4975 36.5723 27.4975 36.5723 26.19 36.513L24.8629 36.4537L24.8044 35.5053L24.7458 34.5767H26.2095H27.6927V33.984V33.3912H25.4484H23.2041V37.0464Z" fill="url(#paint4_linear_52_4358)"/>
<defs>
<linearGradient id="paint0_linear_52_4358" x1="-2.07292" y1="24.901" x2="52.6003" y2="24.901" gradientUnits="userSpaceOnUse">
<stop stop-color="#6167F2"/>
<stop offset="0.483529" stop-color="#00B5EE"/>
<stop offset="1" stop-color="#55F5FF"/>
</linearGradient>
<linearGradient id="paint1_linear_52_4358" x1="13.7634" y1="17.7391" x2="36.2825" y2="17.7391" gradientUnits="userSpaceOnUse">
<stop stop-color="#6167F2"/>
<stop offset="0.483529" stop-color="#00B5EE"/>
<stop offset="1" stop-color="#55F5FF"/>
</linearGradient>
<linearGradient id="paint2_linear_52_4358" x1="28.5192" y1="37.0378" x2="34.7379" y2="37.0378" gradientUnits="userSpaceOnUse">
<stop stop-color="#6167F2"/>
<stop offset="0.483529" stop-color="#00B5EE"/>
<stop offset="1" stop-color="#55F5FF"/>
</linearGradient>
<linearGradient id="paint3_linear_52_4358" x1="15.3409" y1="37.0464" x2="21.9894" y2="37.0464" gradientUnits="userSpaceOnUse">
<stop stop-color="#6167F2"/>
<stop offset="0.483529" stop-color="#00B5EE"/>
<stop offset="1" stop-color="#55F5FF"/>
</linearGradient>
<linearGradient id="paint4_linear_52_4358" x1="23.0171" y1="37.0464" x2="27.9498" y2="37.0464" gradientUnits="userSpaceOnUse">
<stop stop-color="#6167F2"/>
<stop offset="0.483529" stop-color="#00B5EE"/>
<stop offset="1" stop-color="#55F5FF"/>
</linearGradient>
</defs>
</svg>
