<svg width="60" height="60" viewBox="0 0 60 60" fill="none" xmlns="http://www.w3.org/2000/svg">
<path d="M37.5 7.5H22.5C20.5109 7.5 18.6032 8.29018 17.1967 9.6967C15.7902 11.1032 15 13.0109 15 15V25H17.5V15C17.5 13.6739 18.0268 12.4021 18.9645 11.4645C19.9021 10.5268 21.1739 10 22.5 10H37.5C38.8261 10 40.0979 10.5268 41.0355 11.4645C41.9732 12.4021 42.5 13.6739 42.5 15V47.5C42.5 48.8261 41.9732 50.0979 41.0355 51.0355C40.0979 51.9732 38.8261 52.5 37.5 52.5H22.5C21.1739 52.5 19.9021 51.9732 18.9645 51.0355C18.0268 50.0979 17.5 48.8261 17.5 47.5V37.5H15V47.5C15 49.4891 15.7902 51.3968 17.1967 52.8033C18.6032 54.2098 20.5109 55 22.5 55H37.5C39.4891 55 41.3968 54.2098 42.8033 52.8033C44.2098 51.3968 45 49.4891 45 47.5V15C45 13.0109 44.2098 11.1032 42.8033 9.6967C41.3968 8.29018 39.4891 7.5 37.5 7.5ZM7.5 30H33.125L25 21.875L26.66 20L37.91 31.25L26.66 42.5L25 40.625L33.125 32.5H7.5V30Z" fill="black"/>
</svg>
