<svg width="587" height="450" viewBox="0 0 587 450" fill="none" xmlns="http://www.w3.org/2000/svg">
<path d="M525.337 376.65C508.774 381.953 488.602 383.392 472.58 382.285C472.58 382.285 178.007 410.661 71.5287 381.568C-7.27701 360.036 2.2373 283.383 26.3537 234.32C50.7462 184.697 -13.2835 88.7794 89.6433 33.1574C148.845 1.16459 201.943 52.36 304.29 14.5672C396.691 -19.5553 515.881 10.9666 545.029 82.5293C565.081 131.76 539.802 184.83 565.081 210.552C606.071 252.27 587.221 356.832 525.337 376.65Z" fill="#87AEFF"/>
<path d="M253.674 392.518C253.651 392.518 253.63 392.516 253.607 392.514C253.424 392.479 253.303 392.305 253.338 392.121C262.207 344.36 271.304 310.332 278.951 296.303C279.12 295.992 279.243 295.767 279.287 295.656C279.354 295.482 279.551 295.398 279.723 295.466C279.897 295.533 279.981 295.73 279.913 295.902C279.853 296.053 279.737 296.268 279.542 296.626C271.928 310.592 262.857 344.55 254.001 392.244C253.969 392.404 253.83 392.516 253.674 392.518Z" fill="white"/>
<path d="M285.013 293.236C284.099 294.816 278.985 298.092 278.533 297.83C278.08 297.568 278.375 291.503 279.289 289.924C280.203 288.344 282.226 287.803 283.806 288.717C285.388 289.633 285.927 291.657 285.013 293.236Z" fill="white"/>
<path d="M275.06 298.823C275.788 300.545 275.315 306.737 274.823 306.946C274.331 307.154 269.557 303.18 268.831 301.459C268.102 299.737 268.907 297.754 270.629 297.025C272.348 296.297 274.331 297.102 275.06 298.823Z" fill="white"/>
<path d="M282.66 308.736C280.821 309.059 274.893 307.203 274.8 306.676C274.707 306.152 279.656 302.393 281.496 302.071C283.335 301.748 285.089 302.98 285.409 304.82C285.732 306.662 284.5 308.414 282.66 308.736Z" fill="white"/>
<path d="M262.518 331.204C264.045 333.944 264.374 344.365 263.592 344.801C262.81 345.237 254.124 339.47 252.598 336.73C251.071 333.99 252.055 330.533 254.795 329.007C257.535 327.482 260.991 328.466 262.518 331.204Z" fill="white"/>
<path d="M276.995 346.374C273.983 347.244 263.754 345.219 263.506 344.36C263.258 343.5 270.833 336.336 273.844 335.466C276.858 334.596 280.004 336.333 280.874 339.345C281.744 342.358 280.006 345.504 276.995 346.374Z" fill="white"/>
<path d="M255.672 343.652C258.231 346.511 261.432 358.862 260.618 359.593C259.801 360.324 247.879 355.779 245.32 352.921C242.761 350.062 243.004 345.668 245.863 343.109C248.721 340.55 253.113 340.792 255.672 343.652Z" fill="white"/>
<path d="M276.157 363.337C272.38 364.017 260.186 360.266 259.992 359.187C259.797 358.108 269.921 350.341 273.696 349.661C277.473 348.981 281.085 351.491 281.765 355.268C282.444 359.045 279.934 362.66 276.157 363.337Z" fill="white"/>
<path d="M252.298 359.28C254.857 362.138 258.059 374.49 257.245 375.221C256.428 375.952 244.505 371.407 241.946 368.549C239.388 365.69 239.631 361.299 242.489 358.737C245.348 356.178 249.739 356.42 252.298 359.28Z" fill="white"/>
<path d="M272.784 378.965C269.007 379.645 256.811 375.894 256.618 374.815C256.423 373.736 266.548 365.969 270.322 365.289C274.099 364.609 277.712 367.119 278.391 370.896C279.071 374.673 276.561 378.285 272.784 378.965Z" fill="white"/>
<path d="M243.366 379.427C246.821 381.095 254.486 391.296 254.01 392.282C253.535 393.268 240.78 393.609 237.323 391.939C233.868 390.271 232.418 386.116 234.086 382.661C235.757 379.207 239.912 377.759 243.366 379.427Z" fill="white"/>
<path d="M269.972 394.365C266.311 395.511 253.741 393.314 253.414 392.268C253.087 391.222 262.158 382.25 265.822 381.104C269.482 379.958 273.382 381.997 274.528 385.658C275.672 389.322 273.633 393.219 269.972 394.365Z" fill="white"/>
<path d="M271.202 308.899C271.942 310.646 271.462 316.94 270.961 317.151C270.462 317.363 265.611 313.326 264.871 311.577C264.13 309.83 264.949 307.811 266.696 307.073C268.446 306.336 270.462 307.152 271.202 308.899Z" fill="white"/>
<path d="M278.693 319.114C276.823 319.441 270.8 317.555 270.708 317.021C270.615 316.487 275.64 312.669 277.51 312.344C279.38 312.017 281.159 313.267 281.486 315.137C281.811 317.007 280.561 318.787 278.693 319.114Z" fill="white"/>
<path d="M266.576 318.372C267.826 320.761 267.879 329.728 267.197 330.083C266.515 330.44 259.177 325.29 257.924 322.9C256.674 320.511 257.595 317.562 259.985 316.309C262.374 315.061 265.325 315.984 266.576 318.372Z" fill="white"/>
<path d="M278.431 332.763C275.774 333.227 267.218 330.547 267.086 329.791C266.954 329.032 274.095 323.608 276.749 323.144C279.405 322.68 281.934 324.457 282.4 327.111C282.864 329.77 281.087 332.299 278.431 332.763Z" fill="white"/>
<path d="M168.739 413.069C168.778 413.074 168.82 413.074 168.862 413.069C169.196 413.037 169.439 412.737 169.407 412.403C160.698 325.16 149.497 262.58 137.871 236.192C137.614 235.605 137.426 235.183 137.365 234.977C137.268 234.654 136.929 234.473 136.609 234.568C136.287 234.666 136.106 235.002 136.201 235.325C136.284 235.605 136.463 236.011 136.76 236.684C148.337 262.956 159.503 325.406 168.198 412.524C168.224 412.816 168.456 413.039 168.739 413.069Z" fill="white"/>
<path d="M127.427 229.757C128.832 232.738 137.53 239.403 138.382 239.002C139.233 238.601 139.627 227.648 138.221 224.669C136.816 221.688 133.261 220.412 130.28 221.815C127.299 223.221 126.023 226.778 127.427 229.757Z" fill="white"/>
<path d="M144.481 241.313C142.91 244.296 142.822 255.509 143.676 255.957C144.527 256.404 153.717 249.983 155.287 246.999C156.858 244.015 155.712 240.324 152.728 238.754C149.743 237.183 146.052 238.329 144.481 241.313Z" fill="white"/>
<path d="M129.308 257.991C132.568 258.849 143.511 256.411 143.757 255.478C144.003 254.548 135.674 247.04 132.415 246.182C129.153 245.324 125.814 247.272 124.958 250.532C124.1 253.794 126.046 257.132 129.308 257.991Z" fill="white"/>
<path d="M162.129 301.454C158.969 306.15 156.795 324.842 158.134 325.745C159.473 326.647 175.973 317.592 179.132 312.897C182.292 308.201 181.046 301.835 176.351 298.675C171.657 295.513 165.289 296.759 162.129 301.454Z" fill="white"/>
<path d="M133.793 326.54C139.078 328.561 157.781 326.471 158.357 324.963C158.934 323.455 146.397 309.419 141.11 307.398C135.823 305.377 129.9 308.024 127.879 313.309C125.861 318.594 128.505 324.52 133.793 326.54Z" fill="white"/>
<path d="M172.553 324.877C167.516 329.63 159.886 351.359 161.243 352.796C162.6 354.234 184.733 347.868 189.77 343.114C194.806 338.36 195.036 330.424 190.282 325.387C185.524 320.353 177.59 320.123 172.553 324.877Z" fill="white"/>
<path d="M132.725 357.178C139.414 358.974 161.916 354.074 162.428 352.165C162.941 350.256 145.912 334.751 139.224 332.955C132.535 331.16 125.656 335.127 123.863 341.818C122.07 348.506 126.037 355.383 132.725 357.178Z" fill="white"/>
<path d="M176.251 353.494C171.214 358.248 163.584 379.977 164.939 381.413C166.296 382.851 188.429 376.485 193.465 371.731C198.502 366.978 198.732 359.041 193.978 354.004C189.222 348.97 181.288 348.74 176.251 353.494Z" fill="white"/>
<path d="M136.424 385.796C143.112 387.591 165.616 382.691 166.127 380.782C166.639 378.873 149.61 363.368 142.922 361.572C136.233 359.777 129.357 363.746 127.561 370.435C125.765 377.123 129.735 384 136.424 385.796Z" fill="white"/>
<path d="M189.262 391.085C182.794 393.563 167.461 410.745 168.168 412.591C168.876 414.438 191.765 416.983 198.231 414.505C204.699 412.028 207.933 404.778 205.455 398.31C202.98 391.844 195.728 388.607 189.262 391.085Z" fill="white"/>
<path d="M139.145 413.918C145.557 416.535 168.495 414.487 169.242 412.658C169.989 410.828 155.032 393.317 148.622 390.7C142.21 388.083 134.89 391.159 132.273 397.571C129.658 403.982 132.735 411.301 139.145 413.918Z" fill="white"/>
<path d="M149.893 260.022C148.297 263.054 148.209 274.445 149.074 274.9C149.94 275.355 159.278 268.831 160.872 265.798C162.468 262.766 161.303 259.017 158.271 257.421C155.239 255.827 151.487 256.992 149.893 260.022Z" fill="white"/>
<path d="M134.871 277.256C138.184 278.126 149.302 275.648 149.552 274.704C149.801 273.758 141.342 266.13 138.029 265.26C134.716 264.387 131.324 266.368 130.452 269.681C129.579 272.992 131.558 276.386 134.871 277.256Z" fill="white"/>
<path d="M156.777 277.76C154.165 281.866 152.712 297.985 153.884 298.73C155.056 299.475 169.038 291.325 171.648 287.218C174.261 283.112 173.047 277.665 168.941 275.055C164.834 272.44 159.389 273.651 156.777 277.76Z" fill="white"/>
<path d="M133.271 301.844C137.978 303.083 153.772 299.561 154.127 298.218C154.48 296.875 142.462 286.038 137.755 284.799C133.048 283.56 128.229 286.372 126.99 291.079C125.752 295.787 128.563 300.605 133.271 301.844Z" fill="white"/>
<path d="M407.968 266.717V540.428C404.669 540.442 401.375 540.447 398.087 540.451C396.41 540.451 394.735 540.451 393.062 540.447C391.139 540.447 389.215 540.442 387.294 540.435V266.717H407.968Z" fill="#06023B"/>
<path d="M528.589 266.716H384.666V184.09C384.666 144.346 416.884 112.128 456.628 112.128C496.371 112.128 528.589 144.346 528.589 184.09V266.716Z" fill="#FF6760"/>
<path d="M343.736 112.128H461.019V205.83H358.06L343.736 112.128Z" fill="#FF6760"/>
<path d="M415.698 266.716H271.772V184.09C271.772 144.346 303.99 112.128 343.734 112.128C383.478 112.128 415.696 144.346 415.696 184.09V266.716H415.698Z" fill="#E33A3A"/>
<path d="M407.952 258.397H279.519V184.665C279.519 149.199 308.271 120.447 343.736 120.447C379.202 120.447 407.954 149.199 407.954 184.665V258.397H407.952Z" fill="#BD0615"/>
<path d="M422.02 258.396H182.568V266.716H422.02V258.396Z" fill="#FF6760"/>
<path d="M221.684 97.3057C221.684 97.3057 218.774 110.611 220.63 114.891C222.484 119.172 229.484 130.888 229.776 135.866C229.866 137.416 229.739 149.508 227.335 151.784C225.709 153.324 220.396 150.165 220.345 144.014C220.257 133.324 215.654 128.227 212.879 124.408C208.147 117.896 205.919 113.857 206.759 117.404C206.759 117.404 210.94 127.911 211.673 132.778C211.87 134.094 211.638 144.645 209.165 146.26C207.829 147.135 202.586 145.907 202.017 136.414C201.644 130.175 197.298 127.166 193.781 123.714C190.737 120.726 178.084 114.455 178.084 114.455L189.197 100.194L221.684 97.3057Z" fill="#DB7665"/>
<path d="M235.678 114.077C235.678 114.077 247.116 130.897 249.619 138.386C250.623 141.39 252.985 151.545 250.948 153.955C247.586 157.932 240.949 151.944 238.947 142.583C236.961 133.293 226.11 128.461 220.204 123.542C205.516 111.314 196.665 103.957 196.665 103.957L235.678 114.077Z" fill="#EA8F7D"/>
<path d="M262.834 122.714C260.451 119.96 242.211 102.193 238.606 99.5462C229.709 93.0038 194.28 75.7755 187.656 72.9753C175.442 67.8086 145.244 74.3302 123.886 75.7152C123.757 75.7454 112.546 76.5898 99.4638 75.4948C95.6729 75.1862 91.7939 74.7246 88.3093 74.184C80.6324 88.8371 75.1966 102.479 71.4753 115.248C71.7584 120.12 72.1017 124.82 72.5101 129.358C77.5143 129.43 90.1467 129.623 95.1022 130.207C99.1181 130.678 105.208 130.572 110.625 132.117H110.63C110.632 132.119 110.635 132.119 110.637 132.117L110.642 132.119C114.305 133.163 117.653 134.963 119.847 138.209C124.128 144.524 136.983 151.83 143.804 155.268C154.875 160.913 164.029 163.987 164.176 164.042C172.388 167.007 184.206 173.886 190.431 178.951C192.255 180.475 197.094 184.391 199.535 186.17C200.934 187.2 204.576 189.845 206.295 189.931C208.191 190.029 210.993 184.546 211.23 181.356C211.292 180.47 211.114 179.398 210.896 178.547C209.481 172.394 201.702 165.392 196.906 161.261C192.408 157.342 186.835 153.424 182.207 147.308C179.418 143.517 177.803 140.181 176.808 135.156C176.01 131.105 175.85 126.885 179.74 122.032C180.209 121.452 181.552 119.505 183.675 117.362C184.111 117.262 192.932 106.168 206.246 112.077C210.687 114.06 216.106 114.631 220.89 115.48C220.893 115.48 220.893 115.482 220.895 115.48C225.844 116.359 230.358 117.561 233.152 120.951C236.232 124.688 240.722 127.767 244.731 130.579C246.71 131.966 246.626 131.92 246.649 131.926L246.652 131.929C250.405 134.585 254.301 137.501 257.864 141.232C266.557 150.322 273.172 147.856 274.35 142.796C274.986 140.058 264.669 124.834 262.834 122.714Z" fill="#F9A58F"/>
<path d="M365.412 168.725L326.747 252.33L183.207 185.951L221.869 102.345L267.529 178.053L279.301 183.496L365.412 168.725Z" fill="#F0F6FC"/>
<path d="M300.39 240.429L281.029 166.265L201.377 194.676L201.103 193.906L281.595 165.193L301.181 240.222L300.39 240.429Z" fill="#100259"/>
<path d="M273.923 185.475C270.759 185.454 267.766 183.758 266.151 180.953L221.162 102.753L222.579 101.937L267.569 180.137C269.111 182.821 272.197 184.264 275.248 183.728L365.271 167.917L365.554 169.53L275.531 185.341C274.995 185.433 274.457 185.48 273.923 185.475Z" fill="#100259"/>
<path d="M221.869 102.345L365.412 168.725L275.392 184.533C271.993 185.129 268.583 183.535 266.861 180.545L221.869 102.345Z" fill="#F0F6FC"/>
<path d="M270.23 171.386C270.248 168.449 272.251 164.034 275.188 164.055C278.125 164.073 282.941 167.305 282.92 170.242C282.902 173.179 279.477 176.358 276.54 176.337C273.601 176.318 270.211 174.323 270.23 171.386Z" fill="#FF6760"/>
<path d="M92.6198 69.9756L124.03 75.7454L110.658 132.121L81.4211 131.743L92.6198 69.9756Z" fill="white"/>
<path d="M9.44543 41.3193C11.1553 44.8759 0.518061 61.0324 0.422941 81.8776C0.316221 105.27 10.6356 133.437 10.7029 134.105C20.1824 133.973 87.4322 132.952 87.4322 132.952L87.6712 131.825V131.823V131.818L88.105 129.744V129.739H88.1027V129.737L99.4661 75.4976V75.4929L99.4707 75.4906L100.329 71.3865L101.113 67.649L9.44543 41.3193Z" fill="#8989EF"/>
<path d="M101.111 125.021C100.027 124.431 98.6702 124.833 98.081 125.916C97.4917 127 97.893 128.357 98.9765 128.946C100.06 129.535 101.417 129.134 102.006 128.051C102.596 126.967 102.194 125.61 101.111 125.021Z" fill="#0B0755"/>
<path d="M160.751 162.78C160.907 162.838 161.062 162.901 161.218 162.959C161.426 163.038 161.637 163.117 161.849 163.193C162.477 163.428 163.104 163.653 163.725 163.875C163.876 163.929 164.027 163.982 164.178 164.04C164.63 164.203 165.087 164.376 165.544 164.56C165.695 164.618 165.848 164.678 166.001 164.741C166.152 164.799 166.305 164.861 166.458 164.926C167.071 165.177 167.686 165.441 168.298 165.713C168.604 165.847 168.911 165.987 169.217 166.126C169.368 166.195 169.523 166.267 169.676 166.337C169.98 166.478 170.284 166.622 170.588 166.771C171.235 167.079 171.88 167.397 172.518 167.72C172.709 167.815 172.894 167.91 173.082 168.007C173.307 168.121 173.53 168.237 173.753 168.353C174.049 168.511 174.346 168.664 174.636 168.819C175.662 169.367 176.669 169.921 177.641 170.478C177.847 170.596 178.054 170.715 178.258 170.833C178.599 171.03 178.938 171.227 179.272 171.425C179.443 171.527 179.617 171.629 179.787 171.731C179.789 171.731 179.789 171.731 179.789 171.731C180.404 172.097 181.003 172.459 181.576 172.812C181.819 172.963 182.06 173.111 182.297 173.26C182.773 173.554 183.232 173.847 183.671 174.127C183.891 174.269 184.104 174.406 184.313 174.543C185.104 175.058 185.828 175.538 186.468 175.977C186.547 176.032 186.629 176.088 186.707 176.139C186.786 176.192 186.863 176.243 186.935 176.294C187.011 176.348 187.083 176.399 187.157 176.45C187.232 176.498 187.304 176.55 187.371 176.598C187.501 176.689 187.626 176.777 187.749 176.863C187.888 176.96 188.018 177.055 188.143 177.146C188.44 177.362 188.814 177.649 189.25 177.997C189.389 178.106 189.533 178.222 189.686 178.343C189.918 178.533 190.167 178.73 190.429 178.944C190.515 179.016 190.605 179.085 190.693 179.16C192.034 180.255 193.67 181.6 195.382 182.967C195.609 183.148 195.841 183.331 196.069 183.512C196.53 183.878 196.997 184.243 197.458 184.6C197.616 184.721 197.769 184.839 197.925 184.957C198.078 185.076 198.233 185.194 198.389 185.31C198.542 185.426 198.695 185.542 198.848 185.656C199.078 185.827 199.305 185.999 199.532 186.164C199.646 186.247 199.76 186.331 199.873 186.41C200.662 186.983 201.425 187.516 202.147 187.985C202.251 188.05 202.353 188.115 202.456 188.182C202.558 188.247 202.657 188.31 202.755 188.37C202.855 188.433 202.952 188.491 203.047 188.549C203.242 188.667 203.432 188.778 203.616 188.88C203.799 188.985 203.977 189.082 204.154 189.173C204.24 189.219 204.325 189.263 204.411 189.303C204.727 189.458 205.024 189.593 205.295 189.69C205.339 189.706 205.386 189.723 205.427 189.736C205.472 189.753 205.516 189.767 205.557 189.781C205.833 189.864 206.077 189.915 206.293 189.924C206.339 189.927 206.388 189.924 206.437 189.922C206.485 189.917 206.534 189.908 206.585 189.897C206.645 189.883 206.71 189.864 206.773 189.839C206.81 189.825 206.847 189.811 206.882 189.792C206.91 189.778 206.938 189.764 206.968 189.748C206.987 189.739 207.003 189.732 207.021 189.718C207.045 189.706 207.07 189.692 207.091 189.676C207.316 189.539 207.543 189.351 207.775 189.117C207.81 189.085 207.845 189.047 207.877 189.01C207.945 188.938 208.014 188.862 208.084 188.783C208.116 188.743 208.151 188.702 208.186 188.662C208.288 188.539 208.392 188.407 208.495 188.268C208.562 188.177 208.629 188.08 208.696 187.983C208.764 187.885 208.829 187.785 208.894 187.683L208.991 187.528C209.056 187.423 209.121 187.317 209.188 187.208C209.457 186.746 209.717 186.247 209.951 185.73C209.993 185.637 210.035 185.546 210.074 185.454C210.29 184.966 210.483 184.463 210.647 183.967C210.689 183.844 210.729 183.718 210.766 183.595C210.842 183.349 210.91 183.106 210.968 182.867C210.982 182.809 210.998 182.746 211.012 182.688C211.095 182.331 211.158 181.985 211.195 181.656C211.207 181.551 211.218 181.445 211.225 181.345C211.232 181.241 211.237 181.136 211.239 181.036C211.241 180.988 211.241 180.939 211.241 180.89C211.241 180.793 211.237 180.698 211.232 180.605C211.186 179.918 211.072 179.229 210.893 178.535C210.879 178.477 210.866 178.422 210.849 178.366C210.831 178.292 210.81 178.22 210.787 178.146L210.784 178.134C210.761 178.051 210.736 177.967 210.71 177.884C210.687 177.816 210.668 177.747 210.643 177.677C210.515 177.287 210.367 176.898 210.2 176.505C210.163 176.413 210.123 176.322 210.081 176.232C210.04 176.134 209.993 176.037 209.947 175.939C209.903 175.84 209.854 175.745 209.805 175.647C209.566 175.158 209.293 174.663 208.993 174.167C208.935 174.067 208.873 173.965 208.81 173.865C208.685 173.663 208.557 173.462 208.42 173.26C207.975 172.594 207.481 171.914 206.933 171.225C206.859 171.13 206.785 171.04 206.71 170.944C206.483 170.661 206.249 170.376 206.001 170.091C205.908 169.979 205.815 169.87 205.717 169.761C205.504 169.513 205.281 169.265 205.056 169.014C204.943 168.889 204.827 168.764 204.711 168.636C204.595 168.508 204.476 168.383 204.356 168.256C203.815 167.678 203.242 167.093 202.639 166.495C202.627 166.485 202.616 166.476 202.609 166.467C201.4 165.272 200.068 164.033 198.611 162.741C198.317 162.481 198.02 162.217 197.716 161.954C197.454 161.72 197.18 161.488 196.906 161.249C196.751 161.115 196.593 160.978 196.433 160.841C195.143 159.739 193.776 158.597 192.324 157.412C192.155 157.273 191.985 157.136 191.821 156.997C191.656 156.862 191.494 156.725 191.333 156.591C191.171 156.454 191.011 156.319 190.856 156.187C190.698 156.052 190.542 155.92 190.389 155.786C189.925 155.386 189.477 154.992 189.048 154.605C188.904 154.475 188.763 154.347 188.626 154.22C187.923 153.579 187.267 152.951 186.649 152.338C186.526 152.215 186.403 152.092 186.285 151.969C186.178 151.862 186.076 151.756 185.974 151.651C185.893 151.57 185.812 151.487 185.735 151.403C184.682 150.308 183.754 149.252 182.937 148.232C182.819 148.083 182.701 147.935 182.585 147.786C182.569 147.768 182.552 147.747 182.541 147.728C182.429 147.582 182.318 147.438 182.209 147.294C182.167 147.236 182.125 147.183 182.084 147.125C181.866 146.83 181.657 146.538 181.453 146.248C181.332 146.076 181.216 145.907 181.102 145.735C181.003 145.585 180.907 145.436 180.81 145.285C180.789 145.255 180.771 145.225 180.752 145.195C180.678 145.081 180.608 144.967 180.539 144.854C180.45 144.71 180.362 144.566 180.279 144.425C180.235 144.35 180.195 144.278 180.151 144.204L159.417 145.84L160.751 162.78Z" fill="#F9A58F"/>
</svg>
